<svg xmlns="http://www.w3.org/2000/svg" viewBox="0 0 500 500"><g id="freepik--background-complete--inject-123"><rect y="382.4" width="500" height="0.25" style="fill:#ebebeb"></rect><rect x="416.78" y="398.49" width="33.12" height="0.25" style="fill:#ebebeb"></rect><rect x="316.95" y="395.11" width="57.98" height="0.25" style="fill:#ebebeb"></rect><rect x="361.67" y="389.21" width="54.11" height="0.25" style="fill:#ebebeb"></rect><rect x="52.46" y="390.89" width="14.91" height="0.25" style="fill:#ebebeb"></rect><rect x="76.27" y="390.89" width="64.4" height="0.25" style="fill:#ebebeb"></rect><rect x="182" y="395.11" width="43.15" height="0.25" style="fill:#ebebeb"></rect><path d="M237,337.8H43.91a5.71,5.71,0,0,1-5.7-5.71V60.66A5.71,5.71,0,0,1,43.91,55H237a5.71,5.71,0,0,1,5.71,5.71V332.09A5.71,5.71,0,0,1,237,337.8ZM43.91,55.2a5.46,5.46,0,0,0-5.45,5.46V332.09a5.46,5.46,0,0,0,5.45,5.46H237a5.47,5.47,0,0,0,5.46-5.46V60.66A5.47,5.47,0,0,0,237,55.2Z" style="fill:#ebebeb"></path><path d="M453.31,337.8H260.21a5.72,5.72,0,0,1-5.71-5.71V60.66A5.72,5.72,0,0,1,260.21,55h193.1A5.71,5.71,0,0,1,459,60.66V332.09A5.71,5.71,0,0,1,453.31,337.8ZM260.21,55.2a5.47,5.47,0,0,0-5.46,5.46V332.09a5.47,5.47,0,0,0,5.46,5.46h193.1a5.47,5.47,0,0,0,5.46-5.46V60.66a5.47,5.47,0,0,0-5.46-5.46Z" style="fill:#ebebeb"></path><path d="M418.36,183.18a10.43,10.43,0,1,0,0-20.85h-1.28v20.85Z" style="fill:#e0e0e0"></path><circle cx="417.08" cy="172.75" r="10.43" style="fill:#f5f5f5"></circle><path d="M416,174.72a21,21,0,0,1-21-21V124.07a2,2,0,0,1,3.94,0v29.67a17.05,17.05,0,0,0,17,17,2,2,0,0,1,0,3.94Z" style="fill:#e0e0e0"></path><path d="M384.74,143.46h24.57c1.63,0,2.89-2.27,2.65-4.81l-2.11-23c-.51-5.48-3.49-9.55-7-9.55H391.22c-3.52,0-6.51,4.07-7,9.55l-2.12,23C381.86,141.19,383.11,143.46,384.74,143.46Z" style="fill:#f5f5f5"></path><rect x="70.89" y="102.34" width="135.7" height="250.8" transform="translate(277.47 455.47) rotate(180)" style="fill:#e6e6e6"></rect><rect x="67.87" y="102.34" width="135.7" height="250.8" transform="translate(271.44 455.47) rotate(180)" style="fill:#f5f5f5"></rect><rect x="16.4" y="165.3" width="238.64" height="124.87" transform="translate(363.46 92.02) rotate(90)" style="fill:#fff"></rect><rect x="-44.9" y="226.6" width="238.64" height="2.28" transform="translate(302.16 153.31) rotate(90)" style="fill:#e6e6e6"></rect><rect x="70.11" y="167.94" width="131.22" height="8.16" transform="translate(271.44 344.05) rotate(180)" style="fill:#f5f5f5"></rect><path d="M62,92.27H212.49a.84.84,0,0,1,.83.83h0a.84.84,0,0,1-.83.84H62a.84.84,0,0,1-.83-.84h0A.83.83,0,0,1,62,92.27Z" style="fill:#e6e6e6"></path><path d="M57,93.1a4.17,4.17,0,1,0,4.17-4.16A4.16,4.16,0,0,0,57,93.1Z" style="fill:#e6e6e6"></path><path d="M205.46,97.77h0a1.12,1.12,0,0,0,1.12-1.12V94.23a1.13,1.13,0,0,0-1.12-1.13h0a1.14,1.14,0,0,0-1.13,1.13v2.42A1.13,1.13,0,0,0,205.46,97.77Z" style="fill:#e6e6e6"></path><path d="M74.54,97.77h0a1.12,1.12,0,0,0,1.12-1.12V94.23a1.13,1.13,0,0,0-1.12-1.13h0a1.14,1.14,0,0,0-1.13,1.13v2.42A1.13,1.13,0,0,0,74.54,97.77Z" style="fill:#e6e6e6"></path><rect x="62.24" y="93.1" width="139.1" height="239.16" transform="translate(263.57 425.37) rotate(180)" style="fill:#e0e0e0;opacity:0.5"></rect><path d="M187.89,93.1a4.17,4.17,0,1,0,4.17-4.16A4.17,4.17,0,0,0,187.89,93.1Z" style="fill:#e6e6e6"></path><rect x="404.2" y="250.79" width="30.24" height="124.71" transform="translate(838.64 626.28) rotate(180)" style="fill:#f0f0f0"></rect><rect x="229.28" y="375.49" width="199.35" height="6.79" transform="translate(657.92 757.78) rotate(180)" style="fill:#f0f0f0"></rect><rect x="223.48" y="250.79" width="180.72" height="124.71" style="fill:#f5f5f5"></rect><path d="M392.83,328h-158V298.25h158Zm-156.94-1h155.9v-27.7H235.89Z" style="fill:#f0f0f0"></path><path d="M392.83,363.19h-158V333.4h158Zm-156.94-1h155.9V334.44H235.89Z" style="fill:#f0f0f0"></path><path d="M276.21,303.59h75.25a2.42,2.42,0,0,0,2.41-2.41h0a2.41,2.41,0,0,0-2.41-2.41H276.21a2.42,2.42,0,0,0-2.41,2.41h0A2.42,2.42,0,0,0,276.21,303.59Z" style="fill:#ebebeb"></path><path d="M392.83,292.88h-158V263.09h158Zm-156.94-1.05h155.9v-27.7H235.89Z" style="fill:#f0f0f0"></path><path d="M276.21,268.43h75.25a2.41,2.41,0,0,0,2.41-2.41h0a2.42,2.42,0,0,0-2.41-2.41H276.21A2.42,2.42,0,0,0,273.8,266h0A2.42,2.42,0,0,0,276.21,268.43Z" style="fill:#ebebeb"></path><path d="M276.21,338.74h75.25a2.41,2.41,0,0,0,2.41-2.41h0a2.42,2.42,0,0,0-2.41-2.41H276.21a2.42,2.42,0,0,0-2.41,2.41h0A2.42,2.42,0,0,0,276.21,338.74Z" style="fill:#ebebeb"></path><rect x="219.45" y="244.23" width="184.75" height="6.56" transform="translate(623.64 495.01) rotate(180)" style="fill:#f0f0f0"></rect><rect x="404.2" y="244.23" width="34.47" height="6.56" style="fill:#e6e6e6"></rect><rect x="275.72" y="100.8" width="87.34" height="99.09" transform="translate(638.78 300.68) rotate(180)" style="fill:#f0f0f0"></rect><rect x="268.58" y="100.8" width="93.21" height="99.09" transform="translate(630.36 300.68) rotate(180)" style="fill:#f5f5f5"></rect><rect x="273.44" y="111.55" width="83.47" height="77.59" transform="translate(465.52 -164.84) rotate(90)" style="fill:#fff"></rect><rect x="293.68" y="130.35" width="43.01" height="39.98" rx="7.69" transform="translate(465.52 -164.84) rotate(90)" style="fill:#f5f5f5"></rect></g><g id="freepik--Shadow--inject-123"><ellipse id="freepik--path--inject-123" cx="250" cy="416.24" rx="193.89" ry="11.32" style="fill:#f5f5f5"></ellipse></g><g id="freepik--Post--inject-123"><path d="M354.76,298.39h-.1c-5.39-.54-10.28-3.5-14.5-8.8-17.36-21.74-20.44-78.27-17.28-103.8a.91.91,0,0,1,1-.8.92.92,0,0,1,.8,1c-3,24.56.09,81.39,16.89,102.44,3.91,4.89,8.37,7.62,13.26,8.12a.92.92,0,0,1-.09,1.83Z" style="fill:#407BFF"></path><path d="M323.75,185.85c4.64-7.06,3.56-17.06.9-21.12C316.45,177.08,323.75,185.85,323.75,185.85Z" style="fill:#407BFF"></path><path d="M323.75,186.77a.9.9,0,0,1-.7-.33c-.08-.1-7.64-9.44.84-22.22a.9.9,0,0,1,.76-.41.94.94,0,0,1,.77.41c2.78,4.25,4.07,14.57-.9,22.13a.9.9,0,0,1-.71.41Zm.84-20.22c-5,8.6-2.37,15.09-.89,17.59A21.73,21.73,0,0,0,324.59,166.55Z" style="fill:#407BFF"></path><path d="M322.73,201.88c.3-8.12-6-16.68-10.57-19.31C311.55,196.8,322.73,201.88,322.73,201.88Z" style="fill:#407BFF"></path><path d="M322.73,202.8a.85.85,0,0,1-.38-.09c-.12-.05-11.73-5.5-11.1-20.18a.89.89,0,0,1,.47-.76.88.88,0,0,1,.9,0c4.71,2.72,11.35,11.46,11,20.13a.93.93,0,0,1-.92.89Zm-9.67-18.51a19.24,19.24,0,0,0,8.73,16C321.35,193.86,316.94,187.32,313.06,184.29Z" style="fill:#407BFF"></path><path d="M323.45,205.88c1.19-8,9-15.5,14-17.39C335.4,202.61,323.45,205.88,323.45,205.88Z" style="fill:#407BFF"></path><path d="M323.45,206.8a.93.93,0,0,1-.61-.23.94.94,0,0,1-.3-.82c1.28-8.59,9.42-16.16,14.56-18.12a.9.9,0,0,1,.89.15.89.89,0,0,1,.34.84,21.94,21.94,0,0,1-14.64,18.15Zm12.76-16.73c-4.37,2.39-9.91,8.14-11.53,14.39A19.79,19.79,0,0,0,336.21,190.07Z" style="fill:#407BFF"></path><path d="M323.66,221.86c1.2-8,9-15.5,14-17.39C335.61,218.59,323.66,221.86,323.66,221.86Z" style="fill:#407BFF"></path><path d="M323.66,222.78a.92.92,0,0,1-.9-1.05c1.27-8.59,9.41-16.16,14.55-18.12a.94.94,0,0,1,.9.14.93.93,0,0,1,.33.85,22,22,0,0,1-14.63,18.15A1,1,0,0,1,323.66,222.78Zm12.76-16.73c-4.37,2.39-9.91,8.14-11.53,14.39A19.77,19.77,0,0,0,336.42,206.05Z" style="fill:#407BFF"></path><path d="M324.36,235.6c1.2-8,9-15.5,14-17.39C336.31,232.33,324.36,235.6,324.36,235.6Z" style="fill:#407BFF"></path><path d="M324.36,236.52a.9.9,0,0,1-.6-.23.88.88,0,0,1-.3-.82c1.27-8.58,9.41-16.16,14.55-18.12a.92.92,0,0,1,.9.15.9.9,0,0,1,.33.84,21.93,21.93,0,0,1-14.63,18.15A1,1,0,0,1,324.36,236.52Zm12.76-16.73c-4.37,2.39-9.91,8.14-11.53,14.39A19.75,19.75,0,0,0,337.12,219.79Z" style="fill:#407BFF"></path><path d="M327.32,250.17c1.19-8,9-15.51,14-17.4C339.27,246.89,327.32,250.17,327.32,250.17Z" style="fill:#407BFF"></path><path d="M327.32,251.08a.92.92,0,0,1-.91-1.05c1.28-8.58,9.41-16.16,14.55-18.11a.89.89,0,0,1,.9.14.91.91,0,0,1,.34.84,21.92,21.92,0,0,1-14.64,18.15Zm12.76-16.73c-4.37,2.39-9.91,8.14-11.53,14.39A19.75,19.75,0,0,0,340.08,234.35Z" style="fill:#407BFF"></path><path d="M329.79,264.67c.69-8.09,8-15.89,12.86-18C341.51,260.88,329.79,264.67,329.79,264.67Z" style="fill:#407BFF"></path><path d="M329.79,265.59a1,1,0,0,1-.58-.2.9.9,0,0,1-.34-.79c.74-8.64,8.4-16.58,13.41-18.76a.91.91,0,0,1,.9.09.92.92,0,0,1,.38.82,21.45,21.45,0,0,1-13.49,18.8A.9.9,0,0,1,329.79,265.59Zm11.75-17.29c-4.22,2.57-9.4,8.58-10.62,14.91A19.32,19.32,0,0,0,341.54,248.3Z" style="fill:#407BFF"></path><path d="M335.48,278.76c-1.21-8.08,4.14-17,8.37-19.83C346.05,273.08,335.48,278.76,335.48,278.76Z" style="fill:#407BFF"></path><path d="M335.48,279.67a1,1,0,0,1-.41-.09.94.94,0,0,1-.5-.69c-1.29-8.64,4.36-17.74,8.77-20.72a.91.91,0,0,1,1.42.61c2.27,14.63-8.73,20.72-8.85,20.78A.81.81,0,0,1,335.48,279.67Zm7.66-19c-3.53,3.23-7.22,10-6.9,16.5C338.71,275.33,344,270.24,343.14,260.66Z" style="fill:#407BFF"></path><path d="M322.66,214.68c-2-8-10.61-15-15.76-16.64A22.4,22.4,0,0,0,322.66,214.68Z" style="fill:#407BFF"></path><path d="M322.66,215.6l-.19,0A23.56,23.56,0,0,1,306,198.26a.92.92,0,0,1,1.17-1.1c5.32,1.69,14.21,8.82,16.37,17.29a.92.92,0,0,1-.22.87A1,1,0,0,1,322.66,215.6Zm-14.36-16a21.38,21.38,0,0,0,13,13.71C319,207.19,312.9,201.77,308.3,199.59Z" style="fill:#407BFF"></path><path d="M322.62,230.16c-1-8.09-8.72-15.84-13.65-17.91A21.37,21.37,0,0,0,322.62,230.16Z" style="fill:#407BFF"></path><path d="M322.62,231.07a.84.84,0,0,1-.27,0,22.47,22.47,0,0,1-14.29-18.67.93.93,0,0,1,1.27-1c5.1,2.15,13.09,10,14.2,18.64a.91.91,0,0,1-.32.82A.89.89,0,0,1,322.62,231.07Zm-12.46-17.19a20.31,20.31,0,0,0,11.26,14.8C319.9,222.38,314.49,216.44,310.16,213.88Z" style="fill:#407BFF"></path><path d="M324.69,242.87c-3.34-7.66-13-13.64-18.34-14.65A23.87,23.87,0,0,0,324.69,242.87Z" style="fill:#407BFF"></path><path d="M324.69,243.79h-.09c-.54-.05-13.17-1.4-19.1-15.2a.94.94,0,0,1,.13-.94.91.91,0,0,1,.89-.32c5.52,1,15.46,7.05,19,15.18a.93.93,0,0,1-.1.91A.91.91,0,0,1,324.69,243.79ZM308,229.61a22.86,22.86,0,0,0,15,12C319.76,235.88,312.92,231.25,308,229.61Z" style="fill:#407BFF"></path><path d="M327.81,259.18c-4.61-7.19-15.16-11.94-20.63-12.29C315.2,259.53,327.81,259.18,327.81,259.18Z" style="fill:#407BFF"></path><path d="M327.67,260.1c-1.62,0-13.47-.43-21.26-12.72a.92.92,0,0,1,0-1,1,1,0,0,1,.85-.45c5.62.36,16.46,5.1,21.34,12.71a.92.92,0,0,1-.75,1.42Zm-18.55-12a24.82,24.82,0,0,0,16.8,10C321.7,252.87,314.22,249.14,309.12,248.09Z" style="fill:#407BFF"></path><path d="M332.19,272.92c-5.69-6.62-16.89-10.15-22.35-9.88C319.78,274.68,332.19,272.92,332.19,272.92Z" style="fill:#407BFF"></path><path d="M330.27,273.94c-4,0-13.29-1.12-21.12-10.3a.91.91,0,0,1-.15-1,.94.94,0,0,1,.8-.56c5.6-.27,17.06,3.2,23.09,10.2a.91.91,0,0,1,.16.92.94.94,0,0,1-.73.59A17.71,17.71,0,0,1,330.27,273.94ZM312,264a26,26,0,0,0,18.15,8.07C325.13,267.37,317.2,264.51,312,264Z" style="fill:#407BFF"></path><path d="M338.1,285.31c-7.26-5.43-19.06-6.82-24.3-5.55C326.48,289.33,338.1,285.31,338.1,285.31Z" style="fill:#407BFF"></path><path d="M331.8,287.09a30.57,30.57,0,0,1-18.55-6.59.92.92,0,0,1,.33-1.63c5.39-1.3,17.41,0,25.07,5.71a.92.92,0,0,1,.36.87.93.93,0,0,1-.61.73A21.91,21.91,0,0,1,331.8,287.09Zm-15.62-6.77c8.45,5.56,16.17,5.17,19.66,4.57A35.9,35.9,0,0,0,316.18,280.32Z" style="fill:#407BFF"></path><path d="M320.22,60.58,156,73.69a24.64,24.64,0,0,0-22.58,26.49L152.8,343.29a24.64,24.64,0,0,0,26.49,22.58l164.25-13.11a24.64,24.64,0,0,0,22.58-26.49L346.72,83.15A24.64,24.64,0,0,0,320.22,60.58ZM156.77,83.65,321,70.54A14.62,14.62,0,0,1,336.75,84l16,200.08A11.67,11.67,0,0,1,342,296.59L171.89,310.17a11.67,11.67,0,0,1-12.56-10.7l-16-200.09A14.62,14.62,0,0,1,156.77,83.65Z" style="fill:#407BFF"></path><path d="M320.22,60.58,156,73.69a24.64,24.64,0,0,0-22.58,26.49L152.8,343.29a24.64,24.64,0,0,0,26.49,22.58l164.25-13.11a24.64,24.64,0,0,0,22.58-26.49L346.72,83.15A24.64,24.64,0,0,0,320.22,60.58ZM156.77,83.65,321,70.54A14.62,14.62,0,0,1,336.75,84l16,200.08A11.67,11.67,0,0,1,342,296.59L171.89,310.17a11.67,11.67,0,0,1-12.56-10.7l-16-200.09A14.62,14.62,0,0,1,156.77,83.65Z" style="fill:#fff;opacity:0.7000000000000001"></path><path d="M191.93,327.14a6,6,0,0,0-8.5.68A6,6,0,1,0,175.6,337l9.18,7.83,7.83-9.18A6,6,0,0,0,191.93,327.14Z" style="fill:#fff"></path><path d="M225.58,336.84a9.27,9.27,0,0,0,.89-4.78,9.41,9.41,0,1,0-8.63,10.13,9.3,9.3,0,0,0,4.58-1.63l4.8.88Z" style="fill:#fff"></path><path d="M138.26,148.35l-.16,0a.74.74,0,0,1-.56-.89c4.52-20.33,22.2-62.61,41.34-74.49,4.66-2.89,9.19-3.83,13.46-2.78a.75.75,0,0,1-.36,1.45c-3.86-1-8-.08-12.32,2.59-18.52,11.5-36.32,54-40.67,73.55A.76.76,0,0,1,138.26,148.35Z" style="fill:#407BFF"></path><path d="M138.23,147.62c1.62,6.65-1.92,14-5,16.36C130.28,152.33,138.23,147.62,138.23,147.62Z" style="fill:#407BFF"></path><path d="M133.18,164.72a.73.73,0,0,1-.25,0,.75.75,0,0,1-.47-.52c-3-12,5.3-17.13,5.39-17.17a.7.7,0,0,1,.66-.05.75.75,0,0,1,.44.51c1.73,7.11-2,14.64-5.32,17.12A.74.74,0,0,1,133.18,164.72Zm4.54-15.81c-1.8,1.51-5.61,5.73-4.09,13.66A17.58,17.58,0,0,0,137.72,148.91Z" style="fill:#407BFF"></path><path d="M141.79,135.12c-2,6.27-9.12,11.09-13.3,11.86C131.89,136,141.79,135.12,141.79,135.12Z" style="fill:#407BFF"></path><path d="M128.49,147.72a.73.73,0,0,1-.55-.25.76.76,0,0,1-.16-.71,17.15,17.15,0,0,1,13.95-12.38.75.75,0,0,1,.64.27.73.73,0,0,1,.13.69c-2.1,6.7-9.54,11.57-13.87,12.37Zm12.16-11.65a15.37,15.37,0,0,0-11,9.84C133.43,144.65,138.58,140.85,140.65,136.07Z" style="fill:#407BFF"></path><path d="M143.43,132.26c-1.27,6.46,2.67,14.27,5.94,17.06A16.86,16.86,0,0,0,143.43,132.26Z" style="fill:#407BFF"></path><path d="M149.37,150.06a.7.7,0,0,1-.48-.18c-3.39-2.88-7.55-10.87-6.19-17.76a.74.74,0,0,1,.45-.55.78.78,0,0,1,.71.08,17.76,17.76,0,0,1,6.24,17.81.77.77,0,0,1-.49.56A.67.67,0,0,1,149.37,150.06ZM144,133.68c-.46,5.2,2.21,11.1,4.89,14.1A16,16,0,0,0,144,133.68Z" style="fill:#407BFF"></path><path d="M147.93,120.13c-1.27,6.46,2.66,14.27,5.93,17.06A16.86,16.86,0,0,0,147.93,120.13Z" style="fill:#407BFF"></path><path d="M153.86,137.93a.74.74,0,0,1-.48-.18c-3.39-2.88-7.54-10.87-6.18-17.76a.74.74,0,0,1,.45-.55.76.76,0,0,1,.7.08,17.74,17.74,0,0,1,6.24,17.81.74.74,0,0,1-.48.56A.69.69,0,0,1,153.86,137.93Zm-5.38-16.38c-.46,5.2,2.2,11.1,4.89,14.1A16,16,0,0,0,148.48,121.55Z" style="fill:#407BFF"></path><path d="M152.19,109.84c-1.27,6.46,2.67,14.27,5.94,17A16.85,16.85,0,0,0,152.19,109.84Z" style="fill:#407BFF"></path><path d="M158.13,127.64a.7.7,0,0,1-.48-.18c-3.39-2.89-7.55-10.87-6.19-17.77a.75.75,0,0,1,.45-.54.73.73,0,0,1,.71.08A17.76,17.76,0,0,1,158.86,127a.77.77,0,0,1-.49.56A1,1,0,0,1,158.13,127.64Zm-5.39-16.38c-.46,5.2,2.21,11.09,4.89,14.1A16,16,0,0,0,152.74,111.26Z" style="fill:#407BFF"></path><path d="M158.4,99.53c-1.28,6.46,2.66,14.27,5.93,17.06A16.86,16.86,0,0,0,158.4,99.53Z" style="fill:#407BFF"></path><path d="M164.33,117.33a.74.74,0,0,1-.48-.18c-3.39-2.88-7.54-10.87-6.18-17.76a.74.74,0,0,1,1.15-.47,17.76,17.76,0,0,1,6.24,17.82.74.74,0,0,1-.48.55A.73.73,0,0,1,164.33,117.33ZM159,101c-.46,5.21,2.2,11.1,4.89,14.11A16,16,0,0,0,159,101Z" style="fill:#407BFF"></path><path d="M164.21,89.13c-1.66,6.36,1.82,14.31,4.93,17.22C172.12,95.21,164.21,89.13,164.21,89.13Z" style="fill:#407BFF"></path><path d="M169.14,107.09a.76.76,0,0,1-.51-.2c-3.23-3-6.92-11.15-5.14-17.94a.78.78,0,0,1,.48-.52.74.74,0,0,1,.7.12,17.36,17.36,0,0,1,5.19,18,.76.76,0,0,1-.51.53A.75.75,0,0,1,169.14,107.09Zm-4.46-16.53c-.79,5.16,1.54,11.15,4.06,14.26A15.63,15.63,0,0,0,164.68,90.56Z" style="fill:#407BFF"></path><path d="M172.38,79.94c-3.12,5.83-1.45,14.06,1,17.4C178.9,87.14,172.38,79.94,172.38,79.94Z" style="fill:#407BFF"></path><path d="M173.38,98.08a.73.73,0,0,1-.59-.3c-2.56-3.48-4.4-12-1.07-18.19a.78.78,0,0,1,.57-.39.75.75,0,0,1,.64.24c.07.08,6.81,7.71,1.11,18.25a.76.76,0,0,1-.6.39Zm-.85-16.72c-2,4.84-1,11,.78,14.46A14.4,14.4,0,0,0,172.53,81.36Z" style="fill:#407BFF"></path><path d="M145.22,125.34c-3.72,5.52-12.17,8.56-16.54,8.41A18.14,18.14,0,0,1,145.22,125.34Z" style="fill:#407BFF"></path><path d="M129,134.5h-.34a.74.74,0,0,1-.63-.41.72.72,0,0,1,0-.75,19.07,19.07,0,0,1,17.25-8.74.71.71,0,0,1,.58.43.72.72,0,0,1-.06.72C142,131.48,133.59,134.5,129,134.5ZM143.77,126a17.32,17.32,0,0,0-13.6,6.94C134.27,132.54,140.37,130.05,143.77,126Z" style="fill:#407BFF"></path><path d="M149.38,113.52c-3,5.88-10.95,9.71-15.27,10A17.29,17.29,0,0,1,149.38,113.52Z" style="fill:#407BFF"></path><path d="M134.11,124.22a.75.75,0,0,1-.62-.33.77.77,0,0,1,0-.75,18.2,18.2,0,0,1,16-10.36.76.76,0,0,1,.62.36.79.79,0,0,1,0,.72c-3.19,6.27-11.42,10.11-15.89,10.36Zm13.95-9.9a16.43,16.43,0,0,0-12.59,8.23C139.46,121.78,145.2,118.71,148.06,114.32Z" style="fill:#407BFF"></path><path d="M154.41,104.38c-4.63,4.94-13.61,6.88-18,6.2A19.34,19.34,0,0,1,154.41,104.38Z" style="fill:#407BFF"></path><path d="M138.35,111.46a13.73,13.73,0,0,1-2-.14.74.74,0,0,1-.43-1.24,19.91,19.91,0,0,1,18.69-6.42.75.75,0,0,1,.53.52.74.74,0,0,1-.17.71C150.69,109.44,143.2,111.46,138.35,111.46ZM138.1,110c4.18.07,10.66-1.59,14.72-5.09A18.5,18.5,0,0,0,138.1,110Z" style="fill:#407BFF"></path><path d="M161.21,92.79c-5.46,4.23-14.8,5-19.06,3.78A20.46,20.46,0,0,1,161.21,92.79Z" style="fill:#407BFF"></path><path d="M146.75,97.84a18.15,18.15,0,0,1-4.81-.56.72.72,0,0,1-.52-.57.76.76,0,0,1,.27-.73c9.77-7.63,19.39-4,19.79-3.88a.74.74,0,0,1,.47.58.75.75,0,0,1-.28.7C157.53,96.58,151.47,97.84,146.75,97.84ZM144,96.18c4.18.58,10.89-.23,15.54-3.1A20.07,20.07,0,0,0,144,96.18Z" style="fill:#407BFF"></path><path d="M168.29,83.5c-6.15,3.5-15.64,3.16-19.73,1.47C159.3,78.79,168.29,83.5,168.29,83.5Z" style="fill:#407BFF"></path><path d="M156.5,87a23.07,23.07,0,0,1-8.22-1.3.76.76,0,0,1-.46-.64.73.73,0,0,1,.37-.69c11-6.32,20.06-1.69,20.44-1.49a.77.77,0,0,1,.4.65.76.76,0,0,1-.38.66A25.24,25.24,0,0,1,156.5,87Zm-6-2.16a27.35,27.35,0,0,0,16-1.22A21.08,21.08,0,0,0,150.46,84.8Z" style="fill:#407BFF"></path><path d="M176.15,75.65c-7,2.17-16.39,0-20-2.36C168.38,69.43,176.15,75.65,176.15,75.65Z" style="fill:#407BFF"></path><path d="M169.57,77.31c-5.65,0-11.2-1.66-13.86-3.4a.74.74,0,0,1,.18-1.33c12.51-3.93,20.4,2.23,20.73,2.49a.75.75,0,0,1,.26.72.74.74,0,0,1-.51.57A23,23,0,0,1,169.57,77.31Zm-11.49-3.8a29.14,29.14,0,0,0,16.23,1.85A22.29,22.29,0,0,0,158.08,73.51Z" style="fill:#407BFF"></path><path d="M354.76,298.39h-.1c-5.39-.54-10.28-3.5-14.5-8.8-17.36-21.74-20.44-78.27-17.28-103.8a.91.91,0,0,1,1-.8.92.92,0,0,1,.8,1c-3,24.56.09,81.39,16.89,102.44,3.91,4.89,8.37,7.62,13.26,8.12a.92.92,0,0,1-.09,1.83Z" style="fill:#407BFF"></path><path d="M323.75,185.85c4.64-7.06,3.56-17.06.9-21.12C316.45,177.08,323.75,185.85,323.75,185.85Z" style="fill:#407BFF"></path><path d="M323.75,186.77a.9.9,0,0,1-.7-.33c-.08-.1-7.64-9.44.84-22.22a.9.9,0,0,1,.76-.41.94.94,0,0,1,.77.41c2.78,4.25,4.07,14.57-.9,22.13a.9.9,0,0,1-.71.41Zm.84-20.22c-5,8.6-2.37,15.09-.89,17.59A21.73,21.73,0,0,0,324.59,166.55Z" style="fill:#407BFF"></path><path d="M322.73,201.88c.3-8.12-6-16.68-10.57-19.31C311.55,196.8,322.73,201.88,322.73,201.88Z" style="fill:#407BFF"></path><path d="M322.73,202.8a.85.85,0,0,1-.38-.09c-.12-.05-11.73-5.5-11.1-20.18a.89.89,0,0,1,.47-.76.88.88,0,0,1,.9,0c4.71,2.72,11.35,11.46,11,20.13a.93.93,0,0,1-.92.89Zm-9.67-18.51a19.24,19.24,0,0,0,8.73,16C321.35,193.86,316.94,187.32,313.06,184.29Z" style="fill:#407BFF"></path><path d="M323.45,205.88c1.19-8,9-15.5,14-17.39C335.4,202.61,323.45,205.88,323.45,205.88Z" style="fill:#407BFF"></path><path d="M323.45,206.8a.93.93,0,0,1-.61-.23.94.94,0,0,1-.3-.82c1.28-8.59,9.42-16.16,14.56-18.12a.9.9,0,0,1,.89.15.89.89,0,0,1,.34.84,21.94,21.94,0,0,1-14.64,18.15Zm12.76-16.73c-4.37,2.39-9.91,8.14-11.53,14.39A19.79,19.79,0,0,0,336.21,190.07Z" style="fill:#407BFF"></path><path d="M323.66,221.86c1.2-8,9-15.5,14-17.39C335.61,218.59,323.66,221.86,323.66,221.86Z" style="fill:#407BFF"></path><path d="M323.66,222.78a.92.92,0,0,1-.9-1.05c1.27-8.59,9.41-16.16,14.55-18.12a.94.94,0,0,1,.9.14.93.93,0,0,1,.33.85,22,22,0,0,1-14.63,18.15A1,1,0,0,1,323.66,222.78Zm12.76-16.73c-4.37,2.39-9.91,8.14-11.53,14.39A19.77,19.77,0,0,0,336.42,206.05Z" style="fill:#407BFF"></path><path d="M324.36,235.6c1.2-8,9-15.5,14-17.39C336.31,232.33,324.36,235.6,324.36,235.6Z" style="fill:#407BFF"></path><path d="M324.36,236.52a.9.9,0,0,1-.6-.23.88.88,0,0,1-.3-.82c1.27-8.58,9.41-16.16,14.55-18.12a.92.92,0,0,1,.9.15.9.9,0,0,1,.33.84,21.93,21.93,0,0,1-14.63,18.15A1,1,0,0,1,324.36,236.52Zm12.76-16.73c-4.37,2.39-9.91,8.14-11.53,14.39A19.75,19.75,0,0,0,337.12,219.79Z" style="fill:#407BFF"></path><path d="M322.66,214.68c-2-8-10.61-15-15.76-16.64A22.4,22.4,0,0,0,322.66,214.68Z" style="fill:#407BFF"></path><path d="M322.66,215.6l-.19,0A23.56,23.56,0,0,1,306,198.26a.92.92,0,0,1,1.17-1.1c5.32,1.69,14.21,8.82,16.37,17.29a.92.92,0,0,1-.22.87A1,1,0,0,1,322.66,215.6Zm-14.36-16a21.38,21.38,0,0,0,13,13.71C319,207.19,312.9,201.77,308.3,199.59Z" style="fill:#407BFF"></path><path d="M322.62,230.16c-1-8.09-8.72-15.84-13.65-17.91A21.37,21.37,0,0,0,322.62,230.16Z" style="fill:#407BFF"></path><path d="M322.62,231.07a.84.84,0,0,1-.27,0,22.47,22.47,0,0,1-14.29-18.67.93.93,0,0,1,1.27-1c5.1,2.15,13.09,10,14.2,18.64a.91.91,0,0,1-.32.82A.89.89,0,0,1,322.62,231.07Zm-12.46-17.19a20.31,20.31,0,0,0,11.26,14.8C319.9,222.38,314.49,216.44,310.16,213.88Z" style="fill:#407BFF"></path></g><g id="freepik--Icon--inject-123"><rect x="321.26" y="91.08" width="64.57" height="46.06" rx="9.36" style="fill:#407BFF"></rect><path d="M376.48,137.73H330.62a10,10,0,0,1-9.94-9.94V100.44a10,10,0,0,1,9.94-9.94h45.86a10,10,0,0,1,9.94,9.94v27.35A10,10,0,0,1,376.48,137.73ZM330.62,91.66a8.79,8.79,0,0,0-8.78,8.78v27.35a8.79,8.79,0,0,0,8.78,8.78h45.86a8.79,8.79,0,0,0,8.78-8.78V100.44a8.79,8.79,0,0,0-8.78-8.78Z" style="fill:#407BFF"></path><polygon points="363.41 114.11 345.57 103.81 345.57 124.41 363.41 114.11" style="fill:#fff"></polygon></g><g id="freepik--speech-bubble--inject-123"><rect x="98.33" y="205.59" width="93.78" height="59.08" rx="12" style="fill:#407BFF"></rect><path d="M180.11,265.42H110.33a12.76,12.76,0,0,1-12.74-12.75V217.59a12.75,12.75,0,0,1,12.74-12.74h69.78a12.75,12.75,0,0,1,12.74,12.74v35.08A12.76,12.76,0,0,1,180.11,265.42Zm-69.78-59.09a11.27,11.27,0,0,0-11.26,11.26v35.08a11.27,11.27,0,0,0,11.26,11.26h69.78a11.27,11.27,0,0,0,11.25-11.26V217.59a11.27,11.27,0,0,0-11.25-11.26Z" style="fill:#407BFF"></path><polygon points="149.59 248.86 181.22 280.49 181.22 248.86 149.59 248.86" style="fill:#407BFF"></polygon><path d="M181.22,281.23a.71.71,0,0,1-.53-.22l-31.63-31.62a.76.76,0,0,1-.16-.81.75.75,0,0,1,.69-.46h31.63a.74.74,0,0,1,.74.74v31.63a.75.75,0,0,1-.46.69A.92.92,0,0,1,181.22,281.23ZM151.38,249.6l29.09,29.1V249.6Z" style="fill:#407BFF"></path><circle cx="145.22" cy="239.13" r="7.52" style="fill:#fff"></circle><circle cx="165.22" cy="235.13" r="7.52" style="fill:#fff"></circle><circle cx="125.22" cy="231.13" r="7.52" style="fill:#fff"></circle></g></svg>