<?xml version="1.0" encoding="utf-8"?>
<!-- Uploaded to SVGRepo https://www.svgrepo.com -->
<svg version="1.1" id="Trophy_x5F_cup" xmlns="http://www.w3.org/2000/svg" xmlns:xlink="http://www.w3.org/1999/xlink" x="0px"
	 y="0px" width="256px" height="256px" viewBox="0 0 256 256" enable-background="new 0 0 256 256" xml:space="preserve">
<path d="M190.878,111.272c31.017-11.186,53.254-40.907,53.254-75.733l-0.19-8.509h-48.955V5H64.222v22.03H15.266l-0.19,8.509
	c0,34.825,22.237,64.546,53.254,75.733c7.306,18.421,22.798,31.822,41.878,37.728v20c-0.859,15.668-14.112,29-30,29v18h-16v35H195
	v-35h-16v-18c-15.888,0-29.141-13.332-30-29v-20C168.08,143.094,183.572,129.692,190.878,111.272z M195,44h30.563
	c-0.06,0.427-0.103,1.017-0.171,1.441c-3.02,18.856-14.543,34.681-30.406,44.007C195.026,88.509,195,44,195,44z M33.816,45.441
	c-0.068-0.424-0.111-1.014-0.171-1.441h30.563c0,0-0.026,44.509,0.013,45.448C48.359,80.122,36.837,64.297,33.816,45.441z
	 M129.604,86.777l-20.255,13.52l6.599-23.442L96.831,61.77l24.334-0.967l8.44-22.844l8.44,22.844l24.334,0.967L143.26,76.856
	l6.599,23.442L129.604,86.777z"/>
</svg>
