<svg xmlns="http://www.w3.org/2000/svg" viewBox="0 0 500 500"><g id="freepik--background-complete--inject-9"><path d="M263.38,196a21.46,21.46,0,0,1,5.21-2.27l1.08-5.16,8.71-.15,1.26,5.12a21.33,21.33,0,0,1,5.29,2.08l4.4-2.89,6.28,6.06-2.74,4.5a21.08,21.08,0,0,1,2.27,5.21l5.16,1.08.15,8.71-5.12,1.26a21.18,21.18,0,0,1-2.08,5.29l2.89,4.4-6.05,6.28-4.51-2.73a21.42,21.42,0,0,1-5.21,2.26l-1.08,5.16-8.71.15-1.26-5.12a21.48,21.48,0,0,1-5.29-2.08l-4.4,2.89L253.36,230l2.73-4.51a21.08,21.08,0,0,1-2.27-5.21l-5.16-1.08-.15-8.71,5.12-1.26a21.48,21.48,0,0,1,2.08-5.29l-2.89-4.4,6.06-6.27,4.5,2.73ZM268,207.64a9.35,9.35,0,1,0,13.22-.23A9.34,9.34,0,0,0,268,207.64Z" style="fill:#ebebeb"></path><path d="M410.93,207.23a14.08,14.08,0,0,1,3.43-1.5l.71-3.39,5.73-.1.83,3.37a13.77,13.77,0,0,1,3.48,1.37l2.89-1.9,4.13,4-1.8,3a13.67,13.67,0,0,1,1.49,3.43l3.4.71.1,5.73-3.37.83a13.77,13.77,0,0,1-1.37,3.48l1.9,2.9-4,4.12-3-1.79a14.44,14.44,0,0,1-3.43,1.49l-.71,3.39-5.73.1-.83-3.37a13.77,13.77,0,0,1-3.48-1.37l-2.9,1.9-4.12-4,1.79-3a14.44,14.44,0,0,1-1.49-3.43l-3.39-.71-.1-5.73,3.37-.83a14.13,14.13,0,0,1,1.36-3.48l-1.9-2.9,4-4.12,3,1.8Zm3.06,7.63a6.15,6.15,0,1,0,8.7-.15A6.16,6.16,0,0,0,414,214.86Z" style="fill:#f5f5f5"></path><path d="M419.08,140.61a26.26,26.26,0,0,1,6.4-2.78l1.32-6.34,10.72-.19,1.54,6.29a26.33,26.33,0,0,1,6.5,2.56L451,136.6l7.71,7.44-3.36,5.54a26.29,26.29,0,0,1,2.79,6.4l6.33,1.32.19,10.71-6.29,1.55a26.08,26.08,0,0,1-2.55,6.49l3.55,5.42-7.45,7.71-5.53-3.36A26.32,26.32,0,0,1,440,188.6l-1.32,6.34-10.71.19-1.54-6.29a25.94,25.94,0,0,1-6.5-2.56l-5.41,3.55-7.71-7.44,3.36-5.53a26,26,0,0,1-2.79-6.41L401,169.13l-.19-10.71,6.29-1.54a26.57,26.57,0,0,1,2.56-6.5L406.1,145l7.44-7.71,5.54,3.35Zm5.71,14.27A11.5,11.5,0,1,0,441,154.6,11.51,11.51,0,0,0,424.79,154.88Z" style="fill:#f5f5f5"></path><path d="M279.38,432a37.53,37.53,0,1,0-63.39,1l-4.94,8.08,28.07,17.16s2.94-4.43,5.48-8.43A37.55,37.55,0,0,0,279.38,432Z" style="fill:#e0e0e0"></path><path d="M222.22,447.65c6.29-10.64,13.29-20.84,19.34-31.62,1.24-2.2,2.44-4.43,3.46-6.75,1.28-2.91,2.21-6.41.21-9.24s-5.19-2.5-7.7-.76a16.07,16.07,0,0,0-5.48,7.15,16.91,16.91,0,0,0,2.88,17.62,17.12,17.12,0,0,0,16.85,5.32c5.7-1.49,11.08-6.27,12.34-12.18.51-2.42.3-5.45-1.66-7.2-2.4-2.13-5.56-.92-7.72.89-2.44,2.06-4.31,4.91-6.17,7.49-2.11,2.92-4.13,5.92-6.13,8.94-4.08,6.19-8,12.49-12.09,18.69-.94,1.42-1.88,2.84-2.84,4.24-.45.67.63,1.29,1.08.63,7.17-10.52,13.6-21.54,21.06-31.87a44.29,44.29,0,0,1,5.51-6.83,6.6,6.6,0,0,1,4.28-2.09,3.61,3.61,0,0,1,3.3,2.57c1.95,5.48-3,11.47-7.48,14a15.68,15.68,0,0,1-23-16.54,16.25,16.25,0,0,1,3.78-7.8c2.14-2.38,6.35-4.94,8.46-1,1.58,2.93,0,6.35-1.33,9.05-1,2-2,3.89-3.09,5.79-6,10.52-12.8,20.52-18.94,30.93a.62.62,0,0,0,1.07.63Z" style="fill:#ebebeb"></path><g id="freepik--2ggvdetif--inject-9"><path d="M208.92,462.22a10,10,0,0,1,.84,2.75,2.22,2.22,0,0,0,1.06,1.62l5.65,3.45a2.22,2.22,0,0,0,2.09.13,4.13,4.13,0,0,1,2.85-.32Z" style="fill:#e0e0e0"></path></g><path d="M212.41,442.76c-.07.11-4.14,9.74-5.7,13.42a4.86,4.86,0,0,0,.38,4.62,4.55,4.55,0,0,0,1.39,1.33l12.36,7.55s3.23,2,5.53-.14,10.35-11.94,10.35-11.94Z" style="fill:#e0e0e0"></path><rect x="216.73" y="448.32" width="1.51" height="26.66" rx="0.72" transform="translate(-290.06 408.5) rotate(-58.8)" style="fill:#e0e0e0"></rect><path d="M227.88,468.84a.9.9,0,0,0,.53.05.7.7,0,0,0,.48-.41.68.68,0,0,0-.13-.8c-1.16-.73-2.92-1.75-5-3L207,454.58a.56.56,0,0,0-.56,0,.49.49,0,0,0-.22.18.92.92,0,0,0-.14.28.6.6,0,0,0,.13.54,3.08,3.08,0,0,0,.55.36l2.34,1.42,4.42,2.69,7.48,4.56,5,3.09,1.36.85.35.23.12.09-.13-.07-.36-.2-1.39-.82-5.07-3-7.51-4.52L209,457.54l-2.35-1.42-.29-.18a1.08,1.08,0,0,1-.31-.23.83.83,0,0,1-.19-.77,1.16,1.16,0,0,1,.18-.35.86.86,0,0,1,.31-.26.84.84,0,0,1,.8,0l16.65,10.12c2.12,1.31,3.85,2.34,5,3.12a.74.74,0,0,1,.12.9.76.76,0,0,1-.53.43A.66.66,0,0,1,227.88,468.84Z" style="fill:#ebebeb"></path><rect x="218.42" y="445.01" width="1.51" height="27.73" rx="0.72" transform="translate(-286.86 408.61) rotate(-58.8)" style="fill:#e0e0e0"></rect><path d="M230,466.33a.78.78,0,0,0,.56.06.74.74,0,0,0,.47-.45.69.69,0,0,0-.2-.82L225.6,462l-17.34-10.46a.57.57,0,0,0-.58,0,.56.56,0,0,0-.22.21.71.71,0,0,0-.13.28.6.6,0,0,0,.19.55c.16.12.4.25.59.37l2.43,1.48c1.6,1,3.13,1.9,4.6,2.79l7.77,4.73,5.22,3.22,1.42.88.36.24.12.08-.13-.06-.38-.22-1.44-.84-5.26-3.15-7.8-4.69-4.6-2.78L208,453.12c-.21-.13-.4-.23-.63-.4a.82.82,0,0,1-.27-.77.93.93,0,0,1,.16-.38.83.83,0,0,1,.31-.28.85.85,0,0,1,.83,0l17.3,10.52c2.21,1.35,4,2.44,5.22,3.22a.75.75,0,0,1,.22.92.81.81,0,0,1-.53.46A.64.64,0,0,1,230,466.33Z" style="fill:#ebebeb"></path><rect x="220.12" y="441.89" width="1.51" height="28.41" rx="0.72" transform="translate(-283.67 408.72) rotate(-58.8)" style="fill:#e0e0e0"></rect><path d="M232,463.73a.84.84,0,0,0,.57,0,.75.75,0,0,0,.47-.47.68.68,0,0,0-.26-.82l-5.39-3.22-17.74-10.71a.61.61,0,0,0-.6,0,.58.58,0,0,0-.22.22.63.63,0,0,0-.12.3.57.57,0,0,0,.23.54l.62.38,2.49,1.51,4.7,2.86,7.95,4.85,5.36,3.29,1.45.9.37.24.12.09-.13-.07-.39-.22-1.47-.86-5.4-3.22-8-4.81-4.71-2.84-2.49-1.51-.64-.39a.85.85,0,0,1-.32-.77.84.84,0,0,1,.15-.4.81.81,0,0,1,.31-.3.86.86,0,0,1,.85,0c6.9,4.21,13.16,8,17.7,10.77l5.36,3.29a.75.75,0,0,1,.27.92.83.83,0,0,1-.53.5A.62.62,0,0,1,232,463.73Z" style="fill:#ebebeb"></path><path d="M214,433.23c-.14.23-2.93,5.95-4.36,8.88a3.91,3.91,0,0,0,0,3.42l.76,1.58,23.9,14.59,1.73,0a3.89,3.89,0,0,0,3.06-1.6l5.83-7.95Z" style="fill:#ebebeb"></path><path d="M237.75,460.85c0,.06-6.46-3.8-14.34-8.61s-14.25-8.76-14.21-8.82,6.45,3.8,14.34,8.61S237.78,460.79,237.75,460.85Z" style="fill:#e0e0e0"></path><path d="M244.79,451.84c0,.07-7-4.09-15.61-9.28s-15.51-9.46-15.47-9.53,7,4.1,15.6,9.29S244.83,451.78,244.79,451.84Z" style="fill:#e0e0e0"></path><path d="M404,430.58a21.92,21.92,0,1,0,5.84,36.55l5.08,2.19,7.6-17.64s-2.8-1.33-5.33-2.47A21.91,21.91,0,0,0,404,430.58Z" style="fill:#e0e0e0"></path><path d="M417.78,462.06c-7-2.88-13.74-6.28-20.82-8.92-2.78-1-7.86-3.05-9.56.67s3.78,6.24,6.51,6.67a10.06,10.06,0,0,0,9.66-3.78,10.15,10.15,0,0,0-6.92-16.33,4.72,4.72,0,0,0-4.13,1.56,3.32,3.32,0,0,0,.41,4.12c1.34,1.6,3.41,2.54,5.22,3.5,2.24,1.19,4.54,2.29,6.84,3.37,4.54,2.13,9.14,4.13,13.64,6.34.72.35,1.35-.72.63-1.08-6.33-3.1-12.85-5.8-19.13-9-1.71-.88-8.89-3.9-6.5-6.65,1.07-1.22,3.13-1,4.51-.6a9.22,9.22,0,0,1,4.11,2.7c4.9,5.55.9,14.67-6.53,14.74a9.25,9.25,0,0,1-4.9-1.32c-1.67-1-3.74-3.48-1.16-4.82,1.64-.85,3.76,0,5.39.55,1.22.42,2.43.88,3.62,1.36,6.34,2.53,12.47,5.52,18.77,8.13.75.31,1.07-.9.34-1.21Z" style="fill:#ebebeb"></path><g id="freepik--2ggvdetif--inject-9"><path d="M427.27,468.81a5.94,5.94,0,0,1,1.52-.71,1.31,1.31,0,0,0,.85-.74l1.52-3.56a1.32,1.32,0,0,0-.09-1.22,2.39,2.39,0,0,1-.43-1.62Z" style="fill:#e0e0e0"></path></g><path d="M415.73,468.4c.07,0,6,1.6,8.23,2.19a2.84,2.84,0,0,0,2.64-.6,2.63,2.63,0,0,0,.65-.92c.66-1.52,3.34-7.76,3.34-7.76s.88-2-.54-3.18-7.75-5-7.75-5Z" style="fill:#e0e0e0"></path><rect x="418.45" y="463.47" width="15.57" height="0.88" rx="0.42" transform="translate(-167.61 674.24) rotate(-66.93)" style="fill:#e0e0e0"></rect><path d="M429.52,457.31a.4.4,0,0,0,0-.31.39.39,0,0,0-.28-.24.38.38,0,0,0-.45.14c-.32.73-.77,1.83-1.34,3.17L423,470.54a.32.32,0,0,0,0,.33.34.34,0,0,0,.12.12.64.64,0,0,0,.17.05.32.32,0,0,0,.3-.12,1.9,1.9,0,0,0,.17-.35c.21-.49.42-1,.62-1.47.42-1,.81-1.89,1.19-2.77.76-1.77,1.45-3.36,2-4.7s1.05-2.41,1.37-3.17l.38-.85.1-.23,0-.07s0,0,0,.08l-.09.23c-.09.2-.2.5-.36.87-.31.76-.77,1.84-1.33,3.18s-1.24,2.94-2,4.71l-1.18,2.78-.62,1.47-.08.19a1.3,1.3,0,0,1-.11.19.47.47,0,0,1-.43.17.57.57,0,0,1-.22-.07.44.44,0,0,1-.17-.16.5.5,0,0,1-.05-.46L427.35,460c.58-1.34,1-2.42,1.39-3.17a.48.48,0,0,1,.8.13A.33.33,0,0,1,429.52,457.31Z" style="fill:#ebebeb"></path><rect x="416.39" y="462.72" width="16.19" height="0.88" rx="0.42" transform="translate(-167.98 672.18) rotate(-66.93)" style="fill:#e0e0e0"></rect><path d="M427.9,456.27a.43.43,0,0,0,0-.32.47.47,0,0,0-.3-.24.4.4,0,0,0-.46.19l-1.38,3.3c-1.19,2.79-2.81,6.63-4.61,10.88a.35.35,0,0,0,0,.34.36.36,0,0,0,.14.11.45.45,0,0,0,.18.05.34.34,0,0,0,.3-.16c0-.1.11-.25.16-.37q.33-.78.66-1.53c.42-1,.84-2,1.23-2.88l2.1-4.88c.59-1.38,1.08-2.5,1.42-3.29l.39-.89.11-.23,0-.08,0,.08-.09.24-.37.9L426,460.8,424,465.69c-.39.92-.8,1.89-1.23,2.89l-.65,1.53a4.21,4.21,0,0,1-.17.39.49.49,0,0,1-.43.22.56.56,0,0,1-.23-.06.49.49,0,0,1-.19-.16A.51.51,0,0,1,421,470l4.66-10.86,1.42-3.29a.45.45,0,0,1,.52-.2.47.47,0,0,1,.31.27A.37.37,0,0,1,427.9,456.27Z" style="fill:#ebebeb"></path><rect x="414.44" y="461.97" width="16.59" height="0.88" rx="0.42" transform="translate(-168.35 670.12) rotate(-66.93)" style="fill:#e0e0e0"></rect><path d="M426.23,455.34a.43.43,0,0,0,0-.33.42.42,0,0,0-.31-.24.4.4,0,0,0-.45.22L424,458.37l-4.72,11.14a.37.37,0,0,0,0,.35.45.45,0,0,0,.33.15.36.36,0,0,0,.3-.17c0-.12.11-.27.17-.4.22-.52.44-1.05.66-1.56.44-1,.86-2,1.26-2.95l2.15-5,1.46-3.37c.17-.38.31-.69.4-.91l.11-.23a.22.22,0,0,1,0-.08l0,.08-.09.24-.38.93L424.31,460l-2.11,5-1.26,3-.66,1.56c-.06.14-.11.26-.18.4a.49.49,0,0,1-.42.25.49.49,0,0,1-.24,0,.45.45,0,0,1-.2-.16.48.48,0,0,1-.06-.49l4.76-11.12L425.4,455a.45.45,0,0,1,.51-.23.46.46,0,0,1,.33.26A.39.39,0,0,1,426.23,455.34Z" style="fill:#ebebeb"></path><path d="M410.1,468.3c.14.06,3.68,1.2,5.49,1.79a2.29,2.29,0,0,0,2-.28l.86-.57,6.46-15-.17-1a2.31,2.31,0,0,0-1.18-1.63l-5.08-2.71Z" style="fill:#ebebeb"></path><path d="M424.1,452.27s-1.67,4-3.8,9-3.89,9-3.92,8.94,1.66-4,3.79-9S424.06,452.25,424.1,452.27Z" style="fill:#e0e0e0"></path><path d="M418.31,448.94s-1.79,4.4-4.08,9.79-4.19,9.75-4.23,9.73,1.79-4.4,4.08-9.79S418.27,448.92,418.31,448.94Z" style="fill:#e0e0e0"></path><path d="M67.37,429.5a21.92,21.92,0,1,0,5.84,36.55l5.08,2.19,7.6-17.64s-2.8-1.33-5.33-2.47A21.91,21.91,0,0,0,67.37,429.5Z" style="fill:#e0e0e0"></path><path d="M81.15,461c-7-2.88-13.74-6.28-20.82-8.92-2.78-1-7.86-3.05-9.56.67s3.78,6.24,6.51,6.67a10.06,10.06,0,0,0,9.66-3.78A10.15,10.15,0,0,0,60,439.29a4.7,4.7,0,0,0-4.12,1.56A3.32,3.32,0,0,0,56.3,445c1.34,1.6,3.41,2.55,5.22,3.5,2.24,1.19,4.53,2.29,6.83,3.37C72.9,454,77.5,456,82,458.18c.72.35,1.35-.72.63-1.08-6.33-3.1-12.85-5.8-19.13-9-1.72-.88-8.89-3.9-6.5-6.65,1.06-1.22,3.13-1,4.51-.6a9.22,9.22,0,0,1,4.11,2.7c4.9,5.55.9,14.67-6.53,14.74A9.31,9.31,0,0,1,54.18,457c-1.66-1-3.73-3.48-1.15-4.82,1.64-.85,3.76,0,5.39.55,1.22.42,2.43.88,3.62,1.36,6.34,2.53,12.47,5.52,18.77,8.13.75.31,1.07-.9.34-1.21Z" style="fill:#ebebeb"></path><g id="freepik--2ggvdetif--inject-9"><path d="M90.64,467.73a5.94,5.94,0,0,1,1.52-.71,1.27,1.27,0,0,0,.84-.74l1.53-3.55a1.32,1.32,0,0,0-.09-1.22,2.4,2.4,0,0,1-.43-1.62Z" style="fill:#e0e0e0"></path></g><path d="M79.1,467.32c.07,0,6,1.6,8.22,2.19a2.86,2.86,0,0,0,2.65-.6,2.67,2.67,0,0,0,.65-.92c.66-1.52,3.34-7.76,3.34-7.76s.88-2-.54-3.18-7.75-5-7.75-5Z" style="fill:#e0e0e0"></path><rect x="81.82" y="462.39" width="15.57" height="0.88" rx="0.42" transform="translate(-371.32 363.88) rotate(-66.93)" style="fill:#e0e0e0"></rect><path d="M92.89,456.23a.42.42,0,0,0-.29-.55.38.38,0,0,0-.45.14c-.32.73-.77,1.83-1.34,3.17-1.14,2.69-2.7,6.39-4.44,10.47a.38.38,0,0,0,0,.33.49.49,0,0,0,.13.12.48.48,0,0,0,.17,0,.32.32,0,0,0,.3-.12,1.9,1.9,0,0,0,.17-.35c.21-.49.42-1,.62-1.47.42-1,.81-1.89,1.19-2.77l2-4.7c.58-1.33,1-2.41,1.37-3.17l.38-.85c0-.1.08-.17.1-.23a.28.28,0,0,0,0-.07s0,0,0,.08l-.09.23-.36.87c-.31.76-.77,1.84-1.33,3.18l-2,4.71-1.18,2.78-.62,1.47-.08.19a1.3,1.3,0,0,1-.11.19.47.47,0,0,1-.43.17.52.52,0,0,1-.39-.23.47.47,0,0,1-.05-.46L90.72,459c.58-1.34,1-2.42,1.39-3.17a.48.48,0,0,1,.8.13C93,456.13,92.89,456.24,92.89,456.23Z" style="fill:#ebebeb"></path><rect x="79.76" y="461.64" width="16.19" height="0.88" rx="0.42" transform="translate(-371.7 361.82) rotate(-66.93)" style="fill:#e0e0e0"></rect><path d="M91.27,455.19a.48.48,0,0,0,0-.32.42.42,0,0,0-.3-.24.39.39,0,0,0-.45.19l-1.38,3.3c-1.19,2.79-2.82,6.63-4.61,10.88a.35.35,0,0,0,0,.34.36.36,0,0,0,.14.11.37.37,0,0,0,.18.05.37.37,0,0,0,.3-.15l.16-.38.65-1.53,1.24-2.88c.79-1.84,1.5-3.49,2.09-4.88l1.43-3.29.39-.89.11-.23,0-.08,0,.09-.09.23-.37.9-1.38,3.31-2.07,4.89c-.39.92-.8,1.89-1.23,2.89L85.45,469a4.21,4.21,0,0,1-.17.39.5.5,0,0,1-.43.22.56.56,0,0,1-.23-.06.42.42,0,0,1-.19-.16.51.51,0,0,1-.06-.48c1.82-4.24,3.46-8.07,4.65-10.86l1.43-3.29a.45.45,0,0,1,.52-.2.47.47,0,0,1,.31.27A.37.37,0,0,1,91.27,455.19Z" style="fill:#ebebeb"></path><path d="M89.6,454.26l-6.17,14.49a.42.42,0,0,1-.55.22l0,0a.42.42,0,0,1-.23-.55l6.18-14.49a.42.42,0,0,1,.55-.22l0,0A.42.42,0,0,1,89.6,454.26Z" style="fill:#e0e0e0"></path><path d="M89.6,454.26a.43.43,0,0,0,0-.33.42.42,0,0,0-.31-.24.4.4,0,0,0-.45.22l-1.42,3.38-4.72,11.14a.37.37,0,0,0,0,.35.42.42,0,0,0,.15.11.37.37,0,0,0,.18,0,.36.36,0,0,0,.3-.17l.16-.4c.23-.52.45-1.05.67-1.56.44-1,.86-2,1.26-2.95.81-1.88,1.54-3.57,2.15-5l1.46-3.37.4-.91c0-.09.08-.17.11-.23a.22.22,0,0,1,0-.08l0,.08-.09.24-.38.93-1.42,3.38c-.6,1.43-1.32,3.13-2.12,5-.4.94-.82,1.93-1.25,3l-.67,1.56c0,.14-.1.26-.17.41a.53.53,0,0,1-.42.25.61.61,0,0,1-.24-.06.45.45,0,0,1-.2-.16.48.48,0,0,1-.06-.49l4.76-11.12,1.46-3.36a.44.44,0,0,1,.51-.24.44.44,0,0,1,.33.27A.41.41,0,0,1,89.6,454.26Z" style="fill:#ebebeb"></path><path d="M73.47,467.22c.14.06,3.67,1.2,5.49,1.79a2.29,2.29,0,0,0,2-.28l.86-.57,6.46-15-.17-1a2.31,2.31,0,0,0-1.18-1.63l-5.08-2.71Z" style="fill:#ebebeb"></path><path d="M87.46,451.19s-1.66,4-3.79,9-3.89,8.95-3.92,8.94,1.66-4.05,3.79-9S87.43,451.17,87.46,451.19Z" style="fill:#e0e0e0"></path><path d="M81.68,447.86s-1.79,4.4-4.08,9.79-4.19,9.75-4.23,9.73,1.79-4.4,4.08-9.79S81.64,447.84,81.68,447.86Z" style="fill:#e0e0e0"></path><path d="M407.87,342.7l3.69-.57,9.8,10,1.14,7.36s5.76-.53,3.59-10.07-1.06-7.2-1.06-7.2,12.1-1.93,13-3.14c.61-.87-.93-13-1.82-19.5a7.14,7.14,0,0,0-6.11-6.34,5.36,5.36,0,0,0-1.33,0c-3,.47-18.07,5.32-18.07,5.32l-6.37,1Z" style="fill:#ebebeb"></path><polygon points="397.62 346.36 395.97 320.77 402.29 319.79 406.13 344.52 397.62 346.36" style="fill:#ebebeb"></polygon><path d="M362.81,46.06l3.84-.05,8.51,11.57.09,7.66s5.94.29,5.12-9.73,0-7.47,0-7.47,12.59-.2,13.62-1.31c.75-.8,1-13.31,1-20.1a7.35,7.35,0,0,0-5.29-7.33,5.82,5.82,0,0,0-1.36-.17c-3.14,0-19.16,2.78-19.16,2.78l-6.62.08Z" style="fill:#ebebeb"></path><polygon points="351.85 48.29 353.9 22.02 360.47 21.95 360.78 47.66 351.85 48.29" style="fill:#ebebeb"></polygon><path d="M67.15,330.17l-2.34-.36-6.22,6.33-.72,4.67s-3.66-.34-2.28-6.39.68-4.57.68-4.57-7.69-1.23-8.22-2c-.39-.56.59-8.23,1.15-12.38a4.53,4.53,0,0,1,3.88-4,3,3,0,0,1,.84,0c1.92.29,11.47,3.37,11.47,3.37l4,.63Z" style="fill:#ebebeb"></path><polygon points="73.66 332.5 74.7 316.26 70.69 315.63 68.26 331.33 73.66 332.5" style="fill:#ebebeb"></polygon><path d="M261.63,49.84a18.74,18.74,0,0,1,4.48-2.33l.62-4.64,7.72-.68,1.43,4.45a19,19,0,0,1,4.82,1.52l3.73-2.84,5.93,5-2.13,4.16a19.3,19.3,0,0,1,2.33,4.48l4.64.63.68,7.71-4.46,1.44a19,19,0,0,1-1.51,4.81l2.83,3.73-5,5.94-4.16-2.14a19.3,19.3,0,0,1-4.48,2.33L278.5,88l-7.72.68-1.43-4.45a19,19,0,0,1-4.82-1.52l-3.72,2.84-5.94-5L257,76.44A19,19,0,0,1,254.67,72L250,71.33l-.68-7.72,4.46-1.43a19.4,19.4,0,0,1,1.51-4.82l-2.83-3.72,5-5.94,4.17,2.14Zm4.84,10a8.31,8.31,0,1,0,11.71-1A8.32,8.32,0,0,0,266.47,59.84Z" style="fill:#f5f5f5"></path><path d="M218.62,67.52a16.5,16.5,0,0,1,3.91-1.7l.81-3.87,6.54-.11.94,3.84a16.23,16.23,0,0,1,4,1.56l3.3-2.17,4.71,4.55L240.75,73a15.56,15.56,0,0,1,1.7,3.91l3.87.81.12,6.54-3.84.94a16.39,16.39,0,0,1-1.56,4l2.16,3.3-4.54,4.71-3.38-2.05a16.27,16.27,0,0,1-3.91,1.7l-.81,3.87-6.54.12L223.08,97a15.87,15.87,0,0,1-4-1.57l-3.31,2.17L211.1,93l2.05-3.38a15.88,15.88,0,0,1-1.7-3.91l-3.88-.81-.11-6.54,3.84-.94a16.23,16.23,0,0,1,1.56-4l-2.17-3.31,4.55-4.7,3.38,2Zm3.49,8.72a7,7,0,1,0,9.92-.18A7,7,0,0,0,222.11,76.24Z" style="fill:#ebebeb"></path><rect x="60.79" y="219.95" width="48.65" height="12.87" style="fill:#fafafa"></rect><path d="M88.87,246.38a1.35,1.35,0,0,1,0-.24v-.66c0-.6,0-1.45,0-2.53,0-2.22,0-5.42-.08-9.45l.15.16-48.65.09c.11-.11-.25.25.24-.25h0v12.87l-.24-.25,34.67.11,10.23.07,2.77,0,.72,0a.81.81,0,0,1,.26,0h-.23l-.69,0-2.72,0-10.17.07-34.84.11H40V233.51h0c.49-.49.14-.13.25-.24l48.65.09H89v.15c0,4.07-.06,7.29-.08,9.54,0,1.07,0,1.9,0,2.5,0,.26,0,.47,0,.63A1.66,1.66,0,0,1,88.87,246.38Z" style="fill:#e0e0e0"></path><path d="M150.9,60.38s0-.09,0-.24,0-.39,0-.66c0-.6,0-1.45,0-2.53,0-2.22,0-5.42-.08-9.44l.15.15-48.65.09.25-.24h0V50.8c0,1.09,0,2.17,0,3.25v6.33l-.24-.25,34.67.11,10.23.07,2.77,0h.72a1.33,1.33,0,0,1,.26,0h-.22l-.7,0-2.71,0-10.18.07-34.84.11H102v-.24c0-2.07,0-4.19,0-6.33V47.53h0l.25-.25,48.65.1h.15v.15c0,4.06-.06,7.29-.08,9.53,0,1.07,0,1.9,0,2.5v.63A.85.85,0,0,1,150.9,60.38Z" style="fill:#e0e0e0"></path><path d="M157.5,47.51a1.41,1.41,0,0,1,0-.25c0-.18,0-.41,0-.68,0-.63,0-1.49,0-2.58,0-2.26-.06-5.45-.1-9.36l.18.17-29.23.07c-.23.22.3-.3.24-.24h0v6.61c0,2.15,0,4.24,0,6.24l-.23-.24,20.91.11,6.09.07,1.64,0,.59,0a3.28,3.28,0,0,1-.53,0l-1.6,0-6,.06-21.07.11H128v-.23c0-2,0-4.09,0-6.24V34.66h0c-.06,0,.47-.47.25-.25l29.23.07h.18v.18c0,4-.08,7.18-.1,9.47,0,1.07,0,1.91,0,2.54S157.51,47.52,157.5,47.51Z" style="fill:#e0e0e0"></path><rect x="284.28" y="312.79" width="48.65" height="12.87" style="fill:#f5f5f5"></rect><path d="M312.36,339.22a1.35,1.35,0,0,1,0-.24v-.66c0-.6,0-1.45,0-2.53,0-2.22-.05-5.42-.08-9.44l.15.15-48.65.09.24-.24h0v12.85l-.24-.24,34.67.11,10.23.06,2.77,0h.72l.26,0h-.23l-.69,0-2.71,0-10.18.07-34.84.11h-.25V326.37h0l.25-.25,48.65.1h.15v.15c0,4.06-.06,7.29-.08,9.53,0,1.07,0,1.9,0,2.5,0,.26,0,.47,0,.63A1.66,1.66,0,0,1,312.36,339.22Z" style="fill:#e0e0e0"></path><path d="M457.86,77a1.35,1.35,0,0,1,0-.24V76.1c0-.6,0-1.45,0-2.53,0-2.22-.05-5.42-.08-9.44l.15.15-48.65.09.24-.24h0V77l-.25-.24,34.68.11,10.23.06,2.77,0h.72l.26,0h-.23l-.69,0-2.72,0L444,77.13l-34.84.11H409V64.15h0l.25-.25,48.65.1H458v.15c0,4.06-.07,7.29-.09,9.53,0,1.07,0,1.9,0,2.5l0,.63A1.66,1.66,0,0,1,457.86,77Z" style="fill:#e0e0e0"></path><path d="M464.45,64.13s0-.09,0-.25,0-.41,0-.68l-.05-2.58c0-2.26-.05-5.44-.09-9.36l.17.17-29.23.07c-.22.23.3-.3.25-.24h0v6.61c0,2.15,0,4.24,0,6.24l-.24-.24,20.91.11,6.09.07,1.65,0,.58,0a3.28,3.28,0,0,1-.53,0l-1.59,0-6,.06-21.07.11H435V57.89c0-1.08,0-2.17,0-3.28V51.28h0l.25-.25,29.23.07h.18v.18c0,4-.07,7.18-.09,9.47,0,1.07,0,1.91-.05,2.54A5,5,0,0,1,464.45,64.13Z" style="fill:#e0e0e0"></path><path d="M453.44,409.21a1,1,0,0,1,0-.23l0-.66c0-.61,0-1.45,0-2.54,0-2.22-.05-5.41-.09-9.44l.16.15-48.65.1c.11-.11-.25.24.24-.25h0v12.85l-.25-.24,34.67.11,10.24.07,2.77,0h.72l.26,0a1,1,0,0,1-.23,0h-.69l-2.72,0-10.18.07-34.84.11h-.24v-9.82c0-.54,0-1.09,0-1.64v-1.63h0c.5-.5.14-.14.26-.25l48.65.1h.15v.15c0,4.07-.07,7.29-.09,9.53,0,1.07,0,1.9,0,2.5l0,.64A1.23,1.23,0,0,1,453.44,409.21Z" style="fill:#e0e0e0"></path><path d="M460,396.34s0-.09,0-.25,0-.4,0-.68c0-.63,0-1.49,0-2.58,0-2.25-.06-5.44-.1-9.36l.18.18-29.23.07.25-.25h0v3.33c0,1.11,0,2.2,0,3.28v6.24l-.24-.24,20.91.12,6.09.06,1.64,0,.59,0a3.28,3.28,0,0,1-.53,0l-1.59,0-6,.06-21.07.12h-.24v-.24c0-2,0-4.09,0-6.24v-6.61h0l.25-.25,29.23.07h.18v.18c0,4-.07,7.19-.1,9.47,0,1.07,0,1.92,0,2.54A6.65,6.65,0,0,1,460,396.34Z" style="fill:#e0e0e0"></path><path d="M125.09,409a1,1,0,0,1,0-.23v-.66c0-.61,0-1.45,0-2.54,0-2.22,0-5.41-.08-9.44l.15.15-48.65.1c.11-.11-.25.24.24-.25h0V409l-.25-.24,34.68.11,10.23.07,2.77,0h.72l.26,0a.94.94,0,0,1-.23,0h-.69l-2.72,0-10.18.07-34.84.11h-.24V396.18h0l.25-.25,48.65.1h.15v.15c0,4.07-.07,7.29-.09,9.53,0,1.07,0,1.9,0,2.5l0,.64A1.23,1.23,0,0,1,125.09,409Z" style="fill:#e0e0e0"></path><path d="M131.68,396.16s0-.09,0-.25,0-.4,0-.68c0-.63,0-1.49-.05-2.58,0-2.26,0-5.44-.1-9.36l.18.18-29.23.07.25-.25h0v6.61c0,2.15,0,4.24,0,6.24l-.24-.24,20.91.12,6.09.06,1.65,0,.58,0a3.28,3.28,0,0,1-.53,0l-1.59,0-6,.06-21.07.12h-.23v-6.48c0-1.08,0-2.17,0-3.28v-3.33h0l.25-.25,29.23.07h.18v.18c0,4-.07,7.19-.09,9.47,0,1.07,0,1.92-.05,2.54A4.88,4.88,0,0,1,131.68,396.16Z" style="fill:#e0e0e0"></path></g><g id="freepik--light-bulb-2--inject-9"><path d="M358.73,462.71a55.32,55.32,0,1,0-81.37-45.9l-12.31,6.59L288,466.14s7.05-3.44,13.26-6.65A55.28,55.28,0,0,0,358.73,462.71Z" style="fill:#ebebeb"></path><path d="M358.73,462.71s-.31.18-.94.5-1.57.81-2.82,1.39a57.5,57.5,0,0,1-11.49,3.69,55.09,55.09,0,0,1-19,.5,56.18,56.18,0,0,1-23.37-9.14h.2L288,466.33l-.18.09-.09-.18-22.93-42.73-.12-.21.22-.12,12.3-6.59-.13.23a60.41,60.41,0,0,1,.66-11.81,58.45,58.45,0,0,1,3.28-11.75,53.9,53.9,0,0,1,5.94-11,52.54,52.54,0,0,1,8.44-9.59l.9-.82.95-.76,1.89-1.51q2-1.43,4-2.73l2.08-1.21,1-.6c.35-.19.72-.35,1.07-.52,1.45-.67,2.87-1.37,4.31-2a56.42,56.42,0,0,1,18.14-4,53.4,53.4,0,0,1,17.81,2,59.08,59.08,0,0,1,15.66,7.11A53.12,53.12,0,0,1,379.91,385l1,1.65a17.19,17.19,0,0,1,.93,1.67l1.61,3.42a27.53,27.53,0,0,1,1.35,3.46c.39,1.16.87,2.29,1.17,3.45s.57,2.33.85,3.48c.12.58.31,1.14.38,1.72l.24,1.73c.16,1.15.34,2.29.47,3.41s.09,2.26.14,3.37c0,.56.05,1.11.07,1.66s-.05,1.09-.07,1.63c-.06,1.09-.12,2.16-.18,3.22a10.19,10.19,0,0,1-.17,1.57c-.08.52-.15,1-.23,1.55-.16,1-.3,2-.48,3s-.49,1.94-.73,2.9l-.36,1.42-.18.7-.24.68c-.32.9-.64,1.78-1,2.66a21.14,21.14,0,0,1-1,2.55l-1.13,2.4a18.93,18.93,0,0,1-1.17,2.29c-.87,1.44-1.65,2.87-2.51,4.18s-1.82,2.47-2.67,3.64-1.87,2.12-2.73,3.11c-.45.48-.86,1-1.3,1.42l-1.35,1.23-2.48,2.27c-.82.64-1.62,1.22-2.35,1.76l-2,1.51c-.63.43-1.25.76-1.78,1.09l-2.45,1.44c-.55.32-.84.47-.84.47l.82-.52,2.41-1.48c.53-.34,1.14-.67,1.77-1.11l2-1.52c.72-.55,1.51-1.13,2.33-1.78l2.45-2.27,1.34-1.24c.44-.44.84-.94,1.28-1.42.86-1,1.82-2,2.7-3.12l2.64-3.63c.85-1.31,1.63-2.73,2.49-4.17a18.7,18.7,0,0,0,1.15-2.28l1.11-2.4a19.29,19.29,0,0,0,1-2.53l.93-2.65.24-.68.18-.7c.11-.46.23-.94.35-1.41q.35-1.43.72-2.88c.17-1,.3-2,.46-3,.08-.51.16-1,.23-1.54a10.06,10.06,0,0,0,.17-1.56c.05-1.06.11-2.12.17-3.2,0-.54.08-1.08.06-1.62s-.05-1.1-.07-1.65c-.05-1.1-.1-2.22-.15-3.34s-.32-2.25-.47-3.39c-.09-.57-.17-1.14-.25-1.71s-.26-1.14-.38-1.71c-.28-1.14-.57-2.29-.85-3.45s-.78-2.28-1.17-3.43a26.11,26.11,0,0,0-1.35-3.42l-1.6-3.39a13.52,13.52,0,0,0-.93-1.66c-.32-.54-.65-1.09-1-1.64a59.59,59.59,0,0,0-4.47-6.37A60.22,60.22,0,0,0,363,368a58.67,58.67,0,0,0-15.53-7,53,53,0,0,0-17.65-2,56.13,56.13,0,0,0-18,4c-1.43.64-2.84,1.33-4.27,2-.35.17-.72.33-1.06.52l-1,.59-2.05,1.2c-1.33.86-2.64,1.77-3.94,2.7l-1.87,1.5-.94.75-.89.82a52.2,52.2,0,0,0-8.36,9.49,53.69,53.69,0,0,0-5.89,10.92,58.24,58.24,0,0,0-3.26,11.64,61,61,0,0,0-.66,11.71V417l-.13.07-12.31,6.58.1-.33L288.14,466l-.28-.09,13.26-6.63.1-.05.1.06a56,56,0,0,0,23.19,9.16,55.39,55.39,0,0,0,18.93-.41,59,59,0,0,0,11.48-3.58c1.26-.57,2.2-1,2.84-1.34Z" style="fill:#263238"></path><path d="M274.29,439.72c15.68-8.73,31.94-16.4,47.47-25.41,3.13-1.82,6.25-3.7,9.22-5.78,3.74-2.6,7.67-5.9,7.9-10.81a7.15,7.15,0,0,0-2.26-5.78,8.69,8.69,0,0,0-5.87-1.81,22.39,22.39,0,0,0-12.53,4.67,24.71,24.71,0,0,0-10,23.29c1.34,9,7.62,17.09,16.31,20,8.54,2.87,19.63.93,25.77-6,2.65-3,4.8-7.86,2.26-11.57s-7.24-3.41-11-2.44c-4.36,1.11-8.57,3.15-12.67,5-4.78,2.13-9.5,4.41-14.2,6.72-9.67,4.78-19.22,9.79-28.9,14.56-2.13,1.05-4.28,2.09-6.43,3.11-.73.35-.09,1.43.63,1.08,17.26-8.17,33.92-17.59,51.44-25.23,3.86-1.68,7.87-3.62,12.05-4.36a9.53,9.53,0,0,1,6.21.59,5.49,5.49,0,0,1,2.74,5.41c-.42,4.63-4.39,8.18-8.22,10.27a24.58,24.58,0,0,1-13,2.88,23.39,23.39,0,0,1-15.9-39,24.17,24.17,0,0,1,10.62-6.89c4.07-1.26,10.51-1.72,11.59,3.72,1,5.2-3.54,9-7.32,11.61-2.62,1.82-5.36,3.49-8.11,5.1-14.35,8.42-29.35,15.67-44,23.55q-2.22,1.18-4.43,2.42c-.7.39-.07,1.47.64,1.08Z" style="fill:#fff"></path><g id="freepik--2ggvdetif--inject-9"><path d="M246.65,448.6a15.18,15.18,0,0,1-1,4.12,3.26,3.26,0,0,0,.14,2.84l4.61,8.6a3.32,3.32,0,0,0,2.57,1.73,6.08,6.08,0,0,1,3.86,1.71Z" style="fill:#455a64"></path></g><path d="M265.59,426.44c-.17.09-12.53,9.3-17.25,12.82a7.16,7.16,0,0,0-3,6.16,6.67,6.67,0,0,0,.78,2.74L256.25,467s2.64,4.91,7.13,3.94c4.74-1,22.07-7.48,22.07-7.48Z" style="fill:#263238"></path><rect x="256.84" y="434.6" width="2.23" height="39.29" rx="1.06" transform="translate(-185.13 177.57) rotate(-28.43)" style="fill:#e0e0e0"></rect><path d="M265.83,471.13a1.22,1.22,0,0,0,.63.47,1.08,1.08,0,0,0,.92-.17,1,1,0,0,0,.43-1.12c-.93-1.79-2.41-4.4-4.16-7.62l-13.72-25.23a.85.85,0,0,0-.69-.46.89.89,0,0,0-.43.07,1.08,1.08,0,0,0-.37.24.87.87,0,0,0-.24.79,4.66,4.66,0,0,0,.43.87l1.91,3.55,3.63,6.71c2.29,4.28,4.36,8.13,6.11,11.38l4.09,7.68c.47.89.83,1.59,1.1,2.09l.27.55.09.2a.74.74,0,0,1-.12-.18l-.31-.53-1.15-2.07c-1-1.82-2.44-4.42-4.2-7.62s-3.85-7.08-6.18-11.34c-1.16-2.13-2.37-4.38-3.64-6.7l-1.92-3.54-.24-.46a1.54,1.54,0,0,1-.22-.52,1.21,1.21,0,0,1,.33-1.11,1.65,1.65,0,0,1,.49-.32,1.23,1.23,0,0,1,1.58.55c5.32,9.86,10.13,18.79,13.62,25.28,1.73,3.25,3.16,5.83,4.08,7.7a1.13,1.13,0,0,1-.52,1.25,1.15,1.15,0,0,1-1,.15A.91.91,0,0,1,265.83,471.13Z" style="fill:#263238"></path><rect x="261.07" y="431.54" width="2.23" height="40.87" rx="1.06" transform="translate(-183.54 179.31) rotate(-28.43)" style="fill:#e0e0e0"></rect><path d="M270.43,469.55a1.21,1.21,0,0,0,.67.48,1.09,1.09,0,0,0,.94-.22,1,1,0,0,0,.34-1.19L268,460.7l-14.24-26.21a.9.9,0,0,0-.73-.45.85.85,0,0,0-.44.09,1.09,1.09,0,0,0-.38.27.88.88,0,0,0-.16.84c.11.27.32.61.48.91l2,3.69c1.3,2.42,2.56,4.75,3.76,7l6.35,11.81,4.25,8c.49.93.87,1.66,1.15,2.18.11.24.21.42.28.57s.1.2.09.2l-.12-.18-.32-.56c-.28-.51-.69-1.23-1.2-2.14l-4.35-7.93c-1.83-3.35-4-7.34-6.42-11.77l-3.78-7-2-3.69a9.68,9.68,0,0,1-.5-1,1.21,1.21,0,0,1,.23-1.18,1.27,1.27,0,0,1,.49-.36,1.09,1.09,0,0,1,.61-.13,1.23,1.23,0,0,1,1,.64l14.16,26.26c1.8,3.37,3.26,6.08,4.25,8a1.13,1.13,0,0,1-.41,1.33,1.15,1.15,0,0,1-1,.2A.93.93,0,0,1,270.43,469.55Z" style="fill:#263238"></path><path d="M274.9,467.72l-18.93-35a1.07,1.07,0,0,1,.43-1.44l.1-.05a1,1,0,0,1,1.43.43l18.93,35a1,1,0,0,1-.43,1.43l-.1.06A1,1,0,0,1,274.9,467.72Z" style="fill:#e0e0e0"></path><path d="M274.9,467.72a1.08,1.08,0,0,0,1.64.24,1,1,0,0,0,.28-1.23l-4.46-8.11-14.58-26.84a.92.92,0,0,0-.76-.46,1,1,0,0,0-.44.11,1,1,0,0,0-.37.29.88.88,0,0,0-.12.87c.15.29.34.63.51.94l2,3.78,3.85,7.13c2.44,4.55,4.64,8.65,6.5,12.1l4.36,8.16c.49,1,.89,1.7,1.16,2.23l.3.59.09.2s0-.06-.12-.19-.19-.33-.33-.56c-.29-.53-.7-1.26-1.23-2.2l-4.45-8.11c-1.88-3.44-4.1-7.53-6.58-12.06l-3.86-7.13c-.68-1.23-1.36-2.49-2.05-3.77-.17-.33-.34-.62-.52-1a1.22,1.22,0,0,1,.16-1.22,1.39,1.39,0,0,1,.49-.39A1.35,1.35,0,0,1,257,431a1.25,1.25,0,0,1,1.06.65l14.5,26.89,4.35,8.17a1.12,1.12,0,0,1-.33,1.38,1.26,1.26,0,0,1-1.05.23A.94.94,0,0,1,274.9,467.72Z" style="fill:#263238"></path><rect x="269.53" y="425.7" width="2.23" height="43.49" rx="1.06" transform="translate(-180.36 182.78) rotate(-28.43)" style="fill:#e0e0e0"></rect><path d="M279.51,466.16a1.15,1.15,0,0,0,.72.5,1.21,1.21,0,0,0,1-.3,1,1,0,0,0,.16-1.3l-4.62-8.42L261.62,428.8a.9.9,0,0,0-.79-.46,1.13,1.13,0,0,0-.82.46.9.9,0,0,0,0,.9l.54,1c.72,1.32,1.42,2.63,2.12,3.91l4,7.41,6.75,12.54L277.9,463l1.21,2.31.31.61q.1.21.09.21a1.25,1.25,0,0,1-.12-.19l-.34-.59c-.31-.54-.73-1.31-1.28-2.28-1.1-2-2.67-4.88-4.62-8.42l-6.81-12.51c-1.28-2.35-2.62-4.83-4-7.39l-2.12-3.91-.54-1a1.23,1.23,0,0,1,.54-1.7,1.23,1.23,0,0,1,.63-.19,1.25,1.25,0,0,1,1.11.65c5.87,10.88,11.18,20.74,15,27.89,1.91,3.56,3.45,6.45,4.53,8.47a1.15,1.15,0,0,1-.22,1.45,1.29,1.29,0,0,1-1.07.29,1.12,1.12,0,0,1-.58-.37A.58.58,0,0,1,279.51,466.16Z" style="fill:#263238"></path><path d="M274.65,415.48c-.35.19-8.16,5.38-12.17,8a5.77,5.77,0,0,0-2.55,4.34l-.22,2.58,19.52,36.36,2.24,1.24a5.78,5.78,0,0,0,5.08.24l13.34-5.77Z" style="fill:#455a64"></path><g style="opacity:0.30000000000000004"><path d="M248.87,439.6a53.24,53.24,0,0,0,5,11.29c1.68,3.1,3.23,6.19,5.11,9.52,1.37,2.44,2.72,4.65,4.14,7a7.85,7.85,0,0,0,2.16,2.53Z"></path></g><g style="opacity:0.30000000000000004"><path d="M252.42,436a62,62,0,0,0,5.42,12.13c1.81,3.34,3.49,6.67,5.51,10.26,1.48,2.64,2.92,5,4.45,7.62a8.93,8.93,0,0,0,2.27,2.75Z"></path></g><g style="opacity:0.30000000000000004"><path d="M256.61,433.77A62.78,62.78,0,0,0,262,445.91c1.81,3.34,3.49,6.66,5.51,10.26,1.48,2.63,2.92,5,4.45,7.61a8.68,8.68,0,0,0,2.27,2.75Z"></path></g><g style="opacity:0.30000000000000004"><path d="M260.81,431.52a63,63,0,0,0,5.43,12.14c1.81,3.33,3.49,6.66,5.51,10.26,1.48,2.63,2.91,5,4.45,7.61a8.81,8.81,0,0,0,2.27,2.75Z"></path></g><path d="M284.32,468.33c-.08.05-5.38-9.64-11.81-21.63s-11.59-21.76-11.5-21.81,5.37,9.64,11.81,21.64S284.41,468.28,284.32,468.33Z" style="fill:#263238"></path><path d="M300,462.12c-.09.06-5.88-10.44-12.93-23.44S274.39,415.1,274.48,415s5.88,10.44,12.93,23.44S300.09,462.07,300,462.12Z" style="fill:#263238"></path></g><g id="freepik--speech-bubble--inject-9"><path d="M89.24,108.47l-8.42-.5a27.15,27.15,0,1,1,5.82-7.8h0Z" style="fill:#fff"></path><path d="M89.24,108.47s0-.18-.15-.53l-.48-1.58c-.43-1.42-1.07-3.5-1.89-6.22l0-.11-.08.09h0l.11.08a27.23,27.23,0,0,0,2.87-13A25.84,25.84,0,0,0,89.1,83a29.35,29.35,0,0,0-1.23-4.35,27.06,27.06,0,0,0-13.64-15,27.33,27.33,0,0,0-11.38-2.75A27,27,0,0,0,50.7,63.48a26.69,26.69,0,0,0-10.08,8.21c-.33.45-.67.89-1,1.35s-.58,1-.86,1.44l-.43.71-.36.75-.72,1.5c-.22.5-.38,1-.57,1.54a12.41,12.41,0,0,0-.52,1.56,24.56,24.56,0,0,0-.7,3.17,27.63,27.63,0,0,0,.84,12.47,27.26,27.26,0,0,0,24.21,19.08,29.61,29.61,0,0,0,4.53-.06,34.92,34.92,0,0,0,4.16-.75A26.88,26.88,0,0,0,80.87,108l-.05,0,6.29.33,1.6.08.53,0-.55,0-1.62-.11-6.25-.41h0l0,0a27,27,0,0,1-11.62,6.33A34.29,34.29,0,0,1,65,115a30.57,30.57,0,0,1-4.5,0,27,27,0,0,1-18.14-8.83,27,27,0,0,1-5.78-10.1,27.3,27.3,0,0,1-.82-12.33,24.31,24.31,0,0,1,.69-3.13A13.88,13.88,0,0,1,37,79.09c.19-.51.36-1,.57-1.52s.47-1,.71-1.48l.35-.74.43-.71.85-1.42c.32-.45.65-.89,1-1.34a26.49,26.49,0,0,1,10-8.11,26.88,26.88,0,0,1,12-2.61,26.94,26.94,0,0,1,24.8,17.57A30.07,30.07,0,0,1,88.88,83a26.64,26.64,0,0,1,.47,4.16,27.16,27.16,0,0,1-2.77,13l-.23.46.34-.38h0l-.12,0,2,6.15.51,1.59Z" style="fill:#263238"></path><rect x="60.28" y="76.24" width="5.28" height="23.68" transform="translate(77.97 -19.11) rotate(43.53)" style="fill:#407BFF"></rect><rect x="60.28" y="76.24" width="5.28" height="23.68" transform="translate(-44.28 73.03) rotate(-46.47)" style="fill:#407BFF"></rect></g><g id="freepik--light-bulb-1--inject-9"><polygon points="379.53 125.84 377.77 109.77 358.42 99.73 353.89 79.44 337.36 64.69 325.96 81.79 307.79 64.17 296.49 74.68 307.06 120.15 335.84 142.76 360.42 142.7 379.53 125.84" style="fill:#407BFF"></polygon><polygon points="379.53 125.84 377.77 109.77 358.42 99.73 353.89 79.44 337.36 64.69 325.96 81.79 307.79 64.17 296.49 74.68 307.06 120.15 335.84 142.76 360.42 142.7 379.53 125.84" style="opacity:0.2"></polygon><path d="M409.43,83.19l-9.19,14.94L373.07,92,337.81,112.5,309,95.22,313.87,71,299.08,60l3.81-8.08a89,89,0,0,0-3.86,163c0,10.54.1,22.44.1,22.44l78-.34s.42-12.59.54-23.84a88.93,88.93,0,0,0,31.8-129.93Z" style="fill:#407BFF"></path><path d="M330.36,236.45c-.26-13-.05-26,0-39,.1-14.08.19-28.18-.3-42.25-.2-5.53-.47-11.07-1.07-16.58-.8-7.27-2.13-15.51-8.72-19.86a11.43,11.43,0,0,0-10.06-1.57,13.55,13.55,0,0,0-7.17,7.09c-3.08,6.31-3.61,13.81-2.54,20.67,2.26,14.38,12.4,26.64,26.45,30.78s30,.21,39.68-11A40.12,40.12,0,0,0,375.75,146c1.27-6.75,1-14.25-2.05-20.51-2.78-5.7-8.74-11.14-15.53-8.84-6.11,2.07-8.61,8.93-9.72,14.72-1.31,6.78-1.66,13.83-2.09,20.71-.5,7.88-.8,15.76-1,23.65-.44,16.21-.53,32.43-1,48.64q-.15,5.34-.39,10.69c-.07,1.61,2.43,1.6,2.5,0,.67-14.71.79-29.44,1.06-44.16.28-14.89.6-29.81,1.77-44.67.5-6.27.76-12.9,2.81-18.9.91-2.64,2.28-5.39,4.56-7.1a8,8,0,0,1,8.12-.86c6,2.76,8.51,10.15,9.05,16.23A36.93,36.93,0,0,1,370.16,155,35.53,35.53,0,0,1,357,169.74a36.93,36.93,0,0,1-39.41-1.18A35.14,35.14,0,0,1,305.37,153a36.86,36.86,0,0,1-2.45-19.55c.93-5.91,4-15.08,11.53-14.29,8.06.85,10.75,9.83,11.7,16.55.74,5.16,1,10.37,1.28,15.57.59,12.89.56,25.81.51,38.71s-.25,25.78-.17,38.67q0,3.89.09,7.78a1.25,1.25,0,0,0,2.5,0Z" style="fill:#263238"></path><g id="freepik--2ggvdetif--inject-9"><path d="M321.07,282.43a24.38,24.38,0,0,1,5.11,4.49,5.22,5.22,0,0,0,4.15,1.95l15.69-.08a5.3,5.3,0,0,0,4.38-2.34c1.14-1.72,3.19-3.75,5.34-4.2Z" style="fill:#455a64"></path></g><path d="M303.86,238.83c0,.31,3.76,24.8,5.2,34.16a11.56,11.56,0,0,0,6.54,8.85,10.8,10.8,0,0,0,4.47,1l34.31-.18s9-.05,11-7.17c2.1-7.5,6-37,6-37Z" style="fill:#263238"></path><rect x="306.02" y="268.82" width="63.18" height="3.59" rx="1.7" transform="translate(-2.33 2.93) rotate(-0.5)" style="fill:#e0e0e0"></rect><path d="M367.52,272.15a2,2,0,0,0,1.15-.54,1.77,1.77,0,0,0,.44-1.43,1.61,1.61,0,0,0-1.26-1.46c-3.25,0-8.07.11-14,.17l-46.17.48a1.44,1.44,0,0,0-1.18.65,1.52,1.52,0,0,0-.22.65,2.36,2.36,0,0,0,.06.72,1.43,1.43,0,0,0,.95.93,8.61,8.61,0,0,0,1.56.05l6.49-.05,12.26-.09,20.76-.12,14,0,3.81,0,1,0a1.3,1.3,0,0,1,.34,0,1.91,1.91,0,0,1-.34,0l-1,0-3.8.09-14,.21-20.76.25-12.26.12-6.48.06h-.83a3.23,3.23,0,0,1-.9-.08,2,2,0,0,1-1.34-1.31,2.54,2.54,0,0,1-.08-.94,1.87,1.87,0,0,1,.31-.92,2,2,0,0,1,1.65-.92l46.18-.31c5.92,0,10.67-.09,14,0a1.8,1.8,0,0,1,1.38,1.67,1.83,1.83,0,0,1-.53,1.52A1.48,1.48,0,0,1,367.52,272.15Z" style="fill:#263238"></path><path d="M368.74,264.42l-62.31.54a1.7,1.7,0,0,1-1.72-1.68v-.19a1.7,1.7,0,0,1,1.69-1.71l62.31-.54a1.7,1.7,0,0,1,1.72,1.68v.19A1.69,1.69,0,0,1,368.74,264.42Z" style="fill:#e0e0e0"></path><path d="M368.74,264.42a1.73,1.73,0,0,0,1.59-2.08,1.61,1.61,0,0,0-1.44-1.38l-14.52.21-48,.5a1.4,1.4,0,0,0-1.2.69,1.41,1.41,0,0,0-.2.69,1.61,1.61,0,0,0,.11.74,1.37,1.37,0,0,0,1.06.86c.47.05,1.12,0,1.66,0l6.74-.05,12.74-.09,21.56-.13,14.54,0,3.95,0,1,0,.35,0a1.22,1.22,0,0,1-.35,0l-1,0-3.95.09-14.53.22-21.57.25-12.73.13-6.74.06c-.59,0-1.09,0-1.77,0a2,2,0,0,1-1.5-1.22,2.35,2.35,0,0,1-.15-1,2,2,0,0,1,.28-1,2,2,0,0,1,1.7-1l48-.33c6.14,0,11.09-.05,14.55,0a1.8,1.8,0,0,1,1.58,1.58,1.92,1.92,0,0,1-.49,1.6A1.48,1.48,0,0,1,368.74,264.42Z" style="fill:#263238"></path><path d="M369.51,256.7l-63.93.55a1.69,1.69,0,0,1-1.71-1.68v-.19a1.68,1.68,0,0,1,1.68-1.71l63.93-.56a1.7,1.7,0,0,1,1.71,1.69V255A1.71,1.71,0,0,1,369.51,256.7Z" style="fill:#e0e0e0"></path><path d="M369.51,256.7a1.88,1.88,0,0,0,1.21-.6,1.84,1.84,0,0,0,.36-1.55,1.6,1.6,0,0,0-1.54-1.32l-14.88.22-49.1.51a1.39,1.39,0,0,0-1.22.72,1.38,1.38,0,0,0-.19.71,1.76,1.76,0,0,0,.13.75,1.45,1.45,0,0,0,1.15.82c.52,0,1.15,0,1.72,0l6.9-.05,13-.1,22.08-.13,14.88,0,4.05,0,1,0,.36,0a1.65,1.65,0,0,1-.36,0l-1,0-4.05.09-14.88.22-22.08.25-13,.13-6.89.07c-.6,0-1.14,0-1.79,0a2,2,0,0,1-1.61-1.15,2.18,2.18,0,0,1-.18-1,1.93,1.93,0,0,1,.25-1,2,2,0,0,1,1.72-1l49.11-.34,14.89,0a1.79,1.79,0,0,1,1.7,1.52,1.9,1.9,0,0,1-.45,1.65A1.53,1.53,0,0,1,369.51,256.7Z" style="fill:#263238"></path><path d="M370.77,249l-66.52.58a1.71,1.71,0,0,1-1.72-1.69v-.18a1.71,1.71,0,0,1,1.68-1.72l66.53-.58a1.71,1.71,0,0,1,1.71,1.69v.19A1.69,1.69,0,0,1,370.77,249Z" style="fill:#e0e0e0"></path><path d="M370.77,249a1.83,1.83,0,0,0,1.24-.64,1.88,1.88,0,0,0,.31-1.62,1.62,1.62,0,0,0-1.72-1.21l-15.44.22-50.94.53A1.42,1.42,0,0,0,303,247a1.77,1.77,0,0,0,0,1.51,1.43,1.43,0,0,0,1.26.73l1.82,0,7.16-.05,13.52-.1,22.9-.14,15.45,0,4.19,0,1.09,0a1.59,1.59,0,0,1,.38,0l-.37,0-1.1,0-4.19.09-15.44.23-22.9.26-13.53.13-7.15.07-1.83,0a2,2,0,0,1-1.77-1,2.09,2.09,0,0,1-.25-1,2,2,0,0,1,2-2.12l50.94-.36,15.44,0a1.82,1.82,0,0,1,1.89,1.4,2,2,0,0,1-.39,1.73,1.75,1.75,0,0,1-1,.56A1,1,0,0,1,370.77,249Z" style="fill:#263238"></path><path d="M295.1,217.71c0,.64,1.49,15.64,2.26,23.34a9.32,9.32,0,0,0,4.24,6.9l3.51,2.24,66.35-.34,3.44-2.25a9.28,9.28,0,0,0,4.18-7l1.85-23.29Z" style="fill:#407BFF"></path><g style="opacity:0.30000000000000004"><path d="M310,272.51c6.39,1.41,12.77,1.5,19.78,1.43,5.66-.05,11.22.07,17.37-.08,4.5-.12,8.65-.37,13.14-.59,2.27-.11,4.76-.69,5.21-1.15Z"></path></g><g style="opacity:0.30000000000000004"><path d="M307.55,264.77c6.9,1.41,13.77,1.5,21.33,1.43,6.1-.06,12.09.07,18.72-.09,4.86-.12,9.32-.37,14.17-.59,2.45-.11,5.13-.7,5.62-1.16Z"></path></g><g style="opacity:0.30000000000000004"><path d="M307.51,257.11c6.9,1.41,13.77,1.5,21.33,1.43,6.1-.06,12.09.06,18.72-.1,4.86-.11,9.33-.36,14.17-.58,2.45-.11,5.13-.7,5.62-1.16Z"></path></g><g style="opacity:0.30000000000000004"><path d="M307.47,249.45c6.9,1.41,13.77,1.49,21.33,1.42,6.11-.05,12.09.07,18.72-.09,4.86-.12,9.33-.37,14.17-.59,2.45-.11,5.13-.7,5.62-1.16Z"></path></g><path d="M377.47,243.77c0,.16-17.75.38-39.63.49s-39.64.08-39.64-.08,17.74-.39,39.63-.5S377.47,243.61,377.47,243.77Z" style="fill:#263238"></path><path d="M380.46,216.84c0,.17-19.27.49-43,.71s-43.06.24-43.07.07,19.26-.5,43-.72S380.45,216.66,380.46,216.84Z" style="fill:#263238"></path><g style="opacity:0.30000000000000004"><path d="M295.1,217.71c0,.64,1.49,15.64,2.26,23.34a9.32,9.32,0,0,0,4.24,6.9l3.51,2.24,66.35-.34,3.44-2.25a9.28,9.28,0,0,0,4.18-7l1.85-23.29Z"></path></g><g style="opacity:0.2"><path d="M418.41,130c-2.18-6.62-12.21-11.15-16.06-1.72a13.81,13.81,0,0,0-.93,4.22c-.76,10.65-.51,22.56-7,31.22-3.7,4.93-9.16,8.16-14.26,11.63s-10.18,7.56-12.43,13.3c-1.91,4.87-2,13.34,5.3,14.67a10.78,10.78,0,0,0,6.9-1.17c10.08-5.31,16.15-11.77,23.26-21.5,6.81-9.32,10.34-17.85,13.56-28.4C418.61,146.11,420.58,136.61,418.41,130Z" style="fill:#fff"></path></g><g style="opacity:0.2"><path d="M256.32,136.32c-.36,0-.76-1-1.2-3.07-.11-.5-.21-1.07-.33-1.69s-.13-1.29-.2-2a42.25,42.25,0,0,1-.2-5c0-.92.05-1.89.08-2.9s.19-2,.3-3.13a62.33,62.33,0,0,1,1.12-6.87,73.52,73.52,0,0,1,5.23-15.06,74.64,74.64,0,0,1,8.54-13.48A64.81,64.81,0,0,1,274.33,78c.79-.76,1.51-1.52,2.27-2.18l2.23-1.87a42.35,42.35,0,0,1,4-2.94c.62-.4,1.17-.78,1.72-1.1s1.06-.56,1.52-.79c1.85-.92,2.95-1.27,3.15-1s-.53,1.22-2,2.62c-.36.34-.76.72-1.21,1.12l-1.39,1.4c-1,1-2.18,2-3.34,3.37l-1.88,2c-.65.7-1.26,1.49-1.93,2.27-1.37,1.52-2.65,3.31-4,5.14a93.41,93.41,0,0,0-7.66,12.82,94.54,94.54,0,0,0-5.27,14c-.56,2.23-1.17,4.34-1.51,6.36-.19,1-.43,2-.57,2.92s-.27,1.85-.39,2.72c-.32,1.73-.39,3.32-.57,4.72-.08.69-.15,1.34-.22,1.95s-.08,1.15-.13,1.65C257,135.14,256.68,136.28,256.32,136.32Z" style="fill:#fff"></path></g></g><g id="freepik--Character--inject-9"><path d="M158.94,89.07a7.82,7.82,0,0,0-1.82-7.93c-2-2.06-3.7-2.06-3.41-2.33.92-2.46-1.09-5.25-3.58-6.07s-5.22-.19-7.72.61A11.19,11.19,0,0,0,122,69.78a10.63,10.63,0,0,0-16,12,7.44,7.44,0,0,0,3,14,28.54,28.54,0,0,0,1.77,10.47l42.42,3.45s1.17-7.31,1.17-9.9c0-3.2.24-6.22.24-6.22C155.09,93.69,158,91.76,158.94,89.07Z" style="fill:#263238"></path><path d="M135.6,74.76l-1.13-.06a21.84,21.84,0,0,0-22.74,19c-1.38,10.5-2.76,22.12-3,27.78-.44,11.71,11.18,14.12,11.18,14.12l-1.69,14,28.47.53,5.05-50.9C153.42,87.13,147.75,76.07,135.6,74.76Z" style="fill:#ffbf9d"></path><path d="M119.85,135.57a28.47,28.47,0,0,0,15.57-3.73s-4,8.25-15.67,6.61Z" style="fill:#ff9a6c"></path><path d="M116.58,104.92a1.68,1.68,0,0,0,1.53,1.77,1.61,1.61,0,0,0,1.8-1.43,1.68,1.68,0,0,0-1.53-1.77A1.61,1.61,0,0,0,116.58,104.92Z" style="fill:#263238"></path><path d="M114,99.54c.2.23,1.51-.64,3.31-.55s3.07,1.06,3.28.85-.09-.5-.65-1a4.68,4.68,0,0,0-2.61-1,4.47,4.47,0,0,0-2.65.72C114.07,99.05,113.86,99.44,114,99.54Z" style="fill:#263238"></path><path d="M133.75,105.75a1.68,1.68,0,0,0,1.53,1.77,1.61,1.61,0,0,0,1.8-1.43,1.67,1.67,0,0,0-1.53-1.76A1.6,1.6,0,0,0,133.75,105.75Z" style="fill:#263238"></path><path d="M131.63,100.76c.2.22,1.51-.65,3.31-.56s3.08,1.06,3.28.85-.09-.49-.64-.94a4.57,4.57,0,0,0-2.62-1,4.42,4.42,0,0,0-2.64.71C131.74,100.27,131.54,100.65,131.63,100.76Z" style="fill:#263238"></path><path d="M124.44,113.78a12.16,12.16,0,0,0-2.9-.67c-.46-.07-.89-.19-1-.51a2.35,2.35,0,0,1,.38-1.34c.48-1.09,1-2.24,1.53-3.43,2.13-4.89,3.7-8.92,3.51-9s-2.09,3.81-4.23,8.7c-.51,1.21-1,2.36-1.47,3.46a2.66,2.66,0,0,0-.33,1.79,1.13,1.13,0,0,0,.72.71,3.7,3.7,0,0,0,.77.15A11.78,11.78,0,0,0,124.44,113.78Z" style="fill:#263238"></path><path d="M130.7,94.76c.21.46,1.78,0,3.68.08s3.48.43,3.68,0c.09-.22-.23-.65-.9-1a5.69,5.69,0,0,0-2.82-.74,5.58,5.58,0,0,0-2.79.71C130.9,94.11,130.6,94.53,130.7,94.76Z" style="fill:#263238"></path><path d="M114.24,93.68c.36.43,1.87.08,3.65.14s3.29.44,3.66,0c.16-.2-.06-.62-.7-1a6.16,6.16,0,0,0-5.89-.14C114.31,93.06,114.08,93.47,114.24,93.68Z" style="fill:#263238"></path><path d="M150.07,108.67a3.18,3.18,0,0,1,3.58-2.9c2.17.32,4.54,1.68,4.18,6.19-.66,8-8.55,5.69-8.54,5.46S149.76,112,150.07,108.67Z" style="fill:#ffbf9d"></path><path d="M151.27,114.55s.13.11.36.24a1.38,1.38,0,0,0,1,.1c.87-.24,1.69-1.52,1.85-3a4.75,4.75,0,0,0-.23-2,1.62,1.62,0,0,0-1-1.16.7.7,0,0,0-.85.32c-.13.21-.09.38-.14.39s-.16-.15-.07-.48a1,1,0,0,1,.36-.47,1,1,0,0,1,.79-.14,1.94,1.94,0,0,1,1.35,1.36,4.65,4.65,0,0,1,.3,2.26c-.18,1.61-1.13,3.05-2.31,3.29a1.5,1.5,0,0,1-1.26-.32C151.27,114.75,151.24,114.56,151.27,114.55Z" style="fill:#ff9a6c"></path><path d="M146.83,78l-15.15-6.33-7.14,3-13.73,8.67L109,86.53c.09.2.19.41.3.6a9.49,9.49,0,0,0,17.53-2.32,7.42,7.42,0,0,0,9.59-3.37s1.37,6.65,7.74,3.18c-2.2,2.57,1,8.38,1.25,10.65.33,3.59-.62,6.58.13,10.11.38,1.82,1.21,5.92,3,6.41,1.42.38,2.84-2.53,3.59-3.8a8.78,8.78,0,0,0,.93-4.27,16.05,16.05,0,0,1,.42-4.38l.87-.44V85.46Z" style="fill:#263238"></path><path d="M131.18,117.12c-.11.27-1.42,0-2.89.53s-2.35,1.5-2.6,1.34,0-.46.32-1a4.26,4.26,0,0,1,4.32-1.48C130.93,116.72,131.22,117,131.18,117.12Z" style="fill:#263238"></path><path d="M116.17,91.23s-.15,0-.46,0a5,5,0,0,1-1.35-.14,6.94,6.94,0,0,1-4-2.86A7,7,0,0,1,109.15,85a7.83,7.83,0,0,1,.66-3.92,9.68,9.68,0,0,1,6.91-5.49,13.28,13.28,0,0,1,7.82.86l-.34.17A6.91,6.91,0,0,1,128,71.93a6.56,6.56,0,0,1,7.44,1.53,4.62,4.62,0,0,1,.52.66.76.76,0,0,1,.14.25s-.25-.3-.77-.8A6.68,6.68,0,0,0,132.73,72a6.16,6.16,0,0,0-4.52.28,6.52,6.52,0,0,0-3.53,4.45l-.06.29-.27-.11a13,13,0,0,0-7.52-.8,9.24,9.24,0,0,0-6.58,5.18,7.49,7.49,0,0,0-.67,3.68,6.71,6.71,0,0,0,1.09,3.07,6.88,6.88,0,0,0,3.74,2.87A12.63,12.63,0,0,0,116.17,91.23Z" style="fill:#455a64"></path><path d="M120.57,438.55,121.74,460s-21.42,8.41-21.59,12.39l41.71-.78-.46-33.53Z" style="fill:#263238"></path><path d="M134.61,458a1.7,1.7,0,0,1,1.21,1.92,1.63,1.63,0,0,1-1.89,1.22,1.79,1.79,0,0,1-1.28-2,1.7,1.7,0,0,1,2.11-1.05" style="fill:#e0e0e0"></path><path d="M141.86,471.63l-.18-3.38-39.92,2s-1.85.84-1.61,2.14Z" style="fill:#455a64"></path><path d="M121.06,459.82c0,.2,1,.28,2,.91s1.56,1.49,1.75,1.4-.14-1.25-1.38-2S121,459.63,121.06,459.82Z" style="fill:#fff"></path><path d="M116.72,461.71c0,.2.85.53,1.56,1.38s.92,1.75,1.12,1.74.32-1.17-.59-2.2S116.72,461.52,116.72,461.71Z" style="fill:#fff"></path><path d="M114.34,467c.18,0,.45-1-.1-2.09s-1.5-1.53-1.58-1.36.51.75,1,1.67S114.13,467,114.34,467Z" style="fill:#fff"></path><path d="M121.34,454.9c.09.18,1-.12,2.17-.06s2.06.4,2.16.23-.77-.89-2.13-.94S121.24,454.74,121.34,454.9Z" style="fill:#fff"></path><path d="M171.06,436.44l2.26,25.91-4.12,21a2.66,2.66,0,0,0,2.28,3.16h0a2.63,2.63,0,0,0,2.29-.84c3.72-4.05,17.32-19,17-20.92-.32-2.18-.57-27.49-.57-27.49Z" style="fill:#263238"></path><path d="M171.48,486.52,190.71,463l.07,1.1a4,4,0,0,1-.79,2.66c-1.52,2-5.85,7.59-16.14,18.91a2.67,2.67,0,0,1-2.37.84Z" style="fill:#455a64"></path><g style="opacity:0.6000000000000001"><path d="M184.84,455a1.61,1.61,0,0,0-.3,2.13,1.55,1.55,0,0,0,2.11.32,1.71,1.71,0,0,0,.31-2.26,1.62,1.62,0,0,0-2.23-.09" style="fill:#fff"></path></g><path d="M176.68,474.8a5.72,5.72,0,0,0-5.43-2.26c0-.06.29-.28.89-.41a4.26,4.26,0,0,1,2.36.27,4.15,4.15,0,0,1,1.85,1.48C176.68,474.39,176.75,474.77,176.68,474.8Z" style="fill:#fff"></path><path d="M175.06,478.39a22,22,0,0,0-2.37-1,21.25,21.25,0,0,0-2.56-.16,3,3,0,0,1,2.69-.39C174.37,477.22,175.19,478.31,175.06,478.39Z" style="fill:#fff"></path><path d="M179.84,470.12a26.07,26.07,0,0,0-3.56-1.74,26.44,26.44,0,0,0-3.91-.65,7.26,7.26,0,0,1,7.47,2.39Z" style="fill:#fff"></path><path d="M179.81,462.19c-.06.16-1.53-.35-3.4-.3s-3.32.6-3.39.44a5.17,5.17,0,0,1,3.38-1A5.09,5.09,0,0,1,179.81,462.19Z" style="fill:#fff"></path><path d="M179.34,454.56a13.1,13.1,0,0,0-3.53-.4,12.94,12.94,0,0,0-3.39,1.09c0-.06.22-.4.79-.78a5.73,5.73,0,0,1,2.54-.88,5.81,5.81,0,0,1,2.66.36C179.05,454.22,179.38,454.5,179.34,454.56Z" style="fill:#fff"></path><path d="M175.76,452.71a2.4,2.4,0,0,1-.1-1,6.81,6.81,0,0,1,.62-2.62,3.05,3.05,0,0,1,1.2-1.53,1.07,1.07,0,0,1,1.22.16,1.74,1.74,0,0,1,.49,1.15,3.77,3.77,0,0,1-3.07,3.69,4.39,4.39,0,0,1-4.43-2,1.47,1.47,0,0,1-.15-1.25,1,1,0,0,1,1.06-.63,3.72,3.72,0,0,1,1.76.78,7.47,7.47,0,0,1,1.9,1.9,2.45,2.45,0,0,1,.46.87,12.63,12.63,0,0,0-2.58-2.44,3.57,3.57,0,0,0-1.56-.64.57.57,0,0,0-.58.34,1.06,1.06,0,0,0,.15.82A3.9,3.9,0,0,0,176,452a3.26,3.26,0,0,0,2.65-3.09,1.21,1.21,0,0,0-.3-.81.56.56,0,0,0-.67-.1,2.68,2.68,0,0,0-1.05,1.27A10.25,10.25,0,0,0,175.76,452.71Z" style="fill:#fff"></path><path d="M99.91,258.25a92.1,92.1,0,0,0-2,27.16c.44,5.77,19.92,165.48,19.92,165.48h26.31l-7.4-150.1,2.16.46s14.35,64,15.53,74.39c1.05,9.31,13.16,77,13.16,77l24.05.27-7.68-89.52L175,277.49l-3.36-25Z" style="fill:#263238"></path><path d="M140.87,285.47a4.59,4.59,0,0,1-1.1.62,12.41,12.41,0,0,1-3.25,1.14,6.8,6.8,0,0,1-2.43,0,4.94,4.94,0,0,1-2.53-1.22,6,6,0,0,1-1.54-2.68,31.79,31.79,0,0,1-.7-3.17c-.84-4.33-1.41-8.28-1.74-11.15-.17-1.44-.28-2.6-.34-3.41a5.08,5.08,0,0,1,0-1.26,5.93,5.93,0,0,1,.25,1.24c.14.91.31,2,.51,3.37.43,2.86,1.06,6.79,1.89,11.11.43,2.13.72,4.31,2,5.58a5.46,5.46,0,0,0,4.54,1.18,14.49,14.49,0,0,0,3.24-.94A6.45,6.45,0,0,1,140.87,285.47Z" style="fill:#455a64"></path><path d="M133,265.12s.17-.14.54-.16a2.34,2.34,0,0,1,1.48.47,2.63,2.63,0,0,1,1.1,2,2.61,2.61,0,0,1-4.44,1.67,2.66,2.66,0,0,1-.5-2.26,2.39,2.39,0,0,1,.8-1.33c.29-.22.5-.25.51-.23a2.92,2.92,0,0,0-.92,1.63,2.3,2.3,0,0,0,.5,1.85,2.13,2.13,0,0,0,3.54-1.33,2.31,2.31,0,0,0-.84-1.72A2.9,2.9,0,0,0,133,265.12Z" style="fill:#455a64"></path><path d="M148.23,196.53c.11-2.71,4.29-22.12,4.29-22.46s-4.14-28.87-4.14-28.87l-.91-8.93-20,12s-8.52-6.41-8.32-6.75l-4.71,28.27-9.55,88.38s3.28,4,15.78,5.81c15.6,2.28,38.11-5.81,38.11-5.81S148.11,199.24,148.23,196.53Z" style="fill:#e0e0e0"></path><g style="opacity:0.30000000000000004"><path d="M101.79,289.15s2.95,2.23,4.75-11.17,7.12-69.6,7.12-69.6l3.83-58.17L106,184.09Z"></path></g><g style="opacity:0.30000000000000004"><path d="M146.45,245.5s5.27,51.43,7.27,50.43S175,287.35,175,287.35L173,270.73Z"></path></g><polygon points="122.44 155.77 124.94 159.45 128.68 159.45 130.68 155.77 128.47 151.12 125.51 151.28 122.44 155.77" style="fill:#407BFF"></polygon><path d="M146.85,148.29a4.19,4.19,0,0,1-.88.67l-2.51,1.67c-2.13,1.39-5.09,3.28-8.37,5.35L132,157.9l-.21.14-.13-.21a42,42,0,0,1-3.24-6.76c-.34-.86-.6-1.55-.77-2a2.5,2.5,0,0,1-.23-.75,17.56,17.56,0,0,1,1.29,2.66,54.48,54.48,0,0,0,3.36,6.61l-.34-.08,3.08-1.94c3.29-2.06,6.28-3.91,8.46-5.22l2.59-1.53A4.62,4.62,0,0,1,146.85,148.29Z" style="fill:#455a64"></path><path d="M118.16,152a7.48,7.48,0,0,1,1.09,1.31c.64.86,1.51,2.07,2.51,3.5h-.4c.4-.57.83-1.19,1.26-1.83,1.27-1.89,2.4-3.62,3.27-4.83a9.28,9.28,0,0,1,1.53-1.88,13.9,13.9,0,0,1-1.23,2.08c-.79,1.26-1.87,3-3.14,4.91-.44.65-.87,1.28-1.29,1.84l-.22.28-.19-.28c-1-1.44-1.79-2.7-2.36-3.6A6.45,6.45,0,0,1,118.16,152Z" style="fill:#455a64"></path><polygon points="124.94 159.45 113.66 244.64 120.83 259.52 132.95 243.84 128.68 159.45 124.94 159.45" style="fill:#407BFF"></polygon><path d="M72.14,136.33c-.07-.09,5.73-4.61,5.73-4.16s10.52,15.91,10.52,15.91l-6.24,4.28L71.7,136.6" style="fill:#e0e0e0"></path><path d="M98.49,287.53a3.19,3.19,0,0,0,4.75-2.5l6.2-63.64,9.37-78.62-3.3,2.8s-17.6,1.27-18,1.56-3.94,11.06-5.5,24.4-.37,54.81-.37,54.81L85,278.55Z" style="fill:#263238"></path><path d="M107.78,223a4.71,4.71,0,0,1,0-.86c0-.56.06-1.39.06-2.45,0-2.14.07-5.23,0-9.05,0-7.63-.23-18.19-.49-29.84-.19-7.95-.37-15.39-.53-21.68v-.14l.12-.06,4.27-2.3-.07.28-2.9-4.23-.08-.12.1-.1,5.63-5.33,1.53-1.41a5.5,5.5,0,0,1,.54-.46,3.37,3.37,0,0,1-.48.53l-1.46,1.47-5.52,5.44,0-.21,3,4.2.12.18-.19.11-4.25,2.33.12-.2c.21,6.29.42,13.73.6,21.69.26,11.66.39,22.21.33,29.85,0,3.82-.1,6.92-.2,9.05,0,1.07-.12,1.9-.16,2.46A5.21,5.21,0,0,1,107.78,223Z" style="fill:#455a64"></path><path d="M105.77,259.21a1.36,1.36,0,0,1,0,.48c0,.37-.08.83-.13,1.37-.15,1.27-.35,3-.59,5-.51,4.25-1.26,10.11-2.12,16.58-.31,2.28-.61,4.47-.88,6.51l-.05.37-.32-.18-10.65-6L88,281.57a10,10,0,0,1-1.08-.69,6.18,6.18,0,0,1,1.16.54l3.14,1.66,10.74,5.86-.36.18c.27-2,.55-4.24.85-6.52.86-6.47,1.67-12.32,2.28-16.55.31-2.06.56-3.75.75-5,.09-.55.17-1,.23-1.36A2.71,2.71,0,0,1,105.77,259.21Z" style="fill:#455a64"></path><path d="M98.74,147.13a7.52,7.52,0,0,0-4.94,2.11c-2,2-6.19,5.74-6.19,5.74L67,163.49l18-13.28-12.15-16S53,147.72,45.42,152.85,33.48,166.12,35,171.58s2.94,7.64,13.72,10.32c4.42,1.1,42.2,5.07,42.2,5.07l6.24-28.57Z" style="fill:#263238"></path><path d="M58.28,177a22.44,22.44,0,0,1,1.84-1.5,19,19,0,0,0,6-9.42c.39-1.41.5-2.31.59-2.3a7.23,7.23,0,0,1-.23,2.38,16.42,16.42,0,0,1-2.21,5.36,16.74,16.74,0,0,1-3.92,4.27A7.15,7.15,0,0,1,58.28,177Z" style="fill:#455a64"></path><path d="M93.06,158.87a6.8,6.8,0,0,1,0,1.43c-.06,1-.14,2.31-.24,3.87-.21,3.27-.48,7.78-.71,12.77s-.34,9.51-.43,12.78c0,1.56-.07,2.86-.1,3.88a8.17,8.17,0,0,1-.1,1.42,7.07,7.07,0,0,1-.1-1.42c0-.92-.06-2.24-.06-3.88,0-3.28,0-7.81.27-12.81s.56-9.51.86-12.77c.15-1.63.29-2.95.41-3.86A8.56,8.56,0,0,1,93.06,158.87Z" style="fill:#455a64"></path><path d="M148,137.09c.7.54,8.64,8.22,8.64,8.22s18.16,2,18.68,2.57c.37.38.54,38.42.44,39.27-1,9-4.52,39.77-4.52,39.77l14.93,52L155,291.75s-6.34-32-9.3-49.32-2.09-22.22-1.75-39,4-58.14,4-58.14Z" style="fill:#263238"></path><path d="M145.69,220.47a4.17,4.17,0,0,1,.06-.82c.07-.53.15-1.32.31-2.32.32-2,.82-4.92,1.53-8.49,1.39-7.14,3.51-17,6-27.79,2-8.68,3.85-16.68,5.39-23.1l.07.21L155.32,155l-.16-.13.15-.14,3.74-3.52,0,.15c-.74-1.89-1.33-3.39-1.76-4.47-.18-.48-.33-.88-.45-1.18s-.14-.41-.12-.42a2.37,2.37,0,0,1,.2.39l.51,1.16c.45,1.06,1.09,2.55,1.88,4.42l0,.08-.07.07L155.56,155v-.27l3.73,3.1.09.08,0,.13c-1.48,6.45-3.31,14.45-5.29,23.11-2.46,10.83-4.63,20.64-6.12,27.75-.75,3.56-1.31,6.45-1.68,8.45-.19,1-.3,1.78-.4,2.3S145.7,220.47,145.69,220.47Z" style="fill:#455a64"></path><path d="M186.21,278.93a3.49,3.49,0,0,1-.58.28l-1.73.76-6.48,2.74L155.09,292l-.29.12-.05-.3-2.13-11.46c-2.24-12.32-4.27-23.47-5.75-31.59-.71-4-1.28-7.27-1.69-9.58-.18-1.1-.33-2-.43-2.61,0-.28-.07-.5-.1-.68a.87.87,0,0,1,0-.24,1,1,0,0,1,.07.23l.15.67c.13.63.31,1.5.53,2.59.44,2.3,1.07,5.55,1.85,9.55,1.51,8.12,3.6,19.26,5.9,31.57.73,4,1.44,7.85,2.11,11.46l-.34-.19,22.4-9.1,6.54-2.61,1.75-.68A2.93,2.93,0,0,1,186.21,278.93Z" style="fill:#455a64"></path><path d="M165.54,236.15a13.69,13.69,0,0,1-.44-2.88c-.19-1.79-.36-4.28-.39-7s.06-5.24.2-7a15.79,15.79,0,0,1,.36-2.9,17.81,17.81,0,0,1,0,2.92c0,1.79-.09,4.27-.05,7s.14,5.22.23,7A20.09,20.09,0,0,1,165.54,236.15Z" style="fill:#455a64"></path><path d="M166.6,240.79s-.22-.24-.53-.72-.74-1.18-1.24-2.06a70.47,70.47,0,0,1-3.47-7.15,69.58,69.58,0,0,1-2.65-7.5c-.27-1-.48-1.78-.6-2.33a3.33,3.33,0,0,1-.14-.88,25.51,25.51,0,0,1,1.1,3.1c.64,1.92,1.58,4.56,2.77,7.41s2.4,5.37,3.32,7.17A29.12,29.12,0,0,1,166.6,240.79Z" style="fill:#455a64"></path><path d="M187,222.54l-.35-1-5.89,5.92s-12.38-.1-14.68.72a2.39,2.39,0,0,0-.64,4.28s-1.73,2.68.49,4.37l1.33.8s-1.36,2.94.77,4.21,1.91.44,1.89,1.63.6,2.82,1.68,3.1,13.07-4.3,15.5-5.7,6.65-6,6.65-6Z" style="fill:#ffbf9d"></path><path d="M182.53,152.22c2.89,3.91,7.63,11.2,7.63,11.2s25.39,19.6,31.61,24.68c8.9,7.27,4.07,16.55,2,19.53s-31,32.09-31,32.09l-12.36-15,18.48-23.59-.14-1.6-23-12.39-3.87,9-.07-40.71,2.43-7.19,1.07-.41A12.93,12.93,0,0,1,182.53,152.22Z" style="fill:#263238"></path><path d="M177.59,164.59c.15,0-.35,6.58-1.1,14.66s-1.47,14.62-1.62,14.6.36-6.57,1.11-14.65S177.45,164.58,177.59,164.59Z" style="fill:#455a64"></path><path d="M211.83,193.19a22.58,22.58,0,0,0-13.16,8.46,7.09,7.09,0,0,1,1.28-2,18,18,0,0,1,9.52-6.13A7,7,0,0,1,211.83,193.19Z" style="fill:#455a64"></path><path d="M182.45,230.89c-.13.07-.63-.61-1.12-1.52s-.79-1.69-.67-1.76.63.61,1.13,1.52S182.58,230.83,182.45,230.89Z" style="fill:#ff9a6c"></path><path d="M77.79,131.6A25.78,25.78,0,0,1,81.58,128,57.29,57.29,0,0,1,92,124c1-.1,2.72-.17,2.72-.17s4.22-1.85,5.19.63c0,0,.33,1.42-.17,1.92a2.26,2.26,0,0,1,1.75,3.88s2.35,1.86,1.36,3.87c0,0,1.82,1.68,1.49,3.2s-1.1,1.75-2.57,2.32a27.91,27.91,0,0,1-4.39,1,1.81,1.81,0,0,0-.8,1.87c.21,1.31,2.73,1.15,5.23,3.82,1.94,2.06,2.51,3.65,1.69,4.37-.44.39-1.78.87-4.35-1.09-3.64-2.77-5.21-1.29-6.94-1.85s-5.47-2.19-5.47-2.19S77,135.08,77.79,131.6Z" style="fill:#ffbf9d"></path><path d="M99.43,126.37a4,4,0,0,1-1.67,1.84,10,10,0,0,1-2.43,1.19c-.48.17-1,.33-1.52.48l-.82.22a1.13,1.13,0,0,1-1-.22,1.77,1.77,0,0,1-.4-1.74,2.82,2.82,0,0,1,.86-1.36,4.93,4.93,0,0,1,2.44-1l-.14.13a2.57,2.57,0,0,1,1.44-1.51c.47-.18.76-.15.76-.12s-.26.09-.67.31A2.52,2.52,0,0,0,95.07,126l0,.1-.11,0a4.74,4.74,0,0,0-2.19,1,2.32,2.32,0,0,0-.69,1.13,1.27,1.27,0,0,0,.25,1.22c.25.29.84,0,1.37-.11s1-.28,1.5-.43a10.74,10.74,0,0,0,2.39-1A13.31,13.31,0,0,0,99.43,126.37Z" style="fill:#ff9a6c"></path><path d="M93.29,129.7a2.59,2.59,0,0,0-.06,1.54,2,2,0,0,0,1.11,1.11,3.35,3.35,0,0,0,2,0,36.18,36.18,0,0,0,5.21-2.09,11.16,11.16,0,0,1-5.09,2.59,3.64,3.64,0,0,1-2.33,0,2.25,2.25,0,0,1-1.28-1.45,1.92,1.92,0,0,1,.11-1.29C93.12,129.79,93.26,129.68,93.29,129.7Z" style="fill:#ff9a6c"></path><path d="M95.48,132.78a3.69,3.69,0,0,0-1,1.54,2,2,0,0,0,.37,1.81,1.81,1.81,0,0,0,.9.62,2.3,2.3,0,0,0,1.19,0c.86-.23,1.7-.57,2.45-.81a20.25,20.25,0,0,0,2-.72A3.73,3.73,0,0,0,102.8,134s0,.21-.18.52a3.1,3.1,0,0,1-1.12,1,14.55,14.55,0,0,1-2,.84c-.77.27-1.56.61-2.5.86a2.68,2.68,0,0,1-1.46,0,2.37,2.37,0,0,1-1.47-3A2.58,2.58,0,0,1,95,133C95.27,132.8,95.46,132.75,95.48,132.78Z" style="fill:#ff9a6c"></path><path d="M99.63,140.2c0,.06-.47.28-1.33.37a3.25,3.25,0,0,1-1.54-.19,2.61,2.61,0,0,1-1.28-1.46,1.38,1.38,0,0,1,.06-1.11,1.9,1.9,0,0,1,.66-.75,8.08,8.08,0,0,1,1.41-.54c.81-.24,1.35-.27,1.36-.2a5.6,5.6,0,0,1-1.24.55,11.87,11.87,0,0,0-1.28.6,1.15,1.15,0,0,0-.48,1.26A2.33,2.33,0,0,0,97,140a3.43,3.43,0,0,0,1.33.25A6.86,6.86,0,0,1,99.63,140.2Z" style="fill:#ff9a6c"></path><path d="M89.19,133a3.92,3.92,0,0,1,1.23,1.47,7.58,7.58,0,0,1,.8,1.93c.12.37.16.83.28,1.14s.4.39.87.52A6.05,6.05,0,0,1,96,141a3.31,3.31,0,0,1,.54,1.84c-.09,0-.24-.7-.86-1.65a6.13,6.13,0,0,0-3.43-2.57,3.82,3.82,0,0,1-.67-.23,1.1,1.1,0,0,1-.53-.6,12.07,12.07,0,0,1-.27-1.21,8.89,8.89,0,0,0-.67-1.88C89.59,133.64,89.12,133.09,89.19,133Z" style="fill:#ff9a6c"></path><path d="M94.56,137.25a17.48,17.48,0,0,1-3-5.05,17,17,0,0,1-1.64-5.64c.15,0,.82,2.49,2.12,5.44S94.69,137.16,94.56,137.25Z" style="fill:#ff9a6c"></path></g></svg>