<svg xmlns="http://www.w3.org/2000/svg" viewBox="0 0 750 500"><g id="freepik--background-complete--inject-138"><rect x="159.37" y="49.19" width="7.15" height="153.76" style="fill:#e0e0e0"></rect><rect x="55.64" y="50.38" width="102.65" height="152.78" rx="0.1" style="fill:#f5f5f5"></rect><path d="M159.37,204.35H54.55a.1.1,0,0,1-.1-.11v-155a.09.09,0,0,1,.1-.1H159.37a.1.1,0,0,1,.11.1v155A.11.11,0,0,1,159.37,204.35ZM56.93,202H157a.11.11,0,0,0,.11-.11V51.67a.1.1,0,0,0-.11-.1H56.93a.09.09,0,0,0-.1.1V201.86A.1.1,0,0,0,56.93,202Z" style="fill:#ebebeb"></path><rect x="65.97" y="59.8" width="82.16" height="133.83" rx="0.1" style="fill:#fff"></rect><rect x="83.9" y="97.74" width="46.13" height="54.07" rx="0.06" style="fill:#ebebeb"></rect><path d="M126.38,145.19c.06.18-2.22,1.18-6.55.67a16,16,0,0,1-7.37-3,15,15,0,0,1-5.72-9,12.93,12.93,0,0,1,4.38-12.3,11.67,11.67,0,0,1,3.32-2,8.7,8.7,0,0,1,4.15-.47,7.33,7.33,0,0,1,4.15,1.81,5.41,5.41,0,0,1,1.63,4.83,7.86,7.86,0,0,1-2.28,4.15,14.73,14.73,0,0,1-3.47,2.56,19.06,19.06,0,0,1-8.29,2.37,16.57,16.57,0,0,1-8.84-2,16.13,16.13,0,0,1-6.5-6.74,13.81,13.81,0,0,1-1.17-9.44,14,14,0,0,1,5-7.78,12.15,12.15,0,0,1,4.17-2.1,10.36,10.36,0,0,1,4.7-.15,7.71,7.71,0,0,1,4.26,2.4,7.14,7.14,0,0,1,1.67,4.56,8.76,8.76,0,0,1-1.11,4.34,11.7,11.7,0,0,1-2.63,3.16,17.73,17.73,0,0,1-6.54,3.47,16.64,16.64,0,0,1-6.87.53,14.12,14.12,0,0,1-6-2.29,13,13,0,0,1-5.71-9.05,10.91,10.91,0,0,1,2.11-7.76,9.28,9.28,0,0,1,3.92-3.13c1.08-.41,1.69-.4,1.72-.29s-.49.38-1.36,1a10.23,10.23,0,0,0-3,3.28,9.61,9.61,0,0,0-1.24,6.63,10.79,10.79,0,0,0,5.08,7.11,12.47,12.47,0,0,0,10.48,1,14.74,14.74,0,0,0,5.24-3,6.41,6.41,0,0,0,2.45-4.91,3.53,3.53,0,0,0-3.15-3.49,6.74,6.74,0,0,0-3,.14,8.76,8.76,0,0,0-2.85,1.49,10.38,10.38,0,0,0-3.58,5.72,10,10,0,0,0,.88,6.86,12.46,12.46,0,0,0,5,5.16,13,13,0,0,0,6.83,1.59,15.6,15.6,0,0,0,6.71-1.84,11.42,11.42,0,0,0,2.68-1.89,4.49,4.49,0,0,0,1.36-2.22,1.92,1.92,0,0,0-.55-1.78,4,4,0,0,0-2.22-1,5.71,5.71,0,0,0-2.61.22,8.66,8.66,0,0,0-2.44,1.34,10.13,10.13,0,0,0-3.71,9.41,13,13,0,0,0,4.39,7.78,15.55,15.55,0,0,0,6.32,3.16C124,145.31,126.35,144.86,126.38,145.19Z" style="fill:#e0e0e0"></path><rect x="620.28" y="61.73" width="81.66" height="85.13" style="fill:#e0e0e0"></rect><rect x="614.75" y="61.73" width="81.66" height="85.13" style="fill:#fafafa"></rect><path d="M696.44,146.89H614.73V61.71h81.71Zm-81.66-.06h81.61V61.76H614.78Z" style="fill:#e0e0e0"></path><rect x="625.73" y="73.18" width="59.71" height="62.24" style="fill:#fff"></rect><path d="M625.73,135.83a9.29,9.29,0,0,1-1.47,1.71c-1,1-2.3,2.37-3.8,3.85s-2.88,2.8-3.9,3.73a9.15,9.15,0,0,1-1.73,1.44,9.89,9.89,0,0,1,1.47-1.7c1-1,2.3-2.38,3.8-3.86s2.89-2.8,3.91-3.74A8.83,8.83,0,0,1,625.73,135.83Z" style="fill:#e0e0e0"></path><path d="M685.44,135.68a10.14,10.14,0,0,1,1.71,1.47c1,.95,2.37,2.29,3.85,3.8s2.8,2.88,3.73,3.9a9.72,9.72,0,0,1,1.44,1.72,9.73,9.73,0,0,1-1.71-1.46c-1-1-2.37-2.3-3.85-3.81s-2.81-2.89-3.74-3.9A9.2,9.2,0,0,1,685.44,135.68Z" style="fill:#e0e0e0"></path><path d="M685.27,73.34a10.57,10.57,0,0,1,1.48-1.71c1-1,2.29-2.37,3.79-3.85s2.89-2.8,3.9-3.73a9.53,9.53,0,0,1,1.73-1.44,9.57,9.57,0,0,1-1.47,1.71c-1,1-2.29,2.37-3.8,3.85S688,71,687,71.91A8.83,8.83,0,0,1,685.27,73.34Z" style="fill:#e0e0e0"></path><path d="M625.57,73.49A9,9,0,0,1,623.85,72c-1-1-2.37-2.29-3.84-3.79s-2.8-2.89-3.74-3.9a10.11,10.11,0,0,1-1.44-1.73,9.17,9.17,0,0,1,1.71,1.47c1,1,2.37,2.29,3.86,3.8s2.8,2.89,3.74,3.91A10.59,10.59,0,0,1,625.57,73.49Z" style="fill:#e0e0e0"></path><path d="M685.27,135.42s0-.11,0-.31,0-.49,0-.86c0-.78,0-1.91,0-3.36,0-2.95,0-7.24-.06-12.69,0-10.9-.07-26.43-.12-45l.23.23-59.53,0h0l.26-.26c0,22.84,0,44.21,0,62.24l-.23-.23,43.11.12,12.11.05,3.21,0H685l.28,0h-1.06l-3.16,0-12.06.06-43.26.11h-.23v-.22c0-18,0-39.4,0-62.24v-.27h.28l59.53,0h.24v.23c0,18.65-.08,34.23-.11,45.17,0,5.42,0,9.69-.06,12.63,0,1.44,0,2.55,0,3.32,0,.36,0,.63,0,.84A1.45,1.45,0,0,1,685.27,135.42Z" style="fill:#e0e0e0"></path><rect x="645.62" y="94.33" width="19.92" height="19.92" style="fill:#ebebeb"></rect><rect x="620.28" y="176.63" width="81.66" height="85.13" style="fill:#e0e0e0"></rect><rect x="614.75" y="176.63" width="81.66" height="85.13" style="fill:#fafafa"></rect><path d="M696.44,261.78H614.73V176.6h81.71Zm-81.66,0h81.61V176.65H614.78Z" style="fill:#e0e0e0"></path><rect x="625.73" y="188.07" width="59.71" height="62.24" style="fill:#fff"></rect><path d="M625.73,250.72a9.51,9.51,0,0,1-1.47,1.72c-1,1-2.3,2.36-3.8,3.84s-2.88,2.8-3.9,3.74a8.81,8.81,0,0,1-1.73,1.43,10.36,10.36,0,0,1,1.47-1.7c1-1,2.3-2.37,3.8-3.86s2.89-2.8,3.91-3.74A9.89,9.89,0,0,1,625.73,250.72Z" style="fill:#e0e0e0"></path><path d="M685.44,250.57a10.14,10.14,0,0,1,1.71,1.47c1,1,2.37,2.3,3.85,3.8s2.8,2.88,3.73,3.9a9.15,9.15,0,0,1,1.44,1.73,10.14,10.14,0,0,1-1.71-1.47c-1-.95-2.37-2.3-3.85-3.8s-2.81-2.89-3.74-3.91A8.83,8.83,0,0,1,685.44,250.57Z" style="fill:#e0e0e0"></path><path d="M685.27,188.23a10.57,10.57,0,0,1,1.48-1.71c1-1,2.29-2.37,3.79-3.85s2.89-2.79,3.9-3.73a9.53,9.53,0,0,1,1.73-1.44,9.17,9.17,0,0,1-1.47,1.71c-1,1-2.29,2.37-3.8,3.85S688,185.87,687,186.8A8.83,8.83,0,0,1,685.27,188.23Z" style="fill:#e0e0e0"></path><path d="M625.57,188.39a9.89,9.89,0,0,1-1.72-1.48c-1-.95-2.37-2.29-3.84-3.79s-2.8-2.88-3.74-3.9a10.11,10.11,0,0,1-1.44-1.73,9.17,9.17,0,0,1,1.71,1.47c1,.95,2.37,2.3,3.86,3.8s2.8,2.89,3.74,3.91A9.89,9.89,0,0,1,625.57,188.39Z" style="fill:#e0e0e0"></path><path d="M685.27,250.31s0-.11,0-.3,0-.5,0-.87q0-1.17,0-3.36c0-2.95,0-7.24-.06-12.69,0-10.9-.07-26.43-.12-45l.23.23-59.53,0h0l.26-.26c0,22.84,0,44.22,0,62.24l-.23-.23,43.11.12,12.11.06,3.21,0,.83,0h-.78l-3.16,0-12.06.06-43.26.12h-.23v-.23c0-18,0-39.4,0-62.24v-.27h.28l59.53,0h.24v.23c0,18.65-.08,34.23-.11,45.17,0,5.43,0,9.7-.06,12.63,0,1.44,0,2.55,0,3.32,0,.36,0,.64,0,.84A1.45,1.45,0,0,1,685.27,250.31Z" style="fill:#e0e0e0"></path><rect x="645.62" y="209.23" width="19.92" height="19.92" style="fill:#ebebeb"></rect><path d="M508.37,120.63a51,51,0,1,1-49.3-52.45A50.9,50.9,0,0,1,508.37,120.63Z" style="fill:#ebebeb"></path><path d="M497.64,120.81a38.84,38.84,0,1,1-37.57-40A38.8,38.8,0,0,1,497.64,120.81Z" style="fill:#ebebeb"></path><path d="M496.25,120.24a4.53,4.53,0,0,1-.05-.63c0-.46,0-1.07-.07-1.84,0-.41,0-.87-.05-1.36s-.13-1-.2-1.63a28.39,28.39,0,0,0-.69-4,37.08,37.08,0,0,0-4-10.39,38.82,38.82,0,0,0-50.75-15.79c-.83.41-1.62.89-2.44,1.34a19.83,19.83,0,0,0-2.37,1.52A41.87,41.87,0,0,0,431.15,91a43.65,43.65,0,0,0-3.91,4.32,37,37,0,0,0-5.83,10.38,37.83,37.83,0,0,0-.78,24.21,36.78,36.78,0,0,0,5.16,10.74,42.5,42.5,0,0,0,3.62,4.57,43.63,43.63,0,0,0,4.24,3.83,40.16,40.16,0,0,0,4.61,3.17,38.68,38.68,0,0,0,51.67-12.5,37.07,37.07,0,0,0,4.65-10.11,28.39,28.39,0,0,0,.95-4c.11-.58.23-1.11.31-1.6s.09-1,.13-1.35c.08-.78.14-1.39.19-1.84a5.14,5.14,0,0,1,.09-.62,3,3,0,0,1,0,.63c0,.45-.06,1.06-.11,1.84,0,.41-.06.87-.09,1.36s-.17,1-.27,1.63a28.39,28.39,0,0,1-.88,4A36.68,36.68,0,0,1,490.31,140a39,39,0,0,1-26.88,17.62,39.31,39.31,0,0,1-20.51-2.3,41.27,41.27,0,0,1-5-2.39,42.17,42.17,0,0,1-4.71-3.22,36.21,36.21,0,0,1-8-8.56,37.75,37.75,0,0,1-5.28-11,38.67,38.67,0,0,1,.8-24.72,37.93,37.93,0,0,1,6-10.6,45.23,45.23,0,0,1,4-4.4,44.62,44.62,0,0,1,4.58-3.62,18.65,18.65,0,0,1,2.42-1.54c.83-.46,1.65-1,2.49-1.37a39.88,39.88,0,0,1,5.18-2.06,39.27,39.27,0,0,1,20.61-1,39.08,39.08,0,0,1,25.7,19.31,36.35,36.35,0,0,1,3.9,10.54,26.8,26.8,0,0,1,.63,4.06c.06.59.14,1.13.16,1.64s0,.95,0,1.36c0,.78,0,1.39,0,1.85A2.51,2.51,0,0,1,496.25,120.24Z" style="fill:#e0e0e0"></path><path d="M461.09,142.28l-.12,6.77-6-.11.12-6.58c-6-.47-11.68-2.44-14.95-5.1l3.45-7.31a24.37,24.37,0,0,0,11.64,4.5l.17-10.09c-6.67-1.75-14.12-4.11-14-12.75.12-6.4,4.86-11.81,14.42-12.73l.12-6.7,6,.1-.12,6.59a27.33,27.33,0,0,1,12.2,3.89l-3.15,7.38a24.72,24.72,0,0,0-9.19-3.31l-.18,10.27c6.68,1.69,14,4.06,13.85,12.57C475.27,136,470.59,141.3,461.09,142.28Zm-5.57-26.8.15-8.57c-3.21.67-4.51,2.4-4.55,4.39S452.88,114.59,455.52,115.48Zm10.13,14.74c0-2.11-1.69-3.29-4.27-4.24l-.15,8.33C464.26,133.7,465.62,132.15,465.65,130.22Z" style="fill:#e0e0e0"></path><path d="M505.81,166.34a70.59,70.59,0,0,1-67.08,15.57c-19.25-5.62-35.75-19.76-43.4-38.42a63.56,63.56,0,0,1,5.37-58.1C411.8,68.05,431,56.7,451.46,54.73c25.67-2.48,51.06,9.26,65.12,31,2.09,3.23,7.28.23,5.18-3A75.41,75.41,0,0,0,460.1,48.41c-22.67-.47-45.16,9.41-59.55,27a69.84,69.84,0,0,0-13.34,62.82c6.05,21.43,22.41,38.68,42.93,47,27,11,58.48,4.9,79.91-14.67,2.86-2.61-1.4-6.85-4.24-4.25Z" style="fill:#f5f5f5"></path><polygon points="500.25 83.74 524.7 67.28 524.7 92.17 500.25 83.74" style="fill:#f5f5f5"></polygon></g><g id="freepik--Arrow--inject-138"><path d="M407.29,204.36s36.65,9.66,48.24,48.31L440,259.58s-3.57-26.89-39.88-38.6c-19.65-6.34-45.67,2.6-52.87,10.8l-17.49-7.55C341.45,211.36,370.3,194.28,407.29,204.36Z" style="fill:#407BFF"></path><polygon points="465.5 242.93 426.76 255.78 456.49 270.68 465.5 242.93" style="fill:#407BFF"></polygon></g><g id="freepik--Device--inject-138"><path d="M361.57,469.79l-137-.08c-16.48,0-29.83-14-29.83-31.37l.07-360.95c0-17.32,13.38-31.36,29.86-31.35l137,.08c16.48,0,29.83,14.06,29.83,31.37l-.07,361C391.43,455.76,378.06,469.8,361.57,469.79Z" style="fill:#263238"></path><path d="M361.53,58.89l-26.56,0c-3.57,0-6.46,3.17-6.46,7.08V71c0,3.91-2.89,7.08-6.45,7.08l-51.77,0c-3.56,0-6.45-3.18-6.45-7.09V65.91c0-3.91-2.89-7.08-6.45-7.08h-9.34l-23.25,0c-11.55,0-20.91,9.83-20.91,22l-.07,352.31c0,12.13,9.35,22,20.89,22l136.73.09c11.54,0,20.91-9.83,20.91-22l.07-352.31C382.42,68.73,373.07,58.9,361.53,58.89Z" style="fill:#fff"></path><path d="M232.77,427.26V437.6a1.13,1.13,0,0,1-1.74,1l-8.13-5.17a1.14,1.14,0,0,1,0-1.92L231,426.3A1.13,1.13,0,0,1,232.77,427.26Z" style="fill:#e0e0e0"></path><path d="M299.56,432.33a7.13,7.13,0,1,1-7.13-7.14A7.14,7.14,0,0,1,299.56,432.33Z" style="fill:#e0e0e0"></path><rect x="350.72" y="426.12" width="13.15" height="13.18" rx="1.87" style="fill:#e0e0e0"></rect><path d="M253.52,186.12h11l-2.14-1.63q2.43,8,4.87,16l7.71,25.4c.59,2,1.19,3.9,1.78,5.85a2.28,2.28,0,0,0,2.14,1.63l31.46-.09h4.51c2.85,0,2.86-4.44,0-4.43l-31.46.08-4.51,0,2.14,1.62-4.86-16-7.72-25.39-1.78-5.86a2.28,2.28,0,0,0-2.14-1.63h-11c-2.86,0-2.86,4.44,0,4.44Z" style="fill:#263238"></path><path d="M321.86,191.77q-3.11,13.92-6.22,27.84c-.29,1.33-.59,2.67-.89,4l1.61-1.22-13.47-.13-21.6-.21-4.94-.05,1.6,1.22q-4.32-13.78-8.66-27.57l-1.22-3.88-1.61,2.1h57a1.67,1.67,0,0,0,0-3.33h-57a1.68,1.68,0,0,0-1.6,2.11q4.33,13.78,8.66,27.57c.41,1.29.82,2.59,1.22,3.88a1.73,1.73,0,0,0,1.61,1.23l13.47.13,21.6.21,4.94.05a1.7,1.7,0,0,0,1.6-1.22l6.21-27.85.9-4C325.53,190.56,322.33,189.67,321.86,191.77Z" style="fill:#263238"></path><path d="M277.8,193.19c1.75,10.15,4,20.22,5.73,30.37.36,2.11,3.57,1.21,3.21-.88-1.75-10.16-4-20.22-5.73-30.38-.36-2.1-3.57-1.21-3.21.89Z" style="fill:#263238"></path><path d="M295.37,192.75q.25,15.62.53,31.23c0,2.14,3.36,2.15,3.33,0q-.25-15.61-.53-31.23c0-2.14-3.36-2.15-3.33,0Z" style="fill:#263238"></path><path d="M311.6,224.36l4.23-27.74.6-4a1.73,1.73,0,0,0-1.16-2.05,1.69,1.69,0,0,0-2,1.17q-2.12,13.86-4.22,27.74c-.2,1.32-.41,2.64-.61,4a1.73,1.73,0,0,0,1.16,2.05,1.67,1.67,0,0,0,2.05-1.16Z" style="fill:#263238"></path><path d="M270.09,203.61h50.33a1.67,1.67,0,0,0,0-3.33H270.09a1.67,1.67,0,0,0,0,3.33Z" style="fill:#263238"></path><path d="M274.81,215.29h43.58a1.66,1.66,0,0,0,0-3.32H274.81a1.66,1.66,0,0,0,0,3.32Z" style="fill:#263238"></path><circle cx="314.83" cy="242.05" r="5.92" style="fill:#263238"></circle><circle cx="282.27" cy="242.05" r="5.92" style="fill:#263238"></circle><path d="M270.92,162.32s-24.35-.82-38.63,20.85l8.32,7.13s7.17-15.9,31.69-16.41c13.28-.27,22.4,7.46,25.33,13.84l15.05-.26C307.83,177.38,295.56,162.94,270.92,162.32Z" style="fill:#407BFF"></path><polygon points="229.07 176.11 250.56 191.18 231.04 195.14 229.07 176.11" style="fill:#407BFF"></polygon><path d="M371.36,96a2.42,2.42,0,1,1-2.42-2.41A2.42,2.42,0,0,1,371.36,96Z" style="fill:#263238"></path><circle cx="368.94" cy="102.61" r="2.42" style="fill:#263238"></circle><circle cx="368.94" cy="109.22" r="2.42" style="fill:#263238"></circle><polygon points="224.84 94.85 214.97 102.25 217.48 102.25 217.48 111.09 222.8 111.11 222.8 104.49 227 104.47 227 111.09 232.14 111.09 232.14 102.16 234.7 102.13 224.84 94.85" style="fill:#263238"></polygon><path d="M383.05,120.41c0,.14-40.27.26-89.93.26s-89.93-.12-89.93-.26,40.26-.26,89.93-.26S383.05,120.27,383.05,120.41Z" style="fill:#e0e0e0"></path><rect x="279.82" y="286.89" width="21.2" height="98.44" rx="9.8" style="fill:#e0e0e0"></rect><path d="M331.7,338.45a34.17,34.17,0,1,1-34.22-34.05A34.13,34.13,0,0,1,331.7,338.45Z" style="fill:#407BFF"></path><path d="M324.51,338.81a26,26,0,1,1-26.08-25.95A26,26,0,0,1,324.51,338.81Z" style="fill:#407BFF"></path><path d="M323.57,338.46a2,2,0,0,1-.05-.42c0-.31-.06-.72-.09-1.24q0-.41-.06-.9c0-.34-.11-.7-.18-1.09a18.55,18.55,0,0,0-.55-2.68,25,25,0,0,0-2.91-6.87,26,26,0,0,0-17.48-12.07,26,26,0,0,0-13.53,1.14,26.83,26.83,0,0,0-3.36,1.48c-.54.3-1.06.64-1.6,1a12.56,12.56,0,0,0-1.55,1.07,29.8,29.8,0,0,0-2.93,2.48,30.39,30.39,0,0,0-2.52,3,24.89,24.89,0,0,0-3.68,7.09,27.23,27.23,0,0,0-1.32,8.12,27.57,27.57,0,0,0,1.34,8.12,24.88,24.88,0,0,0,3.7,7.08,29,29,0,0,0,2.53,3,29.8,29.8,0,0,0,2.93,2.48,26.39,26.39,0,0,0,3.16,2,27.6,27.6,0,0,0,3.36,1.47,26,26,0,0,0,13.54,1.11,25.64,25.64,0,0,0,10.86-4.8,26,26,0,0,0,6.59-7.32,25.12,25.12,0,0,0,2.89-6.88,17.89,17.89,0,0,0,.54-2.68c.06-.39.14-.75.17-1.08s0-.63.06-.91q.06-.78.09-1.23a2,2,0,0,1,.05-.42,2.21,2.21,0,0,1,0,.42l0,1.24c0,.27,0,.58,0,.91s-.09.7-.15,1.1a16.87,16.87,0,0,1-.5,2.7,24.32,24.32,0,0,1-2.83,7,26.29,26.29,0,0,1-17.63,12.41,26.32,26.32,0,0,1-13.79-1.09,27.16,27.16,0,0,1-3.43-1.49,26.21,26.21,0,0,1-3.23-2,30.8,30.8,0,0,1-3-2.52,30.21,30.21,0,0,1-2.58-3,25.32,25.32,0,0,1-3.79-7.23,25.86,25.86,0,0,1,0-16.58,25.3,25.3,0,0,1,3.76-7.24,28,28,0,0,1,2.58-3,29.65,29.65,0,0,1,3-2.53,13,13,0,0,1,1.58-1.09c.55-.32,1.08-.67,1.64-1a27.23,27.23,0,0,1,3.43-1.5,26.33,26.33,0,0,1,13.79-1.12,26,26,0,0,1,11,4.92,25.69,25.69,0,0,1,6.63,7.45,24.4,24.4,0,0,1,2.86,7,18.17,18.17,0,0,1,.5,2.71c.06.39.12.76.15,1.09l0,.92c0,.52,0,.93,0,1.24A2.21,2.21,0,0,1,323.57,338.46Z" style="fill:#263238"></path><g style="opacity:0.30000000000000004"><path d="M323.36,338.73c-.15,0-.26-1.14-.68-3.13a27.77,27.77,0,0,0-3-8,26.48,26.48,0,0,0-3.42-4.73,26,26,0,0,0-5.08-4.29,24.24,24.24,0,0,0-3.14-1.72,25.16,25.16,0,0,0-7.29-2.08,26.21,26.21,0,0,0-4-.19,25.67,25.67,0,0,0-3.95.45,25,25,0,0,0-3.73,1,23.41,23.41,0,0,0-3.41,1.53,23.69,23.69,0,0,0-3,1.93,26.13,26.13,0,0,0-4.8,4.62,26.75,26.75,0,0,0-3.1,4.94,27.77,27.77,0,0,0-2.46,8.16c-.29,2-.33,3.16-.48,3.17s-.34-1.14-.29-3.24a24.23,24.23,0,0,1,2-8.67,26.38,26.38,0,0,1,11.29-12.58,25.47,25.47,0,0,1,3.66-1.69,26.08,26.08,0,0,1,4-1.14,27.36,27.36,0,0,1,4.27-.49,27.78,27.78,0,0,1,4.29.21,25.8,25.8,0,0,1,4.07.87,25.92,25.92,0,0,1,7.11,3.37,26.31,26.31,0,0,1,5.31,4.73,26.85,26.85,0,0,1,3.43,5.16,24.54,24.54,0,0,1,2.51,8.52C323.63,337.57,323.48,338.73,323.36,338.73Z"></path></g><g style="opacity:0.30000000000000004"><path d="M300.49,354l.07,4.53-4.05.07-.07-4.42c-4-.18-7.87-1.37-10.13-3.08l2.15-5a16.46,16.46,0,0,0,7.9,2.75l-.11-6.76c-4.51-1-9.55-2.45-9.64-8.24-.07-4.29,3-8,9.38-8.85l-.07-4.5,4.05-.06.07,4.41a18.37,18.37,0,0,1,8.25,2.34l-1.94,5a16.62,16.62,0,0,0-6.23-2l.11,6.88c4.51,1,9.47,2.41,9.56,8.11C309.86,349.46,306.84,353.15,300.49,354Zm-4.33-17.84-.09-5.75c-2.14.52-3,1.71-2.95,3.05S294.37,335.65,296.16,336.18Zm7.12,9.65c0-1.41-1.21-2.16-3-2.75l.09,5.59C302.43,348.2,303.3,347.13,303.28,345.83Z"></path></g><rect x="239.6" y="290.84" width="39.44" height="88.16" style="fill:#fff"></rect></g><g id="freepik--Coins--inject-138"><path d="M497.94,330.74a36.51,36.51,0,1,1-43.58-27.57A36.46,36.46,0,0,1,497.94,330.74Z" style="fill:#407BFF"></path><path d="M490.52,332.78a27.82,27.82,0,1,1-33.21-21A27.78,27.78,0,0,1,490.52,332.78Z" style="fill:#407BFF"></path><path d="M489.46,332.63a2.23,2.23,0,0,1-.15-.42l-.38-1.27-.27-.93c-.12-.34-.28-.7-.43-1.09a21,21,0,0,0-1.2-2.66,26.73,26.73,0,0,0-4.63-6.5,27.64,27.64,0,0,0-34.87-4.2,29.09,29.09,0,0,0-3.16,2.32c-.5.44-1,.92-1.45,1.37a13.72,13.72,0,0,0-1.37,1.48,29.79,29.79,0,0,0-2.47,3.27,30.82,30.82,0,0,0-1.94,3.69,26.48,26.48,0,0,0-2.19,8.25,27.1,27.1,0,0,0,3.78,16.93,26.55,26.55,0,0,0,5.5,6.53,25,25,0,0,0,7,4.42A27.5,27.5,0,0,0,455,365.2a28.92,28.92,0,0,0,3.84.75,27.67,27.67,0,0,0,29.76-18.67,26.37,26.37,0,0,0,1.42-7.84,21.11,21.11,0,0,0-.05-2.92c0-.42,0-.81-.08-1.17s-.1-.67-.15-1c-.08-.55-.14-1-.19-1.31a2.84,2.84,0,0,1-.05-.45,2.41,2.41,0,0,1,.11.44c.06.32.14.75.25,1.3q.07.44.18,1c0,.36.06.75.1,1.18a19.34,19.34,0,0,1,.1,2.94,26.15,26.15,0,0,1-1.33,7.94,28,28,0,0,1-15.5,17,28.07,28.07,0,0,1-14.63,2.06,28.62,28.62,0,0,1-3.93-.75,29.14,29.14,0,0,1-3.85-1.4,31.8,31.8,0,0,1-3.7-1.93,30.94,30.94,0,0,1-3.4-2.57,26.63,26.63,0,0,1-5.62-6.66,29.78,29.78,0,0,1-3.36-8.33,30.1,30.1,0,0,1-.51-9,27,27,0,0,1,2.25-8.42,30.72,30.72,0,0,1,2-3.77,31.91,31.91,0,0,1,2.53-3.32,14.31,14.31,0,0,1,1.4-1.51c.5-.46,1-.95,1.48-1.39a27.74,27.74,0,0,1,3.23-2.36,28.18,28.18,0,0,1,14.12-4.37,28,28,0,0,1,21.28,8.8,26.19,26.19,0,0,1,4.59,6.61,20.54,20.54,0,0,1,1.16,2.71c.15.4.3.76.41,1.1s.17.66.24,1l.33,1.28A2.49,2.49,0,0,1,489.46,332.63Z" style="fill:#263238"></path><g style="opacity:0.30000000000000004"><path d="M489.31,333c-.16,0-.54-1.13-1.44-3.11a29.78,29.78,0,0,0-5-7.63,28.84,28.84,0,0,0-4.66-4.13,27.79,27.79,0,0,0-6.3-3.3,26.58,26.58,0,0,0-7.64-1.61,25.83,25.83,0,0,0-4.12.06A28.94,28.94,0,0,0,456,314a29.27,29.27,0,0,0-4,1.38,26.43,26.43,0,0,0-3.65,1.94,27,27,0,0,0-5.92,5.1,27.41,27.41,0,0,0-3.92,5.93,28.93,28.93,0,0,0-2.1,5.87,30,30,0,0,0-.67,9.08c.17,2.17.4,3.37.23,3.41s-.62-1.1-1-3.31a25.66,25.66,0,0,1,0-9.49,27.83,27.83,0,0,1,6-12.77,27.43,27.43,0,0,1,2.86-3,27.11,27.11,0,0,1,3.42-2.62,27.8,27.8,0,0,1,3.92-2.12,30,30,0,0,1,4.34-1.5,29.48,29.48,0,0,1,4.52-.78,27.59,27.59,0,0,1,4.45,0,26.83,26.83,0,0,1,4.26.64,26.17,26.17,0,0,1,3.94,1.22,28.34,28.34,0,0,1,6.63,3.7,28.68,28.68,0,0,1,4.77,4.58,26.13,26.13,0,0,1,4.6,8.31C489.32,331.7,489.43,332.94,489.31,333Z"></path></g><g style="opacity:0.30000000000000004"><path d="M469,354.21l1.13,4.72-4.21,1-1.1-4.58c-4.23.74-8.53.39-11.28-.87l1.09-5.68a17.49,17.49,0,0,0,8.87,1l-1.68-7c-4.94,0-10.53-.33-12-6.35-1.06-4.46,1.26-9.06,7.73-11.41l-1.12-4.67,4.21-1,1.1,4.59a19.57,19.57,0,0,1,9.15.52l-.86,5.68a17.89,17.89,0,0,0-7-.65l1.71,7.16c4.94,0,10.44.31,11.86,6.24C477.72,347.28,475.42,351.84,469,354.21Zm-8.65-17.59-1.43-6c-2.11,1-2.7,2.47-2.37,3.85S458.36,336.48,460.36,336.62ZM470,345c-.35-1.47-1.77-2-3.73-2.18l1.39,5.81C469.68,347.69,470.34,346.38,470,345Z"></path></g><path d="M419.11,314.76a40.52,40.52,0,0,1-53.95,19.32,41.26,41.26,0,0,1-6.17-3.59,40.49,40.49,0,1,1,60.12-15.73Z" style="fill:#407BFF"></path><path d="M411.21,311.5a30.91,30.91,0,1,1-14.82-41.08A30.87,30.87,0,0,1,411.21,311.5Z" style="fill:#407BFF"></path><path d="M410.38,310.64a4.49,4.49,0,0,1,.16-.47c.13-.34.31-.79.53-1.37l.4-1c.12-.37.23-.8.36-1.25a21.79,21.79,0,0,0,.76-3.15,29.24,29.24,0,0,0,.37-8.85,30.7,30.7,0,0,0-27.74-27.47,31.54,31.54,0,0,0-4.36-.12c-.73,0-1.46.15-2.2.22a15,15,0,0,0-2.21.36,27.58,27.58,0,0,0-8.62,3.11,29.38,29.38,0,0,0-7.55,5.74,30.14,30.14,0,0,0-8.22,17.44,29.47,29.47,0,0,0,.38,9.48,27.62,27.62,0,0,0,3.09,8.62,30.42,30.42,0,0,0,2.37,3.78,32.31,32.31,0,0,0,2.86,3.28,30.88,30.88,0,0,0,14,8.07,30.85,30.85,0,0,0,24.87-4.16,29.51,29.51,0,0,0,6.6-5.92,22.61,22.61,0,0,0,1.94-2.6c.27-.39.53-.74.73-1.07l.53-.95.72-1.28a3,3,0,0,1,.26-.43,2.92,2.92,0,0,1-.2.46c-.17.32-.39.76-.67,1.31l-.5,1c-.2.34-.45.7-.71,1.1a22,22,0,0,1-1.91,2.65,29.17,29.17,0,0,1-6.58,6.06,31.12,31.12,0,0,1-25.22,4.38A30.79,30.79,0,0,1,355,312.22a35.28,35.28,0,0,1-1.93-4.23,34.55,34.55,0,0,1-1.24-4.57,30.06,30.06,0,0,1-.39-9.67,30.85,30.85,0,0,1,8.4-17.82,30,30,0,0,1,7.71-5.85,34,34,0,0,1,4.31-2,36.33,36.33,0,0,1,4.49-1.2,15.73,15.73,0,0,1,2.25-.36c.76-.07,1.51-.18,2.25-.21a31.78,31.78,0,0,1,19.81,5.92,31.11,31.11,0,0,1,12.68,22.23,29.08,29.08,0,0,1-.48,8.94,21.48,21.48,0,0,1-.82,3.16c-.15.45-.26.87-.4,1.25s-.3.7-.43,1l-.59,1.35A1.93,1.93,0,0,1,410.38,310.64Z" style="fill:#263238"></path><g style="opacity:0.30000000000000004"><path d="M410,310.83c-.17-.07.29-1.35.85-3.7a32.84,32.84,0,0,0,.84-10.08,31.86,31.86,0,0,0-1.27-6.81,30.79,30.79,0,0,0-3.27-7.19,28.79,28.79,0,0,0-2.51-3.45,29.84,29.84,0,0,0-3.1-3.17,29.08,29.08,0,0,0-3.67-2.76,30,30,0,0,0-8.64-3.74,29.89,29.89,0,0,0-13.19-.35,31.12,31.12,0,0,0-7.49,2.53,32,32,0,0,0-5.84,3.73,33,33,0,0,0-6.78,7.51c-1.33,2-1.95,3.23-2.12,3.15s.21-1.39,1.33-3.62a29,29,0,0,1,6.5-8.31,31.18,31.18,0,0,1,6-4.2,31.54,31.54,0,0,1,7.93-2.92,30.13,30.13,0,0,1,4.53-.65,31.21,31.21,0,0,1,9.67.85,31.4,31.4,0,0,1,9.33,4,30.24,30.24,0,0,1,3.93,3,30.83,30.83,0,0,1,5.92,7.21,30.9,30.9,0,0,1,4.36,15,28.76,28.76,0,0,1-1.62,10.42C410.9,309.73,410.15,310.89,410,310.83Z"></path></g><g style="opacity:0.30000000000000004"><path d="M377.72,315.64l-2.23,4.9-4.37-2,2.16-4.77c-4.21-2.23-7.76-5.48-9.31-8.45l4.83-4.25a19.46,19.46,0,0,0,7.08,7l3.32-7.31c-4.32-3.39-9-7.47-6.18-13.74,2.11-4.64,7.29-7.09,14.56-4.74l2.21-4.86,4.38,2L392,284.16a21.61,21.61,0,0,1,7.68,6.7l-4.63,4.39a19.65,19.65,0,0,0-5.67-5.31L386,297.38c4.35,3.34,8.95,7.39,6.15,13.56C390.09,315.5,385,317.93,377.72,315.64Zm4.4-21.34,2.82-6.22c-2.56-.53-4.05.33-4.71,1.77S380.47,292.81,382.12,294.3Zm2.75,14c.69-1.53-.2-2.94-1.79-4.45l-2.74,6C382.75,310.37,384.23,309.67,384.87,308.27Z"></path></g></g><g id="freepik--Plants--inject-138"><path d="M162.1,245.45c-11.71,6.06-20.69,16.51-27.15,28s-10.61,24.12-14.74,36.65l-3.6,64.61c13.62-23.18,24.56-50.43,27.52-77.16l-9.07-.81c6.08-.93,11.18-5.33,14.43-10.56S154.41,275,156,269L145,270.66A41,41,0,0,0,162.1,245.45Z" style="fill:#455a64"></path><g style="opacity:0.30000000000000004"><path d="M162.1,245.45c-11.71,6.06-20.69,16.51-27.15,28s-10.61,24.12-14.74,36.65l-3.6,64.61c13.62-23.18,24.56-50.43,27.52-77.16l-9.07-.81c6.08-.93,11.18-5.33,14.43-10.56S154.41,275,156,269L145,270.66A41,41,0,0,0,162.1,245.45Z"></path></g><path d="M114.59,389.86S85,354.46,85.35,320.66h12s-13-8.53-12-13.31,1.37-22.87,1.37-22.87l10.92,2.73s-8.19-4.1-9.21-10.58,2.38-36.53,2.38-36.53,13.32,14,17.41,28.33,14.85,31.07,11.7,74.76S114.59,389.86,114.59,389.86Z" style="fill:#455a64"></path><path d="M129.58,393.2s32-21.35,39.17-48.59L159.14,342s12.3-4,12.52-8.08,3.91-18.69,3.91-18.69l-9.38-.2s7.48-1.5,9.72-6.49S182,278.64,182,278.64s-13.76,8.34-20.19,19S143.05,319.34,136,355.16,129.58,393.2,129.58,393.2Z" style="fill:#455a64"></path><path d="M98.89,271a1.4,1.4,0,0,1,.11.36c.06.27.15.63.26,1.09l.93,4.2c.41,1.83.89,4.06,1.4,6.67s1.14,5.56,1.74,8.85c1.26,6.57,2.6,14.41,4,23.14s2.67,18.37,3.85,28.5,2.06,19.81,2.76,28.63,1.14,16.76,1.41,23.44c.16,3.33.24,6.36.33,9s.13,4.94.15,6.81,0,3.29,0,4.3v1.12a1.59,1.59,0,0,1,0,.38,1.76,1.76,0,0,1,0-.38c0-.27,0-.64,0-1.11,0-1-.09-2.46-.15-4.31s-.13-4.15-.25-6.8-.21-5.67-.4-9c-.31-6.67-.84-14.61-1.52-23.42s-1.64-18.47-2.8-28.6-2.49-19.75-3.8-28.48-2.64-16.58-3.86-23.15c-.58-3.29-1.17-6.26-1.66-8.86s-.94-4.85-1.32-6.68l-.84-4.23c-.08-.46-.15-.82-.2-1.1A3.26,3.26,0,0,1,98.89,271Z" style="fill:#263238"></path><path d="M110.49,411.54S83.42,380.83,75,362.26l6.34-2.71c-4.6.76-9.31-1.22-12.88-4.22s-6.18-6.95-8.75-10.84l8.36-1.41a31,31,0,0,1-18.26-14.15c9.86,1.63,18.78,7,26.14,13.81A130.29,130.29,0,0,1,91.8,361.1,62.48,62.48,0,0,1,98,371.21C102.5,380.61,110.5,400.26,110.49,411.54Z" style="fill:#455a64"></path><path d="M169.17,296.52a1.31,1.31,0,0,1-.12.31l-.42.89c-.39.81-.95,1.95-1.65,3.41-1.45,2.95-3.51,7.23-6,12.56s-5.37,11.69-8.46,18.82-6.32,15-9.56,23.39-6.12,16.4-8.66,23.74-4.68,14-6.41,19.62-3.1,10.17-4,13.33c-.46,1.55-.81,2.77-1.07,3.63l-.29.94a1.17,1.17,0,0,1-.12.31s0-.11.07-.33l.24-.95c.23-.87.56-2.09,1-3.66.85-3.17,2.15-7.75,3.85-13.38s3.82-12.3,6.31-19.66,5.4-15.4,8.63-23.78,6.52-16.26,9.6-23.39,6-13.49,8.57-18.79S165.29,304,166.8,301c.74-1.44,1.32-2.57,1.74-3.36.19-.37.34-.65.46-.87A1.39,1.39,0,0,1,169.17,296.52Z" style="fill:#263238"></path><path d="M112.78,424.7a2.21,2.21,0,0,1-.12-.57l-.27-1.63c-.1-.71-.23-1.57-.42-2.57s-.35-2.15-.62-3.4c-.49-2.52-1.18-5.49-2.07-8.75s-2-6.81-3.4-10.46-2.9-7.06-4.37-10.11-2.93-5.72-4.23-7.93c-.62-1.12-1.25-2.09-1.77-3s-1-1.61-1.39-2.21l-.88-1.39a2.85,2.85,0,0,1-.28-.51s.14.14.37.45l1,1.34c.42.58.92,1.31,1.46,2.17S97,378,97.6,379.09c1.34,2.19,2.82,4.87,4.35,7.91s3,6.47,4.41,10.13,2.49,7.25,3.38,10.52,1.53,6.28,2,8.81c.25,1.26.4,2.41.55,3.42s.26,1.88.34,2.6.12,1.21.16,1.64A2.32,2.32,0,0,1,112.78,424.7Z" style="fill:#263238"></path><rect x="89.26" y="417.47" width="59.24" height="12.08" style="fill:#407BFF"></rect><polygon points="94.9 429.56 101.31 470.2 137.11 470.2 143.08 429.56 94.9 429.56" style="fill:#407BFF"></polygon><path d="M144.86,429.56c0,.14-11.2.26-25,.26s-25-.12-25-.26,11.2-.26,25-.26S144.86,429.41,144.86,429.56Z" style="fill:#263238"></path></g></svg>