<svg xmlns="http://www.w3.org/2000/svg" viewBox="0 0 500 500"><g id="freepik--background-complete--inject-179"><rect x="68.27" y="68.58" width="29.15" height="12.32" transform="translate(165.68 149.48) rotate(180)" style="fill:#ebebeb"></rect><rect x="84.53" y="53.05" width="29.15" height="12.32" transform="translate(198.2 118.41) rotate(180)" style="fill:#ebebeb"></rect><path d="M52,53.05l14.46-.28,7.32-.11c2.45,0,4.91,0,7.37-.06h.44v.45l.06,12.32v.5h-.5L66.58,65.8c-4.86,0-9.71-.11-14.57-.16h-.28v-.27c0-2.09.09-4.17.14-6.22Zm0,0,.14,6.22c0,2,.11,4.08.13,6.1L52,65.09c4.86,0,9.71-.16,14.57-.16l14.58-.06-.5.5,0-12.32.45.44c-2.41,0-4.81,0-7.22-.05l-7.24-.11Z" style="fill:#ebebeb"></path><path d="M378,62.42l14.46-.28,7.33-.11c2.45-.05,4.91,0,7.36-.05h.45v.45l.05,12.32v.5h-.5l-14.57-.06c-4.86,0-9.72-.12-14.58-.17h-.27v-.27c0-2.09.09-4.16.13-6.22Zm0,0,.15,6.22c0,2,.11,4.08.13,6.1l-.28-.27c4.86-.06,9.72-.16,14.58-.17l14.57-.06-.5.5.06-12.32.44.45c-2.4,0-4.8,0-7.21-.06l-7.25-.11Z" style="fill:#ebebeb"></path><rect x="52.01" y="302.39" width="29.15" height="12.32" transform="translate(133.16 617.11) rotate(180)" style="fill:#ebebeb"></rect><rect x="418.84" y="307.87" width="29.15" height="12.32" transform="translate(866.84 628.05) rotate(180)" style="fill:#ebebeb"></rect><path d="M402.58,292.33l14.46-.27,7.33-.12c2.45,0,4.91,0,7.36-.05h.45v.45l.05,12.32v.5h-.5l-14.57-.06c-4.86,0-9.72-.11-14.58-.17h-.27v-.27c0-2.09.09-4.16.13-6.22Zm0,0,.15,6.22c0,2.05.11,4.08.13,6.1l-.28-.27c4.86-.05,9.72-.16,14.58-.17l14.57-.06-.5.5.06-12.32.44.45c-2.4,0-4.8,0-7.21-.06l-7.25-.11Z" style="fill:#ebebeb"></path><rect x="254.38" y="108.6" width="29.15" height="12.32" transform="translate(537.9 229.52) rotate(180)" style="fill:#ebebeb"></rect><path d="M238.11,136.45l14.69-.28,7.25-.11c2.41-.05,4.81,0,7.21-.06l-.44.45-.06-12.32.5.5-14.57-.06c-4.86,0-9.72-.11-14.58-.16l.28-.28c0,2-.09,4.05-.13,6.1Zm0,0-.14-6.1c0-2-.11-4.13-.13-6.22v-.27h.27c4.86,0,9.72-.16,14.58-.16l14.57-.07h.51v.5l-.05,12.32v.45h-.45c-2.45,0-4.91,0-7.36-.06l-7.33-.11Z" style="fill:#ebebeb"></path><path d="M226.35,361l14.69-.28,7.25-.11c2.41,0,4.8,0,7.21-.05l-.45.44L255,348.65l.5.5-14.58-.07c-4.85,0-9.71-.11-14.57-.16l.27-.27c0,2-.08,4.05-.13,6.1Zm0,0-.14-6.1c-.05-2.05-.11-4.13-.13-6.21v-.27h.28c4.86-.05,9.72-.16,14.57-.16l14.58-.06h.5v.51L255.94,361v.45h-.44c-2.46,0-4.92,0-7.36-.06l-7.33-.11Z" style="fill:#ebebeb"></path><polygon points="327.51 377.98 420.1 385.98 425.38 324.06 332.8 316.05 327.51 377.98" style="fill:#fff"></polygon><polygon points="328.48 378.44 327.11 378.32 327.23 376.95 327.98 377.01 327.92 377.64 328.54 377.69 328.48 378.44" style="fill:#dbdbdb"></polygon><path d="M417.06,386.1l-2-.18.07-.75,2,.18Zm-4-.35-2-.18.06-.74,2,.17Zm-4-.35-2-.17.07-.75,2,.17Zm-4-.35-2-.17.06-.75,2,.17Zm-4-.35-2-.17.06-.75,2,.18Zm-4-.34-2-.18.07-.75,2,.18Zm-4-.35-2-.18.06-.75,2,.18Zm-4-.35-2-.17.06-.75,2,.17Zm-4-.35-2-.17.07-.75,2,.17Zm-4-.35-2-.17.06-.75,2,.17Zm-4-.34-2-.18.07-.75,2,.18Zm-4-.35-2-.18.07-.75,2,.18Zm-4-.35-2-.17.06-.75,2,.17Zm-4-.35-2-.17.07-.75,2,.17Zm-4-.35-2-.17.06-.75,2,.17Zm-4-.34-2-.18.06-.75,2,.18Zm-4-.35-2-.18.07-.75,2,.18Zm-4-.35-2-.18.06-.74,2,.17Zm-4-.35-2-.17.07-.75,2,.17Zm-4-.35-2-.17.07-.75,2,.17Zm-4-.35-2-.17.06-.75,2,.18Zm-4-.34-2-.18.07-.75,2,.18Z" style="fill:#dbdbdb"></path><polygon points="420.44 386.39 419.07 386.27 419.14 385.52 419.76 385.58 419.81 384.95 420.56 385.02 420.44 386.39" style="fill:#dbdbdb"></polygon><path d="M420.72,383.08,420,383l.16-1.93.75.06Zm.33-3.86-.74-.07.16-1.93.75.07Zm.33-3.87-.74-.06.16-1.94.75.07Zm.33-3.87-.74-.06.16-1.93.75.06Zm.33-3.86-.74-.07.16-1.93.75.06Zm.33-3.87-.75-.06.17-1.94.75.07Zm.33-3.87-.74-.06.16-1.93.75.06ZM423,356l-.74-.07.16-1.93.75.06Zm.33-3.87-.74-.06.16-1.94.75.07Zm.33-3.87-.74-.06.16-1.93.75.06Zm.33-3.86-.74-.07.16-1.93.75.06Zm.33-3.87-.74-.06.16-1.94.75.07Zm.33-3.87-.74-.06.16-1.93.75.06Zm.33-3.86-.74-.07.16-1.93.75.06Zm.33-3.87-.74-.06.16-1.94.75.07Z" style="fill:#dbdbdb"></path><polygon points="425.67 325.08 424.93 325.02 424.98 324.4 424.36 324.34 424.42 323.6 425.79 323.71 425.67 325.08" style="fill:#dbdbdb"></polygon><path d="M422.34,324.17l-2-.17.06-.75,2,.17Zm-4-.35-2-.17.07-.75,2,.17Zm-4-.35-2-.17.06-.75,2,.17Zm-4-.35-2-.17.07-.75,2,.18Zm-4-.34-2-.18.07-.75,2,.18Zm-4-.35-2-.18.06-.74,2,.17Zm-4-.35-2-.17.07-.75,2,.17Zm-4-.35-2-.17.06-.75,2,.17Zm-4-.35-2-.17.06-.75,2,.18Zm-4-.34-2-.18.07-.75,2,.18Zm-4-.35-2-.18.06-.74,2,.17Zm-4-.35-2-.17.06-.75,2,.17Zm-4-.35-2-.17.07-.75,2,.17Zm-4-.35-2-.17.06-.75,2,.18Zm-4-.34-2-.18.07-.75,2,.18Zm-4-.35-2-.18L360,318l2,.17Zm-4-.35-2-.18.06-.74,2,.17Zm-4-.35-2-.17.07-.75,2,.17Zm-4-.35-2-.17.06-.75,2,.18Zm-4-.35-2-.17.06-.75,2,.18Zm-4-.34-2-.18.07-.74,2,.17Zm-4-.35-2-.18.06-.74,2,.17Z" style="fill:#dbdbdb"></path><polygon points="333.09 317.08 332.34 317.01 332.46 315.64 333.83 315.76 333.76 316.51 333.14 316.46 333.09 317.08" style="fill:#dbdbdb"></polygon><path d="M328.14,375.08l-.75-.06.17-1.94.74.07Zm.33-3.87-.75-.06.17-1.94.74.07Zm.33-3.86-.75-.07.17-1.93.74.06Zm.33-3.87-.75-.06.17-1.94.74.07Zm.33-3.87-.75-.06.17-1.93.74.06Zm.33-3.86-.75-.07.17-1.93.74.06Zm.33-3.87-.75-.07.17-1.93.74.07Zm.33-3.87-.75-.06.17-1.94.74.07Zm.33-3.86-.75-.07.17-1.93.74.06Zm.33-3.87-.75-.07.17-1.93.74.07Zm.33-3.87-.75-.06.17-1.94.74.07Zm.33-3.87-.75-.06.17-1.93.74.06Zm.33-3.86-.75-.07.17-1.93.74.07Zm.33-3.87-.75-.06.17-1.94.74.07Zm.33-3.86-.75-.07.17-1.93.74.06Z" style="fill:#dbdbdb"></path><polygon points="331.69 374.45 416.59 381.79 421.21 327.58 336.31 320.24 331.69 374.45" style="fill:#ebebeb"></polygon><path d="M375.22,357.8a7.23,7.23,0,1,1,7.76-6.65A7.23,7.23,0,0,1,375.22,357.8Zm.95-12.38A5.19,5.19,0,1,0,381,351,5.19,5.19,0,0,0,376.17,345.42Z" style="fill:#dbdbdb"></path><path d="M375.14,360.62c-6.57-.51-12.77-4.13-18.44-10.78l-.66-.77.77-.67c7-6,14-8.6,20.92-7.71,10.59,1.35,16.92,10.35,17.18,10.73l.47.68-.57.61c-.32.33-7.95,8.25-18.62,8Zm-16.21-11.33c5.39,6,11.21,9.18,17.32,9.35,8.12.21,14.5-4.95,16.46-6.74-1.67-2.07-7.2-8.17-15.25-9.19C371.41,341.94,365.18,344.15,358.93,349.29Z" style="fill:#dbdbdb"></path><rect x="355.64" y="349.57" width="40.27" height="2.04" transform="translate(-137.69 328.8) rotate(-40.58)" style="fill:#dbdbdb"></rect><polygon points="150.85 167.24 271.04 140.56 248.17 58.47 127.99 85.14 150.85 167.24" style="fill:#dbdbdb"></polygon><polygon points="203.34 59.39 245.81 49.97 248.17 58.47 203.27 68.43 203.34 59.39" style="fill:#dbdbdb"></polygon><polygon points="150.95 167.22 271.13 140.54 263.04 60.29 142.86 86.96 150.95 167.22" style="fill:#ebebeb"></polygon><polygon points="219.74 61.4 262.21 51.98 263.04 60.29 218.14 70.25 219.74 61.4" style="fill:#ebebeb"></polygon><path d="M206.78,121.2a7.23,7.23,0,1,1,5.49-8.62A7.23,7.23,0,0,1,206.78,121.2Zm-2.69-12.12a5.19,5.19,0,1,0,6.19,3.94A5.2,5.2,0,0,0,204.09,109.08Z" style="fill:#fff"></path><path d="M207.53,123.93c-6.44,1.43-13.42-.23-20.78-5l-.86-.54.55-.86c4.92-7.78,10.9-12.32,17.77-13.48,10.52-1.78,19.19,5,19.56,5.27l.65.52-.37.74c-.21.41-5.21,10.21-15.5,13.05Zm-18.81-6.12c6.92,4.21,13.4,5.52,19.29,3.9,7.83-2.16,12.43-9,13.79-11.24-2.2-1.49-9.27-5.72-17.27-4.35C198.52,107.14,193.2,111.07,188.72,117.81Z" style="fill:#fff"></path><rect x="185.08" y="113.13" width="40.27" height="2.04" transform="translate(-1.29 225.94) rotate(-57.51)" style="fill:#fff"></rect><polygon points="408.9 317.49 336.55 289.47 372.52 196.59 426.24 217.4 438.02 242.31 408.9 317.49" style="fill:#fff"></polygon><path d="M408.77,317.84l-1.87-.73.27-.7,1.87.73Zm.83-1.12-.7-.27.72-1.86.7.27Zm-4.56-.33-1.87-.72.27-.7,1.87.72ZM401.31,315l-1.87-.73.27-.69,1.87.72Zm-3.73-1.45-1.87-.72.27-.7,1.87.72ZM411,313l-.69-.27.72-1.86.7.27Zm-17.19-.93-1.87-.73.27-.69,1.87.72Zm-3.73-1.45-1.87-.72.27-.7,1.87.72Zm22.37-1.35-.7-.27.72-1.86.7.27Zm-26.1-.09-1.87-.72.27-.7,1.87.72Zm-3.73-1.45-1.87-.72.27-.7,1.87.72Zm-3.73-1.44-1.87-.72.27-.7,1.87.72Zm35-.75-.7-.27.73-1.86.7.27Zm-38.73-.7-1.87-.72.27-.7,1.87.72Zm-3.73-1.44-1.87-.72.27-.7,1.87.72ZM367.74,302l-1.87-.73.27-.7,1.87.73Zm47.64-.15-.7-.27.72-1.86.7.27ZM364,300.5l-1.87-.72.27-.7,1.87.72Zm-3.73-1.44-1.87-.73.27-.7,1.87.73Zm56.54-1-.7-.27.73-1.86.7.27Zm-60.27-.46-1.87-.72.27-.7,1.87.72Zm-3.73-1.44-1.87-.73.27-.69,1.87.72Zm-3.73-1.45-1.87-.72.27-.7,1.87.72Zm69.18-.38-.7-.27.72-1.86.7.27Zm-72.91-1.06-1.87-.72.27-.7,1.87.72Zm-3.73-1.45-1.87-.72.27-.7,1.87.72Zm78.08-1.22-.7-.27.73-1.86.69.27Zm-81.81-.22-1.83-.71.28-.74.7.28v0l1.13.44Zm-.13-3-.69-.27.72-1.87.7.28Zm83.39-.47-.7-.27.72-1.86.7.27Zm-81.94-3.26-.7-.27.72-1.87.7.28Zm83.38-.47-.7-.27.72-1.86.7.27Zm-81.94-3.26-.7-.27.73-1.87.7.28Zm83.39-.47-.7-.27.72-1.86.7.27Zm-81.94-3.26-.7-.27.72-1.87.7.28Zm83.38-.47-.7-.27.72-1.86.7.27Zm-81.94-3.26-.7-.27.73-1.87.7.28Zm83.39-.47-.7-.27.72-1.86.7.27ZM345,268.7l-.7-.27.72-1.87.7.28Zm83.38-.47-.7-.27.72-1.86.7.27ZM346.44,265l-.7-.27.72-1.87.7.28Zm83.39-.47-.7-.27.72-1.86.7.27Zm-81.94-3.26-.7-.27.72-1.87.7.28Zm83.38-.47-.7-.27.72-1.86.7.27Zm-81.94-3.26-.7-.27.72-1.87.7.28Zm83.38-.47-.7-.27.73-1.86.7.27Zm-81.93-3.26-.7-.27.72-1.87.7.28Zm83.38-.47-.7-.27.72-1.86.7.27Zm-81.94-3.26-.7-.27.72-1.87.7.28Zm83.38-.47-.7-.27.73-1.86.7.27Zm-81.93-3.26-.7-.27.72-1.87.7.28Zm83.38-.47-.7-.27.72-1.86.7.27Zm-81.94-3.26-.7-.27.72-1.87.7.28Zm82.42-.43-.85-1.81.68-.32.85,1.81Zm-81-3.3-.69-.27.72-1.87.7.27Zm79.27-.32-.85-1.81.68-.32.85,1.81ZM358,235.13l-.7-.27L358,233l.7.27Zm76.11-.21-.85-1.8.68-.32.85,1.8Zm-74.67-3.52-.7-.27.73-1.87.7.27Zm73-.09-.85-1.81.68-.32.85,1.81Zm-1.71-3.62-.85-1.81.68-.32.85,1.81Zm-69.8,0-.7-.27.72-1.87.7.27ZM429,224.08l-.85-1.81.68-.32.85,1.81Zm-66.65-.14-.7-.27.73-1.87.69.27Zm64.94-3.48-.85-1.81.68-.32.85,1.81Zm-63.49-.25-.7-.27.72-1.87.7.27Zm61.59-2.75-1.87-.72.28-.7,1.86.72Zm-60.15-1-.7-.27.73-1.87.69.27Zm56.42-.46-1.87-.73.28-.69,1.86.72Zm-3.73-1.45-1.87-.72.28-.7,1.86.72Zm-3.73-1.44-1.87-.72.28-.7,1.86.72Zm-47.51-.38-.7-.27.72-1.87.7.27Zm43.78-1.07-1.87-.72.28-.7,1.86.72Zm-3.73-1.44-1.87-.72.28-.7,1.86.72ZM368.11,209l-.7-.27.72-1.87.7.27Zm34.88-.23-1.87-.72.28-.7,1.86.72Zm-3.73-1.44-1.87-.72.28-.7,1.86.72Zm-3.73-1.45-1.87-.72.28-.7,1.86.73Zm-26-.61-.7-.27.72-1.87.7.28Zm22.24-.83-1.87-.72.28-.7,1.86.72ZM388.07,203l-1.87-.73.28-.7,1.86.73Zm-3.73-1.45-1.87-.72.28-.7,1.86.72Zm-13.34,0-.7-.27.72-1.87.7.28Zm9.61-1.43-1.87-.73.28-.7,1.86.73Zm-3.73-1.45L375,198l.28-.7,1.86.72Zm-4.43-.85-.7-.27.56-1.45,1.11.43-.27.7-.41-.16Z" style="fill:#dbdbdb"></path><polygon points="426.24 217.4 438.02 242.31 419.39 235.09 426.24 217.4" style="fill:#dbdbdb"></polygon><path d="M386.77,264.05a7.23,7.23,0,1,1,9.32-4.19A7.24,7.24,0,0,1,386.77,264.05Zm4.41-11.61a5.19,5.19,0,1,0,3,6.69A5.19,5.19,0,0,0,391.18,252.44Z" style="fill:#dbdbdb"></path><path d="M385.9,266.73c-6.17-2.34-11.09-7.56-14.65-15.54l-.41-.93.92-.42c8.39-3.79,15.88-4.3,22.25-1.5,9.77,4.29,13.31,14.71,13.45,15.15l.26.79-.72.41c-.4.24-10,5.68-20.11,2.39C386.56,267,386.22,266.86,385.9,266.73Zm-12.36-15.44c3.47,7.31,8.17,12,14,13.85,7.73,2.5,15.31-.65,17.69-1.81-1-2.46-4.6-9.87-12-13.13C387.59,247.76,381,248.12,373.54,251.29Z" style="fill:#dbdbdb"></path><rect x="369.2" y="256.27" width="40.27" height="2.04" transform="translate(-71.24 182.13) rotate(-24.19)" style="fill:#dbdbdb"></rect></g><g id="freepik--Shadow--inject-179"><ellipse cx="250" cy="453.6" rx="173.48" ry="11.97" style="fill:#ebebeb"></ellipse></g><g id="freepik--Plant--inject-179"><path d="M417.59,309.89a40.64,40.64,0,0,1-.8,15.65,43.09,43.09,0,0,1-2.39,6.91c-1.25,2.86-2.55,5.66-2.23,8.79.3.2-.74.17-.77-.14-8.37-4.76-19.1-5.63-25.54-13.42-3.05-3.69-4.59-8.37-5.32-13-.79-5.1-1-10.73.3-15.75,1.11-4.25,3.59-8.34,7.58-10.42s9.51-2,13.84-.62C411.61,290.76,416.26,300.85,417.59,309.89Z" style="fill:#407BFF"></path><path d="M421.88,371.84c-1.14-3.8-2.28-7.61-3.45-11.41-2.3-7.44-4.69-14.85-7.33-22.17q-2.37-6.58-5-13a79.41,79.41,0,0,1,1-8.09c.7-3.24,1.72-6.38,2.66-9.55.06-.2-.25-.3-.33-.12-1.88,4.38-4.34,10-4.4,15.16q-3.06-7.31-6.57-14.4a61.71,61.71,0,0,1,.36-12,.14.14,0,0,0-.28-.06,42.58,42.58,0,0,0-.82,10.59c-1.8-3.55-3.69-7.06-5.71-10.52-.18-.31-.61,0-.45.32,3.15,6.05,6.06,12.24,8.8,18.5a40.25,40.25,0,0,0-13.12-7.6c-.21-.07-.37.23-.15.32a47.79,47.79,0,0,1,14.19,9.39q2.94,6.88,5.62,13.87c-5.23-5.13-12.4-8.51-19.33-10.32-.24-.06-.3.3-.07.37,8,2.42,14.25,7,20.35,12.43.71,1.88,1.4,3.77,2.09,5.66q3.87,10.76,7.38,21.64,1.69,5.22,3.32,10.45c1.17,3.75,2.09,7.72,3.61,11.34.15.35.77.27.69-.15C424.24,378.88,422.93,375.35,421.88,371.84Z" style="fill:#263238"></path><path d="M408,302.57a20.71,20.71,0,0,0-3,7.51.06.06,0,0,0,.12,0,66.27,66.27,0,0,1,3.26-7.37C408.5,302.51,408.14,302.35,408,302.57Z" style="fill:#263238"></path><path d="M393.07,320a21.94,21.94,0,0,0-7.51-2.52c-.07,0-.11.09,0,.12,1.21.5,2.48.85,3.7,1.32s2.42,1,3.66,1.47A.22.22,0,0,0,393.07,320Z" style="fill:#263238"></path><path d="M388.87,299a14.71,14.71,0,0,0-2.42-1.49.13.13,0,0,0-.14.21,13.84,13.84,0,0,0,2.38,1.54C388.85,299.39,389,299.13,388.87,299Z" style="fill:#263238"></path><path d="M445.8,338.32c-6,1.79-12.09,3.44-18.11,5.21-.53.16-10.72-19.37-7-29.43a32.83,32.83,0,0,1,20.48-19.44c4.31-1.46,9.6-2.69,14.14-1.68,4.05.89,6.9,4.2,8.21,8,1.79,5.17,1.2,11.33.22,16.61a28.91,28.91,0,0,1-5.93,13.55C454.58,334.94,450.5,336.92,445.8,338.32Z" style="fill:#407BFF"></path><path d="M454.54,319.76a79.47,79.47,0,0,1-11.82,4.65,50.41,50.41,0,0,0-7.89,2.86c2.55-5.68,5.34-11.23,8.3-16.74,3.9-1.12,8-2.88,10.93-5.64.16-.15-.05-.37-.22-.25-3.21,2.27-6.76,3.63-10.31,5.17q1.2-2.22,2.44-4.44c.23-.41-.34-.82-.61-.42a127.13,127.13,0,0,0-8.57,14.38,66.62,66.62,0,0,1-.62-13.18.09.09,0,0,0-.17,0,43.71,43.71,0,0,0,.15,14.48c-2.12,4.22-4,8.54-5.77,12.92-.69-2.63-1.59-5.22-2.18-7.87a36.23,36.23,0,0,1-.87-11.6c0-.12-.15-.12-.17,0a40.79,40.79,0,0,0,2.53,21.29c-1,2.64-2,5.28-2.85,7.93a157.77,157.77,0,0,0-8,41.82.26.26,0,0,0,.51,0,207.75,207.75,0,0,1,9-41.33c1.75-5.25,3.76-10.36,6-15.36,3.56-1.05,7.1-2.48,10.6-3.69a33.28,33.28,0,0,0,9.77-4.79A.13.13,0,0,0,454.54,319.76Z" style="fill:#263238"></path><path d="M460.16,314.09c-3.69,1.31-7.18,3.15-10.87,4.48-.17.06-.07.33.11.29,3.89-.8,7.76-2,10.9-4.56C460.42,314.2,460.28,314,460.16,314.09Z" style="fill:#263238"></path><path d="M430.06,306.14c0-.2-.24-.31-.3-.11-1,3.4-1.71,7-.73,10.48a.13.13,0,0,0,.26,0C429.47,313,429.27,309.59,430.06,306.14Z" style="fill:#263238"></path><path d="M445.29,298.29a9,9,0,0,0-1.6,5.78c0,.13.21.2.25.05.45-1.95,1.2-3.72,1.79-5.61A.25.25,0,0,0,445.29,298.29Z" style="fill:#263238"></path><path d="M374.11,346.93c1.76,5.61,6,13.36,12.61,13.42,4.31,0,8.65-.47,13-.53,4.63-.07,9.27-.06,13.88.21.38,0-.55-13.85-11.67-20.61-3.12-1.89-6.93-2.49-10.46-3.26a48.05,48.05,0,0,0-12.36-1.28c-2.55.1-4.68.64-5.59,3.25S373.26,344.26,374.11,346.93Z" style="fill:#407BFF"></path><path d="M378.89,339.91c2.7.7,5.43,1.49,8.14,2.35a27.14,27.14,0,0,0-2.24-2.18c-1.16-1-2.45-1.74-3.69-2.59-.11-.07-.05-.27.09-.22a15.26,15.26,0,0,1,6.56,5.22c3.38,1.09,6.72,2.29,9.95,3.62a37,37,0,0,1,6.37,3.35,25.75,25.75,0,0,0-2.31-4c-1.47-1.91-3.47-3-5.4-4.34a.17.17,0,0,1,.17-.29,15.79,15.79,0,0,1,8.67,9.4,37.34,37.34,0,0,1,6.31,5.73c7.36,8.36,13.15,19.48,13.17,30.82,0,.27-.43.35-.48.07a62.94,62.94,0,0,0-14-30.14c-.53-.62-1.07-1.2-1.62-1.77a51.34,51.34,0,0,0-6.08-.45c-2.37,0-4.72.35-7.07.54-3.89.32-8.18.36-11.68-1.59-.15-.09-.05-.36.12-.29,7.81,2.84,16-.76,23.82.93a36.45,36.45,0,0,0-11.54-7.44l-.72-.29c-5,.6-10.29,1.91-15.17.28a.12.12,0,0,1,.06-.23c4.71,1.17,9.24-.31,13.89-.54-5.07-2-10.23-3.54-15.31-5.5C378.44,340.18,378.43,339.79,378.89,339.91Z" style="fill:#263238"></path><path d="M376.68,344.84a66.05,66.05,0,0,0,7.29.56.05.05,0,0,1,0,.1,15.19,15.19,0,0,1-7.36-.47A.1.1,0,0,1,376.68,344.84Z" style="fill:#263238"></path><path d="M393.15,340a12,12,0,0,1,3.61,2.51c.13.12,0,.34-.18.24-.62-.44-1.25-.86-1.88-1.27a18.74,18.74,0,0,1-1.76-1.12C392.78,340.26,393,340,393.15,340Z" style="fill:#263238"></path><path d="M432.42,358.09c-.09.18.18.36.28.16h0a.26.26,0,0,0,.18.11,108.37,108.37,0,0,0,13.58,2.37c3.68.33,7.92.54,11.13-1.6,4.37-2.89,7.24-10.62,4.88-15.54-2.79-5.83-11.2-2.66-15.42-.59A31,31,0,0,0,432.42,358.09Z" style="fill:#407BFF"></path><path d="M429.16,360.79a43,43,0,0,1,8.11-6.18,27.72,27.72,0,0,1,8.22-8.38c.16-.11.3.14.15.25a37.64,37.64,0,0,0-6.93,7.29,77.24,77.24,0,0,1,10.18-4.63,13.56,13.56,0,0,1,5.46-5.47s.11,0,.06.07a22.67,22.67,0,0,0-4.94,5.18c2.07-.77,4.16-1.49,6.25-2.18.19-.06.26.22.08.29-3.72,1.46-7.52,3-11.2,4.75a42.84,42.84,0,0,0,13.56,0,.1.1,0,0,1,0,.2,26.71,26.71,0,0,1-14.38.21A67,67,0,0,0,437,356a17.25,17.25,0,0,1,5.52.45,42.24,42.24,0,0,0,9.69,1.1c.12,0,.16.2,0,.22-5.62,1-10.94-1.59-16.51-.92a42.54,42.54,0,0,0-5.8,4.74,43.28,43.28,0,0,0-8.47,11.94c-2.34,4.77-3.62,9.83-5.51,14.77a.18.18,0,0,1-.35-.1C417.23,378.45,422.07,367.72,429.16,360.79Z" style="fill:#263238"></path><path d="M446.11,347.45a6.39,6.39,0,0,1,1.44-1.75,5.73,5.73,0,0,1,1.66-1.24.06.06,0,0,1,.06.09c-.46.52-1.11.91-1.6,1.41s-.92,1.09-1.43,1.59A.08.08,0,0,1,446.11,347.45Z" style="fill:#263238"></path><path d="M455.39,350.47c.83-.21,1.71-.2,2.56-.37a23.61,23.61,0,0,0,2.48-.75.1.1,0,0,1,.08.19,8.29,8.29,0,0,1-5.12,1.19A.13.13,0,0,1,455.39,350.47Z" style="fill:#263238"></path><polygon points="405.99 376.19 406.73 384.57 409.23 412.86 431.39 412.86 434.52 384.57 435.44 376.19 405.99 376.19" style="fill:#37474f"></polygon><polygon points="405.99 376.19 406.73 384.57 434.52 384.57 435.44 376.19 405.99 376.19" style="fill:#263238"></polygon><rect x="403.79" y="373.9" width="33.84" height="6.8" transform="translate(841.43 754.6) rotate(180)" style="fill:#37474f"></rect></g><g id="freepik--Padlock--inject-179"><path d="M433.42,87.85v33.27H424V87.85c0-12.65-9.61-22.94-21.44-22.94S381.15,75.2,381.15,87.85v33.27h-9.4V87.85c0-18.12,13.83-32.86,30.83-32.86S433.42,69.73,433.42,87.85Z" style="fill:#dbdbdb"></path><polygon points="371.75 100.5 381.15 100.88 381.15 121.12 371.75 121.12 371.75 100.5" style="fill:#a6a6a6"></polygon><polygon points="433.42 103.01 433.42 121.12 424.01 121.12 424.01 102.63 433.42 103.01" style="fill:#a6a6a6"></polygon><rect x="359.7" y="106.67" width="85.77" height="68.5" style="fill:#455a64"></rect><rect x="402.58" y="106.67" width="42.89" height="68.5" style="fill:#37474f"></rect><path d="M406.21,141.87l3.59,17H394.56l3.59-17a7.62,7.62,0,1,1,8.06,0Z" style="fill:#263238"></path></g><g id="freepik--Folder--inject-179"><polygon points="123.5 333.2 364.67 333.2 355.79 166.49 114.62 166.49 123.5 333.2" style="fill:#407BFF"></polygon><polygon points="269.66 149.23 354.87 149.23 355.79 166.49 265.68 166.49 269.66 149.23" style="fill:#407BFF"></polygon><g style="opacity:0.1"><polygon points="123.5 333.2 364.67 333.2 355.79 166.49 114.62 166.49 123.5 333.2"></polygon><polygon points="269.66 149.23 354.87 149.23 355.79 166.49 265.68 166.49 269.66 149.23"></polygon></g><polygon points="394.1 218.09 291.26 325.75 153.05 193.74 229.41 113.8 282.23 111.23 394.1 218.09" style="fill:#407BFF"></polygon><polygon points="394.1 218.09 291.26 325.75 153.05 193.74 229.41 113.8 282.23 111.23 394.1 218.09" style="fill:#fff;opacity:0.6000000000000001"></polygon><polygon points="229.41 113.8 282.23 111.23 255.75 138.95 229.41 113.8" style="fill:#407BFF"></polygon><polygon points="229.41 113.8 282.23 111.23 255.75 138.95 229.41 113.8" style="fill:#fff;opacity:0.4"></polygon><rect x="175.25" y="174.7" width="82.78" height="4.91" transform="translate(494.38 142.85) rotate(133.69)" style="fill:#fff"></rect><rect x="184.21" y="183.25" width="82.78" height="4.91" transform="translate(515.71 150.84) rotate(133.69)" style="fill:#fff"></rect><rect x="193.17" y="191.81" width="82.78" height="4.91" transform="translate(537.04 158.83) rotate(133.69)" style="fill:#fff"></rect><rect x="196.17" y="186.44" width="121.29" height="4.91" transform="translate(570.79 133.66) rotate(133.69)" style="fill:#fff"></rect><rect x="205.13" y="195" width="121.29" height="4.91" transform="translate(592.13 141.65) rotate(133.69)" style="fill:#fff"></rect><rect x="214.08" y="203.55" width="121.29" height="4.91" transform="translate(613.46 149.64) rotate(133.69)" style="fill:#fff"></rect><rect x="223.04" y="212.11" width="121.29" height="4.91" transform="translate(634.79 157.63) rotate(133.69)" style="fill:#fff"></rect><rect x="232" y="220.67" width="121.29" height="4.91" transform="translate(656.12 165.62) rotate(133.69)" style="fill:#fff"></rect><rect x="240.96" y="229.22" width="121.29" height="4.91" transform="translate(677.45 173.61) rotate(133.69)" style="fill:#fff"></rect><rect x="249.91" y="237.78" width="121.29" height="4.91" transform="translate(698.79 181.6) rotate(133.69)" style="fill:#fff"></rect><rect x="258.87" y="246.34" width="121.29" height="4.91" transform="translate(720.12 189.59) rotate(133.69)" style="fill:#fff"></rect><rect x="267.83" y="254.89" width="121.29" height="4.91" transform="translate(741.45 197.57) rotate(133.69)" style="fill:#fff"></rect><polygon points="127.83 255.51 275.08 238.14 263.36 139.68 116.11 157.04 127.83 255.51" style="fill:#ebebeb"></polygon><polygon points="133.22 248.66 268.24 232.73 257.97 146.53 122.94 162.45 133.22 248.66" style="fill:#fff"></polygon><path d="M138.39,187.88a14.79,14.79,0,1,0,13-16.42A14.78,14.78,0,0,0,138.39,187.88Z" style="fill:#dbdbdb"></path><polygon points="175.16 243.85 268.17 232.88 214.23 175.33 175.16 243.85" style="fill:#ebebeb"></polygon><polygon points="138.71 248.18 215.49 239.12 172.26 202.6 138.71 248.18" style="fill:#dbdbdb"></polygon><polygon points="123.68 333.2 364.86 333.2 383.46 176.28 142.28 176.28 123.68 333.2" style="fill:#407BFF"></polygon><polygon points="300.17 160.03 385.38 160.03 383.46 176.28 293.35 176.28 300.17 160.03" style="fill:#407BFF"></polygon><path d="M250,268.91a14.17,14.17,0,1,1,14.16-14.17A14.18,14.18,0,0,1,250,268.91Zm0-24.33a10.17,10.17,0,1,0,10.16,10.16A10.17,10.17,0,0,0,250,244.58Z" style="fill:#fff"></path><path d="M250.27,274.44c-12.91,0-25.56-6.15-37.64-18.28l-1.4-1.41,1.4-1.41c12.72-12.79,26.08-18.93,39.7-18.24,20.88,1.06,34.6,17.68,35.17,18.39l1,1.26-1,1.26c-.57.7-14.29,17.32-35.17,18.37C251.65,274.42,251,274.44,250.27,274.44ZM216.9,254.75c11.44,11,23.29,16.25,35.23,15.64,15.9-.8,27.58-11.85,31.14-15.64C279.7,251,268,239.88,252.1,239.1,240.16,238.51,228.33,243.77,216.9,254.75Z" style="fill:#fff"></path><rect x="210.55" y="252.74" width="78.89" height="4" transform="translate(-106.91 251.4) rotate(-45)" style="fill:#fff"></rect></g></svg>