<svg width="134" height="27" xmlns="http://www.w3.org/2000/svg"><g fill="#FFF">
<path d="M25.2 3L8.9.3h-.2a1 1 0 00-1 1v1.3L22.6 5c1 .2 1.8 1.1 1.8 2.2V20l1.3.2h.1c.6 0 1-.4 1-1V5A2 2 0 0025.2 3z"/>
<path d="M21.5 6.4L5 3.7h-.2a1 1 0 00-1 1V6l14.8 2.4c1 .2 1.8 1.1 1.8 2.2v12.9l1.3.2h.2c.5 0 1-.4 1-1V8.1c0-.8-.7-1.6-1.5-1.7z"/><path d="M17.6 9.6L1.3 6.9H1a1 1 0 00-1 1v14.9c0 .6.5 1.2 1.2 1.3L18 26.9h.2c.5 0 1-.4 1-1V11.4a2 2 0 00-1.6-1.8zm-10 10.2c0 .3-.5.5-.7.3l-4-3.7c-.2-.2-.2-.6 0-.6l4-2.3c.3-.2.6 0 .6.4v6zm8.3-1.3l-4 2.4c-.3.2-.6-.1-.6-.5v-6c0-.2.3-.4.6-.1l4 3.5c.2.3.2.6 0 .7zM44.2 11a11 11 0 00-4.4-1c-1.4 0-2 .4-2 1.2 0 .8.9 1 2.2 1.1l1.2.2c3 .5 4.7 1.8 4.7 4.1 0 2.9-2.4 4.7-6.4 4.7-1.8 0-4.3-.3-6-1.6l1.4-2.8a8 8 0 004.7 1.3c1.7 0 2.5-.5 2.5-1.2s-.7-1-2.3-1.3l-1-.2c-3.3-.5-4.9-1.8-4.9-4.2 0-2.8 2.2-4.5 5.8-4.5 2.3 0 4 .4 5.8 1.3l-1.3 3zm7.3 10h-3.7V.5h3.7zM58 2.6c0 1.6-1.4 2.8-3.1 2.3-.6-.2-1.3-.8-1.5-1.4-.5-1.8.7-3.3 2.3-3.2 1.3 0 2.3 1 2.3 2.3zm-.5 18.3h-3.7V7.2h3.7v13.7zM69.8 8.6V.4h3.8V21h-3.7v-1.5a5 5 0 01-4 1.9C62 21.3 59 18.2 59 14c0-4.1 3-7.2 6.7-7.2a5 5 0 014 1.8zM63 14c0 2.2 1.4 3.8 3.6 3.8 2.1 0 3.5-1.6 3.5-3.8s-1.4-3.8-3.5-3.8c-2.2 0-3.6 1.8-3.6 3.8zM89 14v1.3H79c.4 2 1.8 2.8 3.6 2.8 1.2 0 2.5-.4 3.5-1.3l2.1 2.4a8.4 8.4 0 01-5.8 2 6.8 6.8 0 01-7.2-7.1c0-4.4 2.8-7.3 7-7.3 4 0 6.7 3 6.7 7.2zm-9.8-1.3h6C85 11 84 10 82.3 10s-2.7 1-3 2.7zm21.6-1.7a11 11 0 00-4.4-1c-1.4 0-2.1.4-2.1 1.2 0 .8 1 1 2.2 1.1l1.3.2c3 .5 4.6 1.8 4.6 4.1 0 2.9-2.3 4.7-6.3 4.7-1.9 0-4.3-.3-6.1-1.6l1.4-2.8a8 8 0 004.7 1.3c1.8 0 2.6-.5 2.6-1.2s-.7-1-2.3-1.3l-1.1-.2c-3.2-.5-4.8-1.8-4.8-4.2 0-2.8 2.2-4.5 5.8-4.5 2.2 0 4 .4 5.8 1.3l-1.3 3zm14.5-1.5v-2h2.1V20c0 4.3-3 6.8-7.1 6.8a9 9 0 01-5.7-1.8l1-1.8c1.2 1 2.9 1.6 4.7 1.6 3 0 5-1.7 5-4.8v-1.4a5.6 5.6 0 01-4.8 2.3 6.6 6.6 0 01-6.7-6.9c0-4 2.9-6.9 6.7-6.9a6 6 0 014.8 2.4zM106 14c0 2.8 2 5 4.7 5 3 0 5-2.4 4.8-5.3a4.8 4.8 0 00-4.9-4.6c-2.7 0-4.6 2.2-4.6 5zm27.2 0c0 4-3 7-7 7s-7.1-3-7.1-7 3-7 7-7c4.1 0 7.1 3 7.1 7zm-12 0c0 3 2.2 5 5 5s4.9-2.1 4.9-5-2.2-5-5-5c-2.7 0-4.9 2.1-4.9 5z"/></g></svg>