<svg xmlns="http://www.w3.org/2000/svg" viewBox="0 0 500 500"><g id="freepik--Floor--inject-450"><path id="freepik--floor--inject-450" d="M77.66,246.93c-95.18,54.95-95.17,144,0,199s249.49,54.95,344.67,0,95.17-144,0-199S172.84,192,77.66,246.93Z" style="fill:#fafafa"></path></g><g id="freepik--Shadows--inject-450"><path id="freepik--Shadow--inject-450" d="M218.54,298.17c46.16,26.65,46.16,69.86,0,96.51s-121,26.65-167.15,0-46.15-69.86,0-96.51S172.39,271.52,218.54,298.17Z" style="fill:#e0e0e0"></path><polygon id="freepik--shadow--inject-450" points="123.28 441.17 141.38 450.14 319.58 347.33 302.99 337.49 123.28 441.17" style="fill:#e0e0e0"></polygon><path id="freepik--shadow--inject-450" d="M345.07,291c16.12,9.31,16.12,24.4,0,33.71s-42.27,9.31-58.4,0-16.12-24.4,0-33.71S328.94,281.67,345.07,291Z" style="fill:#e0e0e0"></path><path id="freepik--shadow--inject-450" d="M448.31,370.67c22.26,12.85,22.26,33.69,0,46.54s-58.35,12.86-80.61,0-22.26-33.69,0-46.54S426.05,357.82,448.31,370.67Z" style="fill:#e0e0e0"></path><path id="freepik--shadow--inject-450" d="M341.93,370.2h0l-.05-.06h0a1.09,1.09,0,0,0-.59-.45l-.18,0c-.25,0-.42.16-.36.38a.94.94,0,0,1-.18.11l-.1,0-.15.05-.39.12h0c-.65.18-1.63.39-2.78.6-1.83.35-4.07.72-6.11,1.07l-.47.08-.53.1-.57.1-.41.07-.84.17h-.07c-.7.14-1.32.28-1.86.44l-.35.1c-.25.08-.48.15-.71.24a11.3,11.3,0,0,0-4.36,3.05,11,11,0,0,1-.86.76c-.15.13-.32.26-.49.39a36.23,36.23,0,0,1-4.17,2.62,4.2,4.2,0,0,0-3.18-.53h0l-2.69.8h0a2.75,2.75,0,0,0-.69.27l-50.12,28.94a4,4,0,0,0-3.12.28L251,412.56a3.39,3.39,0,0,0-.86.7l-.14.18-59.18,34.17h0a9.65,9.65,0,0,0-4.63,10.22l-1.57.91h0a2.88,2.88,0,0,0-.59.45l-.14.15a2.59,2.59,0,0,0-.32.42l-.11.17a4.23,4.23,0,0,0-.25.58.11.11,0,0,1,0,.06,3,3,0,0,0-.11.73v0a3.15,3.15,0,0,0,.4,1.67,3.11,3.11,0,0,0,4.24,1.13h0l1.58-.91a9.63,9.63,0,0,0,11.16,1.1h0l59.23-34.19a3.51,3.51,0,0,0,1.21-.39l4.58-2.65a4,4,0,0,0,1.8-2.57l50.12-28.93a2.93,2.93,0,0,0,.59-.46h0l2-1.93h0a3.73,3.73,0,0,0,1.07-2.22c1.32-.77,2.41-1.39,3.32-1.89l.63-.35a39.57,39.57,0,0,1,4.34-2l.36-.15c.64-.25,1.19-.46,1.67-.66a7.55,7.55,0,0,0,1.24-.64,4,4,0,0,0,.9-.85h0l.12-.17a5.65,5.65,0,0,0,.33-.51l0-.06a6.94,6.94,0,0,0,.37-.77,3.7,3.7,0,0,1,.17-.4h0q.24-.6.42-1.08a23.58,23.58,0,0,1,3-6.08l.49-.76.09-.13.37-.54a.36.36,0,0,0,.07-.1c.13-.17.24-.33.36-.48l0-.05c.12-.16.24-.32.35-.45h0c1.24-1.54,1.71-1.57,1.71-1.57C342,371.6,342.36,370.88,341.93,370.2Z" style="fill:#e0e0e0"></path><path id="freepik--shadow--inject-450" d="M270.68,446.45a.65.65,0,0,0,0,1.22l37.76,21.84a2.31,2.31,0,0,0,2.11,0l40.14-23.17a.65.65,0,0,0,0-1.22l-37.76-21.84a2.34,2.34,0,0,0-2.11,0Z" style="fill:#e0e0e0"></path></g><g id="freepik--Confetti--inject-450"><g id="freepik--confetti--inject-450"><path d="M176.58,102.47l3.76,3.71,5.19-1a.6.6,0,0,1,.65.86l-2.36,4.73,2.55,4.62a.61.61,0,0,1-.62.89l-5.23-.79-3.61,3.86a.6.6,0,0,1-1-.32l-.87-5.21-4.78-2.25a.6.6,0,0,1,0-1.08l4.69-2.43.66-5.24A.6.6,0,0,1,176.58,102.47Z" style="fill:#e0e0e0"></path><path d="M459.67,165.92l3.76,3.71,5.19-1a.6.6,0,0,1,.65.86l-2.37,4.72,2.55,4.63a.6.6,0,0,1-.61.89l-5.23-.79L460,182.8a.6.6,0,0,1-1-.31l-.86-5.22L453.32,175a.6.6,0,0,1,0-1.08l4.7-2.43.65-5.25A.61.61,0,0,1,459.67,165.92Z" style="fill:#e0e0e0"></path><path d="M441.46,47.31,445.23,51l5.19-1a.6.6,0,0,1,.65.86l-2.37,4.73,2.55,4.63a.6.6,0,0,1-.62.88l-5.22-.79-3.62,3.86a.6.6,0,0,1-1-.32l-.86-5.21-4.79-2.25a.6.6,0,0,1,0-1.08l4.7-2.43.65-5.24A.6.6,0,0,1,441.46,47.31Z" style="fill:#e0e0e0"></path><path d="M61.68,174.37l3.76,3.71,5.2-1a.61.61,0,0,1,.65.87l-2.37,4.72,2.55,4.63a.6.6,0,0,1-.62.89l-5.22-.79L62,191.25a.6.6,0,0,1-1-.31l-.86-5.22-4.79-2.24a.6.6,0,0,1,0-1.08L60,180l.66-5.25A.6.6,0,0,1,61.68,174.37Z" style="fill:#e0e0e0"></path><path d="M463.22,106.28l0,0c0-.17,0-.34,0-.51,0-3.74-3-7.11-6.14-8.82-.26-.14-.28.3-.12.42a11.78,11.78,0,0,1,4.85,6.36,6.29,6.29,0,0,1,.23,1.67,5.7,5.7,0,0,0-6.39.15,3.26,3.26,0,0,0-1.28,3.62,3.71,3.71,0,0,0,3.17,2.19,5.33,5.33,0,0,0,3.92-1.42,5.09,5.09,0,0,0,1.39-2.07,10.38,10.38,0,0,1-.3,8.58c-.13.19-.28.35-.42.52a5.64,5.64,0,0,0-4.63-1.86,3,3,0,0,0-2.93,2.48c-.12,1.64,1.38,2.28,2.78,2.22a10.06,10.06,0,0,0,4.42-1l.17-.11a5.44,5.44,0,0,1,.49,1.11c.77,2.57-.61,5.31-2.6,6.92-2.52,2-5.77,2.4-8.89,2.45-.26,0-.1.47.09.5,3.29.53,7.06,0,9.69-2.18,2.22-1.83,3.78-4.88,3-7.78a6.36,6.36,0,0,0-.8-1.76,6.1,6.1,0,0,0,1.55-2.63C465.28,112.43,465.43,108.57,463.22,106.28Zm-3.51,3.45a3.33,3.33,0,0,1-2.75.33,2,2,0,0,1-1.3-2.59c.93-2.22,3.9-2.24,5.68-1.17a4.5,4.5,0,0,1,.54.41A4.41,4.41,0,0,1,459.71,109.73Zm0,8.61a11.39,11.39,0,0,1-1.75.28c-.54,0-1.39.22-1.82-.2a1.16,1.16,0,0,1-.11-1.3,2.07,2.07,0,0,1,1.6-.94,4.24,4.24,0,0,1,3.65,1.51A5.43,5.43,0,0,1,459.68,118.34Z" style="fill:#e0e0e0"></path><path d="M474.58,236.93a6,6,0,0,1-7.86-5.46,9.86,9.86,0,0,0,3.4-.15,2.92,2.92,0,0,0,2.5-3,3,3,0,0,0-2.54-2.7,4.09,4.09,0,0,0-3.83,2.48,6.72,6.72,0,0,0-.63,2.19,4,4,0,0,1-2.86-2.4,7.5,7.5,0,0,1,.06-4.95c.26-.87.58-1.71.91-2.55a3.91,3.91,0,0,1,1.37-1.95c.31-.22-.21-.66-.47-.58a2.75,2.75,0,0,0-1.52,1.46,19.43,19.43,0,0,0-1.18,2.83,8.83,8.83,0,0,0-.39,5.53,5.12,5.12,0,0,0,3.43,3.44c.19.06.4.09.6.14a7.56,7.56,0,0,0,.23,1.7c1,3.66,5.46,6.38,9.08,4.55C475.2,237.35,474.88,236.86,474.58,236.93Zm-6-9.89a1.72,1.72,0,0,1,2.79.71,1.94,1.94,0,0,1-1.43,2.59,8.06,8.06,0,0,1-3.18.17A4.7,4.7,0,0,1,468.56,227Z" style="fill:#e0e0e0"></path><path d="M259.34,51.82a3.71,3.71,0,0,0,.41-.28,4.72,4.72,0,0,0,1.65-4c-.18-3.41-2.77-6.69-5.65-8.35a11.6,11.6,0,0,0-2.43-1c-.29-.08-.3.49,0,.59a11.47,11.47,0,0,1,6.26,5.4,6.91,6.91,0,0,1,.87,4.14,3.92,3.92,0,0,1-1.29,2.34c0-.08,0-.15,0-.22a9.61,9.61,0,0,0-2.22-4.1,3.92,3.92,0,0,0-3.56-1.41,2.62,2.62,0,0,0-1.63,3.41c.51,1.66,2.21,2.78,3.71,3.47a4.71,4.71,0,0,0,2.88.44,9,9,0,0,1-1.09,5.2,7.63,7.63,0,0,1-5.85,3.91,6.08,6.08,0,0,0,.46-1.56,4.72,4.72,0,0,0-1.36-4.15,3.76,3.76,0,0,0-3.82-.72,3.09,3.09,0,0,0-1.71,3.6,5,5,0,0,0,3.22,3.41,6.29,6.29,0,0,0,1.31.38,12.23,12.23,0,0,1-5,3.54c-2.58,1-5.79,1.18-8.17-.44-.26-.18-.36.34-.17.49a7.58,7.58,0,0,0,4.14,1.71,11,11,0,0,0,4.68-.75,12.49,12.49,0,0,0,5.86-4.41A8.35,8.35,0,0,0,257,59.76,9.81,9.81,0,0,0,259.34,51.82Zm-5.18-1.9c-1-.75-2.07-2.18-1.18-3.44.71-1,2-.47,2.75.18a7.42,7.42,0,0,1,2,3.06,10.64,10.64,0,0,1,.4,1.47C256.72,51.61,255.23,50.72,254.16,49.92ZM246.92,60a2.67,2.67,0,0,1-.44-3.64,2.43,2.43,0,0,1,3-.22,3.4,3.4,0,0,1,1.2,3.19,5.38,5.38,0,0,1-.66,2A5.38,5.38,0,0,1,246.92,60Z" style="fill:#e0e0e0"></path><path d="M60.94,56.28a6.24,6.24,0,0,1-7.5-3.43,8.26,8.26,0,0,1-.31-5.23,8.77,8.77,0,0,0,3.1-.24c1.72-.45,4.63-1.59,4.62-3.75,0-1.92-2.23-3.08-3.94-2.75-2.07.41-3.52,2.35-4.4,4.14A11.2,11.2,0,0,0,52,46.15a4.71,4.71,0,0,1-1.4-.7,4.55,4.55,0,0,1-2-4.08c.23-1.88,1.59-3.55,2.84-4.89a20.9,20.9,0,0,1,5.05-3.81c.46-.26-.16-1-.57-.85a16.2,16.2,0,0,0-5.63,4c-1.52,1.58-3.12,3.61-3.15,5.91A5.91,5.91,0,0,0,50,46.5a6.69,6.69,0,0,0,1.71.81,9.62,9.62,0,0,0-.18,4.1,7.74,7.74,0,0,0,3.65,5.33c1.81,1.06,4.37,1.55,6.24.36C61.77,56.85,61.34,56.16,60.94,56.28Zm-5.5-13c1-1,3.16-2,3.87-.13.63,1.71-2.56,2.79-3.71,3.07a7.42,7.42,0,0,1-2.1.2A9.43,9.43,0,0,1,55.44,43.28Z" style="fill:#e0e0e0"></path><path d="M32.31,225.55c-.2,3.58,4.09,6.91,4.09,6.91l3.5-3.77a8.67,8.67,0,0,1-4.71-6.76Z" style="fill:#e0e0e0"></path><path d="M166.51,46.33c-.28,4.89,5.58,9.43,5.58,9.43l4.78-5.14s-5.32-2.15-6.43-9.22Z" style="fill:#e0e0e0"></path><path d="M371,47.39c.27,4.89-5.58,9.44-5.58,9.44l-4.78-5.15s5.31-2.15,6.42-9.21Z" style="fill:#e0e0e0"></path><path d="M101.29,123.94c2.43,2.64,1.21,7.94,1.21,7.94l-5.1-.7a8.64,8.64,0,0,0-.63-8.21Z" style="fill:#e0e0e0"></path></g></g><g id="freepik--party-hat--inject-450"><g id="freepik--party-hat--inject-450"><path d="M238.85,325.39h0L135,88.85,31.07,325.39h0c-8.87,20.4.49,42.9,28.13,58.85,41.83,24.15,109.66,24.15,151.5,0C238.35,368.29,247.72,345.79,238.85,325.39Z" style="fill:#ECEFF1"></path><path d="M238.85,325.39h0L135,88.85,31.07,325.39h0c-8.87,20.4.49,42.9,28.13,58.85,41.83,24.15,109.66,24.15,151.5,0C238.35,368.29,247.72,345.79,238.85,325.39Z" style="fill:#fff;opacity:0.5"></path><path d="M135,88.85,31.07,325.39h0c-8.87,20.4.49,42.9,28.13,58.85,41.83,24.15,109.66,24.15,151.5,0a81,81,0,0,0,18-13.76c-22.94,18.31-72.59,30.66-109,19.92s-61.67-33-52-70.18S117.23,153.63,135,88.85Z" style="fill:#ECEFF1;opacity:0.2"></path><path d="M160.21,145.84l-12.36-27.67c1.49,24.69-20.07,51.61-51.25,58L85,202.94C104.23,205.14,161.3,183.94,160.21,145.84ZM188.64,211l-13.76-31.33c3.33,24-39.88,71.54-107.79,63.68L55,270.94C92.13,281.55,182.91,263.28,188.64,211Zm30.65,69.79-12.91-29.39h0c-26.39,65.08-136,68.78-168.08,57.5h0l-7.23,16.45h0a38.07,38.07,0,0,0-3.2,13.5h0C86.64,366.75,201.7,329.22,219.29,280.83Zm19.56,44.56h0l-7.88-18c-10.67,35.21-116.46,90.09-189.36,63.44a81.39,81.39,0,0,0,17.6,13.37c13.43,7.76,29.55,13,46.62,15.78,47.46-2.13,117.09-26,135.11-68.46A39.4,39.4,0,0,0,238.85,325.39Z" style="fill:#ECEFF1"></path><path d="M135,88.83c-1.61-11.79-14.74-17.94-30.9-14.28a40.63,40.63,0,0,0-29.33,26.69c-3.42,10.54-5.27,21.13-15.19,28.55s-28.37,2.57-28.37,2.57L32,149.67s18.31,6.63,32.27-4.14,17.52-20.62,22.15-36.21,15.67-24.63,25.66-28S131.79,82.08,135,88.83Z" style="fill:#ECEFF1"></path><path d="M135,88.83c-1.61-11.79-14.74-17.94-30.9-14.28a40.63,40.63,0,0,0-29.33,26.69c-3.42,10.54-5.27,21.13-15.19,28.55s-28.37,2.57-28.37,2.57L32,149.67s18.31,6.63,32.27-4.14,17.52-20.62,22.15-36.21,15.67-24.63,25.66-28S131.79,82.08,135,88.83Z" style="opacity:0.2"></path><path d="M135,88.83c1.87-13.14-10.07-29.85-26.21-29.15S93.19,89,82.08,94.19c-9.59,4.5-22.51-10.49-36.55-.69l-3.67,16.82s12-9.35,27-5.22,25.34,2.45,28.83-9.17S104.74,71.78,114,70.76,132.14,76.08,135,88.83Z" style="fill:#ECEFF1"></path><path d="M136.63,83.2c.56-17.12-12.31-30.46-32.3-32.84,14-7.34,22.45-6.18,29.48,5.61C139,64.69,139.06,77.15,136.63,83.2Z" style="fill:#ECEFF1"></path><path d="M136.63,83.2c.56-17.12-12.31-30.46-32.3-32.84,14-7.34,22.45-6.18,29.48,5.61C139,64.69,139.06,77.15,136.63,83.2Z" style="fill:#fff;opacity:0.2"></path></g></g><g id="freepik--Glass--inject-450"><g id="freepik--glass--inject-450"><path d="M337.11,290.55c-11.73-6.77-30.75-6.78-42.48,0-5.86,3.38-8.79,7.82-8.79,12.26v3.1c0,4.44,2.92,8.89,8.79,12.27,11.73,6.78,30.75,6.78,42.48,0,5.85-3.38,8.78-7.81,8.79-12.24v-3.13C345.9,298.37,343,293.93,337.11,290.55Z" style="fill:#ECEFF1"></path><path d="M337.11,290.55c-11.73-6.77-30.75-6.78-42.48,0-5.86,3.38-8.79,7.82-8.79,12.26v3.1c0,4.44,2.92,8.89,8.79,12.27,11.73,6.78,30.75,6.78,42.48,0,5.85-3.38,8.78-7.81,8.79-12.24v-3.13C345.9,298.37,343,293.93,337.11,290.55Z" style="fill:#fff;opacity:0.30000000000000004"></path><path d="M294.63,315.07c-11.72-6.77-11.72-17.75,0-24.52s30.75-6.77,42.48,0,11.72,17.75,0,24.52S306.36,321.84,294.63,315.07Z" style="fill:#ECEFF1"></path><path d="M294.63,315.07c-11.72-6.77-11.72-17.75,0-24.52s30.75-6.77,42.48,0,11.72,17.75,0,24.52S306.36,321.84,294.63,315.07Z" style="fill:#fff;opacity:0.55"></path><path d="M307,294.38c-7.28,1.6-9.21,6.7-5.33,10.59,6,6,21.15,4.69,25.42-1Z" style="fill:#ECEFF1;opacity:0.30000000000000004"></path><path d="M328.87,289.71c8.27,2.09,16.32,16.84.86,23.47-11.31,4.86-31.54,2.33-34.65.08,4.62,2.82,19,8.13,35.34,2.7C351.71,308.9,343.6,290.93,328.87,289.71Z" style="fill:#fff;opacity:0.30000000000000004"></path><g id="freepik--glass--inject-450"><path d="M348.21,86.8l-32.34,0-32.34,0s-6.52,58.81-5.85,86.51A38.16,38.16,0,0,0,297,206.53a27.69,27.69,0,0,1,14.22,24v57.73a5.93,5.93,0,0,1-2.79,5,14,14,0,0,0-4.62,4.66l-.22.38c-1.28,2.51-.21,5.33,3.22,7.32,5,2.87,13.08,2.87,18.06,0,3.43-2,4.5-4.81,3.22-7.32a6.68,6.68,0,0,0-.41-.67,14,14,0,0,0-4.39-4.35,6,6,0,0,1-2.83-5.06V230.55a27.7,27.7,0,0,1,14.23-24,38.15,38.15,0,0,0,19.34-33.22C354.73,145.61,348.21,86.8,348.21,86.8Z" style="fill:#ECEFF1"></path><path d="M348.21,86.8l-32.34,0-32.34,0s-6.52,58.81-5.85,86.51A38.16,38.16,0,0,0,297,206.53a27.69,27.69,0,0,1,14.22,24v57.73a5.93,5.93,0,0,1-2.79,5,14,14,0,0,0-4.62,4.66l-.22.38c-1.28,2.51-.21,5.33,3.22,7.32,5,2.87,13.08,2.87,18.06,0,3.43-2,4.5-4.81,3.22-7.32a6.68,6.68,0,0,0-.41-.67,14,14,0,0,0-4.39-4.35,6,6,0,0,1-2.83-5.06V230.55a27.7,27.7,0,0,1,14.23-24,38.15,38.15,0,0,0,19.34-33.22C354.73,145.61,348.21,86.8,348.21,86.8Z" style="fill:#fff;opacity:0.5"></path><path d="M303.82,207.59c-7.05-3.56-14.1-5.72-20.42-14.18A38.42,38.42,0,0,0,297,206.53a27.69,27.69,0,0,1,14.22,24C311.25,217.08,310.92,211.17,303.82,207.59Z" style="fill:#ECEFF1;opacity:0.2"></path><path d="M315.87,206c-19.49,0-35.35-15.5-35.35-34.55v-.07c-.58-23.4,4.34-70.42,5.56-81.71l29.79,0,29.79,0c1.22,11.29,6.14,58.31,5.56,81.71v.07C351.22,190.47,335.36,206,315.87,206Z" style="fill:#ECEFF1"></path><path d="M315.87,206c-19.49,0-35.35-15.5-35.35-34.55v-.07c-.58-23.4,4.34-70.42,5.56-81.71l29.79,0,29.79,0c1.22,11.29,6.14,58.31,5.56,81.71v.07C351.22,190.47,335.36,206,315.87,206Z" style="fill:#fff;opacity:0.30000000000000004"></path><path d="M350.19,171.32c0,18.58-15.4,33.62-34.32,33.62s-34.32-15-34.32-33.52c-.25-10.09.53-24.69,1.61-38.84,0-.4,0-.81.08-1.21.58-4.33,3.74-8.59,9.48-11.89,12.77-7.38,33.49-7.38,46.27,0,6,3.44,9.16,7.89,9.55,12.4V132C349.64,146.29,350.45,161.13,350.19,171.32Z" style="fill:#ECEFF1"></path><path d="M350.19,171.32c0,18.58-15.4,33.62-34.32,33.62s-34.32-15-34.32-33.52c-.25-10.09.53-24.69,1.61-38.84,0-.4,0-.81.08-1.21.58-4.33,3.74-8.59,9.48-11.89,12.77-7.38,33.49-7.38,46.27,0,6,3.44,9.16,7.89,9.55,12.4V132C349.64,146.29,350.45,161.13,350.19,171.32Z" style="fill:#fff;opacity:0.85"></path><path d="M339,144.3c-12.78,7.38-33.5,7.38-46.27,0-6.5-3.75-9.7-8.7-9.56-13.61a1.08,1.08,0,0,1,0-.18c0-.32,0-.64.07-.95,0,0,0-.05,0-.08.58-4.34,3.74-8.59,9.48-11.89,12.77-7.39,33.49-7.39,46.27,0,6,3.43,9.16,7.89,9.55,12.4v.07C348.94,135.18,345.77,140.39,339,144.3Z" style="fill:#fafafa"></path><path d="M344.31,158.39c-.27-7-1-18.33-1.73-29.27l-.28-.26q-.84-.72-1.74-1.41a47,47,0,0,0-7.9-4.44c2.1,27.46,3.8,48-.62,61.14-2.43,7.2-9.41,12.78-13.36,20.56h0a36,36,0,0,0,4.69-.7l.26-.06c1-.24,2.09-.53,3.1-.86l.35-.12c.31-.1.62-.21.92-.33l.07,0c1.2-1.17,2.51-2.42,3.94-3.79C344.4,187,345,175.23,344.31,158.39Z" style="fill:#f5f5f5"></path><path d="M331.22,102.79c2.41,37.76,6.27,65.19.82,81.36-3.46,10.26-16.17,17.23-16.17,31.95v71c0,6.45,1.35,7.77,2.79,11.09s-2.58,7.57-9.72,6.17c2.14,1.66,10.23,2.62,14.34.28s3.61-6.2,0-9.37c-3.18-2.78-4.62-1.46-4.62-12.07v-60c0-12,4.33-15.75,13.38-24.42C344.4,187,345,175.23,344.31,158.39S340.4,99,340.4,99Z" style="fill:#fff;opacity:0.30000000000000004"></path><path d="M293,100c-12.63-7.29-12.63-19.12,0-26.41s33.11-7.29,45.74,0,12.63,19.12,0,26.41S305.63,107.28,293,100Z" style="fill:#ECEFF1"></path><path d="M293,100c-12.63-7.29-12.63-19.12,0-26.41s33.11-7.29,45.74,0,12.63,19.12,0,26.41S305.63,107.28,293,100Z" style="fill:#fff;opacity:0.6000000000000001"></path><path d="M315.87,102.61c-8.15,0-15.76-1.8-21.45-5.08-5.19-3-8.05-6.82-8.05-10.75S289.23,79,294.42,76c5.69-3.28,13.3-5.08,21.45-5.09s15.76,1.81,21.45,5.09c5.19,3,8.05,6.82,8.05,10.74s-2.86,7.75-8.05,10.75C331.63,100.81,324,102.61,315.87,102.61Z" style="fill:#ECEFF1"></path><path d="M315.87,102.61c-8.15,0-15.76-1.8-21.45-5.08-5.19-3-8.05-6.82-8.05-10.75S289.23,79,294.42,76c5.69-3.28,13.3-5.08,21.45-5.09s15.76,1.81,21.45,5.09c5.19,3,8.05,6.82,8.05,10.74s-2.86,7.75-8.05,10.75C331.63,100.81,324,102.61,315.87,102.61Z" style="fill:#fff;opacity:0.30000000000000004"></path></g></g></g><g id="freepik--Notebook--inject-450"><g id="freepik--notebook--inject-450"><path d="M140.67,436.84l-7.18-3.56-17.6-257.77,159.49-92a4.68,4.68,0,0,1,4-.09l1.09.54a4.29,4.29,0,0,1,2.2,3.14l17,253.75a6.75,6.75,0,0,1-3.46,6.31Z" style="fill:#ebebeb"></path><polygon points="140.62 436.82 122.87 178.98 115.89 175.51 133.49 433.28 140.62 436.82" style="fill:#e0e0e0"></polygon><path d="M282.57,86.85c0,.08.05.16.06.24l17,253.74a6.75,6.75,0,0,1-3.46,6.32L141.21,436.54l-.59.28L122.87,179Z" style="fill:#fafafa"></path><polygon points="139.96 438.61 139.8 436.2 139.65 433.98 134.51 358.67 122.17 177.78 287.46 82.31 285.96 81.57 120.71 177.05 138.3 434.76 138.44 436.98 138.51 437.89 139.96 438.61" style="fill:#ECEFF1"></polygon><polygon points="139.96 438.61 139.8 436.2 139.65 433.98 134.51 358.67 122.17 177.78 287.46 82.31 285.96 81.57 120.71 177.05 138.3 434.76 138.44 436.98 138.51 437.89 139.96 438.61" style="opacity:0.1"></polygon><path d="M140,438.61l165.3-95.47-.17-2.42-.16-2.21L288,90l-.42-6.16-.1-1.53L122.18,177.77l12.33,180.9L139.65,434l.15,2.22Z" style="fill:#ECEFF1"></path><polygon points="138.51 437.89 139.97 438.61 122.18 177.77 120.72 177.05 138.51 437.89" style="fill:#ECEFF1"></polygon><polygon points="138.51 437.89 139.97 438.61 122.18 177.77 120.72 177.05 138.51 437.89" style="fill:#fff;opacity:0.4"></polygon><polygon points="142 439.62 141.84 437.21 141.69 434.99 136.55 359.69 124.21 178.79 289.5 83.32 288 82.58 122.75 178.06 140.34 435.77 140.49 437.99 140.55 438.9 142 439.62" style="fill:#ECEFF1"></polygon><polygon points="142 439.62 141.84 437.21 141.69 434.99 136.55 359.69 124.21 178.79 289.5 83.32 288 82.58 122.75 178.06 140.34 435.77 140.49 437.99 140.55 438.9 142 439.62" style="opacity:0.1"></polygon><path d="M142,439.62l165.3-95.47-.16-2.42-.16-2.2L290,91l-.41-6.17-.11-1.53L124.23,178.78l12.32,180.91,5.14,75.3.15,2.22Z" style="fill:#ECEFF1"></path><path d="M142,439.62l165.3-95.47-.16-2.42-.16-2.2L290,91l-.41-6.17-.11-1.53L124.23,178.78l12.32,180.91,5.14,75.3.15,2.22Z" style="fill:#fff;opacity:0.2"></path><polygon points="140.55 438.9 142.01 439.63 124.22 178.79 122.76 178.06 140.55 438.9" style="fill:#ECEFF1"></polygon><polygon points="140.55 438.9 142.01 439.63 124.22 178.79 122.76 178.06 140.55 438.9" style="fill:#fff;opacity:0.4"></polygon><path d="M149.75,441.34l-7.19-3.56L125,180,284.45,88a4.68,4.68,0,0,1,4-.09l1.1.55a4.25,4.25,0,0,1,2.19,3.13l17,253.75a6.71,6.71,0,0,1-3.46,6.31Z" style="fill:#ebebeb"></path><polygon points="149.69 441.32 131.94 183.48 124.96 180.01 142.56 437.78 149.69 441.32" style="fill:#e0e0e0"></polygon><path d="M150.15,440.55l154.78-89.3a6.55,6.55,0,0,0,2.49-2.52,6.11,6.11,0,0,0,.75-3.38L291.23,92.15,132.47,183.74Z" style="fill:#fafafa"></path><path d="M150.15,440.55l154.78-89.3a6.55,6.55,0,0,0,2.49-2.52,6.11,6.11,0,0,0,.75-3.38L291.23,92.15,132.47,183.74Z" style="fill:#fafafa"></path><path d="M307,348.51a6.13,6.13,0,0,1-2.32,2.34l-154,88.88L133,184,290.78,93l16.88,252.39a5.69,5.69,0,0,1-.69,3.15m.91.45a6.62,6.62,0,0,0,.79-3.62l-17-253.75c0-.08-.05-.16-.06-.24L132,183.48,149.7,441.32l.58-.28,154.93-89.39a7,7,0,0,0,2.67-2.69Z" style="fill:#e0e0e0"></path><path d="M167,239.12c.12,1.78,1.52,2.47,3.12,1.55a5.76,5.76,0,0,0,2.68-4.9c-.12-1.78-1.51-2.47-3.12-1.55A5.78,5.78,0,0,0,167,239.12Z" style="fill:#37474f"></path><path d="M169.35,272.81c.12,1.78,1.52,2.47,3.12,1.54a5.74,5.74,0,0,0,2.69-4.89c-.13-1.78-1.52-2.48-3.12-1.55A5.76,5.76,0,0,0,169.35,272.81Z" style="fill:#37474f"></path><path d="M171.69,306.45c.12,1.78,1.52,2.47,3.12,1.54a5.74,5.74,0,0,0,2.68-4.89c-.12-1.78-1.51-2.48-3.12-1.55A5.77,5.77,0,0,0,171.69,306.45Z" style="fill:#37474f"></path><path d="M173.92,339.6c.12,1.78,1.51,2.47,3.12,1.55a5.78,5.78,0,0,0,2.68-4.9c-.12-1.78-1.52-2.47-3.12-1.55A5.78,5.78,0,0,0,173.92,339.6Z" style="fill:#37474f"></path><path d="M176.18,372.39c.12,1.78,1.52,2.48,3.12,1.55A5.76,5.76,0,0,0,182,369c-.13-1.78-1.52-2.47-3.12-1.54A5.74,5.74,0,0,0,176.18,372.39Z" style="fill:#37474f"></path><g id="freepik--notebook--inject-450"><path d="M138,190.5c.12,1.78,1.51,2.48,3.12,1.55a5.78,5.78,0,0,0,2.68-4.9c-.12-1.78-1.52-2.47-3.12-1.55A5.78,5.78,0,0,0,138,190.5Z" style="fill:#37474f"></path><path d="M113.26,195.36c-3.39-1.69-5.37-4-5.54-6.64s1.46-5,4.62-6.85a18.45,18.45,0,0,1,3.86-1.64l.14,2.15a15.45,15.45,0,0,0-2.76,1.25c-2.48,1.43-3.77,3.22-3.64,5.05s1.65,3.55,4.31,4.87c5.93,2.95,15.24,2.75,20.76-.44a8.47,8.47,0,0,0,3-2.67,4,4,0,0,0,.64-2.37c0-.07,0-.13,0-.19a5.73,5.73,0,0,1,1.66-2,5.94,5.94,0,0,1,.58,2.15,6.09,6.09,0,0,1-1.56,4.38,11.34,11.34,0,0,1-3.07,2.47C130.14,198.4,119.83,198.62,113.26,195.36Z" style="fill:#ECEFF1"></path><path d="M139.08,206.16c.12,1.78,1.51,2.47,3.12,1.55a5.78,5.78,0,0,0,2.68-4.9c-.12-1.78-1.52-2.48-3.12-1.55A5.77,5.77,0,0,0,139.08,206.16Z" style="fill:#37474f"></path><path d="M114.33,211c-3.4-1.69-5.37-4.05-5.55-6.64s1.47-5,4.63-6.86a18.76,18.76,0,0,1,3.86-1.64l.14,2.16a15.45,15.45,0,0,0-2.76,1.25c-2.48,1.42-3.77,3.22-3.65,5s1.66,3.56,4.32,4.88c5.93,2.94,15.24,2.74,20.76-.44a8.44,8.44,0,0,0,3-2.67,4,4,0,0,0,.64-2.37c0-.07,0-.13,0-.19a5.72,5.72,0,0,1,1.65-2,5.66,5.66,0,0,1,.59,2.15,6,6,0,0,1-1.57,4.37,11.12,11.12,0,0,1-3.06,2.48C131.21,214.06,120.89,214.28,114.33,211Z" style="fill:#ECEFF1"></path><path d="M140.14,221.81c.12,1.78,1.52,2.48,3.12,1.55a5.76,5.76,0,0,0,2.69-4.9c-.13-1.78-1.52-2.47-3.12-1.54A5.74,5.74,0,0,0,140.14,221.81Z" style="fill:#37474f"></path><path d="M115.4,226.67c-3.4-1.68-5.37-4-5.55-6.64s1.47-5,4.63-6.85a18.9,18.9,0,0,1,3.85-1.64l.15,2.15a16.73,16.73,0,0,0-2.77,1.25c-2.47,1.43-3.76,3.22-3.64,5.05s1.66,3.56,4.32,4.87c5.92,2.95,15.24,2.75,20.76-.43a8.44,8.44,0,0,0,3-2.67,4,4,0,0,0,.64-2.38,1.37,1.37,0,0,0,0-.19,5.73,5.73,0,0,1,1.66-2,6.16,6.16,0,0,1,.59,2.15,6.05,6.05,0,0,1-1.57,4.38,11.66,11.66,0,0,1-3.06,2.48C132.27,229.71,122,229.93,115.4,226.67Z" style="fill:#ECEFF1"></path><path d="M141.21,237.47c.12,1.78,1.52,2.47,3.12,1.55a5.78,5.78,0,0,0,2.68-4.9c-.12-1.78-1.51-2.47-3.12-1.55A5.78,5.78,0,0,0,141.21,237.47Z" style="fill:#37474f"></path><path d="M116.46,242.33c-3.39-1.69-5.36-4-5.54-6.64s1.47-5,4.63-6.85a18.36,18.36,0,0,1,3.85-1.64l.14,2.15a15.45,15.45,0,0,0-2.76,1.25c-2.47,1.43-3.76,3.22-3.64,5.05s1.65,3.55,4.31,4.87c5.93,2.94,15.25,2.75,20.76-.44a8.3,8.3,0,0,0,3-2.67,4.09,4.09,0,0,0,.64-2.37,1.11,1.11,0,0,0,0-.19,5.73,5.73,0,0,1,1.66-2,5.89,5.89,0,0,1,.58,2.15,6.09,6.09,0,0,1-1.56,4.38,11.44,11.44,0,0,1-3.06,2.47C133.34,245.37,123,245.59,116.46,242.33Z" style="fill:#ECEFF1"></path><path d="M142.28,253.13c.12,1.78,1.51,2.47,3.12,1.55a5.78,5.78,0,0,0,2.68-4.9c-.12-1.78-1.52-2.48-3.12-1.55A5.77,5.77,0,0,0,142.28,253.13Z" style="fill:#37474f"></path><path d="M117.53,258c-3.39-1.69-5.37-4.05-5.54-6.64s1.46-5,4.62-6.86a19,19,0,0,1,3.86-1.64l.14,2.16a15.45,15.45,0,0,0-2.76,1.25c-2.48,1.42-3.77,3.22-3.64,5s1.65,3.56,4.31,4.88c5.93,2.94,15.24,2.74,20.76-.44a8.48,8.48,0,0,0,3-2.67,4.19,4.19,0,0,0,.64-2.38c0-.06,0-.12,0-.18a5.72,5.72,0,0,1,1.65-2,5.66,5.66,0,0,1,.59,2.15,6.06,6.06,0,0,1-1.56,4.37,11.36,11.36,0,0,1-3.07,2.48C134.41,261,124.1,261.25,117.53,258Z" style="fill:#ECEFF1"></path><path d="M143.34,268.78c.12,1.78,1.52,2.48,3.12,1.55a5.76,5.76,0,0,0,2.69-4.9c-.12-1.78-1.52-2.47-3.12-1.54A5.76,5.76,0,0,0,143.34,268.78Z" style="fill:#37474f"></path><path d="M118.6,273.64c-3.4-1.68-5.37-4-5.55-6.64s1.47-5,4.63-6.85a18.76,18.76,0,0,1,3.86-1.64l.14,2.15a16.65,16.65,0,0,0-2.77,1.25c-2.47,1.43-3.76,3.22-3.64,5s1.66,3.55,4.32,4.87c5.93,2.95,15.24,2.75,20.76-.44a8.26,8.26,0,0,0,3-2.67,4,4,0,0,0,.64-2.37c0-.06,0-.13,0-.19a5.81,5.81,0,0,1,1.65-2,5.76,5.76,0,0,1,.59,2.15,6.05,6.05,0,0,1-1.57,4.38,11.5,11.5,0,0,1-3.06,2.48C135.48,276.68,125.16,276.9,118.6,273.64Z" style="fill:#ECEFF1"></path><path d="M144.41,284.44c.12,1.78,1.52,2.47,3.12,1.55a5.77,5.77,0,0,0,2.69-4.9c-.13-1.78-1.52-2.47-3.12-1.55A5.77,5.77,0,0,0,144.41,284.44Z" style="fill:#37474f"></path><path d="M119.67,289.3c-3.4-1.69-5.37-4-5.55-6.64s1.47-5,4.63-6.85a18.36,18.36,0,0,1,3.85-1.64l.15,2.15a15.23,15.23,0,0,0-2.77,1.25c-2.47,1.43-3.76,3.22-3.64,5.05s1.66,3.55,4.32,4.87c5.92,2.94,15.24,2.75,20.76-.44a8.53,8.53,0,0,0,3-2.67,4,4,0,0,0,.64-2.37,1.11,1.11,0,0,0,0-.19,5.73,5.73,0,0,1,1.66-2,5.75,5.75,0,0,1-1,6.53,11.44,11.44,0,0,1-3.06,2.47C136.54,292.34,126.23,292.56,119.67,289.3Z" style="fill:#ECEFF1"></path><path d="M145.48,300.1c.12,1.78,1.52,2.47,3.12,1.54a5.75,5.75,0,0,0,2.68-4.89c-.12-1.78-1.52-2.48-3.12-1.55A5.77,5.77,0,0,0,145.48,300.1Z" style="fill:#37474f"></path><path d="M120.73,305c-3.39-1.68-5.37-4-5.54-6.63s1.46-5,4.63-6.86a18.9,18.9,0,0,1,3.85-1.64l.14,2.16a16.16,16.16,0,0,0-2.76,1.24c-2.47,1.43-3.77,3.23-3.64,5s1.65,3.56,4.31,4.88c5.93,2.94,15.25,2.74,20.76-.44a8.57,8.57,0,0,0,3-2.67,4,4,0,0,0,.64-2.38,1.1,1.1,0,0,0,0-.18,5.68,5.68,0,0,1,1.66-2,5.94,5.94,0,0,1,.58,2.16,6,6,0,0,1-1.56,4.37,11.46,11.46,0,0,1-3.06,2.48C137.61,308,127.3,308.22,120.73,305Z" style="fill:#ECEFF1"></path><path d="M146.55,315.75c.12,1.78,1.51,2.48,3.12,1.55a5.77,5.77,0,0,0,2.68-4.9c-.12-1.78-1.52-2.47-3.12-1.55A5.78,5.78,0,0,0,146.55,315.75Z" style="fill:#37474f"></path><path d="M121.8,320.61c-3.4-1.68-5.37-4-5.54-6.64s1.46-5,4.62-6.85a18.45,18.45,0,0,1,3.86-1.64l.14,2.15a16.18,16.18,0,0,0-2.76,1.25c-2.48,1.43-3.77,3.22-3.64,5.05s1.65,3.55,4.31,4.87c5.93,2.95,15.24,2.75,20.76-.44a8.3,8.3,0,0,0,3-2.67,4.16,4.16,0,0,0,.64-2.37c0-.06,0-.13,0-.19a5.81,5.81,0,0,1,1.65-2,5.76,5.76,0,0,1,.59,2.15,6.05,6.05,0,0,1-1.57,4.38,11.34,11.34,0,0,1-3.06,2.48C138.68,323.65,128.37,323.87,121.8,320.61Z" style="fill:#ECEFF1"></path><path d="M147.61,331.41c.12,1.78,1.52,2.47,3.12,1.55a5.77,5.77,0,0,0,2.69-4.9c-.12-1.78-1.52-2.47-3.12-1.55A5.79,5.79,0,0,0,147.61,331.41Z" style="fill:#37474f"></path><path d="M122.87,336.27c-3.4-1.69-5.37-4-5.55-6.64s1.47-5,4.63-6.85a18.22,18.22,0,0,1,3.86-1.64l.14,2.15a15.88,15.88,0,0,0-2.77,1.25c-2.47,1.43-3.76,3.22-3.64,5s1.66,3.56,4.32,4.88c5.93,2.94,15.24,2.75,20.76-.44a8.44,8.44,0,0,0,3-2.67,4,4,0,0,0,.64-2.37,1.11,1.11,0,0,0,0-.19,5.86,5.86,0,0,1,1.66-2,5.71,5.71,0,0,1,.59,2.15,6.07,6.07,0,0,1-1.57,4.38,11.28,11.28,0,0,1-3.06,2.47C139.75,339.31,129.43,339.53,122.87,336.27Z" style="fill:#ECEFF1"></path><path d="M148.68,347.07c.12,1.78,1.52,2.47,3.12,1.54a5.74,5.74,0,0,0,2.68-4.89c-.12-1.78-1.51-2.48-3.11-1.55A5.76,5.76,0,0,0,148.68,347.07Z" style="fill:#37474f"></path><path d="M123.93,351.92c-3.39-1.68-5.36-4-5.54-6.64s1.47-5,4.63-6.85a18.9,18.9,0,0,1,3.85-1.64l.15,2.15a16.73,16.73,0,0,0-2.77,1.25c-2.47,1.43-3.76,3.22-3.64,5.05s1.66,3.56,4.32,4.87c5.92,2.95,15.24,2.75,20.75-.43a8.48,8.48,0,0,0,3-2.67,4,4,0,0,0,.64-2.38,1.1,1.1,0,0,0,0-.18,5.68,5.68,0,0,1,1.66-2,6.16,6.16,0,0,1,.59,2.16A6.09,6.09,0,0,1,150,349a11.46,11.46,0,0,1-3.06,2.48C140.81,355,130.5,355.19,123.93,351.92Z" style="fill:#ECEFF1"></path><path d="M149.74,362.71c.12,1.78,1.52,2.47,3.12,1.54a5.74,5.74,0,0,0,2.69-4.89c-.12-1.78-1.52-2.48-3.12-1.55A5.76,5.76,0,0,0,149.74,362.71Z" style="fill:#37474f"></path><path d="M125,367.57c-3.4-1.69-5.37-4.05-5.55-6.64s1.47-5,4.63-6.86a18.9,18.9,0,0,1,3.85-1.64l.15,2.16a15.23,15.23,0,0,0-2.77,1.25c-2.47,1.42-3.76,3.22-3.64,5s1.66,3.56,4.32,4.88c5.93,2.94,15.24,2.74,20.76-.44a8.44,8.44,0,0,0,3-2.67,4,4,0,0,0,.64-2.37,1.11,1.11,0,0,0,0-.19,5.64,5.64,0,0,1,1.66-2,5.66,5.66,0,0,1,.59,2.15A6,6,0,0,1,151,364.6a11.46,11.46,0,0,1-3.06,2.48C141.87,370.61,131.56,370.83,125,367.57Z" style="fill:#ECEFF1"></path><path d="M150.81,378.36c.12,1.78,1.52,2.48,3.12,1.55a5.75,5.75,0,0,0,2.68-4.9c-.12-1.78-1.51-2.47-3.12-1.54A5.75,5.75,0,0,0,150.81,378.36Z" style="fill:#37474f"></path><path d="M126.06,383.22c-3.39-1.68-5.36-4-5.54-6.64s1.47-5,4.63-6.85a18.9,18.9,0,0,1,3.85-1.64l.15,2.15a16.73,16.73,0,0,0-2.77,1.25c-2.47,1.43-3.76,3.22-3.64,5.05s1.65,3.55,4.32,4.87c5.92,2.95,15.24,2.75,20.75-.44a8.55,8.55,0,0,0,3-2.66,4,4,0,0,0,.64-2.38,1.37,1.37,0,0,0,0-.19,5.73,5.73,0,0,1,1.66-2,5.94,5.94,0,0,1,.58,2.15,6,6,0,0,1-1.56,4.38,11.46,11.46,0,0,1-3.06,2.48C142.94,386.26,132.63,386.48,126.06,383.22Z" style="fill:#ECEFF1"></path><path d="M151.88,394c.12,1.78,1.52,2.47,3.12,1.55a5.78,5.78,0,0,0,2.68-4.9c-.12-1.78-1.52-2.47-3.12-1.55A5.78,5.78,0,0,0,151.88,394Z" style="fill:#37474f"></path><path d="M127.13,398.88c-3.39-1.69-5.37-4-5.54-6.64s1.46-5,4.62-6.85a18.45,18.45,0,0,1,3.86-1.64l.14,2.15a15.45,15.45,0,0,0-2.76,1.25c-2.48,1.43-3.77,3.22-3.64,5.05s1.65,3.55,4.31,4.87c5.93,2.94,15.24,2.75,20.76-.44a8.48,8.48,0,0,0,3-2.67,4.16,4.16,0,0,0,.64-2.37c0-.07,0-.13,0-.19a5.73,5.73,0,0,1,1.66-2,5.89,5.89,0,0,1,.58,2.15,6.09,6.09,0,0,1-1.56,4.38,11.44,11.44,0,0,1-3.06,2.47C144,401.92,133.7,402.14,127.13,398.88Z" style="fill:#ECEFF1"></path><path d="M153,409.68c.12,1.78,1.51,2.47,3.12,1.54a5.75,5.75,0,0,0,2.68-4.89c-.12-1.78-1.52-2.48-3.12-1.55A5.77,5.77,0,0,0,153,409.68Z" style="fill:#37474f"></path><path d="M128.2,414.54c-3.4-1.69-5.37-4.05-5.55-6.64s1.47-5,4.63-6.86a19,19,0,0,1,3.86-1.64l.14,2.16a16.16,16.16,0,0,0-2.76,1.24c-2.48,1.43-3.77,3.23-3.65,5.05s1.66,3.56,4.32,4.88c5.93,2.94,15.24,2.74,20.76-.44a8.35,8.35,0,0,0,3-2.67,4,4,0,0,0,.64-2.38c0-.06,0-.12,0-.18a5.76,5.76,0,0,1,1.65-2,5.76,5.76,0,0,1,.59,2.16,6,6,0,0,1-1.57,4.37,11.31,11.31,0,0,1-3.06,2.48C145.08,417.57,134.76,417.8,128.2,414.54Z" style="fill:#ECEFF1"></path><path d="M154,425.33c.12,1.78,1.52,2.48,3.12,1.55a5.76,5.76,0,0,0,2.69-4.9c-.13-1.78-1.52-2.47-3.12-1.54A5.74,5.74,0,0,0,154,425.33Z" style="fill:#37474f"></path><path d="M129.27,430.19c-3.4-1.68-5.37-4-5.55-6.64s1.47-5,4.63-6.85a18.36,18.36,0,0,1,3.85-1.64l.15,2.15a15.94,15.94,0,0,0-2.77,1.25c-2.47,1.43-3.76,3.22-3.64,5.05s1.66,3.55,4.32,4.87c5.93,2.95,15.24,2.75,20.76-.44a8.35,8.35,0,0,0,3-2.67,4,4,0,0,0,.64-2.37,1.23,1.23,0,0,0,0-.19,5.73,5.73,0,0,1,1.66-2,6,6,0,0,1,.59,2.15,6.1,6.1,0,0,1-1.57,4.38,11.31,11.31,0,0,1-3.06,2.48C146.14,433.23,135.83,433.45,129.27,430.19Z" style="fill:#ECEFF1"></path><path d="M129.27,430.19c-3.4-1.68-5.37-4-5.55-6.64s1.47-5,4.63-6.85a17.33,17.33,0,0,1,2.42-1.12,19.7,19.7,0,0,1-2.57-1c-3.4-1.69-5.37-4.05-5.55-6.64s1.47-5,4.63-6.86a16.94,16.94,0,0,1,2.43-1.12,18.52,18.52,0,0,1-2.58-1c-3.39-1.69-5.37-4-5.54-6.64s1.46-5,4.62-6.85a18.72,18.72,0,0,1,2.43-1.13,18.52,18.52,0,0,1-2.58-1c-3.39-1.68-5.36-4-5.54-6.64s1.47-5,4.63-6.85a16.81,16.81,0,0,1,2.42-1.12,19.7,19.7,0,0,1-2.57-1c-3.4-1.69-5.37-4.05-5.55-6.64s1.47-5,4.63-6.86a18.39,18.39,0,0,1,2.41-1.11,19.55,19.55,0,0,1-2.56-1c-3.39-1.68-5.36-4-5.54-6.64s1.47-5,4.63-6.85a17.33,17.33,0,0,1,2.42-1.12,19.7,19.7,0,0,1-2.57-1c-3.4-1.69-5.37-4-5.55-6.64s1.47-5,4.63-6.85a17.36,17.36,0,0,1,2.42-1.13,18.9,18.9,0,0,1-2.57-1c-3.4-1.68-5.37-4-5.54-6.64s1.46-5,4.62-6.85a17.46,17.46,0,0,1,2.43-1.12,18.55,18.55,0,0,1-2.58-1.05c-3.39-1.68-5.37-4-5.54-6.63s1.46-5,4.63-6.86a16.81,16.81,0,0,1,2.42-1.12,18.39,18.39,0,0,1-2.57-1c-3.4-1.69-5.37-4.05-5.55-6.64s1.47-5,4.63-6.85a18.58,18.58,0,0,1,2.42-1.13,18.39,18.39,0,0,1-2.57-1c-3.4-1.68-5.37-4-5.55-6.64s1.47-5,4.63-6.85A17.33,17.33,0,0,1,120.1,259a20.28,20.28,0,0,1-2.57-1c-3.4-1.69-5.37-4.05-5.54-6.64s1.46-5,4.62-6.86a17.46,17.46,0,0,1,2.43-1.12,18.52,18.52,0,0,1-2.58-1c-3.39-1.69-5.36-4-5.54-6.64s1.47-5,4.63-6.85a16.81,16.81,0,0,1,2.42-1.12,19.72,19.72,0,0,1-2.57-1.05c-3.4-1.68-5.37-4-5.55-6.64s1.47-5,4.63-6.85a17.33,17.33,0,0,1,2.42-1.12,19.7,19.7,0,0,1-2.57-1c-3.4-1.69-5.37-4.05-5.55-6.64s1.47-5,4.63-6.86a16.94,16.94,0,0,1,2.43-1.12,18.52,18.52,0,0,1-2.58-1c-3.39-1.69-5.37-4-5.54-6.64s1.46-5,4.62-6.85a18.45,18.45,0,0,1,3.86-1.64l.14,2.15a15.45,15.45,0,0,0-2.76,1.25c-2.48,1.43-3.77,3.22-3.64,5.05s1.65,3.55,4.31,4.87c5.93,2.95,15.24,2.75,20.76-.44a8.47,8.47,0,0,0,3-2.67,4,4,0,0,0,.64-2.37c0-.07,0-.13,0-.19a5.73,5.73,0,0,1,1.66-2,5.94,5.94,0,0,1,.58,2.15,6.09,6.09,0,0,1-1.56,4.38,11.34,11.34,0,0,1-3.07,2.47c-5,2.86-12.67,3.55-18.91,2l.08,1.2a15.45,15.45,0,0,0-2.76,1.25c-2.48,1.43-3.77,3.22-3.65,5s1.66,3.56,4.32,4.88c5.93,2.94,15.24,2.74,20.76-.44a8.44,8.44,0,0,0,3-2.67,4,4,0,0,0,.64-2.37,1.11,1.11,0,0,0,0-.19,5.86,5.86,0,0,1,1.66-2,5.66,5.66,0,0,1,.59,2.15,6,6,0,0,1-1.57,4.37,11.12,11.12,0,0,1-3.06,2.48c-4.95,2.86-12.67,3.55-18.91,2l.08,1.2a16.73,16.73,0,0,0-2.77,1.25c-2.47,1.43-3.76,3.22-3.64,5.05s1.66,3.56,4.32,4.87c5.92,2.95,15.24,2.75,20.76-.43a8.44,8.44,0,0,0,3-2.67,4,4,0,0,0,.64-2.38,1.37,1.37,0,0,0,0-.19,5.73,5.73,0,0,1,1.66-2,6.16,6.16,0,0,1,.59,2.15,6.05,6.05,0,0,1-1.57,4.38,11.66,11.66,0,0,1-3.06,2.48c-4.95,2.86-12.67,3.54-18.92,2l.08,1.2a15.45,15.45,0,0,0-2.76,1.25c-2.47,1.43-3.76,3.22-3.64,5.05s1.65,3.55,4.31,4.87c5.93,2.94,15.25,2.75,20.76-.44a8.3,8.3,0,0,0,3-2.67,4.09,4.09,0,0,0,.64-2.37,1.11,1.11,0,0,0,0-.19,5.73,5.73,0,0,1,1.66-2,5.94,5.94,0,0,1,.58,2.15,6.09,6.09,0,0,1-1.56,4.38,11.44,11.44,0,0,1-3.06,2.47c-5,2.86-12.67,3.55-18.92,2l.08,1.21a15.45,15.45,0,0,0-2.76,1.25c-2.48,1.42-3.77,3.22-3.64,5s1.65,3.56,4.31,4.88c5.93,2.94,15.24,2.74,20.76-.44a8.48,8.48,0,0,0,3-2.67,4.18,4.18,0,0,0,.64-2.37c0-.07,0-.13,0-.19a5.85,5.85,0,0,1,1.65-2,5.76,5.76,0,0,1,.59,2.16,6.06,6.06,0,0,1-1.56,4.37,11.36,11.36,0,0,1-3.07,2.48c-4.95,2.86-12.67,3.54-18.91,2l.08,1.2a17.51,17.51,0,0,0-2.77,1.25c-2.47,1.43-3.76,3.22-3.64,5s1.66,3.55,4.32,4.87c5.93,2.95,15.24,2.75,20.76-.44a8.26,8.26,0,0,0,3-2.67,4,4,0,0,0,.64-2.37,1.37,1.37,0,0,0,0-.19,6,6,0,0,1,1.66-2,5.76,5.76,0,0,1,.59,2.15,6.05,6.05,0,0,1-1.57,4.38,11.5,11.5,0,0,1-3.06,2.48c-5,2.86-12.67,3.54-18.91,2l.08,1.2a15.23,15.23,0,0,0-2.77,1.25c-2.47,1.43-3.76,3.22-3.64,5s1.66,3.56,4.32,4.88c5.92,2.94,15.24,2.75,20.76-.44a8.44,8.44,0,0,0,3-2.67,4,4,0,0,0,.64-2.37,1.11,1.11,0,0,0,0-.19,5.73,5.73,0,0,1,1.66-2,5.75,5.75,0,0,1-1,6.53,11.44,11.44,0,0,1-3.06,2.47c-5,2.86-12.67,3.55-18.92,2l.08,1.21a16.16,16.16,0,0,0-2.76,1.24c-2.47,1.43-3.77,3.23-3.64,5s1.65,3.56,4.31,4.88c5.93,2.94,15.25,2.74,20.76-.44a8.57,8.57,0,0,0,3-2.67,4,4,0,0,0,.64-2.38,1.1,1.1,0,0,0,0-.18,5.68,5.68,0,0,1,1.66-2,5.94,5.94,0,0,1,.58,2.16,6,6,0,0,1-1.56,4.37,11.46,11.46,0,0,1-3.06,2.48c-5,2.86-12.68,3.54-18.92,2l.08,1.2a16.18,16.18,0,0,0-2.76,1.25c-2.48,1.43-3.77,3.22-3.64,5.05s1.65,3.55,4.31,4.87c5.93,2.95,15.24,2.75,20.76-.44a8.3,8.3,0,0,0,3-2.67,4.16,4.16,0,0,0,.64-2.37c0-.06,0-.13,0-.19a5.81,5.81,0,0,1,1.65-2,5.76,5.76,0,0,1,.59,2.15,6.05,6.05,0,0,1-1.57,4.38,11.34,11.34,0,0,1-3.06,2.48c-4.95,2.85-12.67,3.54-18.91,2l.08,1.2a15.88,15.88,0,0,0-2.77,1.25c-2.47,1.43-3.76,3.22-3.64,5s1.66,3.56,4.32,4.88c5.93,2.94,15.24,2.75,20.76-.44a8.44,8.44,0,0,0,3-2.67,4,4,0,0,0,.64-2.37,1.11,1.11,0,0,0,0-.19,5.86,5.86,0,0,1,1.66-2,5.71,5.71,0,0,1,.59,2.15,6.07,6.07,0,0,1-1.57,4.38,11.28,11.28,0,0,1-3.06,2.47c-4.95,2.86-12.67,3.55-18.91,2l.08,1.2a16.73,16.73,0,0,0-2.77,1.25c-2.47,1.43-3.76,3.22-3.64,5.05s1.66,3.56,4.32,4.87c5.92,2.95,15.24,2.75,20.75-.43a8.48,8.48,0,0,0,3-2.67,4,4,0,0,0,.64-2.38,1.1,1.1,0,0,0,0-.18,5.68,5.68,0,0,1,1.66-2,6.16,6.16,0,0,1,.59,2.16A6.09,6.09,0,0,1,150,349a11.46,11.46,0,0,1-3.06,2.48c-4.95,2.86-12.68,3.54-18.92,2l.08,1.19a15.23,15.23,0,0,0-2.77,1.25c-2.47,1.42-3.76,3.22-3.64,5s1.66,3.56,4.32,4.88c5.93,2.94,15.24,2.74,20.76-.44a8.44,8.44,0,0,0,3-2.67,4,4,0,0,0,.64-2.38,1.1,1.1,0,0,0,0-.18,5.64,5.64,0,0,1,1.66-2,5.66,5.66,0,0,1,.59,2.15A6,6,0,0,1,151,364.6a11.46,11.46,0,0,1-3.06,2.48c-4.95,2.86-12.67,3.54-18.91,2l.08,1.2a15.94,15.94,0,0,0-2.77,1.25c-2.47,1.43-3.76,3.22-3.64,5.05s1.65,3.55,4.32,4.87c5.92,2.95,15.24,2.75,20.75-.44a8.55,8.55,0,0,0,3-2.66,4,4,0,0,0,.64-2.38,1.37,1.37,0,0,0,0-.19,5.73,5.73,0,0,1,1.66-2,5.94,5.94,0,0,1,.58,2.15,6,6,0,0,1-1.56,4.38,11.46,11.46,0,0,1-3.06,2.48c-5,2.86-12.67,3.54-18.92,2l.08,1.2a15.45,15.45,0,0,0-2.76,1.25c-2.48,1.43-3.77,3.22-3.64,5.05s1.65,3.55,4.31,4.87c5.93,2.94,15.24,2.75,20.76-.44a8.48,8.48,0,0,0,3-2.67,4.16,4.16,0,0,0,.64-2.37c0-.07,0-.13,0-.19a5.73,5.73,0,0,1,1.66-2,5.89,5.89,0,0,1,.58,2.15,6.09,6.09,0,0,1-1.56,4.38,11.44,11.44,0,0,1-3.06,2.47c-5,2.86-12.68,3.55-18.92,2l.08,1.21a16.16,16.16,0,0,0-2.76,1.24c-2.48,1.43-3.77,3.23-3.65,5.05s1.66,3.56,4.32,4.88c5.93,2.94,15.24,2.74,20.76-.44a8.35,8.35,0,0,0,3-2.67,4,4,0,0,0,.64-2.38c0-.06,0-.12,0-.18a5.76,5.76,0,0,1,1.65-2,5.76,5.76,0,0,1,.59,2.16,6,6,0,0,1-1.57,4.37,11.31,11.31,0,0,1-3.06,2.48c-5,2.86-12.67,3.54-18.91,2l.08,1.2a15.94,15.94,0,0,0-2.77,1.25c-2.47,1.43-3.76,3.22-3.64,5.05s1.66,3.55,4.32,4.87c5.93,2.95,15.24,2.75,20.76-.44a8.35,8.35,0,0,0,3-2.67,4,4,0,0,0,.64-2.37,1.23,1.23,0,0,0,0-.19,5.73,5.73,0,0,1,1.66-2,6,6,0,0,1,.59,2.15,6.1,6.1,0,0,1-1.57,4.38,11.31,11.31,0,0,1-3.06,2.48C146.14,433.23,135.83,433.45,129.27,430.19Z" style="opacity:0.4"></path></g><path d="M155.59,223a3.7,3.7,0,0,1-1.69-.41,5,5,0,0,1-2.31-4.25l-2-28.71c-.24-3.59,1.78-7.69,4.61-9.32L279.3,108.06a4.13,4.13,0,0,1,4.07-.27,5,5,0,0,1,2.31,4.24l1.95,28.71c.25,3.59-1.78,7.69-4.61,9.33l-125,72.2A4.79,4.79,0,0,1,155.59,223ZM281.67,109.32a2.92,2.92,0,0,0-1.4.43l-125,72.2c-2.17,1.26-3.84,4.69-3.64,7.51l1.95,28.71a3.13,3.13,0,0,0,1.29,2.66,2.27,2.27,0,0,0,2.18-.25l125.05-72.2.48.84-.48-.84c2.17-1.25,3.83-4.69,3.64-7.51l-2-28.7a3.09,3.09,0,0,0-1.28-2.66A1.58,1.58,0,0,0,281.67,109.32Z" style="fill:#e0e0e0"></path><path d="M169,419.21a3.52,3.52,0,0,1-1.69-.41,5,5,0,0,1-2.32-4.25l-11.8-173.1c-.25-3.59,1.78-7.69,4.61-9.33l125.06-72.2a4.06,4.06,0,0,1,4.06-.27,4.92,4.92,0,0,1,2.31,4.24L301,337c.24,3.6-1.78,7.69-4.62,9.33l-125,72.2A4.79,4.79,0,0,1,169,419.21Zm116.23-258a2.89,2.89,0,0,0-1.4.44l-125,72.2c-2.17,1.25-3.84,4.69-3.65,7.51l11.81,173.1a3.12,3.12,0,0,0,1.28,2.66,2.26,2.26,0,0,0,2.18-.25l125.05-72.2c2.17-1.25,3.84-4.69,3.65-7.51L287.27,164a3.15,3.15,0,0,0-1.28-2.66A1.72,1.72,0,0,0,285.21,161.17Z" style="fill:#e0e0e0"></path><rect x="141.21" y="164.19" width="154.85" height="1.95" transform="translate(-53.27 131.3) rotate(-29.97)" style="fill:#e0e0e0"></rect><rect x="145.21" y="213.53" width="154.18" height="1.92" transform="translate(-77.43 139.77) rotate(-29.98)" style="fill:#e0e0e0"></rect><rect x="146.35" y="230.21" width="154.18" height="1.92" transform="translate(-85.61 142.57) rotate(-29.98)" style="fill:#e0e0e0"></rect><rect x="147.49" y="246.88" width="154.18" height="1.92" transform="translate(-93.8 145.37) rotate(-29.98)" style="fill:#e0e0e0"></rect><rect x="148.62" y="263.56" width="154.18" height="1.92" transform="translate(-101.97 148.16) rotate(-29.98)" style="fill:#e0e0e0"></rect><rect x="149.76" y="280.24" width="154.18" height="1.92" transform="translate(-110.15 150.95) rotate(-29.98)" style="fill:#e0e0e0"></rect><rect x="150.9" y="296.92" width="154.18" height="1.92" transform="translate(-118.34 153.77) rotate(-29.98)" style="fill:#e0e0e0"></rect><rect x="152.04" y="313.6" width="154.18" height="1.92" transform="translate(-126.52 156.57) rotate(-29.98)" style="fill:#e0e0e0"></rect><rect x="153.17" y="330.27" width="154.18" height="1.92" transform="translate(-134.7 159.37) rotate(-29.98)" style="fill:#e0e0e0"></rect><rect x="154.31" y="346.95" width="154.18" height="1.92" transform="translate(-142.87 162.15) rotate(-29.98)" style="fill:#e0e0e0"></rect><rect x="155.45" y="363.63" width="154.18" height="1.92" transform="translate(-151.06 164.95) rotate(-29.98)" style="fill:#e0e0e0"></rect><path d="M169.58,183.9c0,.38,0,.77,0,1.16,0,.74,0,1.42-.07,2.05s-.09,1-.11,1.27,0,.45-.06.67v.21a4.84,4.84,0,0,1-.16,1.2l-.06,1.42-.07,3v1.54a4.57,4.57,0,0,1-.09,1.31l0,.79v.34l0,.38c0,.08,0,.13,0,.14a1.91,1.91,0,0,1-.2.9,2.67,2.67,0,0,1-.56.87l-.36.3a1.27,1.27,0,0,0-.22.14.51.51,0,0,1-.24.09.52.52,0,0,1-.21,0c-.13,0-.22-.23-.27-.54a14.66,14.66,0,0,1-.24-1.74c0-.25,0-.55,0-.9l.06-.78v-.58a2.83,2.83,0,0,1,.08-.82c-.06-.09,0-.37.1-.85a2.34,2.34,0,0,1,0-1.25.75.75,0,0,1,0-.52,7.16,7.16,0,0,0,0-.89l0-.32a13.25,13.25,0,0,1,.11-1.7,1.74,1.74,0,0,1,0-.49c0-.28.05-.61.07-1V189c0-.32,0-.65,0-1l0-.29c0-.12,0-.38,0-.76s.06-.8.09-1.23l0,0a23.81,23.81,0,0,1-2.6,2.39l-.34.23a1.61,1.61,0,0,1-.62.2q-.16,0-.24-.51a3.86,3.86,0,0,1,.29-1.64,5.79,5.79,0,0,1,1.09-1.49c.13-.1,1-1,2.48-2.73l.85-.8a3.47,3.47,0,0,1,.76-.56,3.25,3.25,0,0,0,.87-.71,9.13,9.13,0,0,1,.77-.75l.88-.74a1.7,1.7,0,0,1,.8-.4c.15-.08.38,0,.7.31l.12.36a.35.35,0,0,0,.06.24,1.65,1.65,0,0,1-.24,1.22c-.08.11-.22.27-.42.49a17.32,17.32,0,0,0-2,1.77c-.05,0-.32.24-.8.64l0,.41Z" style="fill:#455a64"></path><path d="M175.88,184.94l-.22,4.31.12-.5c.06-.21.25-.75.58-1.62,0-.06.21-.73.62-2l.34-.81.18-.54a2.33,2.33,0,0,1,.64-.83,1.08,1.08,0,0,1,1.16-.18c.09,0,.21.06.36.26s.33.46.3,1c0,0,0,.11,0,.2-.25,3.35-.39,5.67-.4,7a16.5,16.5,0,0,0,.2,3.1,2.16,2.16,0,0,1-.52,1.8.86.86,0,0,1-.56.39.77.77,0,0,1-.51.15c-.11,0-.23-.16-.35-.42l-.1-.56a1.92,1.92,0,0,1-.08-.63l-.08-.85s0-.32,0-.81l0-.81a10.94,10.94,0,0,1,0-1.71l0-1.34v-.77a.72.72,0,0,0-.12-.36,19.12,19.12,0,0,0-1.16,4.79l-.52,2.76a5.85,5.85,0,0,1-.78,2.58l-.22.18a1.72,1.72,0,0,1-.76.2,1.6,1.6,0,0,1-.38-1.08.57.57,0,0,0,0-.29,4.58,4.58,0,0,1,0-1.13,1.21,1.21,0,0,1,0-.23l0-.47a8.07,8.07,0,0,1-.08-.84,9.72,9.72,0,0,1,0-1.09,4.08,4.08,0,0,1,.12-.9,1.77,1.77,0,0,1-.18-.73c-.05-.81-.07-1.43-.05-1.86s0-.83,0-1.2,0-.79,0-1.31l.14-2.58.14-1.86a2.88,2.88,0,0,0-.09-.61,4.09,4.09,0,0,1-.05-1,6.94,6.94,0,0,1,.09-.83,8.22,8.22,0,0,0,.15-1,4.88,4.88,0,0,1,.08-1l.12-.62a3.68,3.68,0,0,1,.52-1l.22-.13a1.9,1.9,0,0,1,1.14-.25c.11,0,.13.38.08,1,0,.87-.05,1.42-.06,1.63s-.05,1.13-.1,2.74S175.88,184.74,175.88,184.94Z" style="fill:#455a64"></path><path d="M183.08,173.46c.89-.51,1.52-.6,1.88-.25a14.56,14.56,0,0,1-.46,2.39,4.1,4.1,0,0,1-.26,1l-.26.55a.68.68,0,0,1-.2.21c-.48.46-.86.53-1.12.21a.37.37,0,0,0-.19-.17c-.07,0-.13-.17-.17-.45a1,1,0,0,1-.18-.51,4,4,0,0,1,.9-2.92Zm-.16,7.36c.13-.18.45-.26.94-.24a.45.45,0,0,0,.24.11l.32.22a.54.54,0,0,1,.08.35V184c0,.41,0,.79,0,1.13v.18c0,.87,0,2.75.1,5.64a1.66,1.66,0,0,1-.26,1.2c-.23.13-.38.16-.44.1a.17.17,0,0,0-.14,0l-.14.08-.12.13a.33.33,0,0,1-.22,0,.29.29,0,0,1-.21-.17c0-.09-.09-.12-.17-.09s-.23-.11-.24-.32a4.23,4.23,0,0,1-.29-.82,1.09,1.09,0,0,0-.07-.3l-.1-2.62a4.73,4.73,0,0,1,0-.73v-.74c0-.23,0-.66,0-1.27s0-1.11.06-1.5,0-.87,0-1a3.81,3.81,0,0,1,0-.41c-.15-.14-.14-.45,0-.94a1.54,1.54,0,0,1,.5-.59Z" style="fill:#455a64"></path><path d="M186.54,182c0-.24,0-.71,0-1.43l.14-1.12.4-1.56.32-.8c0-.16.34-.59,1-1.28h0a3.19,3.19,0,0,1,.69-.33,1,1,0,0,1,.91.07,1.88,1.88,0,0,1,.6.5,5.43,5.43,0,0,1,.36,2.19,2.82,2.82,0,0,1-.2.86,2,2,0,0,1-.3.36.76.76,0,0,1-.46.28,1.31,1.31,0,0,1-.42-.11c-.16-.08-.24-.29-.22-.65a.89.89,0,0,1-.08-.75.88.88,0,0,0-.06-.52l-.24,0a1.69,1.69,0,0,0-.23.69,6,6,0,0,0-.11,1.26,4.5,4.5,0,0,0,.42,2.1,1.75,1.75,0,0,0,.48.53l.36.46.52.44.38.58a2.86,2.86,0,0,1,.39.72,3,3,0,0,1,.25,1.15,7.49,7.49,0,0,1-.23,1.55l-.17.51a3.6,3.6,0,0,1-.22.53,5.92,5.92,0,0,1-1.3,1.88l-.14.08a4.21,4.21,0,0,1-1.26.7l-.62.11a.24.24,0,0,1-.22,0,1,1,0,0,0-.22,0,1,1,0,0,1-.56-.42c-.07,0-.12-.28-.14-.78a2.42,2.42,0,0,1,.06-1.29,3.77,3.77,0,0,1,.06-.75c.25-.59.58-.89,1-.87.13,0,.2.13.2.38a5.81,5.81,0,0,0,.07.59,3.07,3.07,0,0,0,.23.87c.1.24.25.31.44.2a1.82,1.82,0,0,0,.58-.67c.21-.76.32-1.17.32-1.23l0-.45a1.52,1.52,0,0,0-.18-.86,1.18,1.18,0,0,0-.28-.57l-.3-.51-.3-.25a1.38,1.38,0,0,1-.5-.21,1.43,1.43,0,0,0-.22-.3,2.28,2.28,0,0,1-.38-.63,1.85,1.85,0,0,0-.46-.64A1.46,1.46,0,0,0,186.54,182Z" style="fill:#455a64"></path><path d="M203.89,173.2l-.08.67,0,.76a4.7,4.7,0,0,1-.06.65,12.46,12.46,0,0,1-.12,2,15.09,15.09,0,0,1-.16,2c0,.64-.05,1.07,0,1.31a2.31,2.31,0,0,0-.1.61c0,.09,0,.31-.06.68a2.72,2.72,0,0,1-.18.82,2.59,2.59,0,0,1-.08.63,4.66,4.66,0,0,0-.17.79,3.7,3.7,0,0,1-.08.48.49.49,0,0,0,0,.12l-.34,1.15s-.07.19-.2.52a4.86,4.86,0,0,1-.26.79,6.24,6.24,0,0,1-.68,1.16,3.23,3.23,0,0,1-.54.72l-.18.22a2.61,2.61,0,0,1-.74.74,3,3,0,0,1-1.3.72l-.52,0v0a.94.94,0,0,1-.56-.26.8.8,0,0,1-.58-.36,4.09,4.09,0,0,1-.26-1,2.5,2.5,0,0,1,.11-.85c.1-.38.24-.6.41-.68s.21,0,.5.08a2.87,2.87,0,0,0,.42.34c.29.36.6.45.92.27a1,1,0,0,0,.26-.2c0-.06.21-.19.46-.4,0,0,0-.12,0-.23a1.74,1.74,0,0,1,.17-.24,1.2,1.2,0,0,0,.24-.41l.26-.46c0-.08.12-.28.28-.59l.2-.55a3,3,0,0,1,.22-.83,1.4,1.4,0,0,1,.1-.46,2.41,2.41,0,0,1,0-.39l.18-1.34,0-.17a3.61,3.61,0,0,0,.1-.86l.14-.94h-.08l-.38,1.18a.85.85,0,0,1-.06.17c0,.09-.09.23-.16.41l-.38,1-.2.3a2.18,2.18,0,0,1-1.16,1.17.74.74,0,0,0-.51,0,.41.41,0,0,1-.45-.13.74.74,0,0,1-.5-.23,1.08,1.08,0,0,1-.08-.34,1.34,1.34,0,0,0-.1-.42,20.64,20.64,0,0,1-.2-2.66,4.13,4.13,0,0,1,0-.6c0-.35,0-.58,0-.7a3.26,3.26,0,0,1,0-.47l.08-1a4.11,4.11,0,0,0,.18-1,19.57,19.57,0,0,1,.44-2.2l.1-.45.18-.57a3.9,3.9,0,0,1,.16-.92c.11-.41.17-.66.2-.73a3.13,3.13,0,0,1,.14-.33c.07-.14.13-.29.2-.45a1.11,1.11,0,0,1,.68-.64.85.85,0,0,1,.63,0c.14.07.18.36.11.87-.13,1-.2,1.58-.2,1.6l-.14.66a2.73,2.73,0,0,1-.08.69c0,.09,0,.61-.16,1.57a3.14,3.14,0,0,0-.14.67,4,4,0,0,1-.1.75c-.07.34-.11.59-.14.77,0,.42-.07.77-.08,1.06a4,4,0,0,1-.16.93s0,.11,0,.37v.31c0,.25.1.33.34.23s.47-.51.7-1.24l.54-2,.16-.56.06-.31a3.31,3.31,0,0,0,.24-.5l.12-.53c0-.07.27-1.48.8-4.25l.12-.87a3.19,3.19,0,0,1,.19-1.19,1.49,1.49,0,0,1,.37-.61,1.6,1.6,0,0,1,.94-.11c.16-.1.26.12.3.65a11.44,11.44,0,0,1-.16,1.63c0,.42-.06.77-.06,1.06A6.66,6.66,0,0,0,203.89,173.2Z" style="fill:#455a64"></path><path d="M207.65,179.5l-.2.05-.28-.27a.11.11,0,0,1-.18-.05c-.15-.18-.42-.56-.8-1.14l-.3-1.52a2.19,2.19,0,0,0-.12-.79c-.13-.84-.21-1.33-.24-1.44a8.52,8.52,0,0,1-.05-1.1,10.19,10.19,0,0,1,.05-1.38,31.64,31.64,0,0,1,.74-3.32,2.65,2.65,0,0,0,.22-.87l.32-.89a7.49,7.49,0,0,1,.94-1.71,3.88,3.88,0,0,1,.68-.7,1.59,1.59,0,0,1,.64-.22q1.2-.26,1.5.21l.06.12a5.21,5.21,0,0,1,.44,2.3c0,.54-.08,1-.1,1.35a18.18,18.18,0,0,1-.44,2.17c-.2.69-.4,1.26-.58,1.72a3.46,3.46,0,0,1-.6.83,1.17,1.17,0,0,1-.34.26l-.46.27a.72.72,0,0,0-.26.12,2.35,2.35,0,0,1-.58.18,8.3,8.3,0,0,0,.25,1.78,3.9,3.9,0,0,0,.41,1.28,1.62,1.62,0,0,0,.66.27,1.07,1.07,0,0,0,.64-.32,2.24,2.24,0,0,0,.58-.75l.52-1.29c.33-.89.67-1.15,1-.77a.81.81,0,0,1,.19.67c0,.28-.17.86-.41,1.76a13.3,13.3,0,0,1-.64,1.6,5.83,5.83,0,0,1-.74.92,1.57,1.57,0,0,1-.56.23,1.12,1.12,0,0,1-.68.37c0-.05,0-.05-.11,0a1.05,1.05,0,0,1-.29.06l0-.05-.24.14-.56-.14Zm1.56-13.12q0-.13-.27,0a1,1,0,0,0-.35.57,16.49,16.49,0,0,0-.88,4.79c.45-.1.84-.63,1.16-1.59C209.28,167.93,209.39,166.66,209.21,166.38Z" style="fill:#455a64"></path><path d="M212.79,174a13.19,13.19,0,0,1,0-2c.3-1.91.54-3.36.71-4.36,0,0,0-.3.15-.85a9.57,9.57,0,0,1,.39-1.65,3.59,3.59,0,0,1,.17-.58,3.91,3.91,0,0,1,.43-1.21l.23-.5a2.57,2.57,0,0,1,1-1.08,1.57,1.57,0,0,1,.56-.29,3.85,3.85,0,0,1,1.32.44l.2.07a1.06,1.06,0,0,1,.3,0,.92.92,0,0,1,.34-.07l.26.15a.46.46,0,0,1,.22.4,3.91,3.91,0,0,0-.12,1.27,17.93,17.93,0,0,0,.12,3,27.21,27.21,0,0,0,.38,3.29,4.28,4.28,0,0,0,.15.74,2.68,2.68,0,0,1,.13.79,1.54,1.54,0,0,1-.94,1.31.82.82,0,0,1-1.28-.49,2.42,2.42,0,0,0-.14-.41.8.8,0,0,1-.26-.47l0-.41a.26.26,0,0,1-.1-.18c-.16.44-.36.91-.6,1.42l-.42,1.26-.16.34c0,.09-.15.26-.42.53s-.46.39-.58.38a1,1,0,0,1-.28.1l-.87,0a.39.39,0,0,1-.44-.18c-.18-.06-.26-.11-.26-.13A1.09,1.09,0,0,1,212.79,174Zm4.21-9.89-.1-.21a6.26,6.26,0,0,0-.9,2,23.05,23.05,0,0,0-1.1,3.87,12.86,12.86,0,0,0-.25,1.72c0,.59.08.94.24,1a.79.79,0,0,0,.22-.35,1.73,1.73,0,0,0,.15-.39,3.54,3.54,0,0,0,.36-.92l.28-.77.18-.69.34-1.09a4.14,4.14,0,0,1,.12-.78,5.31,5.31,0,0,0,.26-1.13Z" style="fill:#455a64"></path><path d="M221.52,161.48a4.8,4.8,0,0,0,0-.62v-.21a1.68,1.68,0,0,0,0-.45,5.11,5.11,0,0,1,0-.58,2.45,2.45,0,0,1,.1-.86,3.82,3.82,0,0,1,.28-.87q.08-.16.3-.57a5.72,5.72,0,0,1,.44-.44c0-.11.23-.19.54-.22a2.5,2.5,0,0,1,.62-.14c.09,0,.21.08.36.28a15,15,0,0,0-.2,2.3c.08-.14.22-.44.42-.89l.32-.7a8.86,8.86,0,0,1,1-1.12c.48-.33.79-.46.94-.38a.31.31,0,0,1,.28.11,1.26,1.26,0,0,1,.3.67,1.12,1.12,0,0,1,0,.77,3.2,3.2,0,0,1-.8.71,2,2,0,0,0-.28.41l-1,1.86a4.86,4.86,0,0,0-.44.68l-.38,1.3s0,.32,0,.82,0,.86,0,1.07,0,.9,0,2.07v1.33c0,.72,0,1.13,0,1.25a5.59,5.59,0,0,1-.16.7.79.79,0,0,1-.38.37c-.52.9-.85,1.06-1,.48l-.26-.09a.25.25,0,0,1-.2-.19A.94.94,0,0,1,222,170l-.08-.39-.12-.3a4.08,4.08,0,0,1-.1-1.12c0-.76,0-1.22,0-1.4a3.44,3.44,0,0,0,0-.54,1.88,1.88,0,0,0,.13-.82,6.59,6.59,0,0,0,0-.78.73.73,0,0,1,0-.37,3.38,3.38,0,0,0,0-.84.81.81,0,0,1,0-.45Z" style="fill:#455a64"></path><path d="M239,144.11a1,1,0,0,1-.33.33c-.11.06-.41.26-.89.57-.3.28-.61.59-.92.94h0a11.17,11.17,0,0,1-.21,1.74,11.91,11.91,0,0,1-.1,1.26,3.38,3.38,0,0,1-.05.53,3.92,3.92,0,0,0-.07.8c-.09.9-.13,1.38-.12,1.46a.93.93,0,0,1,0,.34c0,.15,0,.38-.07.69a6.68,6.68,0,0,0-.07,1.05,6.36,6.36,0,0,1-.09,1.1v.34a10.07,10.07,0,0,1-.05,1.6,5.2,5.2,0,0,0-.1.84,8.37,8.37,0,0,1-.1,1.06,9.46,9.46,0,0,0-.05,1.63l.12-.07.52-.35s.11-.08.27-.23l.32-.16.2-.11s.13,0,.26.08a.58.58,0,0,1,.28.28.34.34,0,0,1,.09.37,4.07,4.07,0,0,1-.45.92l-.38.4a2,2,0,0,1-.27.38,2.06,2.06,0,0,1-.38.34,1.63,1.63,0,0,0-.55.84c-.05.19-.37.44-.95.73l-.68.4-.38.4a1.7,1.7,0,0,1-.88.66,3.27,3.27,0,0,1-.51.07.71.71,0,0,1-.31-.13.45.45,0,0,1-.15-.44c0-.21.06-.51.13-.92a7,7,0,0,1,.48-.83c.64-.68,1-1.12,1.22-1.32a10.29,10.29,0,0,0,0-1.18,8.14,8.14,0,0,0,.14-1.4,1.6,1.6,0,0,0-.1-.53v-.19a8.69,8.69,0,0,0,0-1.55s0-.4.08-1.13a2.52,2.52,0,0,0,0-1c.05-.42.1-.76.14-1l0-.44c0-.12,0-.51.12-1.18v-.3l0-.27q.36-2.49.48-3.6l-.2.17-.66.54c-.51.5-1,.58-1.34.25a1.71,1.71,0,0,1,0-1.78,3.49,3.49,0,0,1,.92-1.08c.36-.39.59-.66.7-.8a6.52,6.52,0,0,0,.94-1.23c.49-.38.77-.6.85-.64l.94-.73a1.53,1.53,0,0,1,.48-.23c.21-.07.33-.07.36,0a1.71,1.71,0,0,1,.64,0l.48.4a4.33,4.33,0,0,1,.38.7A.78.78,0,0,1,239,144.11Z" style="fill:#455a64"></path><path d="M252.91,142.44a6.58,6.58,0,0,1,.22,1.26c.06,1.23.1,2.26.1,3.08a3.38,3.38,0,0,1,0,.65,1.32,1.32,0,0,0,0,.52c0,.06,0,.32-.06.77a15.57,15.57,0,0,1-.12,1.67l-.34,1.8a2,2,0,0,1-.38.65,2.21,2.21,0,0,1-.58.58l-.68.36a1.13,1.13,0,0,1-.62.27.25.25,0,0,1-.36-.07.67.67,0,0,1-.48-.31l-.32-.46a1.24,1.24,0,0,0-.16-.37l-.22,1.3-.28,1.24-.34.68-.34.32c-.65.38-1,.53-1.18.44l-.52-.35-.6-.88a.44.44,0,0,1-.14-.29,1.41,1.41,0,0,0-.1-.34,2.93,2.93,0,0,1-.22-.4l-.18-.91s-.08-.41-.2-1.12l0-.62-.2-.93-.12-1.19a.81.81,0,0,1,0-.44.58.58,0,0,1,0-.38,2.07,2.07,0,0,1,0-.5,11.35,11.35,0,0,1-.14-1.37s-.05-.14-.06-.35a3.53,3.53,0,0,0-.08-.58,2,2,0,0,1,.44-1.86,2.13,2.13,0,0,1,.44-.31l.32-.22.36-.05.5,0c.13-.08.22,0,.26.28a5.67,5.67,0,0,1,0,1.23,32.07,32.07,0,0,0,.22,3.63l.12,1.68a2.47,2.47,0,0,1,0,.66,19,19,0,0,0,.52,2.38c.13.31.26.2.38-.35,0,0,0-.17.06-.4s.13-.84.24-1.74l.22-1.2a6.85,6.85,0,0,1,.16-1.11,9.5,9.5,0,0,0,0-1.61,3.48,3.48,0,0,1,0-1,3.86,3.86,0,0,0,.08-.82,2.43,2.43,0,0,1,.18-.92.85.85,0,0,1,.78-.42.41.41,0,0,1,.36,0q.32,0,.24.81l.28,3.29,0,.2a5.42,5.42,0,0,1,.11.81,15.62,15.62,0,0,0,.29,1.73c.05.17.14.25.25.24s.22-.22.33-.61l0-.33a1.53,1.53,0,0,1,.08-.45,1.46,1.46,0,0,0,.08-.29l.16-2.83,0-.76a2.62,2.62,0,0,1,0-.52,1,1,0,0,1-.06-.45l0-.24a4.89,4.89,0,0,0-.12-1,3.09,3.09,0,0,0-.08-.81,1.86,1.86,0,0,1-.08-1.06l0-.48a1.19,1.19,0,0,0,.08-.51,1.36,1.36,0,0,1,.37-.42,1.26,1.26,0,0,1,.47-.31c.09,0,.19.09.31.31a1.31,1.31,0,0,1,.17.46,5.09,5.09,0,0,1,.22.85.91.91,0,0,1,0,.53A1,1,0,0,1,252.91,142.44Z" style="fill:#455a64"></path><path d="M256.17,131.26c.89-.51,1.51-.6,1.87-.25a13.33,13.33,0,0,1-.46,2.39,3.25,3.25,0,0,1-.26,1l-.25.55a.81.81,0,0,1-.2.21c-.49.46-.86.53-1.12.21a.35.35,0,0,0-.19-.16c-.08,0-.13-.17-.17-.46a1,1,0,0,1-.18-.51,4,4,0,0,1,.9-2.92Zm-.16,7.36c.13-.18.44-.26.94-.23a.45.45,0,0,0,.24.1l.32.22a.55.55,0,0,1,.07.35v2.71c0,.41,0,.79,0,1.13v.19c0,.86,0,2.74.1,5.63a1.6,1.6,0,0,1-.26,1.2c-.22.13-.37.16-.43.1a.25.25,0,0,0-.15,0l-.13.08-.13.13a.3.3,0,0,1-.21,0,.29.29,0,0,1-.21-.17A.14.14,0,0,0,256,150c-.15,0-.23-.1-.24-.32a3.59,3.59,0,0,1-.29-.82,1.09,1.09,0,0,0-.07-.3l-.1-2.62a4.81,4.81,0,0,1,0-.73v-.74c0-.23,0-.65,0-1.27s0-1.11.06-1.49,0-.87,0-1.06a2.25,2.25,0,0,1,0-.41c-.15-.14-.14-.45,0-.93a1.59,1.59,0,0,1,.49-.6Z" style="fill:#455a64"></path><path d="M261.84,127.22l.5-.45a.84.84,0,0,1,.73,0,.6.6,0,0,1,.23.58q-.3,1.74-.48,3.57v.46c-.05,1-.12,1.86-.22,2.59l-.48,7.29v2.13a25.84,25.84,0,0,0,.18,3.74l0,.35a1.07,1.07,0,0,1-.35.71c-.22.22-.36.34-.43.35l-.22,0h-.54a1.38,1.38,0,0,1-.7-.49c-.15-.13-.22-.26-.2-.37s-.09-1-.19-2.69c0-.38,0-.7,0-.95v-.52c0-.41,0-.71,0-.9,0,0,0-.3,0-.76q.1-1.81.12-2v-.49a19.59,19.59,0,0,1,.2-3,3.42,3.42,0,0,1,0-.44,9,9,0,0,0,.14-2.48c.23-1.37.36-2.27.4-2.71a5.87,5.87,0,0,1,.18-1.08,3.46,3.46,0,0,1,.32-1.3A3.5,3.5,0,0,1,261.84,127.22Z" style="fill:#455a64"></path><path d="M265.36,128.79l.14-1.9,0-1a1.89,1.89,0,0,1,.1-.67l.2-.54a10.55,10.55,0,0,1,.7-1.15.82.82,0,0,1,.47-.25c.21,0,.33-.06.37,0l.22.15q.18.06.18.39a.24.24,0,0,1,.06.24,35.47,35.47,0,0,0-.4,3.87l-.16,4.28-.1.88a2.76,2.76,0,0,0,0,.45v.56a6.67,6.67,0,0,1-.08.81,1.73,1.73,0,0,1,0,.37s0,.17,0,.45a1.49,1.49,0,0,1-.06.54c0,.35,0,.67,0,1s0,.6.05.9a7,7,0,0,1,0,.92l.08,1.12v.47c0,.35,0,.64,0,.86l.1,1.55.08.78a3.43,3.43,0,0,1-.05,1,1.62,1.62,0,0,1-.33.8.91.91,0,0,1-1.36.26l-.16.1a1.3,1.3,0,0,1-.22-.55c-.11,0-.15-.14-.14-.35a.94.94,0,0,0-.08-.51.76.76,0,0,1-.1-.37,4.58,4.58,0,0,0,0-.69l0-.26a.35.35,0,0,1-.06-.24l0-.53v-.25a2.65,2.65,0,0,0,0-.33,1.11,1.11,0,0,1,.05-.34,2.71,2.71,0,0,1,0-.88q.12-2.43.12-3.33l0-.75v-.89c0-.5,0-1.13,0-1.9a6.84,6.84,0,0,1,.07-1.27l0-.26a20.66,20.66,0,0,1,.15-2.11C265.31,129.33,265.36,128.85,265.36,128.79Z" style="fill:#455a64"></path><path d="M271.74,128.89l.14,1.77a4.75,4.75,0,0,1-.28,1.54.41.41,0,0,1,.1.28,1.86,1.86,0,0,1-.26.74l-.2.42a1.47,1.47,0,0,1-.76.78h0a2.14,2.14,0,0,1-.34,0c-.15,0-.26-.32-.34-.85a3.35,3.35,0,0,1-.14-.47l-.18-.45c0-.54-.09-.86-.2-1a3.14,3.14,0,0,1,.4-1.43,2.86,2.86,0,0,1,1.18-1.21,2.82,2.82,0,0,1,.54-.49C271.62,128.54,271.74,128.64,271.74,128.89Zm-.36,13.94a4.94,4.94,0,0,1-.94.23.93.93,0,0,1-.61.18c-.15,0-.23-.07-.23-.16a1.26,1.26,0,0,1-.34-1c.11-.55.17-.94.2-1.16l.18-.63a3.34,3.34,0,0,1,.12-.7c.08-.32.13-.52.14-.59s0-.13,0-.19a.49.49,0,0,1,.06-.17,1.28,1.28,0,0,1,.2-.36,1.49,1.49,0,0,0,.26-.31l.26-.18c.24-.14.41-.11.52.07l.2.22c.17.11.26.2.26.28l-.06.78q.24.11.24.81c0,.48-.05,1.2-.14,2.18A.88.88,0,0,1,271.38,142.83Z" style="fill:#455a64"></path><path d="M168.13,212.18l5.57-3.27,11.16-6.54,22.3-13.08,22.42-13.14q11.14-6.54,22.28-13.08c7.5-4.42,15-8.85,22.45-13.35,1-.59,1.91-1.24,2.87-1.86.33-.21.09-1-.33-.78-7.61,4.08-15,8.5-22.51,12.85q-11,6.39-21.92,12.82l-43.51,25.5-12.27,7.2-6,3.53-3.12,1.83c-.32.19-.62.4-1,.57s-.95.28-1,.89a.62.62,0,0,0,.18.52C166.35,213.37,167.57,212.51,168.13,212.18Z" style="fill:#455a64"></path></g></g><g id="freepik--Pen--inject-450"><g id="freepik--pen--inject-450"><path d="M306.7,377.32c8.54-4.31,12.08-6.24,14.17-8.28s3.14-3,7.28-3.83,11.8-1.89,12.6-2.51c-.13-.45.68-.64,1.18.16s0,1.4-.49,1c0,0-.89,0-3.47,4.09s-2.31,4.5-3.6,7.56c-1,2.41-2.09,2.63-4.65,3.66a57,57,0,0,0-9.48,4.9c-4.67,2.77-6.85,4.16-6.85,4.16Z" style="fill:#e0e0e0"></path><path d="M336.54,365.3l1.71-.76c1.23-.55,2.45-1.1,3.63-1.74a1,1,0,0,0-.77-.49,2.54,2.54,0,0,1-.36.29.33.33,0,0,0,0,.1,2.9,2.9,0,0,1-.82.31l-.35.14c-3.68,1.4-7.38,2.81-10.93,4.52a5.24,5.24,0,0,1-1.27.47c-.47.08-1,0-1.43.1a1.13,1.13,0,0,0-1,.87c-.21,1.7,2.8.1,3.24-.1,1.89-.82,3.74-1.73,5.62-2.56C334.7,366,335.64,365.7,336.54,365.3Z" style="opacity:0.15"></path><path d="M337.5,363.55Z" style="fill:#fafafa"></path><path d="M328.15,365.21C324,366,323,367,320.87,369s-5.63,4-14.17,8.28l.44.73,9.9-5.26a18.85,18.85,0,0,0,5.23-3.79,8.74,8.74,0,0,1,4.23-3c1.78-.7,9-2.08,10.67-2.39C334.39,364.13,330.64,364.72,328.15,365.21Z" style="fill:#ebebeb"></path><polygon points="312.78 379.21 324.4 372.52 317 378.32 312.78 379.21" style="opacity:0.15"></polygon><path d="M339.73,365.47a60.49,60.49,0,0,1-4.86,5c-2,1.73-4.41,1.89-6.56,2s-5.62,2.81-11.11,5.8l.85,7.17,2.19-1.31a57,57,0,0,1,9.48-4.9c2.56-1,3.64-1.25,4.65-3.66,1.29-3.06,1-3.51,3.6-7.56a27.47,27.47,0,0,1,1.76-2.52Z" style="opacity:0.15"></path><path d="M334.55,375.14a3.17,3.17,0,0,0-.17.41,6.4,6.4,0,0,1-.85,1.5c-1.81.9-4.15,1.09-6.18,1.82s-9,4.89-9,4.89l-.33-3c4.69-2.41,7.64-4.55,10-5,.87-.14,1.93-.27,3-.48-1.53.69-3.44.87-4.56,2.1a8.37,8.37,0,0,1,1.81-.58c2.2-.46,3.76-.42,5.49-1.25A5.77,5.77,0,0,0,334.55,375.14Z" style="fill:#e0e0e0;opacity:0.30000000000000004"></path><path d="M341.93,362.86a1.11,1.11,0,0,0-.21-.22c-1.75.74-10.43,4.4-14.52,6.47-.08,0-.29-.12-.37-.15a1.62,1.62,0,0,0-.69-.11,1,1,0,0,0-.25.08,1.72,1.72,0,0,0-.42.23.56.56,0,0,0-.19.58.72.72,0,0,0,.24.36,4.07,4.07,0,0,0,1.8.91,1.33,1.33,0,0,0,.73-.17c.21-.1.49-.3.5-.56s-.22-.45-.4-.59-.36-.36-.46-.31c3.9-2,12.06-5.44,14.29-6.38A.78.78,0,0,0,341.93,362.86Z" style="fill:#455a64"></path><path d="M309.47,373.08l.75,1.3a5.84,5.84,0,0,0-.25,1.76,12.38,12.38,0,0,0,5.59,9.68,5.8,5.8,0,0,0,1.65.66l.75,1.3,2-1.93h0a4.3,4.3,0,0,0,1.15-3.25,12.35,12.35,0,0,0-5.59-9.68,4.25,4.25,0,0,0-3.39-.62h0Z" style="fill:#ECEFF1"></path><path d="M309.47,373.08l.75,1.3a5.84,5.84,0,0,0-.25,1.76,12.38,12.38,0,0,0,5.59,9.68,5.8,5.8,0,0,0,1.65.66l.75,1.3,2-1.93h0a4.3,4.3,0,0,0,1.15-3.25,12.35,12.35,0,0,0-5.59-9.68,4.25,4.25,0,0,0-3.39-.62h0Z" style="opacity:0.15"></path><path d="M253.3,408.31a13.4,13.4,0,0,0,6.07,10.51c1.67,1,3.19,1.06,4.29.42l53.71-31c1.1-.64,1.78-2,1.78-3.93a13.38,13.38,0,0,0-6.07-10.51c-1.67-1-3.19-1.06-4.29-.43l-53.71,31C254,405,253.3,406.37,253.3,408.31Z" style="fill:#ECEFF1"></path><path d="M253.3,408.31a13.4,13.4,0,0,0,6.07,10.51c1.67,1,3.19,1.06,4.29.42l53.71-31c1.1-.64,1.78-2,1.78-3.93a13.38,13.38,0,0,0-6.07-10.51c-1.67-1-3.19-1.06-4.29-.43l-53.71,31C254,405,253.3,406.37,253.3,408.31Z" style="fill:#fff;opacity:0.5"></path><path d="M265.43,415.31a13.41,13.41,0,0,0-6.06-10.51c-1.68-1-3.2-1.06-4.29-.42s-1.78,2-1.78,3.93a13.4,13.4,0,0,0,6.07,10.51c1.67,1,3.19,1.06,4.29.42S265.43,417.25,265.43,415.31Z" style="fill:#ECEFF1"></path><path d="M248.91,409.76a15.5,15.5,0,0,0,7,12.13c1.93,1.12,3.68,1.22,5,.49l4.58-2.65c1.27-.73,2.05-2.3,2.05-4.53a15.46,15.46,0,0,0-7-12.13c-1.94-1.12-3.69-1.22-4.95-.49L251,405.22C249.7,406,248.91,407.52,248.91,409.76Z" style="fill:#ECEFF1"></path><path d="M248.91,409.76a15.5,15.5,0,0,0,7,12.13c1.93,1.12,3.68,1.22,5,.49l4.58-2.65c1.27-.73,2.05-2.3,2.05-4.53a15.46,15.46,0,0,0-7-12.13c-1.94-1.12-3.69-1.22-4.95-.49L251,405.22C249.7,406,248.91,407.52,248.91,409.76Z" style="fill:#fff;opacity:0.35000000000000003"></path><path d="M262.92,417.84a15.49,15.49,0,0,0-7-12.13c-1.94-1.12-3.69-1.22-4.95-.49s-2.06,2.3-2.06,4.54a15.5,15.5,0,0,0,7,12.13c1.93,1.12,3.68,1.22,5,.49S262.92,420.08,262.92,417.84Z" style="fill:#ECEFF1"></path><path d="M188.8,444.68a15.08,15.08,0,0,0,6.81,11.81c1.88,1.08,3.59,1.19,4.82.47L260,422.58c1.23-.71,2-2.24,2-4.41a15.08,15.08,0,0,0-6.81-11.81c-1.88-1.08-3.59-1.18-4.82-.47l-59.56,34.38C189.56,441,188.8,442.51,188.8,444.68Z" style="fill:#ECEFF1"></path><path d="M188.8,444.68a15.08,15.08,0,0,0,6.81,11.81c1.88,1.08,3.59,1.19,4.82.47L260,422.58c1.23-.71,2-2.24,2-4.41a15.08,15.08,0,0,0-6.81-11.81c-1.88-1.08-3.59-1.18-4.82-.47l-59.56,34.38C189.56,441,188.8,442.51,188.8,444.68Z" style="fill:#fff;opacity:0.35000000000000003"></path><path d="M190.79,440.27A9.64,9.64,0,0,0,200.43,457h0c1.23-.71,2-2.23,2-4.41a15.07,15.07,0,0,0-6.81-11.8c-1.88-1.09-3.58-1.19-4.82-.48Z" style="fill:#ECEFF1"></path><path d="M198.31,431v2.11l5.93,3.43,38.88-22.45a2.28,2.28,0,0,0,1.36-1.88c0-.36,0-1.73,0-2.09a2,2,0,0,0-1.17-1.67,6.79,6.79,0,0,0-6.14.11Z" style="fill:#263238"></path><path d="M243.12,412c1.75-1,1.84-2.59.2-3.54a6.79,6.79,0,0,0-6.14.11L198.31,431l5.94,3.43Z" style="fill:#37474f"></path><polygon points="204.25 441.31 204.25 434.45 198.31 431.02 198.31 437.88 204.25 441.31" style="fill:#455a64"></polygon><polygon points="204.25 441.31 205.74 440.45 205.74 433.6 204.25 434.45 204.25 441.31" style="fill:#263238"></polygon><path d="M184.59,451.4a3.1,3.1,0,1,0,3.1,5.37h0l2.71-1.56a1.53,1.53,0,0,0,.64-1.42,4.85,4.85,0,0,0-2.19-3.8,1.55,1.55,0,0,0-1.56-.15l-2.7,1.56Z" style="fill:#455a64"></path><path d="M188.85,450a1.55,1.55,0,0,0-1.56-.15l-2.7,1.56h0A3.1,3.1,0,0,0,183,454h0c.16-.87,1.45-1.6,3-2.47s2.81-1,4.18,1.2c1,1.58.36,2.36-.07,2.67l.3-.18a1.53,1.53,0,0,0,.64-1.42A4.85,4.85,0,0,0,188.85,450Z" style="fill:#37474f"></path></g></g><g id="freepik--speech-bubble--inject-450"><g id="freepik--speech-bubble--inject-450"><g id="freepik--speech-bubble--inject-450"><path d="M302.63,432.42l-11.47,5.09-6.59-9.05a1.06,1.06,0,0,1-.2-.62c0-.63,0-5,0-5.24a1,1,0,0,1,1.3-1l17,4.08Z" style="fill:#ECEFF1"></path><g style="opacity:0.35000000000000003"><path d="M302.63,432.42l-11.47,5.09-6.59-9.05a1.06,1.06,0,0,1-.2-.62c0-.63,0-5,0-5.24a1,1,0,0,1,1.3-1l17,4.08Z" style="fill:#fff"></path></g><path d="M346,446.18l-35.5,20.53a2,2,0,0,1-1.86,0l-33.35-19.27a2,2,0,0,1-.92-1.62v-4.56a2.1,2.1,0,0,1,.94-1.61l35.48-20.49a2.06,2.06,0,0,1,1.87,0l33.38,19.31a2.07,2.07,0,0,1,.92,1.62v4.48A2.08,2.08,0,0,1,346,446.18Z" style="fill:#ECEFF1"></path><path d="M346,446.18l-35.5,20.53a2,2,0,0,1-1.86,0l-33.35-19.27a2,2,0,0,1-.92-1.62v-4.56a2.1,2.1,0,0,1,.94-1.61l35.48-20.49a2.06,2.06,0,0,1,1.87,0l33.38,19.31a2.07,2.07,0,0,1,.92,1.62v4.48A2.08,2.08,0,0,1,346,446.18Z" style="fill:#fff;opacity:0.35000000000000003"></path><path d="M346.19,438.56c.37.3.32.72-.14,1L310.57,460a1.92,1.92,0,0,1-.94.22v6.68a1.83,1.83,0,0,0,.89-.22L346,446.18a2.08,2.08,0,0,0,.94-1.61v-4.48A2.09,2.09,0,0,0,346.19,438.56Z" style="fill:#fff;opacity:0.35000000000000003"></path><path d="M284.58,423.21l5.68,7.81-14.94,8.63a.57.57,0,0,0,0,1.07L308.7,460a2.06,2.06,0,0,0,1.87,0l35.48-20.48a.57.57,0,0,0,0-1.08l-33.38-19.31a2.06,2.06,0,0,0-1.87,0l-10.35,6-14.77-3.56A1,1,0,0,0,284.58,423.21Z" style="fill:#fafafa"></path><path d="M311.74,419.88a1.07,1.07,0,0,1,.46.09l32.9,19-35,20.21a1,1,0,0,1-.47.1,1,1,0,0,1-.46-.1l-32.9-19,14.46-8.35.9-.53-.61-.84-5.68-7.81a.09.09,0,0,1,0-.11.13.13,0,0,1,.12-.06h0l14.77,3.56.37.09.32-.19,10.35-6a1.17,1.17,0,0,1,.47-.09m0-.94a1.92,1.92,0,0,0-.94.22l-10.35,6-14.77-3.56a.82.82,0,0,0-.26,0,1.06,1.06,0,0,0-.84,1.67l5.68,7.81-14.94,8.63a.57.57,0,0,0,0,1.07L308.7,460a2,2,0,0,0,1.87,0l35.48-20.48a.57.57,0,0,0,0-1.08l-33.38-19.31a1.88,1.88,0,0,0-.93-.22Z" style="fill:#ECEFF1"></path></g><path id="freepik--Check--inject-450" d="M311.79,424.88a2.7,2.7,0,0,0-2.66,2.72l.17,17.56-3.71-.62a2.69,2.69,0,1,0-1.91,5l7.4,1.57a3.05,3.05,0,0,0,2,0,2.42,2.42,0,0,0,.47-.26,2.7,2.7,0,0,0,1.15-2.24l-.21-21.06A2.7,2.7,0,0,0,311.79,424.88Z" style="fill:#ECEFF1"></path></g></g></svg>