<svg xmlns="http://www.w3.org/2000/svg" viewBox="0 0 500 500"><g id="freepik--background-complete--inject-425"><polygon points="386.31 426.45 385.31 426.45 385.31 349.46 355.36 308.6 355.36 272.49 356.36 272.49 356.36 308.27 386.31 349.13 386.31 426.45" style="fill:#ebebeb"></polygon><path d="M355.86,273a3.16,3.16,0,1,1,3.16-3.16A3.17,3.17,0,0,1,355.86,273Zm0-5.32a2.16,2.16,0,1,0,2.16,2.16A2.16,2.16,0,0,0,355.86,267.72Z" style="fill:#ebebeb"></path><polygon points="378.59 426.45 377.59 426.45 377.59 354.4 347.65 313.53 347.65 293.49 348.65 293.49 348.65 313.21 378.59 354.07 378.59 426.45" style="fill:#ebebeb"></polygon><path d="M348.15,294a3.16,3.16,0,1,1,3.16-3.16A3.17,3.17,0,0,1,348.15,294Zm0-5.32a2.16,2.16,0,1,0,2.16,2.16A2.16,2.16,0,0,0,348.15,288.72Z" style="fill:#ebebeb"></path><rect x="392.73" y="303.65" width="1" height="122.8" style="fill:#ebebeb"></rect><path d="M393.23,304.15a3.16,3.16,0,1,1,3.16-3.16A3.16,3.16,0,0,1,393.23,304.15Zm0-5.32a2.16,2.16,0,1,0,2.16,2.16A2.16,2.16,0,0,0,393.23,298.83Z" style="fill:#ebebeb"></path><polygon points="400.89 425.77 399.89 425.77 399.89 361.59 420.21 323.25 420.21 244.64 421.21 244.64 421.21 323.5 400.89 361.84 400.89 425.77" style="fill:#ebebeb"></polygon><path d="M420.71,245.14a3.16,3.16,0,1,1,3.17-3.16A3.17,3.17,0,0,1,420.71,245.14Zm0-5.32a2.16,2.16,0,1,0,2.17,2.16A2.16,2.16,0,0,0,420.71,239.82Z" style="fill:#ebebeb"></path><polygon points="408 425.9 407 425.9 407 365.68 430.96 323.29 430.96 278.16 431.96 278.16 431.96 323.56 408 365.94 408 425.9" style="fill:#ebebeb"></polygon><path d="M431.46,278.66a3.16,3.16,0,1,1,3.16-3.16A3.17,3.17,0,0,1,431.46,278.66Zm0-5.32a2.16,2.16,0,1,0,2.16,2.16A2.16,2.16,0,0,0,431.46,273.34Z" style="fill:#ebebeb"></path><polygon points="137.91 426.45 136.91 426.45 136.91 319.13 166.85 278.27 166.85 242.49 167.85 242.49 167.85 278.6 167.76 278.73 137.91 319.46 137.91 426.45" style="fill:#ebebeb"></polygon><path d="M167.35,243a3.16,3.16,0,1,1,3.17-3.16A3.17,3.17,0,0,1,167.35,243Zm0-5.32a2.16,2.16,0,1,0,2.17,2.16A2.16,2.16,0,0,0,167.35,237.72Z" style="fill:#ebebeb"></path><polygon points="145.63 426.45 144.63 426.45 144.63 324.07 144.72 323.94 174.57 283.2 174.57 263.49 175.57 263.49 175.57 283.53 145.63 324.4 145.63 426.45" style="fill:#ebebeb"></polygon><path d="M175.07,264a3.16,3.16,0,1,1,3.16-3.16A3.16,3.16,0,0,1,175.07,264Zm0-5.32a2.16,2.16,0,1,0,2.16,2.16A2.16,2.16,0,0,0,175.07,258.72Z" style="fill:#ebebeb"></path><rect x="129.48" y="233.65" width="1" height="192.8" style="fill:#ebebeb"></rect><path d="M130,234.15a3.16,3.16,0,1,1,3.16-3.16A3.16,3.16,0,0,1,130,234.15Zm0-5.32a2.16,2.16,0,1,0,2.16,2.16A2.16,2.16,0,0,0,130,228.83Z" style="fill:#ebebeb"></path><polygon points="123.33 425.77 122.33 425.77 122.33 331.84 102 293.5 102 204.64 103 204.64 103 293.25 123.33 331.59 123.33 425.77" style="fill:#ebebeb"></polygon><path d="M102.5,205.14a3.16,3.16,0,1,1,3.16-3.16A3.17,3.17,0,0,1,102.5,205.14Zm0-5.32a2.16,2.16,0,1,0,2.16,2.16A2.16,2.16,0,0,0,102.5,199.82Z" style="fill:#ebebeb"></path><polygon points="116.22 425.9 115.22 425.9 115.22 335.94 91.25 293.56 91.25 238.16 92.25 238.16 92.25 293.29 116.22 335.68 116.22 425.9" style="fill:#ebebeb"></polygon><path d="M91.76,238.66a3.16,3.16,0,1,1,3.16-3.16A3.17,3.17,0,0,1,91.76,238.66Zm0-5.32a2.16,2.16,0,1,0,2.16,2.16A2.16,2.16,0,0,0,91.76,233.34Z" style="fill:#ebebeb"></path><path d="M59.81,108.18a2.94,2.94,0,0,1,0,3.09c-.16.26-.31.53-.45.79s-.29.55-.42.83a3,3,0,0,1-2.55,1.72l-3.8.12L53,127.11l3.8-.11a2.92,2.92,0,0,1,2.67,1.55c.3.54.62,1.06,1,1.57a2.93,2.93,0,0,1,.2,3.08l-1.79,3.34,10.92,5.86,1.8-3.34a2.92,2.92,0,0,1,2.67-1.54c.61,0,1.23,0,1.84-.06a2.94,2.94,0,0,1,2.78,1.36l2,3.23,10.53-6.53-2-3.25a2.93,2.93,0,0,1,0-3.07c.16-.26.31-.53.45-.8s.28-.54.41-.81a3,3,0,0,1,2.57-1.73l3.8-.11-.38-12.39-3.79.12a2.94,2.94,0,0,1-2.68-1.55,17.16,17.16,0,0,0-1-1.58,2.93,2.93,0,0,1-.2-3.08l1.79-3.34L79.43,98.07l-1.8,3.35A2.92,2.92,0,0,1,75,103c-.62,0-1.24,0-1.85.06a2.93,2.93,0,0,1-2.77-1.37l-2-3.22L57.81,105Zm19.56,3.1a10.16,10.16,0,1,1-13.74,4.16A10.16,10.16,0,0,1,79.37,111.28Z" style="fill:#ebebeb"></path><path d="M402.36,323.05a2.09,2.09,0,0,1,1,1.92c0,.21,0,.42,0,.64s0,.43,0,.64a2.07,2.07,0,0,1-1,1.91l-2.31,1.33,4.34,7.52,2.31-1.33a2.05,2.05,0,0,1,2.16.08c.36.23.74.45,1.12.65a2.06,2.06,0,0,1,1.14,1.83v2.66h8.68v-2.66a2.06,2.06,0,0,1,1.14-1.83c.39-.2.76-.42,1.12-.65a2.07,2.07,0,0,1,2.17-.08l2.31,1.33,4.33-7.52-2.31-1.34a2,2,0,0,1-1-1.9c0-.22,0-.43,0-.64s0-.43,0-.64a2.09,2.09,0,0,1,1-1.92l2.31-1.33-4.33-7.52-2.31,1.33a2.05,2.05,0,0,1-2.16-.07,12.53,12.53,0,0,0-1.12-.65A2.06,2.06,0,0,1,419.8,313v-2.66h-8.68V313a2.07,2.07,0,0,1-1.14,1.83,12.7,12.7,0,0,0-1.13.65,2.05,2.05,0,0,1-2.16.07l-2.3-1.33-4.34,7.52Zm13.1-4.56a7.12,7.12,0,1,1-7.11,7.12A7.11,7.11,0,0,1,415.46,318.49Z" style="fill:#dbdbdb"></path><path d="M429.1,294.9a1.31,1.31,0,0,1,.65,1.23c0,.14,0,.28,0,.41s0,.28,0,.42a1.31,1.31,0,0,1-.64,1.22l-1.49.86,2.79,4.83,1.48-.85a1.32,1.32,0,0,1,1.39.05c.24.15.48.29.72.41a1.33,1.33,0,0,1,.74,1.18v1.71h5.58v-1.71a1.34,1.34,0,0,1,.73-1.18,6.37,6.37,0,0,0,.72-.41,1.32,1.32,0,0,1,1.39-.05l1.49.85,2.78-4.83-1.49-.86a1.32,1.32,0,0,1-.64-1.23c0-.13,0-.27,0-.41s0-.27,0-.41a1.31,1.31,0,0,1,.65-1.23l1.48-.85-2.78-4.84-1.48.86a1.34,1.34,0,0,1-1.39-.05c-.24-.15-.48-.29-.73-.42a1.33,1.33,0,0,1-.73-1.18v-1.7h-5.58v1.7a1.32,1.32,0,0,1-.74,1.18q-.37.19-.72.42a1.32,1.32,0,0,1-1.39.05l-1.48-.86-2.79,4.84Zm8.43-2.93a4.57,4.57,0,1,1-4.57,4.57A4.58,4.58,0,0,1,437.53,292Z" style="fill:#ebebeb"></path><path d="M139,249.26a2.08,2.08,0,0,1-1.92,1h-1.28a2.06,2.06,0,0,1-1.91-1L132.5,247,125,251.3l1.33,2.3a2.07,2.07,0,0,1-.08,2.17,11.27,11.27,0,0,0-.65,1.12,2.06,2.06,0,0,1-1.83,1.14H121.1v8.68h2.66a2.06,2.06,0,0,1,1.83,1.14,11.27,11.27,0,0,0,.65,1.12,2.05,2.05,0,0,1,.08,2.16L125,273.44l7.51,4.34,1.34-2.32a2.06,2.06,0,0,1,1.91-1H137a2.05,2.05,0,0,1,1.91,1l1.34,2.31,7.51-4.34-1.32-2.3a2,2,0,0,1,.07-2.16c.23-.37.45-.74.65-1.13a2.06,2.06,0,0,1,1.83-1.14h2.66V258H149a2,2,0,0,1-1.83-1.15c-.2-.38-.42-.76-.65-1.12a2,2,0,0,1-.07-2.16l1.32-2.3L140.28,247Zm4.55,13.11a7.11,7.11,0,1,1-7.11-7.11A7.11,7.11,0,0,1,143.5,262.37Z" style="fill:#dbdbdb"></path><path d="M396.08,110.22a4.65,4.65,0,0,1,2.35-4.25c.42-.24.82-.49,1.22-.75s.81-.54,1.19-.82a4.62,4.62,0,0,1,4.82-.45l5.34,2.7,8.8-17.36-5.33-2.71A4.61,4.61,0,0,1,412,82.43a25.49,25.49,0,0,0-.16-2.9,4.65,4.65,0,0,1,2.05-4.39l5-3.26-10.65-16.3-5,3.26a4.63,4.63,0,0,1-4.84.1,26.1,26.1,0,0,0-2.59-1.3,4.63,4.63,0,0,1-2.8-4l-.33-6L373.2,48.77l.33,6A4.6,4.6,0,0,1,371.18,59c-.41.24-.82.49-1.22.75l-1.18.82A4.64,4.64,0,0,1,364,61l-5.34-2.71-8.8,17.37,5.32,2.69a4.61,4.61,0,0,1,2.52,4.15,28.36,28.36,0,0,0,.15,2.91,4.63,4.63,0,0,1-2,4.39l-5,3.26,10.65,16.31,5-3.26a4.61,4.61,0,0,1,4.84-.11,26.44,26.44,0,0,0,2.6,1.32,4.61,4.61,0,0,1,2.79,4l.33,6,19.43-1.07Zm-24.63-19a15.95,15.95,0,1,1,22.07,4.62A16,16,0,0,1,371.45,91.21Z" style="fill:#ebebeb"></path><path d="M356.45,140.58a2.17,2.17,0,0,1,1.11-2c.19-.12.39-.23.57-.36s.38-.25.56-.38a2.17,2.17,0,0,1,2.27-.22l2.52,1.28,4.14-8.18-2.51-1.27a2.19,2.19,0,0,1-1.18-2,12.59,12.59,0,0,0-.08-1.37,2.19,2.19,0,0,1,1-2.06l2.35-1.54-5-7.68-2.35,1.54a2.18,2.18,0,0,1-2.28.05,12.68,12.68,0,0,0-1.22-.62,2.16,2.16,0,0,1-1.31-1.87l-.16-2.81-9.15.51.15,2.82a2.16,2.16,0,0,1-1.1,2c-.2.11-.39.23-.58.36s-.37.25-.55.38a2.17,2.17,0,0,1-2.28.21l-2.51-1.27-4.15,8.17,2.51,1.27a2.18,2.18,0,0,1,1.18,2,12.73,12.73,0,0,0,.08,1.37,2.21,2.21,0,0,1-1,2.07l-2.35,1.53,5,7.68,2.35-1.54a2.18,2.18,0,0,1,2.28,0,11.65,11.65,0,0,0,1.22.62,2.2,2.2,0,0,1,1.32,1.88l.15,2.8,9.15-.51Zm-11.6-9a7.51,7.51,0,1,1,10.4,2.18A7.52,7.52,0,0,1,344.85,131.62Z" style="fill:#dbdbdb"></path></g><g id="freepik--Shadow--inject-425"><ellipse cx="272.87" cy="444.72" rx="89.56" ry="11.23" style="fill:#ebebeb"></ellipse></g><g id="freepik--Plants--inject-425"><path d="M205.14,412.66c-3,1.54-6.23,3.31-9.66,2.55-3.16-.71-6.49-2.41-7.66-5.64-.33-.92-.39-1.56.73-1.64,1.71-.11,3.57.95,5.1,1.58a33.25,33.25,0,0,0,6.06,2c1.47.31,3,.47,4.43.75l.56.11.21,0,.08,0a.18.18,0,0,1,.16,0l0,0A.18.18,0,0,1,205.14,412.66Z" style="fill:#455a64"></path><path d="M205.2,412.39c-2.67,1.21-5.47,2.7-8.44,1.91a13.94,13.94,0,0,1-3.89-1.81c-.54-.36-2.17-1.4-2.07-2.18.18-1.39,5.41,1.46,6,1.67a14.31,14.31,0,0,0,7.29.25l.56.11a16,16,0,0,1-5.2.4c-2.41-.22-4.25-1.38-6.45-2.22-.48-.19-2-.86-2,0,0,.57,1.56,1.6,1.9,1.82a13.32,13.32,0,0,0,3.68,1.73c3,.84,5.8-.58,8.52-1.74Z" style="fill:#fff"></path><path d="M207.68,413.7l.09.38s0,0,0,0a.08.08,0,0,1,0,.08.14.14,0,0,1-.19,0,.09.09,0,0,1,0-.07.13.13,0,0,1,0-.06l0-.12h0l0,0c-1.49-1.74-2.68-3.71-4.2-5.44s-3-3.19-4.31-5c-.83-1.11-4.61-6.84-1.53-7.37,1.36-.23,3,1.11,4,1.93a14.26,14.26,0,0,1,3.1,3.94C206.47,405.68,206.73,409.75,207.68,413.7Z" style="fill:#455a64"></path><path d="M204.9,405.64a16.37,16.37,0,0,0-2.42-4c-.35-.42-2-2.39-2.75-2-.48.27-.1,1.28,0,1.62a14.39,14.39,0,0,0,2.49,3.84,63,63,0,0,1,4.91,7.73c.05.18.11.37.17.56s.11.3.16.46,0,.1.05.16a.84.84,0,0,0,0,.12.15.15,0,0,0,.19,0l-.12-.35c.05.09.1.18.14.27s0,0,0,0-.05-.2-.07-.31a.14.14,0,0,1,0-.07l-.23-.45A68.64,68.64,0,0,0,204.9,405.64Zm2,6.64a53.13,53.13,0,0,0-2.76-4.59c-.79-1.21-1.64-2.36-2.52-3.5a14.33,14.33,0,0,1-1.38-2c-.29-.55-1.2-2.66.48-1.89,1.22.57,2.35,2.46,3,3.56a23.39,23.39,0,0,1,1.74,3.85C206,409.2,206.47,410.75,206.94,412.28Z" style="fill:#fff"></path><path d="M213.24,421.19h0l-.11.07c-2.81,1.17-6.36,3.18-9.52,2.45-2.33-.54-5.26-2.41-5.8-4.92-.61-2.83,4.28-1.42,5.54-1.11a92.56,92.56,0,0,1,9.88,3.34l.06,0h0S213.3,421.15,213.24,421.19Z" style="fill:#455a64"></path><path d="M213.3,421.06l-.62-.07c-2.35-.27-4.7-.65-7-1.14-.58-.13-5-1.41-5-.2,0,.73,1.6,1.46,2.13,1.71a9.13,9.13,0,0,0,3,.87c2.38.27,4.72-.54,7.06-1l.33-.07h.07C213.3,421.14,213.34,421.09,213.3,421.06Zm-6.2,1a9.31,9.31,0,0,1-3.14-.47c-.67-.22-3.08-1.09-3-2,0-.47.34-.37.88-.36a6,6,0,0,1,.74,0c.61.09,1.2.24,1.79.37,1,.25,2.09.47,3.15.66,1.72.33,3.46.58,5.2.77A45.64,45.64,0,0,1,207.1,422.09Z" style="fill:#fff"></path><path d="M215.56,413.12a18,18,0,0,1-.78,10.49l0,.05a.14.14,0,0,1-.23-.15,1.18,1.18,0,0,0,.07-.2c-1.32-4-2.6-7.92-4-11.86-.33-.93-2.33-6.89-.16-6.8,1.34.06,2.51,2.33,3.1,3.33A18,18,0,0,1,215.56,413.12Z" style="fill:#455a64"></path><path d="M212.17,408.58c-.24-.27-.56-.51-.8-.13-.47.74.52,3.52.76,4.3,1,3.24,1.65,6.49,2.33,9.79.06.27.12.56.18.84l-.07.3a.13.13,0,0,0,.17,0s0-.05,0-.08.05-.28.08-.41h0a21.27,21.27,0,0,0,.2-6.61,20.53,20.53,0,0,0-1-4.08A11.75,11.75,0,0,0,212.17,408.58ZM214.7,423l0,.2c0-.12,0-.24,0-.35a59.51,59.51,0,0,0-1.6-7.68c-.36-1.27-.8-2.52-1.12-3.81-.13-.54-.56-2.07-.26-2.5s.56.13.75.43.33.63.44.84A21,21,0,0,1,214.7,423Z" style="fill:#fff"></path><path d="M219.08,431.46l-.55.27c-.24-.48-.48-1-.72-1.44-1-1.92-2-3.84-3.06-5.74-.6-1.09-1.21-2.15-1.85-3.2l-.06-.1a2.26,2.26,0,0,1-.16-.26c-.05-.09-.12-.18-.18-.27a26.31,26.31,0,0,0-5.31-6.29c-.72-.59-1.45-1.15-2.21-1.69l-.21-.16-.06,0-.23-.16-.17-.12c-2.34-1.63-4.82-3.08-7.23-4.58L195,406.39l-.12-.08-.15-.09c-3.05-1.91-6.07-3.86-9.16-5.69-.11-.07,0-.23.12-.17,2.07,1.21,4.17,2.36,6.26,3.53l.83.46,1.65.93q1.65.93,3.27,1.89a87.44,87.44,0,0,1,9,5.79l.62.5.39.31.43.37a27.89,27.89,0,0,1,6,7.79c.12.2.23.4.34.61l.16.28a1.09,1.09,0,0,0,.08.15l.1.19h0c0,.05.05.09.07.15s.18.34.28.52q1.51,2.88,3,5.78C218.44,430.24,218.76,430.85,219.08,431.46Z" style="fill:#455a64"></path><path d="M185.75,403.88c-2.47-1.31-6.4-4.57-5.21-7.81a2.61,2.61,0,0,1,3-1.73c1.57.29,2.87,1.64,3.88,2.79,2.71,3.06,5.11,6.35,8,9.22,0,0,.24.24.31.31s0,.14-.1.08l-.29-.28C192.19,405.87,188.69,405.43,185.75,403.88Z" style="fill:#455a64"></path><path d="M195.52,406.35l-.07-.05a26.68,26.68,0,0,1-2.66-1.95,54.1,54.1,0,0,1-4.93-4.77c-.61-.64-3.47-3.85-4.09-1.73a3.71,3.71,0,0,0,.8,2.68,10.39,10.39,0,0,0,2.82,2.94,19,19,0,0,0,7.5,2.84l.36.07.1.07.07,0,0,0a.1.1,0,0,0,.1-.11A.1.1,0,0,0,195.52,406.35Zm-.78-.13a22.11,22.11,0,0,1-6.28-2.24,11.36,11.36,0,0,1-2.72-2.16,9.29,9.29,0,0,1-1-1.22,6.75,6.75,0,0,1-.56-1c-.34-.77-.43-1.76,0-2.06s.85-.13,1.53.34a6.34,6.34,0,0,1,.65.51c.52.46,1,1,1.47,1.47.78.84,1.56,1.66,2.38,2.47.55.54,1.12,1.07,1.71,1.58a29.93,29.93,0,0,0,3.18,2.42Z" style="fill:#fff"></path><path d="M365.45,402.66c-1.18,1.91-2.5,3.73-3.83,5.53-.75,1-1.52,2-2.27,3.07a9,9,0,0,0-2,3.64h0a1.27,1.27,0,0,1-.06.18h0a.17.17,0,0,1-.24-.17s0-.06,0-.09,0,0,0,0a5.38,5.38,0,0,1,.05-1.24,29.5,29.5,0,0,1,.35-3.39,27.71,27.71,0,0,1,1.9-6.68,23.46,23.46,0,0,1,3.19-5.34c1-1.3,2.56-3.25,4.18-3.87,1.46-.56,1.53,1.45,1.43,2.41C367.88,398.85,366.57,400.86,365.45,402.66Z" style="fill:#455a64"></path><path d="M365.63,397.54c-.74-.34-2.37,1.79-3.11,2.7a22.56,22.56,0,0,0-2.93,4.66,29.36,29.36,0,0,0-2.55,9.51c0,.13,0,.26,0,.4v0a.29.29,0,0,1,0,.09.17.17,0,0,0,.25.17,7.15,7.15,0,0,1,.23-.79c.07-.24.15-.47.24-.7a39.33,39.33,0,0,1,3.82-7.08C363.19,403.88,366.6,398,365.63,397.54ZM357.35,414c-.11.35-.21.7-.3,1,0-.27.07-.54.11-.8a32.12,32.12,0,0,1,2.21-8.41,22.76,22.76,0,0,1,2.38-4.29,21.78,21.78,0,0,1,1.64-2.06c.25-.27,1.71-2,2.12-1.7s-.47,2-.48,2.08c-.15.37-.32.73-.49,1.09-.35.74-.74,1.45-1.15,2.16-.88,1.54-1.85,3-2.78,4.53A31.31,31.31,0,0,0,357.35,414Z" style="fill:#fff"></path><path d="M374.47,413.61a21.18,21.18,0,0,1-8.94,3.62c-1.69.34-3.4.61-5.09.91a22.89,22.89,0,0,0-4.51,1l-.19.08a5.94,5.94,0,0,0-1.13.63.08.08,0,0,1-.08,0l-.1.1s-.06,0,0,0l.07-.12h0a.1.1,0,0,1,0-.11l0,0,.08-.12c1.81-2.91,5.41-5,8.33-6.55a18,18,0,0,1,9.47-2.37c.83.06,2.79.05,3.24,1S375,413.19,374.47,413.61Z" style="fill:#455a64"></path><path d="M372.37,412.66c-.34-.94-3-.23-3.61-.08a34.78,34.78,0,0,0-5.68,2,31.19,31.19,0,0,0-8.34,4.92h0l-.1.06a.83.83,0,0,0-.08.12l0,0a.1.1,0,0,0,0,.11l.14-.07c.37-.18.75-.34,1.13-.5l.19-.08a68.13,68.13,0,0,1,8.25-2.46,32,32,0,0,0,5.64-2C370.28,414.5,372.66,413.45,372.37,412.66Zm-1.24,1.14c-2.82,1.9-6.48,2.56-9.72,3.4a35.54,35.54,0,0,0-6.41,2.16,33.19,33.19,0,0,1,7.63-4.36,44.42,44.42,0,0,1,4.69-1.8,18.3,18.3,0,0,1,2.65-.65,7.33,7.33,0,0,1,1.63-.1C372.61,412.6,371.61,413.47,371.13,413.8Z" style="fill:#fff"></path><path d="M351.28,426a.17.17,0,0,1-.18,0,.64.64,0,0,0,0,.07.07.07,0,0,1,0,.06.05.05,0,0,1-.07,0,29.35,29.35,0,0,1-2-11.85,15.29,15.29,0,0,1,1.16-4.85c.45-1.05,1.36-3.17,2.6-3.51,2.49-.69,1.13,6.51.93,7.59-.38,2-.93,3.92-1.34,5.89-.46,2.15-.75,4.34-1.05,6.52A.19.19,0,0,1,351.28,426Z" style="fill:#455a64"></path><path d="M351.28,426c0-.21,0-.42,0-.63a32.89,32.89,0,0,1,.79-10.15,31.2,31.2,0,0,0,.9-5.06c0-.42.21-2-.7-1.58-.48.22-1.43,2.94-1.62,3.67a20.86,20.86,0,0,0-.6,5.1,34.36,34.36,0,0,0,1,8.55,2.1,2.1,0,0,0,.06.24.07.07,0,0,0,0-.06.14.14,0,0,1,0-.06A.19.19,0,0,0,351.28,426Zm-1.06-7.22a24.05,24.05,0,0,1,.27-5.09,16.72,16.72,0,0,1,.46-2,10.72,10.72,0,0,1,.55-1.5c.55-1.17.78-1.44,1-1.39s.24.24.27,1.11a9.33,9.33,0,0,1-.16,1.66c-.14.78-.31,1.55-.48,2.32-.35,1.55-.72,3.09-.94,4.66a25.23,25.23,0,0,0-.13,6.78A39,39,0,0,1,350.22,418.73Z" style="fill:#fff"></path><path d="M362.16,423.48a9.73,9.73,0,0,1-3.22,2.65c-2.43,1.36-5.12,2.19-7.64,3.37l-1.11.56s-.43.37-.41.33l.29-.41h0a40.14,40.14,0,0,1,5.67-6.54,19.71,19.71,0,0,1,4.09-2.61c.7-.31,2.3-.93,3-.31S362.58,422.89,362.16,423.48Z" style="fill:#455a64"></path><path d="M361.22,422c-.62-.94-4.71,2-5.25,2.4a27.82,27.82,0,0,0-5.37,4.91l-.53.63-.29.41s.37-.3.41-.33l.19-.1c.3-.16.62-.31.92-.45,1.65-1,3.31-2,4.94-3a26,26,0,0,0,3.34-2.48C359.82,423.78,361.49,422.45,361.22,422Zm-.77,1c-2.85,2.91-6.63,4.48-10,6.68l-.16.1.21-.23a31.21,31.21,0,0,1,4.39-4.13,30.12,30.12,0,0,1,3-2.07,15.23,15.23,0,0,1,1.76-1c.27-.12,1-.4,1.15-.23S360.64,422.86,360.45,423.05Z" style="fill:#fff"></path><path d="M384.16,398.82c-5.32,4.73-13.37,4.36-19,8.71l0,0-.5.42a.14.14,0,0,1-.21-.07.09.09,0,0,1,0-.1.63.63,0,0,1,.12-.1,33.77,33.77,0,0,1,8.42-8.69,17.19,17.19,0,0,1,9.44-3.8c.85,0,2.55-.16,3.06.78S384.82,398.24,384.16,398.82Z" style="fill:#455a64"></path><path d="M381.72,398c-.22-.4-.85-.33-1.2-.32a11.32,11.32,0,0,0-2.58.43,18.08,18.08,0,0,0-4.83,2.27,37.44,37.44,0,0,0-7.14,5.75c-.47.51-.92,1-1.34,1.57l-.16.2a.14.14,0,0,0,.21.07c.16-.15.32-.27.48-.41l0,0a22.23,22.23,0,0,1,3.4-2.53,52.54,52.54,0,0,1,6-2.79C375.39,401.87,382.47,399.35,381.72,398Zm-1.05,1.18a24.43,24.43,0,0,1-4.78,2.29c-1.62.7-3.25,1.38-4.86,2.11a24.16,24.16,0,0,0-3.69,2,19.12,19.12,0,0,0-2.73,2.19,26.64,26.64,0,0,1,2.38-2.49s0,0,0,0a48.72,48.72,0,0,1,4.8-3.82s.05,0,.06-.05a22.47,22.47,0,0,1,4.7-2.66,13.22,13.22,0,0,1,2.83-.79c1.11-.15,2-.17,2.1.2S381.1,398.88,380.67,399.18Z" style="fill:#fff"></path><path d="M371.93,401.59c-1.54,1.32-3.07,2.67-4.59,4-.71.63-1.43,1.27-2.13,1.91l0,0-.77.7a57.57,57.57,0,0,0-6.73,6.61A26.43,26.43,0,0,0,355,419c-.07.16-.15.31-.23.46h0a1.92,1.92,0,0,1-.12.25l-.07.14c-.65,1.28-1.23,2.59-1.79,3.87-.79,1.79-1.45,3.61-2.1,5.44a.75.75,0,0,0,0,.16l-.09.25s0,.08-.05.13,0,.15-.08.23l-.63,1.77-.54-.25A38.5,38.5,0,0,1,351,426a.37.37,0,0,1,0-.11,4.87,4.87,0,0,1,.21-.53c.08-.22.17-.43.26-.64.21-.51.43-1,.65-1.53a41.21,41.21,0,0,1,4.67-8.45l.16-.2.07-.09.12-.15.19-.24.36-.41.11-.12a61.88,61.88,0,0,1,6.31-5.81l1.18-1,.66-.55,1-.81s0,0,0,0c1.59-1.28,3.21-2.53,4.8-3.82C371.91,401.41,372,401.53,371.93,401.59Z" style="fill:#455a64"></path></g><g id="freepik--Floor--inject-425"><polygon points="47.15 426.09 97.86 425.85 148.57 425.76 250 425.59 351.43 425.76 402.14 425.85 452.86 426.09 402.14 426.33 351.43 426.42 250 426.59 148.57 426.42 97.86 426.33 47.15 426.09" style="fill:#263238"></polygon></g><g id="freepik--Robot--inject-425"><path d="M274.68,388.56c2.56,2.44,21.72.11,27-4.12l-.53-6.27c-.32-3-.56-6-.93-9s-.71-6-1.16-9-.91-6-1.4-9c-1-6-2.13-11.93-3.52-17.83-.7-3-1.44-5.89-2.28-8.8-.67-2.44-1.38-4.87-2.2-7.26-.24.1-1.07-.31-1.3-.2-13.05,5.85-26.9,1.25-27.73,4.62-.44,1.74-1.1,14.75,1.66,28.6C265.82,367.89,273.15,387.11,274.68,388.56Zm13-66.77a.9.9,0,0,1-1.13-.56.89.89,0,0,1,1.68-.57A.89.89,0,0,1,287.68,321.79Zm2.16,7.23a.88.88,0,0,1-1.12-.55.89.89,0,1,1,1.68-.57A.88.88,0,0,1,289.84,329ZM292,336.4a.9.9,0,0,1-1.13-.57.89.89,0,0,1,1.68-.57A.89.89,0,0,1,292,336.4Zm1.46,7.65a.89.89,0,1,1,.55-1.13A.89.89,0,0,1,293.49,344.05Zm1.65,7.31a.9.9,0,0,1-1.13-.56.89.89,0,0,1,1.68-.57A.9.9,0,0,1,295.14,351.36Zm1.21,6.74a.89.89,0,1,1,.55-1.14A.89.89,0,0,1,296.35,358.1Zm.91,6.87a.89.89,0,1,1,.55-1.14A.89.89,0,0,1,297.26,365Zm.9,6.67a.89.89,0,0,1-1.12-.56.89.89,0,0,1,1.68-.57A.9.9,0,0,1,298.16,371.64Zm-.28,5.62a.89.89,0,1,1,1.69-.58.87.87,0,0,1-.55,1.12A.89.89,0,0,1,297.88,377.26Zm.46,6.46a.89.89,0,0,1,1.68-.57.89.89,0,0,1-.55,1.14A.9.9,0,0,1,298.34,383.72Z" style="fill:#FFFFFF"></path><g style="opacity:0.5"><path d="M274.68,388.56c2.56,2.44,21.72.11,27-4.12l-.53-6.27c-.32-3-.56-6-.93-9s-.71-6-1.16-9-.91-6-1.4-9c-1-6-2.13-11.93-3.52-17.83-.7-3-1.44-5.89-2.28-8.8-.67-2.44-1.38-4.87-2.2-7.26-.24.1-1.07-.31-1.3-.2-13.05,5.85-26.9,1.25-27.73,4.62-.44,1.74-1.1,14.75,1.66,28.6C265.82,367.89,273.15,387.11,274.68,388.56Zm13-66.77a.9.9,0,0,1-1.13-.56.89.89,0,0,1,1.68-.57A.89.89,0,0,1,287.68,321.79Zm2.16,7.23a.88.88,0,0,1-1.12-.55.89.89,0,1,1,1.68-.57A.88.88,0,0,1,289.84,329ZM292,336.4a.9.9,0,0,1-1.13-.57.89.89,0,0,1,1.68-.57A.89.89,0,0,1,292,336.4Zm1.46,7.65a.89.89,0,1,1,.55-1.13A.89.89,0,0,1,293.49,344.05Zm1.65,7.31a.9.9,0,0,1-1.13-.56.89.89,0,0,1,1.68-.57A.9.9,0,0,1,295.14,351.36Zm1.21,6.74a.89.89,0,1,1,.55-1.14A.89.89,0,0,1,296.35,358.1Zm.91,6.87a.89.89,0,1,1,.55-1.14A.89.89,0,0,1,297.26,365Zm.9,6.67a.89.89,0,0,1-1.12-.56.89.89,0,0,1,1.68-.57A.9.9,0,0,1,298.16,371.64Zm-.28,5.62a.89.89,0,1,1,1.69-.58.87.87,0,0,1-.55,1.12A.89.89,0,0,1,297.88,377.26Zm.46,6.46a.89.89,0,0,1,1.68-.57.89.89,0,0,1-.55,1.14A.9.9,0,0,1,298.34,383.72Z"></path></g><path d="M276.39,388.07c2.56,2.44,21.73.11,27-4.12l-.53-6.27c-.32-3-.55-6-.93-9.05s-.7-6-1.16-9-.91-6-1.39-9c-1-6-2.14-11.93-3.53-17.83-.7-3-1.44-5.89-2.28-8.81-.66-2.43-1.38-4.86-2.19-7.26-13.81,5.69-28.2,1-29,4.42-.44,1.75-1.1,14.75,1.66,28.61C267.53,367.39,274.86,386.61,276.39,388.07Zm13-66.78a.89.89,0,1,1,.55-1.13A.89.89,0,0,1,289.39,321.29Zm2.17,7.24a.89.89,0,1,1-.58-1.68.89.89,0,0,1,.58,1.68Zm2.18,7.37a.89.89,0,1,1,.55-1.14A.89.89,0,0,1,293.74,335.9Zm1.46,7.65a.89.89,0,0,1-1.13-.55.9.9,0,0,1,.55-1.13.89.89,0,0,1,1.13.56A.87.87,0,0,1,295.2,343.55Zm1.65,7.31a.89.89,0,1,1-.58-1.68.89.89,0,0,1,.58,1.68Zm1.21,6.74a.89.89,0,1,1,.55-1.13A.88.88,0,0,1,298.06,357.6Zm.91,6.88a.9.9,0,0,1-1.13-.57.89.89,0,1,1,1.13.57Zm.9,6.66a.89.89,0,1,1,.56-1.13A.9.9,0,0,1,299.87,371.14Zm-.28,5.62a.9.9,0,0,1,.56-1.13.89.89,0,1,1-.56,1.13Zm.46,6.47a.89.89,0,1,1,1.13.56A.89.89,0,0,1,300.05,383.23Z" style="fill:#FFFFFF"></path><g style="opacity:0.30000000000000004"><path d="M276.39,388.07c2.56,2.44,21.73.11,27-4.12l-.53-6.27c-.32-3-.55-6-.93-9.05s-.7-6-1.16-9-.91-6-1.39-9c-1-6-2.14-11.93-3.53-17.83-.7-3-1.44-5.89-2.28-8.81-.66-2.43-1.38-4.86-2.19-7.26-13.81,5.69-28.2,1-29,4.42-.44,1.75-1.1,14.75,1.66,28.61C267.53,367.39,274.86,386.61,276.39,388.07Zm13-66.78a.89.89,0,1,1,.55-1.13A.89.89,0,0,1,289.39,321.29Zm2.17,7.24a.89.89,0,1,1-.58-1.68.89.89,0,0,1,.58,1.68Zm2.18,7.37a.89.89,0,1,1,.55-1.14A.89.89,0,0,1,293.74,335.9Zm1.46,7.65a.89.89,0,0,1-1.13-.55.9.9,0,0,1,.55-1.13.89.89,0,0,1,1.13.56A.87.87,0,0,1,295.2,343.55Zm1.65,7.31a.89.89,0,1,1-.58-1.68.89.89,0,0,1,.58,1.68Zm1.21,6.74a.89.89,0,1,1,.55-1.13A.88.88,0,0,1,298.06,357.6Zm.91,6.88a.9.9,0,0,1-1.13-.57.89.89,0,1,1,1.13.57Zm.9,6.66a.89.89,0,1,1,.56-1.13A.9.9,0,0,1,299.87,371.14Zm-.28,5.62a.9.9,0,0,1,.56-1.13.89.89,0,1,1-.56,1.13Zm.46,6.47a.89.89,0,1,1,1.13.56A.89.89,0,0,1,300.05,383.23Z"></path></g><rect x="229.45" y="238.1" width="18.64" height="81.54" transform="translate(24.45 -19.2) rotate(4.85)" style="fill:#455a64"></rect><path d="M222.77,419.8c4.28-.41,56.73-2.61,57.46-2.61s2.82,8.32,2.33,9.42-42,12.68-50.25,13.32c-12.6,1-37.54-5.25-38.64-5.87s-.2-7.23.73-8.45C194.85,425,218.49,420.21,222.77,419.8Z" style="fill:#37474f"></path><path d="M195.83,427.22s7.34-14.92,16.43-20.31c3.58-2.13,22.37-6.35,22.37-6.35l32.6-7.82s8.64,10.92,9.46,14,2.12,14,2.12,14S241.53,433.49,230,433.49C209.69,433.51,195.83,427.22,195.83,427.22Z" style="fill:#FFFFFF"></path><path d="M215.37,324.48c-.75,4.47,17.87,70,21.09,72.64s26.61-2.23,30.28-7.75.08-40.24-1-46.9S248,316.21,246.29,317.14C231.33,325.13,216,320.56,215.37,324.48Z" style="fill:#FFFFFF"></path><g style="opacity:0.2"><path d="M243.87,327.21a.9.9,0,1,1-.62-1A.9.9,0,0,1,243.87,327.21Zm0,0a.68.68,0,0,0-.66-.8.69.69,0,0,0-.23,1.33A.69.69,0,0,0,243.87,327.21Z"></path><path d="M248.44,333a.9.9,0,1,1-.62-1A.9.9,0,0,1,248.44,333Zm0,0a.67.67,0,1,0-1.33-.23.67.67,0,0,0,.44.76A.68.68,0,0,0,248.44,333Z"></path><path d="M252.79,338.66a.9.9,0,1,1-.62-1A.9.9,0,0,1,252.79,338.66Zm0,0a.67.67,0,1,0-.89.53A.68.68,0,0,0,252.79,338.66Z"></path><path d="M256.14,344.44a.91.91,0,0,1-.93.75.9.9,0,1,1,.31-1.77A.92.92,0,0,1,256.14,344.44Zm0,0a.68.68,0,1,0-1.34-.23.68.68,0,0,0,.44.76A.69.69,0,0,0,256.14,344.44Z"></path><path d="M257.69,351.93a.89.89,0,1,1-.62-1A.9.9,0,0,1,257.69,351.93Zm0,0a.69.69,0,0,0-.65-.8.7.7,0,0,0-.68.57.67.67,0,1,0,1.33.23Z"></path><path d="M259.44,367.65a.9.9,0,0,1-.93.75.9.9,0,1,1,.31-1.77A.9.9,0,0,1,259.44,367.65Zm0,0a.68.68,0,0,0-.66-.8.69.69,0,0,0-.67.57.67.67,0,1,0,1.33.23Z"></path><path d="M261.48,384a.91.91,0,0,1-.93.75.9.9,0,1,1,.31-1.77A.92.92,0,0,1,261.48,384Zm0,0a.68.68,0,0,0-.66-.8.69.69,0,0,0-.68.57.68.68,0,0,0,.44.76A.7.7,0,0,0,261.48,384Z"></path><path d="M258.6,359.67a.92.92,0,0,1-.93.75.91.91,0,0,1-.84-1.06.9.9,0,1,1,1.77.31Zm0,0a.67.67,0,1,0-1.33-.23.67.67,0,0,0,.44.76A.69.69,0,0,0,258.6,359.67Z"></path><path d="M260.17,375.67a.89.89,0,0,1-.93.75.91.91,0,1,1,.93-.75Zm0,0a.67.67,0,1,0-.89.53A.68.68,0,0,0,260.17,375.67Z"></path><path d="M243.93,322.35c3.59,4.43,7.11,8.92,10.43,13.57.82,1.17,1.64,2.34,2.4,3.56.39.6.76,1.22,1.11,1.85.18.32.31.67.47,1s.22.69.34,1a63.12,63.12,0,0,1,1.58,8.45c.73,5.67,1.24,11.35,1.71,17l.67,8.53c.21,2.84.42,5.69.7,8.53-.39-2.83-.71-5.67-1-8.5l-.86-8.52c-.58-5.67-1.08-11.35-1.85-17a64.57,64.57,0,0,0-1.51-8.37c-.11-.33-.2-.67-.32-1s-.26-.62-.43-.93c-.34-.62-.69-1.23-1.07-1.83-.75-1.2-1.55-2.38-2.34-3.56-1.61-2.36-3.27-4.67-4.95-7S245.64,324.63,243.93,322.35Z"></path></g><path d="M236.46,397.12c-3.55-.63-2.14,5,4.84,5.94,10.59,1.48,26.51-5.92,27.71-9.39s-1.18-6.65-1.72-5.47S249.17,399.38,236.46,397.12Z" style="fill:#37474f"></path><path d="M228.71,234.41c-2.48,5.91,4.63,12.58,10.17,14.9,9.55,4,15.1,2.77,17.67-1.64,2.33-4,.62-14.79-8.57-18.47C238.28,225.33,229.86,231.67,228.71,234.41Z" style="fill:#263238"></path><path d="M248.36,316.46a6.11,6.11,0,0,1-1.46,2.37,10.23,10.23,0,0,1-5.59,1.69l2-9.94c.58-3.54,1.25-7.07,1.76-10.62s1.07-7.11,1.49-10.67.84-7.13,1.21-10.71c.63-7.15,1.08-14.32,1.25-21.5a179.77,179.77,0,0,0-.53-20.37,23.36,23.36,0,0,1,5.63,4.74C258,246,253.72,303.38,248.36,316.46Z" style="fill:#FFFFFF"></path><path d="M248.36,316.46a6.11,6.11,0,0,1-1.46,2.37,10.23,10.23,0,0,1-5.59,1.69l2-9.94c.58-3.54,1.25-7.07,1.76-10.62s1.07-7.11,1.49-10.67.84-7.13,1.21-10.71c.63-7.15,1.08-14.32,1.25-21.5a179.77,179.77,0,0,0-.53-20.37,23.36,23.36,0,0,1,5.63,4.74C258,246,253.72,303.38,248.36,316.46Z" style="opacity:0.2"></path><path d="M249.09,316.46a6.24,6.24,0,0,1-1.45,2.37,10.27,10.27,0,0,1-5.6,1.69l2-9.94c.59-3.54,1.25-7.07,1.76-10.62s1.08-7.11,1.49-10.67.84-7.13,1.21-10.71c.63-7.15,1.08-14.32,1.25-21.5a179.77,179.77,0,0,0-.53-20.37,23.36,23.36,0,0,1,5.63,4.74C258.75,246,254.46,303.38,249.09,316.46Z" style="fill:#FFFFFF"></path><path d="M214.85,318.2c.39-3.71,1.86-18.85,2.74-19.27s4.58-1.2,5.29.39,2.28,17.07,3.87,17.75,15.2,2.59,21.9-1.39c1.26-.75,1.69,4.94.49,5.89s-11.76,5-21.44,3.66c-1-.15-3.4,18.52-4.74,19.3s-4.73.68-5.56-.21S214.09,325.38,214.85,318.2Z" style="fill:#37474f"></path><ellipse cx="220.32" cy="321.73" rx="13.47" ry="9.69" transform="translate(-107.48 532.92) rotate(-88.39)" style="fill:#455a64"></ellipse><path d="M223.11,247.06c.25-3.2.45-6.41.48-9.61-.7-1.25-6.17-3.3-9.09-3.22-4.82.15-9.2,1.15-13.85,6.62-5,5.91-17.29,55.54-18,67,.24.5.43.5.75.69.25-.2.52-.39.78-.56,1-5,2.16-10.15,2.7-10.35.91-.34,4.67-.81,5.23.84.3.84.5,5.33.85,9.62,2.49,1.87,4.18,5.28,4.55,9.29,0,.24,0,.49,0,.75a42.77,42.77,0,0,0,11.83,2.26l2.57-9.8c.85-3.48,1.78-6.95,2.56-10.45s1.62-7,2.32-10.51,1.37-7,2-10.57c1.27-7.05,2.39-14.15,3.21-21.27C222.5,254.21,222.86,250.64,223.11,247.06Zm-3.66-3.21a.95.95,0,0,1-.16,1.89,1,1,0,0,1-.88-1A1,1,0,0,1,219.45,243.85Zm.39,9.36a1,1,0,0,1-1,.88,1,1,0,1,1,.16-1.9A.94.94,0,0,1,219.84,253.21Zm-11.82,62a1,1,0,0,1-.86-1,.95.95,0,0,1,1.89.16A1,1,0,0,1,208,315.19Zm2-6.91a.94.94,0,0,1-.87-1,1,1,0,1,1,.87,1Zm1.41-6.76a1,1,0,1,1,1-.87A1,1,0,0,1,211.4,301.52Zm1.6-7.26a1,1,0,0,1,.16-1.9,1,1,0,1,1-.16,1.9Zm1.63-7.5a.94.94,0,1,1,1-.86A.94.94,0,0,1,214.63,286.76Zm1.28-7.45a1,1,0,0,1-.86-1,.94.94,0,0,1,1-.86,1,1,0,0,1,.88,1A1,1,0,0,1,215.91,279.31Zm1-8.23a.94.94,0,0,1-.87-1,1,1,0,1,1,.87,1Zm1.37-8.51a1,1,0,0,1-.88-1,1,1,0,0,1,1-.86.94.94,0,0,1,.86,1A1,1,0,0,1,218.32,262.57Z" style="fill:#FFFFFF"></path><path d="M223.11,247.06c.25-3.2.45-6.41.48-9.61-.7-1.25-6.17-3.3-9.09-3.22-4.82.15-9.2,1.15-13.85,6.62-5,5.91-17.29,55.54-18,67,.24.5.43.5.75.69.25-.2.52-.39.78-.56,1-5,2.16-10.15,2.7-10.35.91-.34,4.67-.81,5.23.84.3.84.5,5.33.85,9.62,2.49,1.87,4.18,5.28,4.55,9.29,0,.24,0,.49,0,.75a42.77,42.77,0,0,0,11.83,2.26l2.57-9.8c.85-3.48,1.78-6.95,2.56-10.45s1.62-7,2.32-10.51,1.37-7,2-10.57c1.27-7.05,2.39-14.15,3.21-21.27C222.5,254.21,222.86,250.64,223.11,247.06Zm-3.66-3.21a.95.95,0,0,1-.16,1.89,1,1,0,0,1-.88-1A1,1,0,0,1,219.45,243.85Zm.39,9.36a1,1,0,0,1-1,.88,1,1,0,1,1,.16-1.9A.94.94,0,0,1,219.84,253.21Zm-11.82,62a1,1,0,0,1-.86-1,.95.95,0,0,1,1.89.16A1,1,0,0,1,208,315.19Zm2-6.91a.94.94,0,0,1-.87-1,1,1,0,1,1,.87,1Zm1.41-6.76a1,1,0,1,1,1-.87A1,1,0,0,1,211.4,301.52Zm1.6-7.26a1,1,0,0,1,.16-1.9,1,1,0,1,1-.16,1.9Zm1.63-7.5a.94.94,0,1,1,1-.86A.94.94,0,0,1,214.63,286.76Zm1.28-7.45a1,1,0,0,1-.86-1,.94.94,0,0,1,1-.86,1,1,0,0,1,.88,1A1,1,0,0,1,215.91,279.31Zm1-8.23a.94.94,0,0,1-.87-1,1,1,0,1,1,.87,1Zm1.37-8.51a1,1,0,0,1-.88-1,1,1,0,0,1,1-.86.94.94,0,0,1,.86,1A1,1,0,0,1,218.32,262.57Z" style="opacity:0.2"></path><path d="M222.36,246.36c.25-3.2.45-6.4.48-9.61a15.42,15.42,0,0,0-9.09-3.22c-4.82.16-9.2,1.15-13.85,6.62-5.16,6.1-17.64,58.17-17.24,67.68a7.17,7.17,0,0,1,.79-.57c1-5,2.15-10.15,2.69-10.35.91-.34,4.67-.81,5.23.84.3.84.5,5.33.85,9.63,2.49,1.86,4.18,5.27,4.55,9.28,0,.24,0,.5,0,.75a42.77,42.77,0,0,0,11.83,2.26l2.57-9.8c.85-3.48,1.78-6.94,2.56-10.44s1.62-7,2.32-10.51,1.37-7,2-10.58c1.28-7,2.39-14.15,3.22-21.26C221.75,253.51,222.11,249.94,222.36,246.36Zm-3.66-3.21a.95.95,0,0,1-.16,1.89.95.95,0,1,1,.16-1.89Zm.4,9.37a1,1,0,1,1-.87-1A1,1,0,0,1,219.1,252.52Zm-11.82,62a1,1,0,0,1-.87-1,.95.95,0,1,1,.87,1Zm2-6.91a.94.94,0,0,1-.87-1,1,1,0,1,1,1.9.16A1,1,0,0,1,209.24,307.58Zm1.41-6.76a1,1,0,0,1,.16-1.9,1,1,0,1,1-.16,1.9Zm1.6-7.26a1,1,0,0,1,.16-1.9,1,1,0,1,1-.16,1.9Zm1.64-7.49a.95.95,0,1,1,1-.87A1,1,0,0,1,213.89,286.07Zm1.27-7.46a1,1,0,0,1-.86-1,.94.94,0,0,1,1-.86,1,1,0,0,1,.88,1A1,1,0,0,1,215.16,278.61Zm1-8.22a1,1,0,0,1-.87-1,1,1,0,0,1,1.9.16A1,1,0,0,1,216.2,270.39Zm1.37-8.52a.95.95,0,1,1,.16-1.89.95.95,0,0,1-.16,1.89Z" style="fill:#FFFFFF"></path><path d="M288.49,392.15c-.41-3.11,6.85-6.64,16.23-7.88s17.3.27,17.71,3.38-6.85,6.64-16.22,7.88S288.91,395.26,288.49,392.15Z" style="fill:#455a64"></path><path d="M281.82,317.09l12.92,72.34c.26,1.49,5.08,1.87,10.77.85s10.07-3,9.81-4.52L302.4,313.42Z" style="fill:#263238"></path><path d="M285.38,417.44l4.18-21.84,31.2-4.39,15.41,23.92C336.1,415.05,285.38,417.44,285.38,417.44Z" style="fill:#FFFFFF"></path><path d="M285.38,417.44l4.18-21.84,31.2-4.39,15.41,23.92C336.1,415.05,285.38,417.44,285.38,417.44Z" style="opacity:0.1"></path><path d="M276.86,431.06s28.09-2.33,32.74-2.86,37.23,2.86,37.23,2.86,1.52,7.52,1.34,8.23-29.61,10.94-42.23,10.41-31.61-8.26-31.6-8.8S276.86,431.06,276.86,431.06Z" style="fill:#37474f"></path><path d="M277.49,435.62s17.05,6.73,26.51,6.89,41.46-9.14,41.46-9.14-6-17.76-16-25.43-29.15-5.8-36.48-.77S277.49,435.62,277.49,435.62Z" style="fill:#FFFFFF"></path><path d="M288.48,238.87c5.66,6.14,21.39,62.2,19.91,67.94s-24.59,15-31.15,10.89-20.46-70.45-16.83-75.86,9.15-9,14-9S283.62,233.58,288.48,238.87Z" style="fill:#FFFFFF"></path><g style="opacity:0.2"><path d="M266.16,244.68a.9.9,0,1,1-.12,1.18A.9.9,0,0,1,266.16,244.68Zm.91,1.28a.68.68,0,1,0-1-.1A.68.68,0,0,0,267.07,246Z"></path><path d="M267,253a.91.91,0,0,1,1.34.15.9.9,0,1,1-1.46,1A.91.91,0,0,1,267,253Zm.91,1.29a.68.68,0,0,0,.07-.88.67.67,0,1,0-1.1.78A.68.68,0,0,0,267.88,254.28Z"></path><path d="M267.82,261.45a.9.9,0,1,1-.12,1.19A.91.91,0,0,1,267.82,261.45Zm.91,1.28a.68.68,0,0,0,.07-.88.68.68,0,1,0-.07.88Z"></path><path d="M269.53,269.9a.91.91,0,0,1,1.34.15.9.9,0,1,1-1.46,1A.91.91,0,0,1,269.53,269.9Zm.92,1.28a.67.67,0,0,0,.06-.87.67.67,0,0,0-.85-.22.68.68,0,0,0-.25,1A.69.69,0,0,0,270.45,271.18Z"></path><path d="M270.9,278.07a.91.91,0,1,1,1.05,1.46.91.91,0,0,1-1.05-1.46Zm.92,1.28a.69.69,0,0,0,.07-.88.7.7,0,0,0-.86-.22.68.68,0,1,0,.79,1.1Z"></path><path d="M272.49,285.48a.9.9,0,1,1-.12,1.19A.9.9,0,0,1,272.49,285.48Zm.91,1.28a.68.68,0,1,0-1-.09A.69.69,0,0,0,273.4,286.76Z"></path><path d="M274.43,292.9a.9.9,0,1,1-.12,1.18A.9.9,0,0,1,274.43,292.9Zm.91,1.28a.68.68,0,0,0,.07-.88.67.67,0,0,0-.85-.22.68.68,0,1,0,.78,1.1Z"></path><path d="M276.3,300.11a.9.9,0,1,1,1,1.46.9.9,0,0,1-1-1.46Zm.91,1.28a.68.68,0,1,0-1-.09A.68.68,0,0,0,277.21,301.39Z"></path><path d="M278,306.78a.92.92,0,0,1,1.35.15.91.91,0,0,1-.3,1.31.89.89,0,0,1-1.16-.27A.91.91,0,0,1,278,306.78Zm.92,1.28a.69.69,0,0,0,.07-.88.7.7,0,0,0-.86-.22.69.69,0,0,0-.24,1A.68.68,0,0,0,278.93,308.06Z"></path><path d="M280.26,313.6a.91.91,0,1,1-.11,1.18A.88.88,0,0,1,280.26,313.6Zm.92,1.28a.69.69,0,0,0-.79-1.1.68.68,0,1,0,.79,1.1Z"></path><path d="M263.05,241.28a155.54,155.54,0,0,0,1.86,19.27c1,6.39,2.17,12.73,3.54,19.05.73,3.14,1.46,6.29,2.29,9.41s1.66,6.24,2.53,9.35,1.85,6.18,2.77,9.28l3.06,9.19-2.85-9.26c-.89-3.1-1.86-6.18-2.69-9.29s-1.71-6.22-2.46-9.36-1.51-6.27-2.22-9.42c-1.41-6.29-2.68-12.62-3.68-19-.5-3.19-.95-6.38-1.31-9.59S263.18,244.5,263.05,241.28Z"></path></g><path d="M304,310.48c-1.59-3.38-8-17.19-8.93-17.3s-4.72.37-4.87,2.11,3.46,16.87,2.18,18a19,19,0,0,1-15.16,3.8c-1.43-.29,0,5.22,1.48,5.72s6.77,3,15.46-1.51c.92-.47,8.19,17.77,9.71,18.07s4.7-.91,5.19-2S307.11,317,304,310.48Z" style="fill:#37474f"></path><path d="M286,320.32a13.47,13.47,0,1,0,7.81-17.38A13.46,13.46,0,0,0,286,320.32Z" style="fill:#455a64"></path><path d="M320.65,387.62c3-2,4,3.65-2,7.41-9.05,5.69-26.61,5.47-29.12,2.79s-1.65-6.55-.68-5.7S310,394.89,320.65,387.62Z" style="fill:#37474f"></path><path d="M286.46,234.4c2.22,5.7-4.72,11.91-10.06,14-9.23,3.6-14.49,2.3-16.85-2-2.13-3.85-.25-14.14,8.62-17.44C277.53,225.5,285.42,231.75,286.46,234.4Z" style="fill:#263238"></path><path d="M342,340.67c-2.07-15.49-7.42-28.87-8.5-30.54-.95-1.49-4-.76-8.79,1a7.42,7.42,0,0,0-.85.73c1.81,8.06,3,18.11,2.63,18.91-.5,1.11-3.53,2.35-5.19,2-1.35-.26-7.26-14.71-9.19-17.58h0c-.77.15-1.58.26-2.38.4-6.72,1.16-7-1.62-8.2.33,0,.47,0,1,0,1.42,0,2.33.14,4.65.28,7,.17,3.34.45,6.68.77,10,.66,6.67,1.6,13.3,2.69,19.92.56,3.3,1.1,6.61,1.76,9.9s1.32,6.58,2,9.86,1.52,6.54,2.26,9.8l1.7,6.76c7,2.53,27.94-1.89,29.74-5.36C343.79,383.13,344.58,360.38,342,340.67ZM304.22,319a1,1,0,1,1,2,0,1,1,0,1,1-2,0Zm.32,8.35a1,1,0,1,1,1,1A1,1,0,0,1,304.54,327.32Zm.35,8.49a1,1,0,0,1,2,0,1,1,0,1,1-2,0Zm1.21,8.55a1,1,0,0,1,1-1,1,1,0,1,1,0,2A1,1,0,0,1,306.1,344.36Zm.89,8.23a1,1,0,0,1,2,0,1,1,0,1,1-2,0Zm1.14,7.49a1,1,0,1,1,1,1A1,1,0,0,1,308.13,360.08Zm1.51,7.51a1,1,0,0,1,2,0,1,1,0,1,1-2,0Zm1.44,7.31a1,1,0,0,1,2,0,1,1,0,1,1-2,0Zm2.3,7.75a1,1,0,1,1,1-1A1,1,0,0,1,313.38,382.65Zm1.85,7a1,1,0,1,1,1-1A1,1,0,0,1,315.23,389.6Z" style="fill:#FFFFFF"></path><g style="opacity:0.2"><path d="M342,340.67c-2.07-15.49-7.42-28.87-8.5-30.54-.95-1.49-4-.76-8.79,1a7.42,7.42,0,0,0-.85.73c1.81,8.06,3,18.11,2.63,18.91-.5,1.11-3.53,2.35-5.19,2-1.35-.26-7.26-14.71-9.19-17.58h0c-.77.15-1.58.26-2.38.4-6.72,1.16-7-1.62-8.2.33,0,.47,0,1,0,1.42,0,2.33.14,4.65.28,7,.17,3.34.45,6.68.77,10,.66,6.67,1.6,13.3,2.69,19.92.56,3.3,1.1,6.61,1.76,9.9s1.32,6.58,2,9.86,1.52,6.54,2.26,9.8l1.7,6.76c7,2.53,27.94-1.89,29.74-5.36C343.79,383.13,344.58,360.38,342,340.67ZM304.22,319a1,1,0,1,1,2,0,1,1,0,1,1-2,0Zm.32,8.35a1,1,0,1,1,1,1A1,1,0,0,1,304.54,327.32Zm.35,8.49a1,1,0,0,1,2,0,1,1,0,1,1-2,0Zm1.21,8.55a1,1,0,0,1,1-1,1,1,0,1,1,0,2A1,1,0,0,1,306.1,344.36Zm.89,8.23a1,1,0,0,1,2,0,1,1,0,1,1-2,0Zm1.14,7.49a1,1,0,1,1,1,1A1,1,0,0,1,308.13,360.08Zm1.51,7.51a1,1,0,0,1,2,0,1,1,0,1,1-2,0Zm1.44,7.31a1,1,0,0,1,2,0,1,1,0,1,1-2,0Zm2.3,7.75a1,1,0,1,1,1-1A1,1,0,0,1,313.38,382.65Zm1.85,7a1,1,0,1,1,1-1A1,1,0,0,1,315.23,389.6Z"></path></g><path d="M342.81,339.93c-2.07-15.49-7.42-28.86-8.5-30.53s-4.49-.14-9.65,1.69c1.82,8.05,3,18.1,2.63,18.9-.49,1.11-3.53,2.36-5.18,2-1.35-.27-7.26-14.72-9.19-17.58h0c-.78.14-1.58.28-2.39.39a41.67,41.67,0,0,1-8.19.34c0,.46,0,.94,0,1.41,0,2.33.15,4.65.29,7,.17,3.35.44,6.68.76,10,.67,6.67,1.6,13.31,2.7,19.93.56,3.3,1.1,6.61,1.76,9.9s1.31,6.58,2,9.86,1.52,6.53,2.26,9.8l1.69,6.75c7.05,2.54,27.94-1.88,29.75-5.36C344.65,382.4,345.43,359.65,342.81,339.93Zm-37.74-21.69a1,1,0,1,1,1,1A1,1,0,0,1,305.07,318.24Zm.32,8.35a1,1,0,1,1,1,1A1,1,0,0,1,305.39,326.59Zm.36,8.49a1,1,0,1,1,1,1A1,1,0,0,1,305.75,335.08Zm1.21,8.54a1,1,0,1,1,1,1A1,1,0,0,1,307,343.62Zm.89,8.24a1,1,0,0,1,2,0,1,1,0,0,1-2,0Zm1.14,7.48a1,1,0,0,1,1-1,1,1,0,1,1,0,2A1,1,0,0,1,309,359.34Zm1.51,7.52a1,1,0,1,1,1,1A1,1,0,0,1,310.5,366.86Zm1.44,7.31a1,1,0,0,1,2,0,1,1,0,0,1-2,0Zm2.29,7.75a1,1,0,1,1,1-1A1,1,0,0,1,314.23,381.92Zm1.86,6.94a1,1,0,1,1,1-1A1,1,0,0,1,316.09,388.86Z" style="fill:#FFFFFF"></path><path d="M194.26,174.49c-3,4.4-1.09,26.15,4.18,28.89s39.34-19.63,40.92-23.18,6.3-25,2.51-24.89S200.37,165.43,194.26,174.49Z" style="fill:#FFFFFF"></path><g style="opacity:0.2"><path d="M235.16,175.5a1,1,0,1,1,.86-.95A1,1,0,0,1,235.16,175.5Zm0,0a.73.73,0,0,0,.62-.92.74.74,0,0,0-1.44.16A.74.74,0,0,0,235.16,175.5Z"></path><path d="M227.21,180.22a1,1,0,1,1,.86-.95A1,1,0,0,1,227.21,180.22Zm0,0a.73.73,0,1,0-.17-1.44.73.73,0,1,0,.17,1.44Z"></path><path d="M219.73,185a1,1,0,1,1-.22-1.91,1,1,0,0,1,1.08,1A1,1,0,0,1,219.73,185Zm0,0a.72.72,0,1,0-.81-.75A.73.73,0,0,0,219.73,185Z"></path><path d="M212.7,189.08a1,1,0,0,1-1-.73,1,1,0,0,1,.83-1.18,1,1,0,1,1,.22,1.91Zm0,0a.72.72,0,1,0-.81-.75A.73.73,0,0,0,212.7,189.08Z"></path><path d="M205.42,192.87a1,1,0,1,1,.85-1A1,1,0,0,1,205.42,192.87Zm0,0a.73.73,0,1,0-.82-.75A.73.73,0,0,0,205.42,192.87Z"></path><path d="M198.34,196.58a1,1,0,0,1-1.05-.73,1,1,0,0,1,.83-1.18,1,1,0,0,1,1.08,1A1,1,0,0,1,198.34,196.58Zm0,0a.73.73,0,0,0,.62-.92.72.72,0,0,0-.79-.52.73.73,0,1,0,.17,1.44Z"></path><path d="M238.76,176.55c-3.07,2.17-6.19,4.26-9.34,6.3s-6.34,4-9.55,6-6.47,3.82-9.77,5.61-6.66,3.49-10.1,5c3.36-1.68,6.65-3.49,9.92-5.33s6.5-3.76,9.71-5.7,6.41-3.91,9.6-5.88S235.6,178.57,238.76,176.55Z"></path></g><path d="M185.74,202.8c-8.6,0-43.82-28.16-43.35-34.64s15.82-20.3,21.67-19.48,25,20.12,27.37,24.39S194.91,202.8,185.74,202.8Z" style="fill:#FFFFFF"></path><g style="opacity:0.2"><path d="M171.47,186.59a1,1,0,0,1,.25-1.25,1,1,0,1,1-.25,1.25Zm0,0a.72.72,0,0,0,1.09.21.74.74,0,0,0,.17-.93.75.75,0,0,0-.89-.33A.73.73,0,0,0,171.47,186.59Z"></path><path d="M165.11,181.38a1,1,0,1,1,1.21.42A1,1,0,0,1,165.11,181.38Zm0,0a.75.75,0,0,0,1.1.21.73.73,0,0,0,.16-.93.72.72,0,0,0-.88-.33A.74.74,0,0,0,165.11,181.38Z"></path><path d="M158.93,176.33a1,1,0,0,1,.25-1.25,1,1,0,1,1-.25,1.25Zm0,0a.72.72,0,1,0,1.25-.72.72.72,0,0,0-.88-.33A.73.73,0,0,0,158.93,176.33Z"></path><path d="M153.19,171.67a1,1,0,1,1,1.21.42A1,1,0,0,1,153.19,171.67Zm0,0a.74.74,0,0,0,1.09.21.74.74,0,0,0-.72-1.26A.74.74,0,0,0,153.19,171.67Z"></path><path d="M169.62,187.27a37,37,0,0,1-5.68-3.59c-1.8-1.34-3.51-2.79-5.19-4.28s-3.28-3.05-4.86-4.64l-2.32-2.44-2.23-2.51,4.81,4.69c1.62,1.53,3.23,3.08,4.91,4.55s3.36,2.94,5.11,4.34c.87.7,1.76,1.37,2.66,2A30.64,30.64,0,0,0,169.62,187.27Z"></path></g><path d="M191.33,205.38c-10.37-1.63-19.41-9.81-19.71-10.65s1.95-3.19,3.48-3.69,12.5,4.4,13.28,3,4.87-15.84,1.87-22.7c-.54-1.24,5.73-.78,6.48.4s1.55,14.07-.61,22.77c-.22.93,15.49-2,16.08-.68s2.08,3.22,1.19,3.89S202,207.07,191.33,205.38Z" style="fill:#37474f"></path><path d="M203.35,211.09s0,0,0,.07c-.69,4.84-6.66,8-13.4,7.14-5.95-.77-10.51-4.45-11.11-8.64a6.63,6.63,0,0,1,0-1.78c.64-4.86,6.65-8.1,13.42-7.22S204,206.22,203.35,211.09Z" style="fill:#263238"></path><path d="M203.34,211.16c-.69,4.84-6.66,8-13.4,7.14-5.95-.77-10.51-4.45-11.11-8.64.69-4.84,6.67-8,13.41-7.16C198.19,203.28,202.74,207,203.34,211.16Z" style="fill:#455a64"></path><path d="M140.65,166.74c2.62,2.65,10-.09,14.8-4.2s10-10.86,8.61-13.86c-1-2.09-6.12-3.34-15.82,3.83S139.37,165.43,140.65,166.74Z" style="fill:#37474f"></path><path d="M119.33,149c5,1.31,20.41-11.42,21.08-16.89.22-1.82-13.77-25.75-18.44-25.75s-22.88,21-20.12,26S116.71,148.34,119.33,149Z" style="fill:#FFFFFF"></path><path d="M101.65,131.92c1.66,1,5-.75,6.81-3.52,2.5-3.89,2.3-6.61,1.12-7.81-.82-.83-4.51-.75-7.45,3.78C99.76,128,100.33,131.15,101.65,131.92Z" style="fill:#37474f"></path><path d="M112.9,115c1.35,1.38,5,.59,7.49-1.61,3.44-3.1,4-5.78,3.13-7.24-.58-1-4.16-1.91-8.18,1.69C112.1,110.78,111.83,113.94,112.9,115Z" style="fill:#37474f"></path><path d="M122.37,105.74c-2.33-3-10-10.59-11.61-10.59-4.58,0-6.75,4.82-5.93,6.79.49,1.17,6.2,11.73,9.07,11.91C118.25,114.12,123.83,107.6,122.37,105.74Z" style="fill:#FFFFFF"></path><path d="M100.37,129.77c-1.67-3.44-5.49-12.68-4.58-15.43s3.09-4.55,4.58-4.19,8.91,8.86,9,11.61S101.76,132.63,100.37,129.77Z" style="fill:#FFFFFF"></path><path d="M104.46,102c1.5,1,4-.4,5.71-2.25,2.17-2.42,1.78-4.82.44-5.59-.87-.49-3.58-.25-5.35,2.54C104,98.7,103.27,101.21,104.46,102Z" style="fill:#37474f"></path><path d="M95.54,115.22c.47,1.44,3.34,1.38,5.21.16,2-1.35,2.8-3.31,1.89-4.38a3.76,3.76,0,0,0-5.14.25C95.86,112.67,95.13,114,95.54,115.22Z" style="fill:#37474f"></path><path d="M104,101.46c-3.49-.47-11-2.27-14.09-5.33-2-2-.75-3.79,1.32-4.15s16.24.45,18.3,2.6S106.86,101.85,104,101.46Z" style="fill:#FFFFFF"></path><path d="M96.05,114.63c-1.19-1.07-.26-9.6.78-11.56s3.31-2.69,4.15-1.36,1.59,9.18,1.2,10.32C101.72,113.4,97.74,116.14,96.05,114.63Z" style="fill:#FFFFFF"></path><path d="M139.19,148.93l8.53,10.67c.41.52,2.3-.3,4.21-1.83s3.13-3.18,2.71-3.7l-8.52-10.67Z" style="fill:#263238"></path><path d="M139.19,148.93c-.41-.52.8-2.18,2.71-3.7s3.8-2.35,4.22-1.83-.81,2.17-2.72,3.7S139.6,149.45,139.19,148.93Z" style="fill:#455a64"></path><path d="M228,211.7c0,2.46,1.21,22,3.39,24.15s11.37,6.15,18.35,7.48c9.27,1.75,21.95-.62,26.92-3.65s12.15-29.65,10.79-30.79-30.13-6.72-41.06-5.6S227.91,209.48,228,211.7Z" style="fill:#37474f"></path><path d="M231.56,234.74a95.63,95.63,0,0,0,10.67,4.66,38.48,38.48,0,0,0,11.37,2.53,58.77,58.77,0,0,0,11.57-.74,108.31,108.31,0,0,0,11.24-2.37,88.61,88.61,0,0,1-11.19,2.55,58.4,58.4,0,0,1-11.62.83,38.72,38.72,0,0,1-11.44-2.63A79.88,79.88,0,0,1,231.56,234.74Z" style="fill:#263238"></path><path d="M231.09,232a102.92,102.92,0,0,0,11.13,4.86,40.45,40.45,0,0,0,11.86,2.64,61.5,61.5,0,0,0,12.06-.78,115,115,0,0,0,11.72-2.47,91.37,91.37,0,0,1-11.67,2.65,61.12,61.12,0,0,1-12.12.87,40.25,40.25,0,0,1-11.92-2.75A83.57,83.57,0,0,1,231.09,232Z" style="fill:#263238"></path><path d="M230.72,229.51a104.57,104.57,0,0,0,11.52,5,41.63,41.63,0,0,0,12.28,2.73,63.46,63.46,0,0,0,12.49-.8,114.23,114.23,0,0,0,12.14-2.57,95.49,95.49,0,0,1-12.09,2.75,63.85,63.85,0,0,1-12.54.9,41.83,41.83,0,0,1-12.35-2.85A84.48,84.48,0,0,1,230.72,229.51Z" style="fill:#263238"></path><path d="M231.14,227.24a102.07,102.07,0,0,0,11.53,5A41.57,41.57,0,0,0,254.94,235a62.86,62.86,0,0,0,12.5-.8,114.57,114.57,0,0,0,12.13-2.57,93.79,93.79,0,0,1-12.09,2.75,63.85,63.85,0,0,1-12.54.9,42.06,42.06,0,0,1-12.34-2.84A85.33,85.33,0,0,1,231.14,227.24Z" style="fill:#263238"></path><path d="M230.77,224.56a107.4,107.4,0,0,0,11.93,5.22,43.2,43.2,0,0,0,12.72,2.83,65.63,65.63,0,0,0,12.93-.83,123,123,0,0,0,12.57-2.66A98.79,98.79,0,0,1,268.4,232a65.36,65.36,0,0,1-13,.92,43.14,43.14,0,0,1-12.78-2.94A90.6,90.6,0,0,1,230.77,224.56Z" style="fill:#263238"></path><path d="M230.15,221.62A110.47,110.47,0,0,0,242.4,227a44.48,44.48,0,0,0,13.06,2.91,67.71,67.71,0,0,0,13.28-.86,123.6,123.6,0,0,0,12.9-2.73,100.15,100.15,0,0,1-12.85,2.91,67.33,67.33,0,0,1-13.34.95,44.35,44.35,0,0,1-13.12-3A91.65,91.65,0,0,1,230.15,221.62Z" style="fill:#263238"></path><path d="M229.67,218.82a113.6,113.6,0,0,0,12.72,5.57,45.89,45.89,0,0,0,13.56,3,69.77,69.77,0,0,0,13.79-.89,128,128,0,0,0,13.4-2.84,105.89,105.89,0,0,1-13.35,3,70.2,70.2,0,0,1-13.85,1,46.23,46.23,0,0,1-13.63-3.14A95.43,95.43,0,0,1,229.67,218.82Z" style="fill:#263238"></path><path d="M229.42,216.14a115.15,115.15,0,0,0,13.07,5.72A47.13,47.13,0,0,0,256.42,225a72.14,72.14,0,0,0,14.18-.91,131.67,131.67,0,0,0,13.75-2.93,109.89,109.89,0,0,1-13.71,3.11,72.43,72.43,0,0,1-14.22,1,47.7,47.7,0,0,1-14-3.22A98.27,98.27,0,0,1,229.42,216.14Z" style="fill:#263238"></path><path d="M229.94,213.36A115.21,115.21,0,0,0,243,219.09a47.45,47.45,0,0,0,13.93,3.11,72.82,72.82,0,0,0,14.17-.92,128.81,128.81,0,0,0,13.76-2.93,106.44,106.44,0,0,1-13.71,3.11,72.43,72.43,0,0,1-14.22,1,47.39,47.39,0,0,1-14-3.22A98.27,98.27,0,0,1,229.94,213.36Z" style="fill:#263238"></path><path d="M230.46,210.58a115.21,115.21,0,0,0,13.07,5.73,47.13,47.13,0,0,0,13.93,3.11,71.29,71.29,0,0,0,14.17-.92,128.78,128.78,0,0,0,13.76-2.92,108.11,108.11,0,0,1-13.71,3.1,71.67,71.67,0,0,1-14.22,1,47.23,47.23,0,0,1-14-3.21A99.63,99.63,0,0,1,230.46,210.58Z" style="fill:#263238"></path><path d="M231,207.81a115.15,115.15,0,0,0,13.07,5.72A47.13,47.13,0,0,0,258,216.64a72.09,72.09,0,0,0,14.17-.91,131.31,131.31,0,0,0,13.76-2.93,109.89,109.89,0,0,1-13.71,3.11,72.43,72.43,0,0,1-14.22,1,47.56,47.56,0,0,1-14-3.22A98.27,98.27,0,0,1,231,207.81Z" style="fill:#263238"></path><path d="M231.5,205a112.64,112.64,0,0,0,13.07,5.72,46.82,46.82,0,0,0,13.93,3.11,72.09,72.09,0,0,0,14.17-.91A128.81,128.81,0,0,0,286.43,210a108.13,108.13,0,0,1-13.71,3.11,72.43,72.43,0,0,1-14.22,1,47.24,47.24,0,0,1-14-3.22A98.27,98.27,0,0,1,231.5,205Z" style="fill:#263238"></path><path d="M246,155.31c-4.53-2-10.49,1.76-13.65,5.9-4.85,6.35-8,24.22-3.19,25.74S251.59,157.75,246,155.31Z" style="fill:#37474f"></path><path d="M263.84,149.44c-10.6,0-24.95,6.22-29.61,17.8-3.75,9.34-9.69,40.53-7.43,53.43.54,3.08,3.69,4.73,3.69,4.73,4.24,0,8.47-14.86,16.08-16,8.94-1.32,11.52,25.7,27.27,23.46,3.18-.45,10.14-5.16,12.41-10,1.91-4.1,10.76-43.4,7-55.73C290.31,157.62,275.26,149.49,263.84,149.44Z" style="fill:#FFFFFF"></path><g style="opacity:0.2"><path d="M281.94,190.8a1.16,1.16,0,1,1-.23-1.53A1.17,1.17,0,0,1,281.94,190.8Zm0,0a.89.89,0,0,0-.39-1.29.89.89,0,0,0-.94,1.48A.89.89,0,0,0,281.94,190.8Z"></path><path d="M279.94,200.53a1.16,1.16,0,1,1-2-1.25,1.16,1.16,0,0,1,1.72-.28A1.17,1.17,0,0,1,279.94,200.53Zm0,0a.88.88,0,1,0-1.33.19A.89.89,0,0,0,279.94,200.53Z"></path><path d="M278,210a1.16,1.16,0,1,1-2-1.25,1.16,1.16,0,1,1,2,1.25Zm0,0a.88.88,0,1,0-1.33.19A.88.88,0,0,0,278,210Z"></path><path d="M276.24,218.75a1.15,1.15,0,0,1-1.48.43,1.17,1.17,0,1,1,1.48-.43Zm0,0a.87.87,0,1,0-1.33.19A.88.88,0,0,0,276.24,218.75Z"></path><path d="M273.8,227.72a1.16,1.16,0,1,1-.23-1.53A1.19,1.19,0,0,1,273.8,227.72Zm0,0a.88.88,0,0,0-.39-1.28.89.89,0,0,0-1.09.34.88.88,0,1,0,1.48.94Z"></path><path d="M284.84,188.33a85.11,85.11,0,0,1-1.5,10.89c-.69,3.6-1.51,7.17-2.38,10.73s-1.87,7.08-2.89,10.6l-1.6,5.25L274.76,231l2.88-10.59c.94-3.54,1.9-7.07,2.76-10.62s1.73-7.11,2.51-10.68c.4-1.78.75-3.58,1.08-5.38S284.65,190.15,284.84,188.33Z"></path></g><path d="M285.17,159.44c4.95-.21,9.14,5.44,10.59,10.44,2.23,7.67-1.29,25.47-6.31,25.15S279.1,159.71,285.17,159.44Z" style="fill:#FFFFFF"></path><path d="M261.17,181.06c-1.48,5.43-5.69,9.15-10,9.16a7.56,7.56,0,0,1-1.95-.25c-4.87-1.32-7.47-7.45-5.79-13.69s7-10.23,11.92-8.9l.19.05C260.32,168.86,262.83,174.9,261.17,181.06Z" style="fill:#263238"></path><path d="M261.17,181.06c-1.48,5.43-5.69,9.15-10,9.16-4.75-1.44-7.24-7.48-5.58-13.62,1.46-5.41,5.67-9.13,9.95-9.17C260.32,168.86,262.83,174.9,261.17,181.06Z" style="fill:#37474f"></path><path d="M258.86,180.33c-.79,3.55-3.05,6-5.35,6a3.11,3.11,0,0,1-1-.17c-2.61-.86-4-4.86-3.1-8.94s3.76-6.68,6.38-5.81l.11,0C258.41,172.37,259.75,176.31,258.86,180.33Z" style="fill:#263238"></path><path d="M249.68,179c-1.43,5.26-5.92,8.63-10,7.51a6.11,6.11,0,0,1-1.44-.61c-3.18-1.8-4.68-6.33-3.44-10.94,1.36-5,5.56-8.35,9.53-7.62l.5.11C248.92,168.58,251.11,173.75,249.68,179Z" style="fill:#FFFFFF"></path><path d="M249.68,179c-1.43,5.26-5.92,8.63-10,7.51a6.11,6.11,0,0,1-1.44-.61c-3.18-1.8-4.68-6.33-3.44-10.94,1.36-5,5.56-8.35,9.53-7.62l.5.11C248.92,168.58,251.11,173.75,249.68,179Z" style="opacity:0.2"></path><path d="M247.69,178.29c-1.36,5-5.53,8.33-9.49,7.63-3.18-1.8-4.68-6.33-3.44-10.94,1.36-5,5.56-8.35,9.53-7.62C247.44,169.17,248.94,173.7,247.69,178.29Z" style="fill:#FFFFFF"></path><path d="M247.69,178.29c-1.36,5-5.53,8.33-9.49,7.63-3.18-1.8-4.68-6.33-3.44-10.94,1.36-5,5.56-8.35,9.53-7.62C247.44,169.17,248.94,173.7,247.69,178.29Z" style="fill:#fff;opacity:0.4"></path><path d="M367.16,188.64c5.56,6.56,5.65,44,.4,47.79s-25.71,1.09-28.87-3.9-.84-32.09.88-36.66S361.23,181.65,367.16,188.64Z" style="fill:#FFFFFF"></path><g style="opacity:0.2"><path d="M363.41,202.27a1,1,0,0,1-1.13.61,1,1,0,0,1-.67-1.28,1,1,0,1,1,1.8.67Zm0,0a.73.73,0,0,0-.53-1,.73.73,0,1,0,.53,1Z"></path><path d="M363.44,210.49a1,1,0,0,1-1.13.6,1,1,0,1,1,1.13-.6Zm0,0a.72.72,0,1,0-1.35-.51.71.71,0,0,0,.31.89A.73.73,0,0,0,363.44,210.49Z"></path><path d="M363.49,218.48a1,1,0,0,1-1.12.6,1,1,0,1,1,.67-1.8A1,1,0,0,1,363.49,218.48Zm0,0a.72.72,0,1,0-1.35-.51.72.72,0,1,0,1.35.51Z"></path><path d="M363.55,225.87a1,1,0,0,1-1.12.6,1,1,0,1,1,.67-1.8A1,1,0,0,1,363.55,225.87Zm0,0a.72.72,0,1,0-1,.38A.74.74,0,0,0,363.55,225.87Z"></path><path d="M365.11,203.26a36.45,36.45,0,0,1,.85,6.67c.11,2.24.09,4.49,0,6.73s-.27,4.47-.49,6.7l-.4,3.34-.51,3.32.55-6.69c.14-2.23.31-4.46.37-6.69s.13-4.47.09-6.7c0-1.11-.06-2.23-.13-3.34A28.64,28.64,0,0,0,365.11,203.26Z"></path></g><path d="M341.9,191.92c5.12,1.35,25-7.58,25.89-13.46s-44.89-38.66-52.13-39c-3.88-.18-1.49,14.89.83,22.51C317.59,165.62,331.32,189.13,341.9,191.92Z" style="fill:#FFFFFF"></path><g style="opacity:0.2"><path d="M316.74,145.88a1,1,0,0,1-.24,1.26,1,1,0,1,1,.24-1.26Zm0,0a.73.73,0,1,0-.36,1.06A.74.74,0,0,0,316.74,145.88Z"></path><path d="M324.27,151.25a1,1,0,1,1-1.21-.4A1,1,0,0,1,324.27,151.25Zm0,0A.73.73,0,1,0,323,152a.73.73,0,1,0,1.25-.74Z"></path><path d="M331.67,156.17a1,1,0,1,1-1.22-.41A1,1,0,0,1,331.67,156.17Zm0,0a.72.72,0,1,0-1.25.73.72.72,0,0,0,.88.32A.74.74,0,0,0,331.67,156.17Z"></path><path d="M338.23,161a1,1,0,1,1-1.21-.4A1,1,0,0,1,338.23,161Zm0,0a.74.74,0,0,0-1.09-.2.73.73,0,1,0,1.09.2Z"></path><path d="M344.64,166.09a1,1,0,1,1-1.21-.4A1,1,0,0,1,344.64,166.09Zm0,0a.74.74,0,0,0-1.09-.2.73.73,0,1,0,1.09.2Z"></path><path d="M350.89,171.07a1,1,0,0,1-.24,1.26,1,1,0,1,1,.24-1.26Zm0,0a.73.73,0,1,0-1.25.74.72.72,0,0,0,.89.31A.73.73,0,0,0,350.89,171.07Z"></path><path d="M316.25,142.16q4.83,2.91,9.54,6t9.32,6.32c3.06,2.19,6.11,4.38,9.08,6.68s5.88,4.69,8.66,7.22C350,166,347,163.71,344,161.46s-6.05-4.43-9.13-6.58-6.16-4.29-9.25-6.41S319.38,144.25,316.25,142.16Z"></path></g><path d="M372,184.52c1.86,10.33-.29,21.53-1,22.09s-4.41-.65-5.37-1.92-1.82-13.38-3.38-13.65-15.5.53-23.08,5.68c-1.11.76-1.6-5.13-.73-6.24s12.77-6.08,21.7-6.91c1-.09-5.85-13.54-5.93-15-.12-2,2.62-3.72,3.55-3.1S370.1,173.87,372,184.52Z" style="fill:#37474f"></path><path d="M356.41,187.7c-1.39-6.69,1.38-12.92,6.19-13.92s9.83,3.61,11.22,10.3S372.45,197,367.64,198,357.8,194.39,356.41,187.7Z" style="fill:#455a64"></path><path d="M368.14,234.57c-.42-3.71-7.88-6.08-14.23-5.84s-14.58,2.35-15.32,5.58c-.52,2.25,2.74,6.4,14.79,6.76S368.35,236.39,368.14,234.57Z" style="fill:#37474f"></path><path d="M364.59,234.05c-3.2-3.21-20.57-.35-23.51,3.52-1,1.28-2.19,26.24,1.37,28.31s30.62-5.53,30.75-10.58S366.28,235.73,364.59,234.05Z" style="fill:#FFFFFF"></path><path d="M352.5,263.45c-.31-1.67-3.39-2.93-6.26-2.53-4,.56-5.74,2.26-5.85,3.73-.09,1,2.08,3.44,6.79,2.8C351,266.94,352.74,264.77,352.5,263.45Z" style="fill:#37474f"></path><path d="M341,265.53c.23,3.32,2.06,12.67,3.22,13.46,3.33,2.27,7.3-.17,7.68-2,.22-1.09,1.28-11.6-.72-13.15C348.15,261.47,340.86,263.46,341,265.53Z" style="fill:#FFFFFF"></path><path d="M352.19,277.13c-.62-1.43-3.14-1.7-5.27-1.18-2.78.69-3.68,2.63-3.08,3.85.39.79,2.48,1.95,5.15.8C350.93,279.75,352.68,278.27,352.19,277.13Z" style="fill:#37474f"></path><path d="M351.72,278.6c2,2.36,5.9,8,6.11,11.76.14,2.53-1.73,2.93-3.3,1.95s-10.39-9.82-10.48-12.44S350.07,276.67,351.72,278.6Z" style="fill:#FFFFFF"></path><path d="M361.56,261c-.36-1.65-3.48-2.8-6.34-2.31-4,.7-5.65,2.45-5.72,3.93-.05,1,2.2,3.37,6.88,2.57C360.16,264.58,361.84,262.35,361.56,261Z" style="fill:#37474f"></path><path d="M350.15,263.51c.34,3.31,2.49,12.59,3.67,13.34,3.4,2.16,7.29-.42,7.61-2.28.18-1.09.88-11.64-1.17-13.12C357.15,259.2,349.93,261.44,350.15,263.51Z" style="fill:#FFFFFF"></path><path d="M361.71,274.73c-.67-1.42-3.19-1.6-5.3-1-2.76.78-3.59,2.75-3,4,.41.77,2.54,1.86,5.17.61C360.55,277.39,362.24,275.85,361.71,274.73Z" style="fill:#37474f"></path><path d="M361.29,276.21c2.09,2.28,6.17,7.76,6.51,11.54.23,2.52-1.63,3-3.23,2.07s-10.72-9.47-10.9-12.09S359.58,274.33,361.29,276.21Z" style="fill:#FFFFFF"></path><path d="M368.87,256.69c-.67-1.48-3.84-1.94-6.43-.9-3.64,1.46-4.84,3.44-4.61,4.85.16,1,2.75,2.73,7,1C368.27,260.31,369.41,257.88,368.87,256.69Z" style="fill:#37474f"></path><path d="M358.62,261.32c1,3.05,4.87,11.36,6.14,11.83,3.64,1.35,6.78-1.86,6.71-3.68-.05-1.06-1.5-11.14-3.74-12.12C364.35,255.85,358,259.42,358.62,261.32Z" style="fill:#FFFFFF"></path><path d="M371.77,269.56c-.92-1.19-3.33-.86-5.2.12-2.44,1.29-2.83,3.31-2,4.32.55.65,2.78,1.25,5-.46C371.2,272.3,372.49,270.51,371.77,269.56Z" style="fill:#37474f"></path><path d="M371.67,271c2.43,1.74,7.37,6.07,8.45,9.57.72,2.33-.94,3.15-2.63,2.6s-12-6.77-12.7-9.2S369.68,269.62,371.67,271Z" style="fill:#FFFFFF"></path><path d="M374.49,251.68c-1-1.16-3.9-.78-5.95.79-2.87,2.21-3.45,4.27-2.89,5.46.39.83,3.12,1.74,6.49-.82C374.85,255,375.25,252.59,374.49,251.68Z" style="fill:#37474f"></path><path d="M366.52,258.34c1.64,2.46,7.16,8.88,8.4,9,3.57.29,5.57-3.34,5.05-4.94-.31-.94-4.11-9.53-6.33-9.85C370.26,252.05,365.5,256.8,366.52,258.34Z" style="fill:#FFFFFF"></path><path d="M379.25,260.63c-1.27-.57-3.09.76-4.17,2.38-1.42,2.12-.85,3.93.28,4.38.73.28,2.8-.21,3.86-2.57C380,263.1,380.25,261.08,379.25,260.63Z" style="fill:#37474f"></path><path d="M379.82,261.87c2.73.35,8.65,1.7,11.06,4.07,1.61,1.57.62,3-1,3.26s-12.71-.23-14.35-1.9S377.58,261.59,379.82,261.87Z" style="fill:#FFFFFF"></path><path d="M304.24,172.57l-13.37-2.81c-.65-.14-1.59,1.7-2.09,4.09s-.39,4.45.26,4.59l13.37,2.81Z" style="fill:#263238"></path><path d="M304.24,172.57c.64.13.76,2.19.26,4.58s-1.44,4.23-2.09,4.1-.76-2.19-.26-4.59S303.59,172.43,304.24,172.57Z" style="fill:#455a64"></path><path d="M255.26,162.68c4.68.79,13.1-7.43,15.85-13.34.19-.4-.68-4.49-1.51-9.5-.48-3.05-1-6.45-1.16-9.58,0-.65-2.16.68-2.16.68l-4,1.25-13.2,4.14a49.72,49.72,0,0,1,2.69,11.91,6.06,6.06,0,0,1-.05,1.29c0,.06,0,.14,0,.22C251.48,152.22,250.74,161.92,255.26,162.68Z" style="fill:#FFFFFF"></path><path d="M251.73,149.53c0,.06,0,.14,0,.22a11.62,11.62,0,0,0,2,0c13.21-1.16,13.76-18.1,13.76-18.1l-5.22.57-13.2,4.14a49.72,49.72,0,0,1,2.69,11.91A6.06,6.06,0,0,1,251.73,149.53Z" style="fill:#263238"></path><path d="M251.72,149.75c-1.63,2.23-3.83,13.13,3.08,14.83,8.22,2,16.34-9.15,17.21-13.75.61-3.25-1.19-4-1.19-4-2.85,7-8.4,15.94-15.41,14.73C251,160.75,251.72,149.75,251.72,149.75Z" style="fill:#37474f"></path><path d="M268.51,127.87a30.05,30.05,0,0,1-8.75,6.31A25,25,0,0,1,241,135.76a21.23,21.23,0,0,1-11.09-8.61c-9-13.4-3.46-46.44,4.95-53.55C247.28,63.1,270,69,275.64,85.77,279.46,97.11,276,120.1,268.51,127.87Z" style="fill:#263238"></path><path d="M250.39,70.81l-18-8.39a10.15,10.15,0,0,1-.19-3c2.17-4.15,9.67-13.12,20.66-12.65,9.46.4,17,6.72,19.65,10a3.36,3.36,0,0,1,.08,1.81s-7.13-4.67-13.15-.92C254.16,60.92,250.39,70.81,250.39,70.81Z" style="fill:#37474f"></path><path d="M250,68.34l-17.73-8.92s7.19-16,20.93-15c12.9.94,19.38,12.35,19.38,12.35s-7-4.88-13.12-1.3C254,58.57,250,68.34,250,68.34Z" style="fill:#455a64"></path><path d="M246.77,108.83c.31,9.82-5.68,18-13.37,18.23s-14.18-7.53-14.49-17.35,5.67-18,13.37-18.23S246.46,99,246.77,108.83Z" style="fill:#37474f"></path><path d="M272.16,131a33.9,33.9,0,0,1-6,4.73l-.11.07c-.38.21-.76.38-1.16.56a29.71,29.71,0,0,1-21.32,1.72A24,24,0,0,1,231,128.75c-10.24-14.55-4-52.77,7.39-59.48l1.34,1.23c-5.43,6.42-6.61,15.06-6.61,15.06l17.14,2,2.56.28s.45-10.56,4.4-15.39A9.9,9.9,0,0,1,258.67,71a16,16,0,0,1,8.53-.43h0a.06.06,0,0,0,0,0,27.41,27.41,0,0,1,13,14.75C284.61,97.63,280.68,122.58,272.16,131Z" style="fill:#FFFFFF"></path><g style="opacity:0.1"><path d="M272.16,131a33.9,33.9,0,0,1-6,4.73l-.11.07c-.38.21-.76.38-1.16.56a29.71,29.71,0,0,1-21.32,1.72A24,24,0,0,1,231,128.75c-10.24-14.55-4-52.77,7.39-59.48l1.34,1.23c-5.43,6.42-6.61,15.06-6.61,15.06l17.14,2,2.56.28s.45-10.56,4.4-15.39A9.9,9.9,0,0,1,258.67,71a16,16,0,0,1,8.53-.43h0a.06.06,0,0,0,0,0,27.41,27.41,0,0,1,13,14.75C284.61,97.63,280.68,122.58,272.16,131Z"></path></g><path d="M272.16,131a33.9,33.9,0,0,1-6,4.73l-.11.07a37.61,37.61,0,0,1-3.86,2.05,29.85,29.85,0,0,1-21.33,1.72,24,24,0,0,1-12.61-9.35c-10.24-14.54-4-50.39,5.62-58.11a24,24,0,0,1,4.47-2.85c-7.22,6.43-8,17.77-8,17.77l19.7,2.24s0-.68.15-1.77c.3-3.22,1.31-10,4.26-13.63A9.57,9.57,0,0,1,258.67,71a16,16,0,0,1,8.53-.43h0a.06.06,0,0,0,0,0,27.41,27.41,0,0,1,13,14.75C284.61,97.63,280.68,122.58,272.16,131Z" style="fill:#FFFFFF"></path><path d="M262.2,137.85a29.79,29.79,0,0,1-21.33,1.72c-.23-.1-.49-.19-.73-.31-13.08-6.09-11.51-24.43-11.51-24.43l20.79.85s-1.27,11,2.07,16.66C254.17,136.84,259.35,137.73,262.2,137.85Z" style="opacity:0.1"></path><path d="M287.89,112.33c-1,10.39-8.35,18.21-16.49,17.45s-13.95-9.79-13-20.19,8.35-18.21,16.49-17.45S288.85,101.93,287.89,112.33Z" style="fill:#37474f"></path><path d="M287.63,112.3c-.8,8.78-7,15.37-13.89,14.73-.12,0-.26,0-.38,0-6.68-.87-11.39-8.38-10.59-17,.73-7.74,5.7-13.82,11.6-14.66a10.48,10.48,0,0,1,2.31,0C283.53,95.92,288.45,103.54,287.63,112.3Z" style="fill:#455a64"></path><path d="M285,112.3c-.73,7.76-5.7,13.84-11.61,14.68-6.68-.87-11.39-8.38-10.59-17,.73-7.74,5.7-13.82,11.6-14.66C281.06,96.2,285.74,103.71,285,112.3Z" style="fill:#263238"></path><path d="M280.8,106.56l-7.35-1.2c-.75-.13-2.6,1.94-3.07,4.7s.61,5.17,1.36,5.29l7.35,1.2Z" style="fill:#37474f"></path><path d="M280.8,106.56c1.32.22,2,2.64,1.53,5.4s-1.92,4.82-3.24,4.59-2-2.64-1.52-5.4S279.49,106.33,280.8,106.56Z" style="fill:#455a64"></path><path d="M308.28,118.46c-.82,8.76-3.33,16.34-13.91,14.72-6.81-1.05-11.77-8.26-10.95-17s7.05-14,13.9-14.72C307.48,100.34,309.09,109.69,308.28,118.46Z" style="fill:#FFFFFF"></path><path d="M308.28,118.46c-.82,8.76-3.33,16.34-13.91,14.72-6.81-1.05-11.77-8.26-10.95-17s7.05-14,13.9-14.72C307.48,100.34,309.09,109.69,308.28,118.46Z" style="opacity:0.1"></path><path d="M311.71,118.46c-.81,8.76-7,15.35-13.9,14.72s-11.77-8.26-11-17,7-15.36,13.9-14.72S312.52,109.69,311.71,118.46Z" style="fill:#FFFFFF"></path><path d="M249.75,108.42c4.47,0,4.09,9-.06,9S246,108.4,249.75,108.42Z" style="fill:#263238"></path><path d="M229.75,107.87c-4.44-.53-5.17,8.4-1.06,8.89S233.47,108.31,229.75,107.87Z" style="fill:#263238"></path><rect x="238.1" y="114.47" width="1" height="11.54" transform="matrix(0.04, -1, 1, 0.04, 109.29, 354.05)" style="fill:#263238"></rect><rect x="370.55" y="176.72" width="1" height="0.5" transform="translate(-21.98 297.48) rotate(-42.54)" style="fill:#FFFFFF"></rect><path d="M373,175.49l-.34-.37,1.44-1.32.34.37Zm2.88-2.64-.34-.37,1.44-1.32.34.36Zm2.88-2.65-.34-.37,1.44-1.32.34.37Zm2.88-2.65-.34-.36,1.44-1.33.34.37Zm2.88-2.64-.34-.37.25-.23h1.81v.5h-1.61Zm29.1-.1h-2v-.5h2Zm-3.91,0h-2v-.5h2Zm-3.91,0h-2v-.5h2Zm-3.92,0h-2v-.5h2Zm-3.91,0h-1.95v-.5H398Zm-3.91,0h-1.95v-.5h1.95Zm-3.91,0h-2v-.5h2Z" style="fill:#FFFFFF"></path><rect x="415.6" y="164.31" width="1" height="0.5" style="fill:#FFFFFF"></rect><path d="M416.53,166.06a1.51,1.51,0,0,0,0-3,1.51,1.51,0,1,0,0,3Z" style="fill:#FFFFFF"></path><rect x="422.81" y="163.11" width="5.65" height="2.52" style="fill:#FFFFFF"></rect><rect x="428.7" y="171.14" width="5.65" height="2.52" style="fill:#FFFFFF"></rect><rect x="430.52" y="163.11" width="10.71" height="2.52" style="fill:#FFFFFF"></rect><rect x="443.21" y="163.11" width="1.8" height="2.52" style="fill:#FFFFFF"></rect><rect x="446.09" y="163.11" width="1.8" height="2.52" style="fill:#FFFFFF"></rect><rect x="448.96" y="163.11" width="1.8" height="2.52" style="fill:#FFFFFF"></rect><rect x="422.81" y="167.09" width="10.71" height="2.52" style="fill:#FFFFFF"></rect><rect x="435.5" y="167.09" width="1.8" height="2.52" style="fill:#FFFFFF"></rect><rect x="438.38" y="167.09" width="1.8" height="2.52" style="fill:#FFFFFF"></rect><rect x="441.26" y="167.09" width="1.8" height="2.52" style="fill:#FFFFFF"></rect><rect x="422.81" y="171.14" width="1.8" height="2.52" style="fill:#FFFFFF"></rect><rect x="425.69" y="171.14" width="1.8" height="2.52" style="fill:#FFFFFF"></rect><rect x="192.82" y="279.94" width="1" height="0.5" transform="translate(-126.38 163.25) rotate(-35.3)" style="fill:#FFFFFF"></rect><path d="M171.31,296.08H170v-.5h1.17l.54-.38.29.41Zm-3.31,0h-2v-.5h2Zm-4,0h-2v-.5h2Zm-4,0h-2v-.5h2Zm-4,0h-2v-.5h2Zm-4,0h-2v-.5h2Zm-4,0h-2v-.5h2Zm-4,0h-2v-.5h2Zm29.44-1.62-.29-.41,1.62-1.15.29.41Zm3.24-2.3-.29-.41,1.62-1.14.29.41Zm3.24-2.29-.29-.41,1.63-1.15.29.41Zm3.25-2.3-.29-.41,1.62-1.14.29.4Zm3.24-2.29-.29-.41,1.62-1.15.29.41Zm3.24-2.3-.29-.41,1.62-1.14.29.4Z" style="fill:#FFFFFF"></path><rect x="139.19" y="295.58" width="1" height="0.5" style="fill:#FFFFFF"></rect><path d="M139.26,294.33a1.5,1.5,0,1,0,1.51,1.5A1.5,1.5,0,0,0,139.26,294.33Z" style="fill:#FFFFFF"></path><rect x="104.68" y="294.56" width="5.65" height="2.52" style="fill:#FFFFFF"></rect><rect x="110.58" y="302.59" width="5.65" height="2.52" style="fill:#FFFFFF"></rect><rect x="112.39" y="294.56" width="10.71" height="2.52" style="fill:#FFFFFF"></rect><rect x="125.08" y="294.56" width="1.8" height="2.52" style="fill:#FFFFFF"></rect><rect x="127.96" y="294.56" width="1.8" height="2.52" style="fill:#FFFFFF"></rect><rect x="130.83" y="294.56" width="1.8" height="2.52" style="fill:#FFFFFF"></rect><rect x="104.68" y="298.54" width="10.71" height="2.52" style="fill:#FFFFFF"></rect><rect x="117.37" y="298.54" width="1.8" height="2.52" style="fill:#FFFFFF"></rect><rect x="120.25" y="298.54" width="1.8" height="2.52" style="fill:#FFFFFF"></rect><rect x="123.13" y="298.54" width="1.8" height="2.52" style="fill:#FFFFFF"></rect><rect x="104.68" y="302.59" width="1.8" height="2.52" style="fill:#FFFFFF"></rect><rect x="107.56" y="302.59" width="1.8" height="2.52" style="fill:#FFFFFF"></rect><rect x="338.55" y="367.9" width="0.5" height="1" transform="translate(-157.6 432.39) rotate(-54.74)" style="fill:#FFFFFF"></rect><path d="M389.94,384.29h-2v-.5h2Zm-4,0h-2v-.5h2Zm-4,0h-2v-.5h2Zm-4,0h-2v-.5h2Zm-4,0h-2v-.5h2Zm-4,0h-2v-.5h2Zm-4,0h-2v-.5h2Zm-4,0h-1.33l-.67-.47.29-.41.54.38h1.17Zm-3.62-1.62-1.62-1.15.29-.41,1.62,1.15Zm-3.24-2.3-1.62-1.14.29-.41,1.62,1.15ZM352,378.08l-1.63-1.15.29-.41,1.62,1.15Zm-3.25-2.3-1.62-1.15.29-.4,1.62,1.14Zm-3.24-2.29-1.62-1.15.29-.41,1.62,1.15Zm-3.24-2.3L340.69,370l.29-.4,1.62,1.14Z" style="fill:#FFFFFF"></path><rect x="391.93" y="383.79" width="1" height="0.5" style="fill:#FFFFFF"></rect><circle cx="392.85" cy="384.04" r="1.5" style="fill:#FFFFFF"></circle><rect x="420.61" y="381.92" width="5.65" height="2.52" style="fill:#FFFFFF"></rect><rect x="401.65" y="385.9" width="5.65" height="2.52" style="fill:#FFFFFF"></rect><rect x="401.6" y="381.92" width="10.71" height="2.52" style="fill:#FFFFFF"></rect><rect x="414.29" y="381.92" width="1.8" height="2.52" style="fill:#FFFFFF"></rect><rect x="417.17" y="381.92" width="1.8" height="2.52" style="fill:#FFFFFF"></rect><rect x="427.75" y="381.92" width="1.8" height="2.52" style="fill:#FFFFFF"></rect><rect x="408.53" y="385.9" width="10.71" height="2.52" style="fill:#FFFFFF"></rect><rect x="420.61" y="385.9" width="1.8" height="2.52" style="fill:#FFFFFF"></rect><rect x="401.6" y="389.95" width="1.8" height="2.52" style="fill:#FFFFFF"></rect><rect x="404.48" y="389.95" width="1.8" height="2.52" style="fill:#FFFFFF"></rect><rect x="307.43" y="116.98" width="0.5" height="1" transform="translate(33.97 300.64) rotate(-54.69)" style="fill:#FFFFFF"></rect><path d="M358.82,133.36h-2v-.5h2Zm-4,0h-2v-.5h2Zm-4,0h-2v-.5h2Zm-4,0h-2v-.5h2Zm-4,0h-2v-.5h2Zm-4,0h-2v-.5h2Zm-4,0h-2v-.5h2Zm-4,0h-1.32l-.67-.47.29-.41.54.38H331Zm-3.61-1.62-1.62-1.15.29-.41,1.62,1.15Zm-3.24-2.3-1.62-1.14.28-.41,1.63,1.15Zm-3.25-2.29L319.29,126l.29-.41,1.62,1.15Zm-3.24-2.3-1.62-1.14.29-.41,1.62,1.15Zm-3.24-2.29-1.62-1.15.29-.41,1.62,1.15Zm-3.24-2.3-1.62-1.14.29-.41,1.62,1.14Z" style="fill:#FFFFFF"></path><rect x="360.81" y="132.86" width="1" height="0.5" style="fill:#FFFFFF"></rect><path d="M361.73,134.61a1.5,1.5,0,1,0-1.5-1.5A1.51,1.51,0,0,0,361.73,134.61Z" style="fill:#FFFFFF"></path><rect x="389.49" y="130.99" width="5.65" height="2.52" style="fill:#FFFFFF"></rect><rect x="370.53" y="134.97" width="5.65" height="2.52" style="fill:#FFFFFF"></rect><rect x="370.48" y="130.99" width="10.71" height="2.52" style="fill:#FFFFFF"></rect><rect x="383.17" y="130.99" width="1.8" height="2.52" style="fill:#FFFFFF"></rect><rect x="386.05" y="130.99" width="1.8" height="2.52" style="fill:#FFFFFF"></rect><rect x="396.63" y="130.99" width="1.8" height="2.52" style="fill:#FFFFFF"></rect><rect x="377.41" y="134.97" width="10.71" height="2.52" style="fill:#FFFFFF"></rect><rect x="389.49" y="134.97" width="1.8" height="2.52" style="fill:#FFFFFF"></rect><rect x="370.48" y="139.02" width="1.8" height="2.52" style="fill:#FFFFFF"></rect><rect x="373.36" y="139.02" width="1.8" height="2.52" style="fill:#FFFFFF"></rect><rect x="230.43" y="89.41" width="0.5" height="1" transform="translate(8.46 199.06) rotate(-47.45)" style="fill:#FFFFFF"></rect><path d="M228.7,88.43l-1.44-1.32.34-.37L229,88.06Zm-2.88-2.64-1.44-1.32.34-.37,1.44,1.32ZM223,83.14l-1.44-1.32.33-.37,1.44,1.33Zm-2.88-2.64-1.44-1.32.34-.37,1.43,1.32Zm-2.88-2.65-1.44-1.32.34-.37,1.44,1.33Zm-2.88-2.64-1.44-1.32.34-.37,1.44,1.32Zm-2.88-2.64L210,71.24l.34-.36,1.44,1.32Zm-2.88-2.65-.09-.09h-1.63v-.5h1.82l.24.22Zm-3.68-.09h-2v-.5h2Zm-3.91,0h-2v-.5h2Zm-3.9,0h-2v-.5h2Zm-3.91,0h-2v-.5h2Zm-3.91,0h-2v-.5h2Zm-3.91,0h-2v-.5h2Zm-3.91,0h-1.95v-.5h1.95Z" style="fill:#FFFFFF"></path><rect x="176.51" y="69.33" width="1" height="0.5" style="fill:#FFFFFF"></rect><circle cx="176.59" cy="69.58" r="1.5" style="fill:#FFFFFF"></circle><rect x="161.87" y="68.52" width="5.65" height="2.52" style="fill:#FFFFFF"></rect><rect x="142.91" y="72.5" width="5.65" height="2.52" style="fill:#FFFFFF"></rect><rect x="142.86" y="68.52" width="10.71" height="2.52" style="fill:#FFFFFF"></rect><rect x="155.55" y="68.52" width="1.8" height="2.52" style="fill:#FFFFFF"></rect><rect x="158.42" y="68.52" width="1.8" height="2.52" style="fill:#FFFFFF"></rect><rect x="169.01" y="68.52" width="1.8" height="2.52" style="fill:#FFFFFF"></rect><rect x="149.78" y="72.5" width="10.71" height="2.52" style="fill:#FFFFFF"></rect><rect x="161.87" y="72.5" width="1.8" height="2.52" style="fill:#FFFFFF"></rect><rect x="142.86" y="76.55" width="1.8" height="2.52" style="fill:#FFFFFF"></rect><rect x="145.73" y="76.55" width="1.8" height="2.52" style="fill:#FFFFFF"></rect></g><g id="freepik--robotic-arm--inject-425"><path d="M87.59,194.33l-11.43-7.18L57.3,214.92a8,8,0,0,0,2.28,11.31h0a8,8,0,0,0,11.18-2.85Z" style="fill:#FFFFFF"></path><path d="M78,266.41c8.91,8.5,33.36,29.25,43.22,40.79a9,9,0,0,1-.92,12.08c-4.58,4.05-9.54,2.41-12.87-.59-10-9-33.35-31.67-43-43.39-2.84-3.46-1.41-8.77,2.34-11.23h0C70.55,261.62,74.79,263.32,78,266.41Z" style="fill:#37474f"></path><rect x="47.15" y="402.33" width="137.55" height="23.79" rx="11.09" style="fill:#455a64"></rect><polygon points="153.65 359.62 78.19 359.62 63.83 402.33 168 402.33 153.65 359.62" style="fill:#455a64"></polygon><polygon points="168 402.33 164.21 391.06 67.63 391.06 63.84 402.33 168 402.33" style="fill:#263238"></polygon><path d="M115.92,304h0A10.69,10.69,0,0,0,105.25,314l-4.37,47.46a15.08,15.08,0,0,0,15,16.15h0a15.08,15.08,0,0,0,15-16.15L126.59,314A10.7,10.7,0,0,0,115.92,304Z" style="fill:#FFFFFF"></path><path d="M103.31,374.22a17.23,17.23,0,0,0,29.8-13l-.09-.93-3.15-34.22-1.14-12.36a12.72,12.72,0,0,0-2.44-6.6,12.83,12.83,0,0,0-23.19,6.65l-4.28,46.53-.09.89A17.33,17.33,0,0,0,103.31,374.22Zm6.63-65.58a3.93,3.93,0,0,1,.61-.54,4.1,4.1,0,0,1,.58-.45,8.29,8.29,0,0,1,1.55-.84,5.44,5.44,0,0,1,.71-.26h0a6.87,6.87,0,0,1,.81-.22l.15,0,.69-.1c.29,0,.58,0,.86,0s.52,0,.77,0a1.57,1.57,0,0,1,.37.05,3.08,3.08,0,0,1,.53.08l.26.06a4,4,0,0,1,.59.16,6.26,6.26,0,0,1,.61.21.06.06,0,0,1,0,0l.27.11.4.2a3.22,3.22,0,0,1,.37.2h0c.17.09.33.21.5.32a4.26,4.26,0,0,1,.65.49,3.86,3.86,0,0,1,.6.54,6.44,6.44,0,0,1,.55.61,8.44,8.44,0,0,1,2,4.85l.93,10.19,3.33,36,.12,1.28v.2c0,.24,0,.49,0,.75a14.42,14.42,0,0,1-.12,1.75c0,.15-.06.33-.08.5s-.13.63-.21.94a.19.19,0,0,0,0,.08A12.93,12.93,0,0,1,103,363a.41.41,0,0,1,0-.11v0a11.21,11.21,0,0,1,0-1.29,6,6,0,0,1,0-.61l.06-.62,4.25-46.19a8.36,8.36,0,0,1,2-4.89A5.23,5.23,0,0,1,109.94,308.64Z" style="fill:#FFFFFF"></path><path d="M103.31,374.22a17.23,17.23,0,0,0,29.8-13l-.09-.93-3.15-34.22-1.14-12.36a12.72,12.72,0,0,0-2.44-6.6,12.83,12.83,0,0,0-23.19,6.65l-4.28,46.53-.09.89A17.33,17.33,0,0,0,103.31,374.22Zm6.63-65.58a3.93,3.93,0,0,1,.61-.54,4.1,4.1,0,0,1,.58-.45,8.29,8.29,0,0,1,1.55-.84,5.44,5.44,0,0,1,.71-.26h0a6.87,6.87,0,0,1,.81-.22l.15,0,.69-.1c.29,0,.58,0,.86,0s.52,0,.77,0a1.57,1.57,0,0,1,.37.05,3.08,3.08,0,0,1,.53.08l.26.06a4,4,0,0,1,.59.16,6.26,6.26,0,0,1,.61.21.06.06,0,0,1,0,0l.27.11.4.2a3.22,3.22,0,0,1,.37.2h0c.17.09.33.21.5.32a4.26,4.26,0,0,1,.65.49,3.86,3.86,0,0,1,.6.54,6.44,6.44,0,0,1,.55.61,8.44,8.44,0,0,1,2,4.85l.93,10.19,3.33,36,.12,1.28v.2c0,.24,0,.49,0,.75a14.42,14.42,0,0,1-.12,1.75c0,.15-.06.33-.08.5s-.13.63-.21.94a.19.19,0,0,0,0,.08A12.93,12.93,0,0,1,103,363a.41.41,0,0,1,0-.11v0a11.21,11.21,0,0,1,0-1.29,6,6,0,0,1,0-.61l.06-.62,4.25-46.19a8.36,8.36,0,0,1,2-4.89A5.23,5.23,0,0,1,109.94,308.64Z" style="opacity:0.1"></path><circle cx="115.92" cy="362.56" r="12.93" transform="translate(-258.06 433.46) rotate(-83)" style="fill:#37474f"></circle><path d="M125,362.56a9.06,9.06,0,1,0-9.06,9.07A9.06,9.06,0,0,0,125,362.56Z" style="fill:#455a64"></path><path d="M124.38,314.62a8.46,8.46,0,1,0-8.46,8.46A8.46,8.46,0,0,0,124.38,314.62Z" style="fill:#37474f"></path><path d="M121.85,314.62a5.93,5.93,0,1,0-5.93,5.93A5.93,5.93,0,0,0,121.85,314.62Z" style="fill:#455a64"></path><path d="M71.35,218.33l7.13,50.23a8.11,8.11,0,0,1-6.89,9.17h0a8.1,8.1,0,0,1-9.17-6.89L55.29,220.6a8.11,8.11,0,0,1,6.89-9.16h0A8.1,8.1,0,0,1,71.35,218.33Z" style="fill:#455a64"></path><path d="M67.91,267.63a3,3,0,1,1,.76,4.22A3,3,0,0,1,67.91,267.63Z" style="fill:#37474f"></path><path d="M60.8,217.48a3,3,0,1,1,.76,4.21A3,3,0,0,1,60.8,217.48Z" style="fill:#37474f"></path><rect x="73.97" y="186.39" width="18.33" height="4.72" transform="translate(113.15 -15.3) rotate(32.14)" style="fill:#455a64"></rect><rect x="82.61" y="169.94" width="13.25" height="18.21" transform="translate(108.92 -20.03) rotate(32.14)" style="fill:#37474f"></rect><rect x="83.25" y="162.76" width="26.59" height="9.28" transform="translate(103.85 -25.71) rotate(32.14)" style="fill:#455a64"></rect><path d="M91.58,164.29a2.29,2.29,0,1,0-3.15.72A2.29,2.29,0,0,0,91.58,164.29Z" style="fill:#37474f"></path><path d="M105.38,173a2.29,2.29,0,1,0-3.16.72A2.28,2.28,0,0,0,105.38,173Z" style="fill:#37474f"></path><polygon points="93.85 135.54 87.8 131.74 89.85 157.72 98.83 163.36 93.85 135.54" style="fill:#37474f"></polygon><polygon points="106.51 125.15 103.38 123.18 87.8 131.74 93.85 135.54 106.51 125.15" style="fill:#37474f"></polygon><polygon points="126.41 156 132.46 159.8 108.17 169.23 99.19 163.59 126.41 156" style="fill:#37474f"></polygon><polygon points="130.28 140.09 133.41 142.05 132.46 159.8 126.41 156 130.28 140.09" style="fill:#37474f"></polygon></g></svg>