<svg id="Layer_1" data-name="Layer 1" xmlns="http://www.w3.org/2000/svg" viewBox="0 0 400 300" width="406" height="306" class="illustration styles_illustrationTablet__1DWOa"><circle cx="199.77" cy="151.68" r="115.65" fill="#e6e6e6" opacity="0.3"></circle><path d="M172.55,64.61s36.86-8.89,45.42,9-39.49,52.57-66,11.77Z" fill="#f4a28c"></path><path d="M172.55,64.61s36.86-8.89,45.42,9-39.49,52.57-66,11.77Z" opacity="0.1"></path><rect x="178.91" y="51.69" width="50.78" height="90.24" transform="translate(203.51 -129.26) rotate(64.45)" fill="#e6e6e6"></rect><rect x="186.67" y="61.32" width="42.52" height="67.51" transform="translate(204.01 -133.53) rotate(64.45)" fill="#fff"></rect><rect x="181.13" y="99.72" width="20.12" height="8.25" transform="translate(202.41 -113.44) rotate(64.45)" fill="#24285b"></rect><circle cx="220.09" cy="89.26" r="13.91" fill="#ffd200"></circle><path d="M191.68,72.69S212.42,79.75,214,86.31c1.32,5.42-8.48,10.11-21.76,3.28a21.09,21.09,0,0,0-17.49-.9c-4.71,1.87-10.85,3-17.16.29-13.27-5.61-9.22-16.42,2.86-21S176.3,62.3,191.68,72.69Z" fill="#f4a28c"></path><polygon points="162.03 93.47 87.67 122.64 75.48 76.13 157.41 63.27 162.03 93.47" fill="#688ffc"></polygon><polygon points="82.91 104.48 159.82 79.05 162.03 93.47 87.67 122.64 82.91 104.48" opacity="0.1"></polygon><circle cx="236.99" cy="68.84" r="1.55" fill="#a8a8a8"></circle><rect x="234.16" y="79.7" width="16.35" height="1.41" rx="0.7" transform="translate(210.34 -172.91) rotate(64.45)" fill="#a8a8a8"></rect><circle cx="170.31" cy="111.73" r="4.94" fill="#a8a8a8"></circle><path d="M221.78,182.88s-37.17-7.51-45.06,10.7,41.43,51.06,66.43,9.3Z" fill="#f4a28c"></path><path d="M221.78,182.88s-37.17-7.51-45.06,10.7,41.43,51.06,66.43,9.3Z" opacity="0.1"></path><rect x="165.87" y="171.12" width="50.78" height="90.24" transform="translate(465.7 126.68) rotate(113.42)" fill="#e6e6e6"></rect><text transform="matrix(0.43, 0.9, -0.9, 0.43, 212.02, 86.31)" font-size="18.45" fill="#fff" font-family="Panton-Black, Panton Black" font-weight="800">$</text><rect x="166.3" y="180.89" width="42.52" height="67.51" transform="translate(459.06 127.84) rotate(113.42)" fill="#fff"></rect><rect x="196.16" y="217.48" width="19.94" height="10.35" transform="translate(492.36 122) rotate(113.42)" fill="#24285b"></rect><circle cx="178.52" cy="210.73" r="13.91" fill="#ffd200"></circle><text transform="translate(180.67 219.05) rotate(-60.07)" font-size="18.45" fill="#fff" font-family="Panton-Black, Panton Black" font-weight="800">$</text><path d="M203,191.67s-20.45,7.82-21.8,14.44C180,211.58,190,215.9,203,208.58A21.11,21.11,0,0,1,220.47,207c4.77,1.7,10.95,2.56,17.16-.34,13.05-6.1,8.6-16.76-3.65-20.92S218,180.71,203,191.67Z" fill="#f4a28c"></path><polygon points="233.37 211.33 308.76 237.71 319.21 190.78 236.86 180.98 233.37 211.33" fill="#24285b"></polygon><polygon points="312.84 219.39 235.04 196.84 233.37 211.33 308.76 237.71 312.84 219.39" opacity="0.1"></polygon><circle cx="225.77" cy="229.88" r="4.94" fill="#a8a8a8"></circle><path d="M237.1,117.74s20,21.78-5.69,34c-22.63,10.76-43.6-6.39-42.31,26.84" fill="none" stroke="#a8a8a8" stroke-linecap="round" stroke-linejoin="round" stroke-width="2" stroke-dasharray="1 10"></path></svg>