<svg id="Layer_1" data-name="Layer 1" xmlns="http://www.w3.org/2000/svg" viewBox="0 0 400 300" width="406" height="306" class="illustration styles_illustrationTablet__1DWOa"><title>_</title><circle cx="116.34" cy="162.03" r="70.33" fill="#e6e6e6" opacity="0.3"></circle><circle cx="290.13" cy="162.03" r="70.33" fill="#e6e6e6" opacity="0.3"></circle><path d="M71,153.56S78.92,116.2,98.9,116.2s30.61,58.72-18,65.11Z" fill="#f4a28c"></path><path d="M71,153.56S78.92,116.2,98.9,116.2s30.61,58.72-18,65.11Z" opacity="0.1"></path><rect x="88.47" y="48.26" width="76.46" height="135.88" fill="#e6e6e6"></rect><rect x="94.68" y="59.31" width="64.03" height="101.65" fill="#fff"></rect><rect x="107.6" y="131.33" width="37.05" height="15.37" fill="#24285b"></rect><path d="M111.57,127.56s8.5,5.11,5.24,12.68-13.22,12.18-13.37,22.13,0,21.77,0,21.77h-15V161Z" opacity="0.1"></path><path d="M86.63,139.68s15.42-15.77,22.08-14.37c5.5,1.16,5.51,12.1-6.47,21.2A21.26,21.26,0,0,0,93.82,162c-.34,5.09-2,11.14-7.19,15.72C75.77,187.35,67.71,179,68.76,166S70.51,149.15,86.63,139.68Z" fill="#f4a28c"></path><polygon points="92.63 175.65 86.84 255.88 39.28 246.75 63.19 166.73 92.63 175.65" fill="#688ffc"></polygon><polygon points="68.27 252.32 78.58 171.39 92.63 175.65 86.84 255.88 68.27 252.32" opacity="0.1"></polygon><circle cx="109.93" cy="53.62" r="2.33" fill="#a8a8a8"></circle><rect x="116.81" y="52.81" width="24.61" height="2.12" rx="1.04" fill="#a8a8a8"></rect><circle cx="124.89" cy="172.06" r="7.44" fill="#a8a8a8"></circle><path d="M333.73,143.33s3.38-42.15-18.3-45.72-24.38,57.86-5.81,58.78S333.73,143.33,333.73,143.33Z" fill="#f4a28c"></path><path d="M309.62,156.39c18.58.92,24.11-13.06,24.11-13.06s3.38-42.15-18.3-45.72" opacity="0.1"></path><path d="M236.83,157.35h80.55V93.11h0a5.41,5.41,0,0,0-5.19-5.6H236.83c-4,0-7.2,3.48-7.2,7.78v54.28C229.63,153.87,232.85,157.35,236.83,157.35Z" fill="#b3b3b3"></path><rect x="231.12" y="58.65" width="41.91" height="75.4" transform="translate(514.58 158.9) rotate(172.48)" fill="#ffd200"></rect><rect x="234.67" y="62.67" width="34.8" height="67.36" transform="translate(514.58 158.9) rotate(172.48)" fill="#fff" opacity="0.46"></rect><rect x="252.55" y="45.84" width="41.91" height="75.4" transform="translate(555.59 130.57) rotate(172.48)" fill="#ffd200"></rect><rect x="256.11" y="49.85" width="34.8" height="67.36" transform="translate(555.59 130.57) rotate(172.48)" fill="#fff" opacity="0.46"></rect><rect x="271.88" y="56.34" width="41.91" height="75.4" transform="translate(568.68 230.07) rotate(-171.55)" fill="#ffd200"></rect><rect x="275.44" y="60.36" width="34.8" height="67.36" transform="translate(568.68 230.07) rotate(-171.55)" fill="#fff" opacity="0.46"></rect><path d="M317.38,93.11V163H247.29a11.68,11.68,0,0,1-9.84-5.6,13.48,13.48,0,0,1-2.09-7.26V106a13.43,13.43,0,0,1,1.48-6.19,11.79,11.79,0,0,1,10.45-6.67Z" fill="#e6e6e6"></path><path d="M236.14,120.74h26.61a0,0,0,0,1,0,0v14.59a0,0,0,0,1,0,0H236.14a7.29,7.29,0,0,1-7.29-7.29v0A7.29,7.29,0,0,1,236.14,120.74Z" transform="translate(491.6 256.06) rotate(180)" fill="#24285b"></path><circle cx="253.29" cy="128.03" r="3.71" fill="#688ffc"></circle><path d="M316.56,157.35c0,1.91-.05,3.79-.1,5.6h-19a36.73,36.73,0,0,1,1.58-5.6,27.1,27.1,0,0,1,2.43-5c1.6-2.54,4.78-13.78,2.73-23a18.55,18.55,0,0,0-.66-2.38,12.13,12.13,0,0,1-.44-1.63,7.54,7.54,0,0,1,2-7.39,10.53,10.53,0,0,1,3.55-2.25,8.88,8.88,0,0,1,1.33-.44C315.69,119,316.75,139.63,316.56,157.35Z" opacity="0.1"></path><path d="M328.8,134s-5.87-21.26-12.38-23.25c-5.37-1.65-10.66,7.92-4.59,21.68a21.22,21.22,0,0,1-.12,17.64c-2.16,4.62-3.62,10.73-1.31,17.23,4.86,13.68,18.16,12.16,23.52.29S338.33,150.05,328.8,134Z" fill="#f4a28c"></path><polygon points="307.37 168.7 313.16 248.93 360.72 239.8 336.81 159.78 307.37 168.7" fill="#688ffc"></polygon><polygon points="331.73 245.36 321.42 164.44 307.37 168.7 313.16 248.93 331.73 245.36" opacity="0.1"></polygon><path d="M172.11,102.48s19.51-14,44.69.4" fill="none" stroke="#a8a8a8" stroke-linecap="round" stroke-linejoin="round" stroke-width="2" stroke-dasharray="1 5"></path><g opacity="0.08"><circle cx="126.12" cy="97.35" r="20.72"></circle></g><circle cx="126.12" cy="97.35" r="20.72" fill="#ffd200"></circle><path d="M126.79,88.08c.59,0,.77.21.77.79v1.25a5.71,5.71,0,0,1,4.69,3.54c.3.61.18,1-.51,1.25l-1.25.56c-.59.28-.87.15-1.2-.46a3.2,3.2,0,0,0-3.26-2c-2.17,0-3.16.64-3.16,2.09a1.94,1.94,0,0,0,1.76,1.71,15.09,15.09,0,0,0,1.83.28,12.14,12.14,0,0,1,3.39.66,4.57,4.57,0,0,1,1.51.82,4.91,4.91,0,0,1,1.35,3.56c0,2.78-1.86,4.67-5.15,5.15v1.33c0,.58-.18.79-.77.79h-1.4c-.58,0-.79-.21-.79-.79v-1.3a5.8,5.8,0,0,1-5.1-3.93.83.83,0,0,1,.59-1.17l1.25-.46c.64-.23.92-.07,1.2.56a3.32,3.32,0,0,0,3.44,2.14c2.34,0,3.51-.74,3.51-2.24a1.56,1.56,0,0,0-1.09-1.58,8.67,8.67,0,0,0-2.52-.48,11.31,11.31,0,0,1-3.42-.74,5,5,0,0,1-1.48-.84,4.67,4.67,0,0,1-1.37-3.47c0-2.75,1.73-4.59,5-5V88.87c0-.58.21-.79.79-.79Z" fill="#fff"></path><polyline points="218.24 98.39 220.67 104.88 212.55 107.81" fill="none" stroke="#a8a8a8" stroke-linecap="round" stroke-linejoin="round" stroke-width="2" stroke-dasharray="1 5"></polyline></svg>