<svg width="222" height="178" viewBox="0 0 222 178" fill="none" xmlns="http://www.w3.org/2000/svg">
<path d="M14 134.581V30.3115L26.8136 16H140V81.4242C127.898 95.0543 102.841 124.768 99.4237 134.581C96.0068 144.395 41.0508 138.67 14 134.581Z" fill="#2196F3" fill-opacity="0.15"/>
<path d="M0 131.738V27.6144L12.6998 13.323H124.881V78.6554C112.887 92.2663 88.0517 121.938 84.6651 131.738C81.2785 141.538 26.8106 135.821 0 131.738Z" fill="#7121F3"/>
<path d="M9 49.1818V30.9091H87.6818V49.1818H59.4545V124H37.2727V49.1818H9Z" fill="white"/>
<path d="M72.9939 119.468C71.3234 119.468 69.8405 119.19 68.545 118.633C67.2609 118.065 66.2439 117.212 65.4939 116.076C64.7552 114.928 64.3859 113.491 64.3859 111.763C64.3859 110.309 64.6416 109.082 65.153 108.082C65.6643 107.082 66.3689 106.269 67.2666 105.644C68.1643 105.019 69.1984 104.548 70.3689 104.229C71.5393 103.9 72.7893 103.678 74.1189 103.565C75.6075 103.428 76.8064 103.286 77.7155 103.138C78.6246 102.979 79.2837 102.758 79.6927 102.474C80.1132 102.178 80.3234 101.763 80.3234 101.229V101.144C80.3234 100.269 80.0223 99.593 79.42 99.1157C78.8177 98.6385 78.0052 98.3998 76.9825 98.3998C75.8802 98.3998 74.9939 98.6385 74.3234 99.1157C73.653 99.593 73.2268 100.252 73.045 101.093L65.3575 100.82C65.5848 99.2294 66.17 97.8089 67.1132 96.5589C68.0677 95.2976 69.3746 94.3089 71.0337 93.593C72.7041 92.8658 74.7098 92.5021 77.0507 92.5021C78.7212 92.5021 80.2609 92.701 81.67 93.0987C83.0791 93.4851 84.3064 94.0532 85.3518 94.8032C86.3973 95.5419 87.2041 96.451 87.7723 97.5305C88.3518 98.6101 88.6416 99.843 88.6416 101.229V119.025H80.8007V115.377H80.5962C80.1302 116.263 79.5337 117.013 78.8064 117.627C78.0905 118.241 77.2439 118.701 76.2666 119.008C75.3007 119.315 74.2098 119.468 72.9939 119.468ZM75.5677 114.013C76.4655 114.013 77.2723 113.832 77.9882 113.468C78.7155 113.104 79.295 112.604 79.7268 111.968C80.1587 111.32 80.3746 110.57 80.3746 109.718V107.229C80.1359 107.354 79.8462 107.468 79.5052 107.57C79.1757 107.673 78.8121 107.769 78.4143 107.86C78.0166 107.951 77.6075 108.031 77.1871 108.099C76.7666 108.167 76.3632 108.229 75.9768 108.286C75.1927 108.411 74.5223 108.604 73.9655 108.866C73.42 109.127 72.9996 109.468 72.7041 109.888C72.42 110.298 72.278 110.786 72.278 111.354C72.278 112.218 72.5848 112.877 73.1984 113.332C73.8234 113.786 74.6132 114.013 75.5677 114.013ZM101.255 112.156L101.289 102.218H102.448L109.812 92.843H119.255L108.312 106.275H106.113L101.255 112.156ZM93.7382 119.025V84.1157H102.073V119.025H93.7382ZM110 119.025L103.147 108.15L108.636 102.235L119.63 119.025H110ZM122.238 119.025V92.843H130.335V97.6157H130.608C131.085 95.8885 131.863 94.6044 132.943 93.7635C134.022 92.9112 135.278 92.4851 136.71 92.4851C137.096 92.4851 137.494 92.5135 137.903 92.5703C138.312 92.6157 138.693 92.6896 139.045 92.7919V100.036C138.647 99.8998 138.125 99.7919 137.477 99.7123C136.84 99.6328 136.272 99.593 135.772 99.593C134.784 99.593 133.892 99.8146 133.096 100.258C132.312 100.69 131.693 101.298 131.238 102.082C130.795 102.854 130.573 103.763 130.573 104.809V119.025H122.238ZM142.441 119.025V92.843H150.777V119.025H142.441ZM146.617 89.7919C145.447 89.7919 144.441 89.4055 143.6 88.6328C142.76 87.8487 142.339 86.9055 142.339 85.8032C142.339 84.7123 142.76 83.7805 143.6 83.0078C144.441 82.2237 145.447 81.8317 146.617 81.8317C147.799 81.8317 148.805 82.2237 149.635 83.0078C150.475 83.7805 150.896 84.7123 150.896 85.8032C150.896 86.9055 150.475 87.8487 149.635 88.6328C148.805 89.4055 147.799 89.7919 146.617 89.7919ZM156.082 119.025V92.843H164.417V119.025H156.082ZM160.258 89.7919C159.088 89.7919 158.082 89.4055 157.241 88.6328C156.4 87.8487 155.98 86.9055 155.98 85.8032C155.98 84.7123 156.4 83.7805 157.241 83.0078C158.082 82.2237 159.088 81.8317 160.258 81.8317C161.44 81.8317 162.446 82.2237 163.275 83.0078C164.116 83.7805 164.536 84.7123 164.536 85.8032C164.536 86.9055 164.116 87.8487 163.275 88.6328C162.446 89.4055 161.44 89.7919 160.258 89.7919ZM169.723 119.025V92.843H177.649V97.6498H177.938C178.484 96.0589 179.404 94.8032 180.7 93.8828C181.995 92.9623 183.541 92.5021 185.336 92.5021C187.154 92.5021 188.711 92.968 190.007 93.8998C191.302 94.8317 192.126 96.0817 192.478 97.6498H192.751C193.24 96.093 194.194 94.8487 195.615 93.9169C197.035 92.9737 198.711 92.5021 200.643 92.5021C203.12 92.5021 205.132 93.2976 206.677 94.8885C208.223 96.468 208.995 98.6385 208.995 101.4V119.025H200.66V103.309C200.66 102.002 200.325 101.008 199.654 100.326C198.984 99.6328 198.115 99.2862 197.046 99.2862C195.899 99.2862 194.995 99.6612 194.336 100.411C193.688 101.15 193.365 102.144 193.365 103.394V119.025H185.353V103.224C185.353 102.008 185.024 101.048 184.365 100.343C183.706 99.6385 182.836 99.2862 181.757 99.2862C181.029 99.2862 180.387 99.4623 179.831 99.8146C179.274 100.156 178.836 100.644 178.518 101.281C178.211 101.917 178.058 102.667 178.058 103.531V119.025H169.723Z" fill="white"/>
</svg>
