<svg id="Layer_1" data-name="Layer 1" xmlns="http://www.w3.org/2000/svg" viewBox="0 0 400 300" width="406" height="306" class="illustration styles_illustrationTablet__1DWOa"><title>#77_marketing_twocolour</title><rect x="74.27" y="49.24" width="251.46" height="163.38" fill="#c9c9c9" opacity="0.86"></rect><polygon points="181 193.96 171.45 254.63 235.15 254.63 220.5 193.96 181 193.96" fill="#c9c9c9"></polygon><path d="M196.58,49.77H210s-2.94,9.2-6.73,14.88,8.58,13.95,8.58,13.95l46.62-29.27,14.5-.09S289,79.67,276.24,92s-42.39,5.33-43.39,14.33S250.51,133,250.51,133L311,87.3s12.56,8.12,1.56,16.41-39.91,59.12-59.45,59.54-24.88-7.32-20.55,12.05h-30l-7.33-73.86L185.33,78.6l6.24-26.2Z" opacity="0.08"></path><ellipse cx="201.54" cy="263.5" rx="104.35" ry="12.28" fill="#e6e6e6" opacity="0.45"></ellipse><path d="M269.8,251s-9.05-2.47-11-10.89c0,0,14-2.83,14.42,11.64Z" fill="#68e1fd" opacity="0.58"></path><path d="M270.91,250.09s-6.32-10-.76-19.34c0,0,10.65,6.77,5.92,19.36Z" fill="#68e1fd" opacity="0.73"></path><path d="M272.53,250.09s3.34-10.55,13.44-12.55c0,0,1.89,6.85-6.54,12.58Z" fill="#68e1fd"></path><polygon points="265.97 249.86 267.81 262.4 279.36 262.45 281.06 249.92 265.97 249.86" fill="#24285b"></polygon><path d="M300.65,88.39s6.31-7,10.85-6.61,7,9-7.15,14.13Z" fill="#f4a28c"></path><rect x="299.97" y="21.49" width="58.84" height="50.46" fill="#c9c9c9"></rect><path d="M231.61,86.55l21.45,35.89,46.45-33.6,8.34,6.29-46.2,49.49a16.87,16.87,0,0,1-25.08-.48l-23-26.66Z" fill="#68e1fd"></path><path d="M231.61,86.55l21.45,35.89,46.45-33.6,8.34,6.29-46.2,49.49a16.87,16.87,0,0,1-25.08-.48l-23-26.66Z" fill="#fff" opacity="0.46"></path><rect x="74.27" y="175.3" width="251.46" height="37.32" fill="#e6e6e6"></rect><circle cx="201.4" cy="191.73" r="10.1" fill="#a5a5a5"></circle><rect x="156.91" y="244" width="89.59" height="19.5" fill="#e6e6e6"></rect><path d="M196.44,48.15s.79,7-.27,11.64a3.53,3.53,0,0,1-4.23,2.65c-2.35-.57-5.35-2-6.23-5.69l-2.25-6.07a6.28,6.28,0,0,1,2.6-6.79C189.94,41,196.17,43.89,196.44,48.15Z" fill="#f4a28c"></path><polygon points="184.75 52.4 179.09 74.65 191.57 76.9 190.68 59.81 184.75 52.4" fill="#f4a28c"></polygon><path d="M182.7,56.13h0a.66.66,0,0,0,.52.63,4.64,4.64,0,0,0,5.18-2.19,5.83,5.83,0,0,0-.16-6.41,27.48,27.48,0,0,0,6.47.33,6.67,6.67,0,0,0,2.12-.48l1.67-5.31s2.75-5.32-.37-6.39-4.51,2.5-7.07,0-3.15-3.43-5.73-2,.42,3.44-3.83,3.5-4.31,1.82-4.31,3.75a3.38,3.38,0,0,0,.84,1.77A21.51,21.51,0,0,1,182.7,56.13Z" fill="#24285b"></path><path d="M189.15,54.34S189,51.65,187,51.91s-1.87,4.15.89,4.45Z" fill="#f4a28c"></path><path d="M196.71,52.57l2,2.64a1.12,1.12,0,0,1-.66,1.78l-2.66.58Z" fill="#f4a28c"></path><path d="M190.76,62.08s-1.61-.27-4.5-2.89c0,0-.42,4.56,4.8,7.92Z" fill="#ce8172" opacity="0.31"></path><path d="M147.07,94.72A21.18,21.18,0,0,1,164.8,76.49c13.9-2.2,36-3.75,57,3,34.25,11-6.5,83.75-6.5,83.75H165.1S142.44,131.48,147.07,94.72Z" fill="#68e1fd"></path><polygon points="165.1 163.25 169.27 175.3 220.27 175.3 215.35 163.25 165.1 163.25" fill="#24285b"></polygon><polygon points="208.45 87.21 214.9 103.71 220.29 100.88 214.9 86.55 208.45 87.21" fill="#ffd200"></polygon><path d="M168.68,86.42s18.25,13.07,8.75,37l39.75-32.12s8,8.1-3.65,16.27-10.55,40.73-28.2,55.73H165.1l-4.67-11.75-4-35.29Z" opacity="0.08"></path><polygon points="208.45 87.21 214.9 103.71 220.29 100.88 214.9 86.55 208.45 87.21" fill="#fff" opacity="0.4"></polygon><path d="M206.34,93.92s6.3-7,10.84-6.61,7,9-7.14,14.13Z" fill="#f4a28c"></path><polygon points="211.9 72.69 256.64 45.94 266.64 86.55 214.9 86.55 211.9 72.69" fill="#ffd200"></polygon><polygon points="211.9 72.69 200.56 76.59 204.06 88.84 214.9 86.55 211.9 72.69" fill="#ffd200"></polygon><polygon points="211.9 72.69 200.56 76.59 204.06 88.84 214.9 86.55 211.9 72.69" opacity="0.08"></polygon><rect x="283.78" y="151.87" width="66.5" height="43.39" fill="#ffd200"></rect><rect x="55.27" y="26.98" width="57.35" height="54.29" fill="#24285b"></rect><polygon points="306.69 161.9 306.69 185.23 330.97 172.08 306.69 161.9" fill="#fff"></polygon><path d="M89.26,41.47A6.73,6.73,0,0,0,85,42.94a9.45,9.45,0,0,0-2.48,3,9.59,9.59,0,0,0-2.48-3,6.75,6.75,0,0,0-4.24-1.47c-4.34,0-7.61,3.55-7.61,8.26,0,5.08,4.08,8.56,10.26,13.83,1,.9,2.24,1.91,3.48,3a.85.85,0,0,0,.59.22.87.87,0,0,0,.59-.22c1.23-1.08,2.42-2.09,3.48-3,6.18-5.27,10.26-8.75,10.26-13.83C96.87,45,93.6,41.47,89.26,41.47Z" fill="#fff"></path><polygon points="299.98 61.8 318.38 32.97 329.39 59.25 341.45 37.74 358.81 63.66 358.81 71.95 299.98 71.95 299.98 61.8" fill="#fff" opacity="0.72"></polygon><circle cx="330.56" cy="35.09" r="5.05" fill="#fff"></circle><path d="M169.46,89.29a12,12,0,0,0-20-6.91,25,25,0,0,0-8,19.06c.25,20.81-.5,54.31,16.25,60.56S210,101.44,210,101.44l-3.7-7.52-42.41,35.34S172,106.73,169.46,89.29Z" fill="#68e1fd"></path><path d="M169.46,89.29a12,12,0,0,0-20-6.91,25,25,0,0,0-8,19.06c.25,20.81-.5,54.31,16.25,60.56S210,101.44,210,101.44l-3.7-7.52-42.41,35.34S172,106.73,169.46,89.29Z" fill="#fff" opacity="0.46"></path><ellipse cx="262.46" cy="66.01" rx="8.28" ry="20.99" transform="translate(-8.16 63.44) rotate(-13.57)" fill="#ffd200"></ellipse><ellipse cx="262.46" cy="66.01" rx="8.28" ry="20.99" transform="translate(-8.16 63.44) rotate(-13.57)" fill="#fff" opacity="0.4"></ellipse><path d="M253.71,59.13a3.37,3.37,0,0,0-.65.25,50.27,50.27,0,0,0,4.83,19.22,2.87,2.87,0,0,0,.5-.07c2.85-.69,4.11-5.59,2.82-11S256.56,58.44,253.71,59.13Z" fill="#ffd200"></path><path d="M253.71,59.13a3.37,3.37,0,0,0-.65.25,50.27,50.27,0,0,0,4.83,19.22,2.87,2.87,0,0,0,.5-.07c2.85-.69,4.11-5.59,2.82-11S256.56,58.44,253.71,59.13Z" opacity="0.08"></path><rect x="43.96" y="108.95" width="65.5" height="43.95" fill="#e6e6e6"></rect><polygon points="43.95 108.95 76.7 140.1 109.45 108.95 43.95 108.95" fill="#c9c9c9"></polygon></svg>