<svg xmlns="http://www.w3.org/2000/svg" viewBox="0 0 400 300" width="406" height="306" class="illustration styles_illustrationTablet__1DWOa"><g id="_161_quality_check_flatline" data-name="#161_quality_check_flatline"><path d="M299.22,146.81h21.51c2.07-4.26,2.49-9.2,2.61-14,.11-4.35,0-8.78-1.32-12.92a21.89,21.89,0,0,0-26.31-14.44,9.91,9.91,0,0,0-5.12-3.16c-1.91-.41-7.58.14-7.64,2.09a3.45,3.45,0,0,0,.54,1.72c1.95,3.66,5,6.62,7.4,10C296.54,123.87,297.5,136.13,299.22,146.81Z" fill="#fff"></path><path d="M320.73,147.31H299.22a.51.51,0,0,1-.5-.42c-.26-1.67-.51-3.38-.77-5.1-1.36-9.31-2.77-18.94-7.47-25.4-.85-1.17-1.8-2.32-2.71-3.44a40.79,40.79,0,0,1-4.72-6.58,4,4,0,0,1-.6-2,1.73,1.73,0,0,1,.76-1.34c1.66-1.31,5.85-1.58,7.49-1.23a10.37,10.37,0,0,1,5.17,3.09,22.84,22.84,0,0,1,15.23,1.68,22.54,22.54,0,0,1,11.39,13.17c1.37,4.21,1.46,8.78,1.35,13.09-.12,4.77-.53,9.79-2.66,14.17A.5.5,0,0,1,320.73,147.31Zm-21.09-1h20.78c1.93-4.14,2.3-8.92,2.42-13.48.13-4.88,0-8.91-1.3-12.75A21.39,21.39,0,0,0,295.83,106a.5.5,0,0,1-.49-.14,9.31,9.31,0,0,0-4.85-3c-1.42-.31-5.32,0-6.67,1-.36.29-.37.51-.37.58a3.2,3.2,0,0,0,.48,1.47,40.9,40.9,0,0,0,4.61,6.42c.92,1.12,1.88,2.29,2.75,3.49,4.84,6.65,6.27,16.4,7.65,25.83C299.17,143.22,299.4,144.78,299.64,146.31Z" fill="#231f20"></path><path d="M322.8,103.62c2.69-2.13,5.27-4.51,8.42-5.85a1.49,1.49,0,0,1,.84-.18,1.23,1.23,0,0,1,.69.45,3.93,3.93,0,0,1,.69,3.53,9.66,9.66,0,0,1-1.74,3.29,38.52,38.52,0,0,1-7.07,7.36,14.77,14.77,0,0,1-6.08,3.21c-3.08.63-10.16-2.4-7-6.53.9-1.18,3-1,4.24-1.33A20.56,20.56,0,0,0,322.8,103.62Z" fill="#fff"></path><path d="M317.63,116c-2.36,0-5.6-1.3-6.85-3.28a3.42,3.42,0,0,1,.35-4.14c.76-1,2.08-1.15,3.24-1.3a9.16,9.16,0,0,0,1.26-.21,20.45,20.45,0,0,0,6.86-3.86L324,102A30.45,30.45,0,0,1,331,97.31a2,2,0,0,1,1.12-.21,1.7,1.7,0,0,1,1,.61,4.4,4.4,0,0,1,.8,4,10.32,10.32,0,0,1-1.83,3.47,38.58,38.58,0,0,1-7.16,7.45,15.33,15.33,0,0,1-6.29,3.31A4.64,4.64,0,0,1,317.63,116Zm5.48-12a21.34,21.34,0,0,1-7.21,4,9.26,9.26,0,0,1-1.4.24c-1,.13-2.07.26-2.57.91a2.47,2.47,0,0,0-.3,3c1.18,1.89,4.85,3.14,6.82,2.74a14.33,14.33,0,0,0,5.87-3.11,38.16,38.16,0,0,0,7-7.27,9.27,9.27,0,0,0,1.66-3.11,3.43,3.43,0,0,0-.58-3.08.79.79,0,0,0-.4-.28,1.16,1.16,0,0,0-.56.14,29.81,29.81,0,0,0-6.83,4.58l-1.48,1.2Z" fill="#231f20"></path><path d="M167.54,82c-1.6-7.18-3.73-14.29-4.37-21.62s.36-15.1,4.52-21.16a13.15,13.15,0,0,1,6.75-5.46c2.46-.75,6.68.63,6.68.63a70.88,70.88,0,0,1,6.35-4.14c4.67-2.33,10-3.18,15.13-3.68,7.37-.71,15.91-.33,20.59,5.4,3.44,4.21,3.74,10.08,3.88,15.51l.37,13.92" fill="#fff"></path><path d="M167.54,82.5a.52.52,0,0,1-.5-.41c-.42-1.87-.87-3.75-1.33-5.62a107.51,107.51,0,0,1-3.05-16.07c-.52-6-.15-14.57,4.61-21.5a13.69,13.69,0,0,1,7-5.66c2.25-.68,5.76.27,6.73.56a66.8,66.8,0,0,1,6.22-4c4.93-2.45,10.51-3.26,15.31-3.72,10.27-1,17.15.83,21,5.59,3.7,4.52,3.87,11.05,4,15.81L228,61.37a.52.52,0,0,1-.5.53.51.51,0,0,1-.53-.5l-.37-13.93c-.15-5.76-.55-11.26-3.76-15.19-3.65-4.47-10.24-6.18-20.14-5.22-4.71.46-10.17,1.25-15,3.63a70.51,70.51,0,0,0-6.28,4.1.51.51,0,0,1-.46.07s-4.1-1.32-6.37-.63a12.93,12.93,0,0,0-6.47,5.26c-4.59,6.68-4.94,15-4.43,20.82a106.49,106.49,0,0,0,3,15.92c.45,1.88.91,3.75,1.33,5.64a.51.51,0,0,1-.39.61Z" fill="#231f20"></path><path d="M247.46,273.72c-5-92.1,2.92-126.4-1-135.88-9.29-22.32-63.73-29.63-63.73-29.63s-58.91-.3-72,30.89c-3.28,7.84-26,62.26-28.23,95.84-1.13,16.79,16.33,13.4,31.53,14.81v24Z" fill="#2196f3"></path><polygon points="210.79 149.75 206.32 155.89 223.77 229.11 213.44 249.9 198.28 229.11 200.41 156.44 193.9 148.95 203.27 141.53 210.79 149.75" fill="#fff"></polygon><path d="M213.44,250.41a.53.53,0,0,1-.42-.21l-15.15-20.79a.46.46,0,0,1-.1-.32l2.12-72.47-6.38-7.34a.52.52,0,0,1-.13-.38.57.57,0,0,1,.2-.36l9.37-7.41a.51.51,0,0,1,.7.05l7.52,8.22a.51.51,0,0,1,0,.65L206.88,156l17.39,73a.47.47,0,0,1,0,.35L213.9,250.13a.5.5,0,0,1-.42.28ZM198.8,229l14.55,20,9.87-19.86-17.4-73a.52.52,0,0,1,.09-.42l4.22-5.8-6.92-7.56L194.64,149l6.16,7.08a.49.49,0,0,1,.13.35Z" fill="#231f20"></path><path d="M216.37,112.75l2.37,15.4s-3.5,16.72-20.45,12.79a33.82,33.82,0,0,1-22.86-18.4l-1.9-35.81s12.47-6.81,8.53-34c0,0,18.88,9.13,44,5.7,0,0,6,28,4.12,41.11S216.37,112.75,216.37,112.75Z" fill="#fff"></path><path d="M203.21,142.05a22.21,22.21,0,0,1-5-.61A34.65,34.65,0,0,1,175,122.73a.47.47,0,0,1,0-.17L173,86.75a.5.5,0,0,1,.27-.47c.12-.07,12.11-7,8.27-33.47a.55.55,0,0,1,.21-.49.53.53,0,0,1,.53,0A84,84,0,0,0,226,57.93a.52.52,0,0,1,.58.4c.24,1.15,6,28.23,4.12,41.29C229,111.31,219.45,113,217,113.23l2.29,14.84a.61.61,0,0,1,0,.19c-.07.31-1.66,7.59-7.74,11.47A15.08,15.08,0,0,1,203.21,142.05Zm-27.27-19.63a33.54,33.54,0,0,0,22.47,18c4.9,1.14,9.13.61,12.54-1.56,5.37-3.42,7.07-9.91,7.27-10.74l-2.36-15.3a.51.51,0,0,1,.5-.6c.47,0,11.47-.25,13.3-12.76,1.75-12-3.24-36.75-4-40.45a86.35,86.35,0,0,1-42.94-5.43C186,78.12,176,85.8,174.06,87Z" fill="#231f20"></path><path d="M207.68,74.83s8,14.76,5.61,17-8.49,0-8.49,0" fill="#fff"></path><path d="M209.93,93.3a17.9,17.9,0,0,1-5.3-1,.49.49,0,0,1-.3-.63.51.51,0,0,1,.64-.31c.06,0,5.8,2,8,.06,1.48-1.35-2.45-10.39-5.71-16.37a.5.5,0,0,1,.88-.48c1.37,2.52,8.1,15.22,5.51,17.58A5.45,5.45,0,0,1,209.93,93.3Z" fill="#231f20"></path><ellipse cx="195.21" cy="71.2" rx="1.66" ry="3.81" transform="translate(-2.82 8.27) rotate(-2.41)" fill="#231f20"></ellipse><ellipse cx="219.81" cy="72.22" rx="1.66" ry="3.81" transform="matrix(1, -0.04, 0.04, 1, -2.84, 9.3)" fill="#231f20"></ellipse><path d="M184.39,79.73a23.19,23.19,0,0,0-5.82-6.62,7.87,7.87,0,0,0-4.34-1.91,7,7,0,0,0-3.72,1.11A13.79,13.79,0,0,0,164,81.45a10.93,10.93,0,0,0,.2,5.3,12.17,12.17,0,0,0,5.28,6.35,36.15,36.15,0,0,0,7.71,3.33" fill="#fff"></path><path d="M177.17,97l-.17,0a37,37,0,0,1-7.82-3.39,12.59,12.59,0,0,1-5.49-6.62,11.38,11.38,0,0,1-.21-5.56,14.27,14.27,0,0,1,6.77-9.49,7.38,7.38,0,0,1,4-1.17,8.49,8.49,0,0,1,4.63,2,23.84,23.84,0,0,1,6,6.77A.52.52,0,0,1,184,80a22.63,22.63,0,0,0-5.7-6.47,7.58,7.58,0,0,0-4-1.8,6.38,6.38,0,0,0-3.44,1,13.25,13.25,0,0,0-6.28,8.8,10.28,10.28,0,0,0,.19,5,11.57,11.57,0,0,0,5,6.06A35.88,35.88,0,0,0,177.34,96a.51.51,0,0,1,.32.65A.52.52,0,0,1,177.17,97Z" fill="#231f20"></path><path d="M216.37,112.75a46.36,46.36,0,0,1-28.43-4.69s14.49,22.28,30.66,19.14Z" fill="#231f20"></path><path d="M215.48,128c-5.9,0-12.27-3-18.61-8.82a64.08,64.08,0,0,1-9.35-10.85.5.5,0,0,1,0-.6.49.49,0,0,1,.6-.11,46.26,46.26,0,0,0,28.09,4.64.49.49,0,0,1,.39.08.49.49,0,0,1,.21.33l2.23,14.45a.5.5,0,0,1-.4.57A17.12,17.12,0,0,1,215.48,128Zm-26-18.65c3.61,4.91,15.59,19.55,28.57,17.44L216,113.33A47.7,47.7,0,0,1,189.46,109.35Z" fill="#231f20"></path><path d="M282.14,77.2h.43a3.48,3.48,0,0,1,3.48,3.48V108.3a0,0,0,0,1,0,0h-7.39a0,0,0,0,1,0,0V80.69a3.48,3.48,0,0,1,3.48-3.48Z" transform="translate(511.45 -96.58) rotate(122.24)" fill="#fff"></path><path d="M292.44,103.36a3.9,3.9,0,0,1-2.11-.62L267,88a.45.45,0,0,1-.22-.32.48.48,0,0,1,.06-.37l3.94-6.26a.5.5,0,0,1,.69-.15L294.8,95.64a4,4,0,0,1,1.25,5.49l-.23.37h0a4,4,0,0,1-2.49,1.76A4.5,4.5,0,0,1,292.44,103.36ZM267.92,87.43l22.94,14.46a2.92,2.92,0,0,0,2.25.39A3,3,0,0,0,295,101l.23-.36a3,3,0,0,0-.93-4.11L271.33,82Zm27.47,13.8h0Z" fill="#231f20"></path><rect x="262.37" y="80.56" width="11.94" height="6.71" transform="matrix(-0.53, 0.85, -0.85, -0.53, 482.46, -98.28)" fill="#fff"></rect><path d="M268,91.25a.5.5,0,0,1-.27-.08l-5.67-3.58a.5.5,0,0,1-.16-.69l6.37-10.09a.49.49,0,0,1,.69-.16l5.67,3.58a.47.47,0,0,1,.22.31.51.51,0,0,1-.06.38L268.41,91a.5.5,0,0,1-.31.22ZM263,87l4.83,3,5.84-9.25-4.83-3Z" fill="#231f20"></path><rect x="300.9" y="84.73" width="11.94" height="46.97" rx="4.21" transform="translate(562.11 -93.6) rotate(122.24)" fill="#fff"></rect><path d="M322.22,124.7a4.67,4.67,0,0,1-2.5-.73l-32.6-20.57a4.71,4.71,0,0,1-1.47-6.5l1.87-3a4.73,4.73,0,0,1,6.5-1.47L326.62,113a4.71,4.71,0,0,1,1.47,6.5l-1.87,3a4.7,4.7,0,0,1-3,2.08A4.63,4.63,0,0,1,322.22,124.7Zm-30.71-32a3.72,3.72,0,0,0-3.15,1.73l-1.87,3a3.67,3.67,0,0,0-.48,2.8,3.71,3.71,0,0,0,1.64,2.32l32.6,20.56a3.73,3.73,0,0,0,5.13-1.16h0l1.87-3a3.71,3.71,0,0,0-1.16-5.12l-32.6-20.56A3.69,3.69,0,0,0,291.51,92.74Z" fill="#231f20"></path><path d="M215.68,50.69A31.69,31.69,0,1,0,259.4,40.8,31.71,31.71,0,0,0,215.68,50.69Z" fill="#fff"></path><path d="M242.43,99.79a32.17,32.17,0,0,1-27.17-49.36h0a32.19,32.19,0,1,1,27.17,49.36ZM216.1,51a31.2,31.2,0,1,0,19.5-13.78A31.25,31.25,0,0,0,216.1,51Z" fill="#231f20"></path><path d="M255.86,46.4a25.07,25.07,0,1,1-34.57,7.83A25.07,25.07,0,0,1,255.86,46.4Z" fill="#fff"></path><path d="M242.45,93.17A25.57,25.57,0,1,1,256.13,46h0a25.56,25.56,0,0,1-13.68,47.19ZM242.53,43a24.86,24.86,0,0,0-5.47.61,24.58,24.58,0,1,0,18.54,3.19h0A24.41,24.41,0,0,0,242.53,43Z" fill="#d1d3d4"></path><path d="M216.88,96.43s-17.31,13.43-24.13-12.61" fill="#fff"></path><path d="M207.16,100.4a11.73,11.73,0,0,1-3.76-.61c-5.09-1.73-8.83-7.06-11.13-15.85a.5.5,0,0,1,1-.25c2.2,8.44,5.73,13.54,10.48,15.15,6.33,2.16,12.79-2.75,12.85-2.8a.5.5,0,1,1,.62.79A18.21,18.21,0,0,1,207.16,100.4Z" fill="#231f20"></path><path d="M305.2,110.25c1.08-.5,1.38-1.88,1.42-3.08a17,17,0,0,0-1.13-6.62l3.94,8.67a14.24,14.24,0,0,0,2.91,4.68,4.87,4.87,0,0,0,5.09,1.21c2.45-1.1,2.86-4.4,2.52-7.06a26.54,26.54,0,0,0-1.95-7.22,10.89,10.89,0,0,0-3.93-5.15c-1.87-1.16-4.53-1.25-6.1.27-1.72-2.63-5.27-7.36-9.07-6.42-2.49.61-2.2,2-1.7,4.29C297.89,96.91,300.82,112.3,305.2,110.25Z" fill="#fff"></path><path d="M315.94,115.92a6,6,0,0,1-3.94-1.66,14.85,14.85,0,0,1-3-4.84l-1.9-4.19a18.39,18.39,0,0,1,.05,2c-.06,1.81-.65,3-1.71,3.52a2.29,2.29,0,0,1-2.07,0c-3-1.5-5-9.32-6.45-16l-.18-.8c-.47-2.14-.92-4.16,2.07-4.89s6.09,1.42,9.29,6.17a5.85,5.85,0,0,1,6.26,0,11.28,11.28,0,0,1,4.13,5.38,27.65,27.65,0,0,1,2,7.35c.18,1.41.5,6.11-2.81,7.58A4.13,4.13,0,0,1,315.94,115.92Zm-10.45-15.87a.49.49,0,0,1,.45.29l3.94,8.67a14.26,14.26,0,0,0,2.8,4.52,4.37,4.37,0,0,0,4.55,1.12c2.68-1.2,2.38-5.31,2.23-6.54a26.56,26.56,0,0,0-1.92-7.09,10.31,10.31,0,0,0-3.73-4.92c-1.56-1-4-1.22-5.5.21a.47.47,0,0,1-.4.14.51.51,0,0,1-.36-.22c-2.13-3.27-5.34-7-8.53-6.22-1.94.48-1.86,1.32-1.33,3.7l.17.81c.73,3.41,2.95,13.78,5.93,15.27a1.3,1.3,0,0,0,1.2,0h0c.87-.41,1.1-1.66,1.13-2.64a16.41,16.41,0,0,0-1.1-6.43.49.49,0,0,1,.27-.64A.48.48,0,0,1,305.49,100.05Z" fill="#231f20"></path><path d="M292,106.55s12,4.45,13.33,17.66" fill="#fff"></path><path d="M305.27,124.71a.49.49,0,0,1-.49-.45c-1.27-12.73-12.89-17.2-13-17.24a.51.51,0,0,1-.29-.65.5.5,0,0,1,.64-.29c.13,0,12.32,4.71,13.65,18.08a.5.5,0,0,1-.45.55Z" fill="#231f20"></path><path d="M238.06,127.5s50.06,47,50.58,43.92c3.31-19.27,5.94-35.75,5.94-35.75L327.24,137s0,92-22,94.23c-16.66,1.68-74.73-52.69-74.73-52.69Z" fill="#2196f3"></path><path d="M246.43,254.25a.52.52,0,0,1-.51-.48l-9.3-109.47a.52.52,0,0,1,1-.08L247,253.69a.51.51,0,0,1-.47.55Z" fill="#231f20"></path><path d="M170,251.93h0l-64.74-2.11a.52.52,0,0,1-.5-.54.54.54,0,0,1,.54-.5l64.23,2.1,1.83-34.4-44.79-5.3a.55.55,0,0,1-.36-.22.54.54,0,0,1-.08-.41c5.83-24.63,14.48-61.91,14.38-63.66a.51.51,0,0,1,.38-.61.54.54,0,0,1,.63.4c.38,1.52-11.5,51.93-14.25,63.54l44.69,5.3a.51.51,0,0,1,.45.54l-1.88,35.38A.52.52,0,0,1,170,251.93Z" fill="#231f20"></path><polygon points="213.82 180.59 274.85 191.76 257.45 273.72 193.9 266.35 213.82 180.59" fill="#231f20"></polygon><path d="M257.46,274.22h-.06l-63.56-7.36a.53.53,0,0,1-.35-.21.53.53,0,0,1-.08-.4l19.92-85.77a.5.5,0,0,1,.58-.38l61,11.18a.47.47,0,0,1,.32.21.54.54,0,0,1,.08.39l-17.4,81.95A.5.5,0,0,1,257.46,274.22Zm-62.95-8.3,62.55,7.25,17.19-81-60.05-11Z" fill="#231f20"></path><path d="M221.37,218.59c-.47-5.35-17.83,1.93-17.83,1.93s4.9-11.16,2.27-13.19-11.47,11.39-11.47,11.39a153.2,153.2,0,0,1-22.43,1.8l-1.56,24.9c24.9-1.8,41.05-2.51,41.82-4.11C213.69,238.12,221.84,223.94,221.37,218.59Z" fill="#fff"></path><path d="M170.35,245.87a.42.42,0,0,1-.32-.13.43.43,0,0,1-.14-.35l1.56-24.9a.47.47,0,0,1,.46-.43h0a151.94,151.94,0,0,0,22.16-1.76c1.16-1.73,7.49-11.06,10.78-11.61a1.55,1.55,0,0,1,1.24.28c2.43,1.88-.49,9.76-1.7,12.71,3.24-1.27,13.1-4.87,16.32-2.93a2.24,2.24,0,0,1,1.12,1.8h0c.39,4.54-5,14.83-7.91,20.36-.6,1.13-1.07,2-1.34,2.59-.69,1.45-7.8,2-28.25,3.4-4.26.29-8.92.61-14,1Zm2-24.89-1.5,23.94,13.43-.93c14.92-1,26.7-1.82,27.5-2.89.26-.56.74-1.47,1.34-2.61,2.65-5.06,8.18-15.58,7.81-19.86h0a1.36,1.36,0,0,0-.68-1.1c-2.82-1.7-12.89,1.88-16.52,3.41a.46.46,0,0,1-.6-.61c1.84-4.18,4.12-11.32,2.41-12.64a.64.64,0,0,0-.53-.1c-2.56.43-8.28,8.36-10.27,11.39a.5.5,0,0,1-.31.2A160.9,160.9,0,0,1,172.34,221Z" fill="#231f20"></path><path d="M284.89,187.57h-.1a.51.51,0,0,1-.4-.61l9-42.79a.51.51,0,0,1,.61-.4.52.52,0,0,1,.4.61l-9,42.79A.51.51,0,0,1,284.89,187.57Z" fill="#231f20"></path><path d="M227.76,67.87a7.55,7.55,0,0,1,.64-.74L230.82,65a1,1,0,0,1,1.64,0l6.19,6.3a1,1,0,0,0,1.74,0l14.49-14.42a1,1,0,0,1,1.75,0l2.54,2.56a1,1,0,0,1,0,1.63L240.31,79.9a1,1,0,0,1-1.57,0q-5.31-5.48-10.61-11a3.62,3.62,0,0,1-.37-.56Z" fill="#231f20"></path><path d="M239.53,80.78h0a1.58,1.58,0,0,1-1.14-.54l-10.61-11a3.18,3.18,0,0,1-.33-.48l-.1-.16a.5.5,0,0,1-.08-.27v-.5a.47.47,0,0,1,.12-.32l.19-.23a5.07,5.07,0,0,1,.49-.55c.57-.53,1.16-1.06,1.74-1.58l.69-.61a1.5,1.5,0,0,1,2.33.06l6.18,6.3a1,1,0,0,0,.53.33h0A.93.93,0,0,0,240,71l14.48-14.42a1.79,1.79,0,0,1,1.24-.62,1.81,1.81,0,0,1,1.22.63l2.54,2.56a1.52,1.52,0,0,1,0,2.33L240.66,80.26A1.58,1.58,0,0,1,239.53,80.78ZM228.26,68.23l0,.07a1.91,1.91,0,0,0,.19.28q5.3,5.49,10.61,11a.65.65,0,0,0,.42.24h0a.73.73,0,0,0,.43-.23l18.86-18.83c.33-.33.33-.57,0-.92l-2.54-2.55a1.44,1.44,0,0,0-.52-.34,1,1,0,0,0-.52.33L240.74,71.66a1.77,1.77,0,0,1-1.21.61h0a1.77,1.77,0,0,1-1.23-.63l-6.18-6.3c-.37-.38-.55-.38-1,0l-.68.62c-.58.52-1.16,1-1.73,1.56a4.28,4.28,0,0,0-.4.45l-.08.1Z" fill="#231f20"></path><polygon points="230.54 185.93 233.38 179.38 259.85 184.06 259.85 190.97 230.54 185.93" fill="#231f20"></polygon><path d="M259.85,191.47h-.08l-29.31-5a.48.48,0,0,1-.37-.69l2.83-6.55a.5.5,0,0,1,.55-.3l26.47,4.68a.5.5,0,0,1,.41.5V191a.49.49,0,0,1-.18.38A.53.53,0,0,1,259.85,191.47Zm-28.59-5.92,28.09,4.82v-5.9l-25.66-4.53Z" fill="#231f20"></path><path d="M176,161.91a1.77,1.77,0,0,1-1.08-.43c-4.74-3.66-12.91-35.9-12.44-39.63.52-4.1,7.25-9.67,7.54-9.91a.52.52,0,0,1,.73.08.51.51,0,0,1-.07.72c-.07.06-6.71,5.55-7.17,9.24-.45,3.53,7.64,35.28,12,38.69.23.17.41.24.55.19,4-1.62,14.86-16.75,15-16.9a.52.52,0,0,1,.72-.12.51.51,0,0,1,.12.72c-.45.63-11.12,15.53-15.43,17.25A1.14,1.14,0,0,1,176,161.91Z" fill="#231f20"></path><path d="M222.87,156.14h-.19c-3.34-.37-8.79-11.6-9.4-12.87a.52.52,0,0,1,.25-.69.51.51,0,0,1,.68.24c2.21,4.63,6.49,12.06,8.58,12.29a.57.57,0,0,0,.57-.28c2.54-3.25,6-21.49,3.58-30.47a.52.52,0,0,1,.36-.64.51.51,0,0,1,.63.37c2.54,9.42-1.05,27.91-3.75,31.38A1.62,1.62,0,0,1,222.87,156.14Z" fill="#231f20"></path></g></svg>