<svg width="510" height="463" viewBox="0 0 510 463" fill="none" xmlns="http://www.w3.org/2000/svg">
<path d="M492.414 231.5C492.414 358.291 390.765 461.219 265.552 461.219C140.338 461.219 38.6897 358.291 38.6897 231.5C38.6897 104.709 140.338 1.78076 265.552 1.78076C390.765 1.78076 492.414 104.709 492.414 231.5Z" fill="#D9D9D9"/>
<path d="M266.255 461.219C355.241 460.863 431.917 408.865 469.2 333.36L62.9586 334.428C100.241 409.577 177.269 461.219 266.255 461.219ZM199.076 217.61L81.9517 309.854C80.1931 311.278 77.3793 310.922 75.9724 309.142L18.2897 233.993C16.8828 232.212 17.2345 229.363 18.9931 227.938L135.766 135.695C137.524 134.27 140.338 134.626 141.745 136.407L199.428 211.555C201.186 213.336 200.834 216.185 199.076 217.61V217.61Z" fill="#0B558F"/>
<path d="M126.395 223.553C126.709 215.888 120.828 209.417 113.259 209.1C105.69 208.782 99.2995 214.737 98.9855 222.401C98.6716 230.066 104.553 236.537 112.122 236.855C119.691 237.172 126.081 231.217 126.395 223.553Z" fill="#E4EBE4"/>
<path d="M172.345 341.195V386.071C172.345 388.208 174.103 389.988 176.214 389.988H402.724C404.834 389.988 406.593 388.208 406.593 386.071V81.5592C406.593 79.4223 404.834 77.6415 402.724 77.6415H176.214C174.103 77.6415 172.345 79.4223 172.345 81.5592V243.609" fill="#2196F3"/>
<path d="M220.531 155.639C215.607 154.927 211.738 153.146 208.221 150.297L212.09 143.886C214.903 146.023 218.069 147.804 220.531 148.516V139.612C213.145 137.475 210.683 134.27 210.683 127.859C210.683 121.805 215.607 117.887 220.531 117.175V113.613H227.917V117.175C230.379 117.887 234.6 119.312 237.414 121.092L234.248 128.215C232.138 126.791 227.917 125.722 227.917 125.01V133.202C235.303 135.338 237.766 138.9 237.766 144.955C237.766 151.009 232.841 154.927 227.917 155.639V160.982H220.531V155.639V155.639ZM220.531 124.298C218.069 124.654 218.069 126.078 218.069 127.859C218.069 129.64 218.069 130.708 220.531 131.777V124.298ZM230.379 145.667C230.379 143.53 230.379 142.462 227.917 141.393V149.228C230.379 148.516 230.379 147.448 230.379 145.667Z" fill="white"/>
<path d="M274.345 130.352V148.516H270.124V130.352H274.345ZM293.69 148.516H289.469L282.083 137.475V148.516H277.862V130.352H282.083L289.469 141.749V130.352H293.69V148.516ZM300.021 130.352L304.593 144.242L309.165 130.352H313.738L307.407 148.516H301.779L295.448 130.352H300.021ZM328.159 131.065C329.565 131.777 330.621 132.845 331.324 134.27C332.028 135.695 332.379 137.119 332.379 139.256C332.379 141.393 332.028 142.818 331.324 144.242C330.621 145.667 329.565 146.735 328.159 147.448C326.752 148.16 325.345 148.516 323.586 148.516C321.828 148.516 320.421 148.16 319.014 147.448C317.607 146.735 316.552 145.667 315.848 144.242C315.145 142.818 314.793 141.037 314.793 139.256C314.793 137.475 315.145 135.695 315.848 134.27C316.552 132.845 317.607 131.777 319.014 131.065C320.421 130.352 321.828 129.996 323.586 129.996C325.345 129.996 326.752 130.352 328.159 131.065ZM320.069 135.695C319.365 136.763 318.662 137.832 318.662 139.612C318.662 141.037 319.014 142.462 320.069 143.53C320.772 144.598 322.179 144.955 323.586 144.955C324.993 144.955 326.048 144.598 327.103 143.53C327.807 142.462 328.51 141.393 328.51 139.612C328.51 138.188 328.159 136.763 327.103 135.695C326.4 134.626 324.993 134.27 323.586 134.27C322.179 134.27 321.124 134.626 320.069 135.695ZM339.414 130.352V148.516H335.193V130.352H339.414ZM356.297 132.133C357.703 133.202 358.759 134.982 359.11 137.119H354.538C354.186 136.407 353.834 135.695 353.131 134.982C352.428 134.626 351.724 134.27 350.669 134.27C349.262 134.27 348.207 134.626 347.503 135.695C346.8 136.763 346.448 137.832 346.448 139.612C346.448 141.037 346.8 142.462 347.503 143.53C348.207 144.598 349.262 144.955 350.669 144.955C351.724 144.955 352.428 144.598 353.131 144.242C353.834 143.886 354.186 143.174 354.538 142.105H359.11C358.759 144.242 357.703 145.667 356.297 147.092C354.89 148.516 352.779 148.872 350.669 148.872C348.91 148.872 347.503 148.516 346.097 147.804C344.69 147.092 343.634 146.023 342.931 144.598C342.228 143.174 341.876 141.749 341.876 139.612C341.876 137.832 342.228 136.051 342.931 134.626C343.634 133.202 344.69 132.133 346.097 131.421C347.503 130.708 348.91 130.352 350.669 130.352C353.131 129.996 354.89 130.708 356.297 132.133ZM366.145 133.914V137.832H372.124V141.037H366.145V144.955H373.179V148.516H361.924V130.352H373.179V133.914H366.145Z" fill="white"/>
<path d="M372.124 221.528H210.683C208.572 221.528 207.166 220.103 207.166 217.966C207.166 215.829 208.572 214.405 210.683 214.405H372.124C374.235 214.405 375.641 215.829 375.641 217.966C375.641 220.103 373.883 221.528 372.124 221.528ZM372.124 244.322H210.683C208.572 244.322 207.166 242.897 207.166 240.76C207.166 238.623 208.572 237.198 210.683 237.198H372.124C374.235 237.198 375.641 238.623 375.641 240.76C375.641 242.897 373.883 244.322 372.124 244.322ZM372.124 267.472H210.683C208.572 267.472 207.166 266.047 207.166 263.91C207.166 261.773 208.572 260.348 210.683 260.348H372.124C374.235 260.348 375.641 261.773 375.641 263.91C375.641 266.047 373.883 267.472 372.124 267.472ZM372.124 290.265H210.683C208.572 290.265 207.166 288.841 207.166 286.704C207.166 284.567 208.572 283.142 210.683 283.142H372.124C374.235 283.142 375.641 284.567 375.641 286.704C375.641 288.841 373.883 290.265 372.124 290.265ZM372.124 313.415H304.241C302.131 313.415 300.724 311.991 300.724 309.854C300.724 307.717 302.131 306.292 304.241 306.292H372.124C374.235 306.292 375.641 307.717 375.641 309.854C375.641 311.991 373.883 313.415 372.124 313.415ZM370.366 198.378H210.683C208.572 198.378 207.166 196.953 207.166 194.816C207.166 192.679 208.572 191.255 210.683 191.255H370.717C372.828 191.255 374.235 192.679 374.235 194.816C374.235 196.953 372.476 198.378 370.366 198.378V198.378Z" fill="white"/>
<path d="M336.6 266.047C334.49 266.047 333.083 264.622 333.083 262.485V196.241C333.083 194.104 334.49 192.679 336.6 192.679C338.71 192.679 340.117 194.104 340.117 196.241V262.129C340.117 264.266 338.359 266.047 336.6 266.047V266.047Z" fill="white"/>
<path d="M249.372 332.648L102.703 354.017C100.241 354.373 98.131 352.592 97.7793 350.455L84.4138 256.075C84.0621 253.582 85.8207 251.445 87.931 251.088L234.6 229.719C237.062 229.363 239.172 231.144 239.524 233.281L252.89 327.662C253.241 330.155 251.834 332.292 249.372 332.648Z" fill="white"/>
<path d="M244.8 271.033L87.5793 294.183L84.4138 271.745L241.634 248.239L244.8 271.033Z" fill="#E4EBE4"/>
<path d="M134.359 330.155C132.952 330.155 131.897 329.086 131.897 328.018C131.545 326.593 132.6 325.169 134.007 325.169L211.386 313.415C212.793 313.059 214.2 314.128 214.2 315.552C214.552 316.977 213.497 318.402 212.09 318.402L134.359 329.799V330.155V330.155ZM205.407 300.238C204 300.238 202.945 299.169 202.945 298.101C202.593 296.676 203.648 295.252 205.055 295.252L227.214 292.046C228.621 291.69 230.028 292.759 230.028 294.183C230.379 295.608 229.324 297.032 227.917 297.032L205.759 300.238H205.407V300.238Z" fill="#BECCBE"/>
</svg>
