<svg width="300" height="97" viewBox="0 0 300 97" fill="none" xmlns="http://www.w3.org/2000/svg">
<path d="M0 83.4241V23.5531L7.35746 15.3355H72.3484V52.9016C65.3997 60.7279 51.0117 77.7892 49.0498 83.4241C47.0878 89.0591 15.5324 85.772 0 83.4241Z" fill="white" fill-opacity="0.63"/>
<path d="M6.9613 87.7915V28.0044L14.2534 19.7983H78.6671V57.3118C71.7801 65.1271 57.52 82.1645 55.5754 87.7915C53.6309 93.4185 22.3558 90.1361 6.9613 87.7915Z" fill="#7121F3"/>
<path d="M68.267 78.7386C65.483 78.7386 63.0114 78.2746 60.8523 77.3466C58.7121 76.3996 57.017 74.9792 55.767 73.0852C54.536 71.1723 53.9205 68.7765 53.9205 65.8977C53.9205 63.4735 54.3466 61.428 55.1989 59.7614C56.0511 58.0947 57.2254 56.7405 58.7216 55.6989C60.2178 54.6572 61.9413 53.8712 63.892 53.3409C65.8428 52.7917 67.9261 52.4223 70.142 52.233C72.6231 52.0057 74.6212 51.7689 76.1364 51.5227C77.6515 51.2576 78.75 50.8883 79.4318 50.4148C80.1326 49.9223 80.483 49.2311 80.483 48.3409V48.1989C80.483 46.7405 79.9811 45.6136 78.9773 44.8182C77.9735 44.0227 76.6193 43.625 74.9148 43.625C73.0777 43.625 71.6004 44.0227 70.483 44.8182C69.3655 45.6136 68.6553 46.7121 68.3523 48.1136L55.5398 47.6591C55.9186 45.0076 56.8939 42.6402 58.4659 40.5568C60.0568 38.4545 62.2348 36.8068 65 35.6136C67.7841 34.4015 71.1269 33.7955 75.0284 33.7955C77.8125 33.7955 80.3788 34.1269 82.7273 34.7898C85.0758 35.4337 87.1212 36.3807 88.8636 37.6307C90.6061 38.8617 91.9508 40.3769 92.8977 42.1761C93.8636 43.9754 94.3466 46.0303 94.3466 48.3409V78H81.2784V71.9205H80.9375C80.161 73.3977 79.1667 74.6477 77.9545 75.6705C76.7614 76.6932 75.3504 77.4602 73.7216 77.9716C72.1117 78.483 70.2936 78.7386 68.267 78.7386ZM72.5568 69.6477C74.053 69.6477 75.3977 69.3447 76.5909 68.7386C77.803 68.1326 78.7689 67.2992 79.4886 66.2386C80.2083 65.1591 80.5682 63.9091 80.5682 62.4886V58.3409C80.1705 58.5492 79.6875 58.7386 79.1193 58.9091C78.5701 59.0795 77.964 59.2405 77.3011 59.392C76.6383 59.5436 75.9564 59.6761 75.2557 59.7898C74.5549 59.9034 73.8826 60.0076 73.2386 60.1023C71.9318 60.3106 70.8144 60.6326 69.8864 61.0682C68.9773 61.5038 68.2765 62.072 67.7841 62.7727C67.3106 63.4545 67.0739 64.2689 67.0739 65.2159C67.0739 66.6553 67.5852 67.7538 68.608 68.5114C69.6496 69.2689 70.9659 69.6477 72.5568 69.6477ZM115.369 66.5511L115.426 49.9886H117.358L129.631 34.3636H145.369L127.131 56.75H123.466L115.369 66.5511ZM102.841 78V19.8182H116.733V78H102.841ZM129.943 78L118.523 59.875L127.67 50.017L145.994 78H129.943ZM150.341 78V34.3636H163.835V42.3182H164.29C165.085 39.4394 166.383 37.2992 168.182 35.8977C169.981 34.4773 172.074 33.767 174.46 33.767C175.104 33.767 175.767 33.8144 176.449 33.9091C177.131 33.9848 177.765 34.108 178.352 34.2784V46.3523C177.689 46.125 176.818 45.9451 175.739 45.8125C174.678 45.6799 173.731 45.6136 172.898 45.6136C171.25 45.6136 169.763 45.983 168.438 46.7216C167.131 47.4413 166.098 48.4545 165.341 49.7614C164.602 51.0492 164.233 52.5644 164.233 54.3068V78H150.341ZM184.013 78V34.3636H197.905V78H184.013ZM190.973 29.2784C189.022 29.2784 187.346 28.6345 185.945 27.3466C184.543 26.0398 183.842 24.4678 183.842 22.6307C183.842 20.8125 184.543 19.2595 185.945 17.9716C187.346 16.6648 189.022 16.0114 190.973 16.0114C192.943 16.0114 194.619 16.6648 196.001 17.9716C197.403 19.2595 198.104 20.8125 198.104 22.6307C198.104 24.4678 197.403 26.0398 196.001 27.3466C194.619 28.6345 192.943 29.2784 190.973 29.2784ZM206.747 78V34.3636H220.639V78H206.747ZM213.707 29.2784C211.757 29.2784 210.08 28.6345 208.679 27.3466C207.277 26.0398 206.577 24.4678 206.577 22.6307C206.577 20.8125 207.277 19.2595 208.679 17.9716C210.08 16.6648 211.757 16.0114 213.707 16.0114C215.677 16.0114 217.353 16.6648 218.736 17.9716C220.137 19.2595 220.838 20.8125 220.838 22.6307C220.838 24.4678 220.137 26.0398 218.736 27.3466C217.353 28.6345 215.677 29.2784 213.707 29.2784ZM229.482 78V34.3636H242.692V42.375H243.175C244.084 39.7235 245.618 37.6307 247.777 36.0966C249.936 34.5625 252.512 33.7955 255.504 33.7955C258.535 33.7955 261.129 34.572 263.288 36.125C265.447 37.678 266.821 39.7614 267.408 42.375H267.862C268.677 39.7803 270.268 37.7064 272.635 36.1534C275.002 34.5814 277.796 33.7955 281.016 33.7955C285.144 33.7955 288.497 35.1212 291.072 37.7727C293.648 40.4053 294.936 44.0227 294.936 48.625V78H281.044V51.8068C281.044 49.6288 280.485 47.9716 279.368 46.8352C278.25 45.6799 276.802 45.1023 275.021 45.1023C273.108 45.1023 271.603 45.7273 270.504 46.9773C269.425 48.2083 268.885 49.8655 268.885 51.9489V78H255.533V51.6648C255.533 49.6383 254.983 48.0379 253.885 46.8636C252.786 45.6894 251.338 45.1023 249.538 45.1023C248.326 45.1023 247.256 45.3958 246.328 45.983C245.4 46.5511 244.671 47.3655 244.141 48.4261C243.629 49.4867 243.374 50.7367 243.374 52.1761V78H229.482Z" fill="white"/>
<path d="M17.371 35.2386V23.8182H66.5471V35.2386H48.9051V82H35.0414V35.2386H17.371Z" fill="white"/>
</svg>
