<svg xmlns="http://www.w3.org/2000/svg" viewBox="0 0 750 500"><g id="freepik--background-complete--inject-244"><rect x="231.36" y="357.43" width="20.3" height="81.07" style="fill:#e0e0e0"></rect><rect x="261.21" y="375.11" width="20.3" height="63.39" style="fill:#e0e0e0"></rect><rect x="291.52" y="389.59" width="20.3" height="48.91" style="fill:#e0e0e0"></rect><rect x="319.57" y="409.45" width="20.3" height="29.04" style="fill:#e0e0e0"></rect><path d="M592.63,126.1l59.44,3a59.51,59.51,0,1,1-56.44-62.43,59.19,59.19,0,0,1,15.27,2.8Z" style="fill:#f5f5f5"></path><path d="M623.17,72.17,607,115.41l45.54.75S651.24,89.8,623.17,72.17Z" style="fill:#e0e0e0"></path><path d="M76.84,293.39V249.44a44,44,0,1,1-43.93,45Z" style="fill:#e0e0e0"></path><path d="M66.13,281.55l-43.95,1c0-11.45,4.47-23.44,12.45-31.64a45.16,45.16,0,0,1,30.82-13.29Z" style="fill:#f5f5f5"></path><polygon points="669.68 178.09 676.21 166.77 682.73 155.45 689.28 166.76 695.82 178.07 686.79 178.08 686.82 221.77 678.75 221.78 678.72 178.09 669.68 178.09" style="fill:#e0e0e0"></polygon><polygon points="694.52 140.12 698.56 133.11 702.6 126.11 706.65 133.11 710.7 140.11 705.11 140.11 705.13 167.15 700.13 167.15 700.11 140.11 694.52 140.12" style="fill:#f5f5f5"></polygon></g><g id="freepik--Plant--inject-244"><path d="M602.59,342.72a41,41,0,0,0-17.5-6c-2.86-.29-6-.21-8.28,1.52a1.71,1.71,0,0,0-.85,1.52,1.82,1.82,0,0,0,.81,1c7.12,5.43,17.89,6.12,25.82,2" style="fill:#407BFF"></path><path d="M602.14,342.22a84.27,84.27,0,0,1-11.3-10,28.54,28.54,0,0,1-7.09-13.1c-.3-1.5-.4-3.2.56-4.39,9,7,16.09,16.14,17.83,27.44" style="fill:#407BFF"></path><path d="M602.5,342.65a40.88,40.88,0,0,1,.21-14.84c1.13-4.85,3.77-9.49,7.9-12.25,1.56,3.64.89,7.83-.2,11.63a56.82,56.82,0,0,1-7.84,16.51" style="fill:#407BFF"></path><path d="M611.33,358.48c-5.36.65-10,3.48-14,7.1a26.5,26.5,0,0,0-8,13.79c5.26-.33,9.72-4,13-8.2s5.48-8.72,9-12.61" style="fill:#407BFF"></path><path d="M613.25,361a34.63,34.63,0,0,1,4-32.75c3,10.87,1.93,23.14-4,32.75" style="fill:#407BFF"></path><path d="M624.92,374.91A25,25,0,0,0,601,388.69a1.86,1.86,0,0,0-.17,1.88,1.79,1.79,0,0,0,1.59.46c4.72-.3,8.9-3.14,12.35-6.37s6.46-7,10.27-9.76" style="fill:#407BFF"></path><path d="M624.55,374.15a44.5,44.5,0,0,1-.44-24.9c.87-3.21,2.35-6.58,5.31-8.09a.82.82,0,0,1,1.33.46,15,15,0,0,1,1.25,7.14,44.36,44.36,0,0,1-1.12,7.23c-.93,4.43-1.43,9.18-3.85,13a25.29,25.29,0,0,0-1.55,2.85c-.45,1-.46,1.31-.88,2.08" style="fill:#407BFF"></path><path d="M655.45,378.76c-2.29-8.71.14-19.27,5.63-26.41.4-.52.94-1.08,1.6-1,1,.09,1.27,1.44,1.22,2.45a47.65,47.65,0,0,1-8.45,25" style="fill:#407BFF"></path><path d="M658.23,380.66c10.58,2.75,22.72.08,31.52-6.41a25.49,25.49,0,0,0-17.06-2.09c-5.7,1.3-10.91,3.85-14.46,8.5" style="fill:#407BFF"></path><path d="M660.58,374.86c5.93-9.66,17.29-16,28.6-16.54-1.3,4.61-5.08,8.18-9.35,10.35s-9,3.1-13.73,4c-1.83.36-4.33.75-5.52,2.18" style="fill:#407BFF"></path><path d="M656,346.73c1.6-5.5,3.21-11,3.65-16.75s-.37-11.67-3.33-16.57c-5.54,10.71-6.1,23.22-.49,33.89" style="fill:#407BFF"></path><path d="M674.67,337.31c6.47-11.76,19.68-21.16,33-22.47-5.16,12.83-19.21,22.75-33,22.47" style="fill:#407BFF"></path><path d="M670.6,339.62c9.65,1.47,17.87,7.63,26.89,11.37a12.06,12.06,0,0,0,6.08,1.16,4.76,4.76,0,0,0,3-8.42,13,13,0,0,0-4.41-2.68c-9.83-4.09-20.36-4.19-30.71-1.71" style="fill:#407BFF"></path><path d="M665,346.39c2.19.62,2.93,1.75,4.66,3.23a50.39,50.39,0,0,0,20.4,10.47c.78.2,1.8.28,2.19-.43s-.09-1.36-.53-1.91a28.21,28.21,0,0,0-12.31-8.36c-4.71-1.75-8.79-3.86-14.41-3.41" style="fill:#407BFF"></path><path d="M658.71,305.5a38.58,38.58,0,0,0,29.59,10.07,2.05,2.05,0,0,0,1.35-.49c.74-.81-.15-2.06-1-2.73-8.7-6.79-19.24-9.6-29.92-6.85" style="fill:#407BFF"></path><path d="M666.18,302.76a41.29,41.29,0,0,1,36.93-6.09c-4.65,4.59-11.1,7.05-17.6,7.73a55.82,55.82,0,0,1-19.33-1.64" style="fill:#407BFF"></path><path d="M663.21,284c-.85-8.69-.3-15.54-.9-24.27,0-.69-.2-1.53-.85-1.78-.91-.35-1.67.76-2,1.69a27.76,27.76,0,0,0,3.7,24.16" style="fill:#407BFF"></path><path d="M662.59,284.94c5.88-3.64,10.3-8.4,14.38-14,2.84-3.88,5.24-8.54,4.59-13.31-4-.08-7.78,2.12-10.37,5.15a28.83,28.83,0,0,0-5.29,10.64c-1.15,3.82-2,7.75-3.31,11.51" style="fill:#407BFF"></path><path d="M676.72,281a115.83,115.83,0,0,0,35.4-20.88c-4.23-1.7-9.07-.68-13.3,1-9.66,3.9-17.55,10.48-22.28,19.75" style="fill:#407BFF"></path><path d="M666.56,289.69c6.54.71,13.17,1.18,19.66.09s12.39-3.59,18.35-6.1a2.14,2.14,0,0,0,1.25-.94,1.45,1.45,0,0,0-.45-1.57,3.86,3.86,0,0,0-1.57-.74c-6.47-1.81-13.46-1-19.83,1.19a92,92,0,0,0-17.41,8.07" style="fill:#407BFF"></path><path d="M629.25,305.8c-4.46-9-4.17-19.51-.32-28.78,2.71,4.13,3,9.39,2.55,14.31s-2,10-2.09,14.91" style="fill:#407BFF"></path><path d="M611.43,296.81a40.12,40.12,0,0,0-29.82,12.71c5.55.87,11.28-.56,16.33-3s9.55-5.93,14-9.37" style="fill:#407BFF"></path><path d="M599.46,292.81c-5.45-.44-10.69-1.12-15.92.49s-10,5.24-12.14,10.29a28.87,28.87,0,0,0,14.93-2.82,86.64,86.64,0,0,0,13.13-8" style="fill:#407BFF"></path><path d="M617.19,293c-4.9-3.21-9.93-6.48-15.63-7.81s-12.32-.34-16.3,4c4.62,2.7,10.22,3,15.58,3s11.91-.06,17,1.72" style="fill:#407BFF"></path><path d="M617.22,293.25c-8.38-8.22-11.55-23-8.18-34.24a52.19,52.19,0,0,1,8.18,34.24" style="fill:#407BFF"></path><path d="M640.25,270c1.58-3.67,2.69-7.53,4.11-11.27a32.45,32.45,0,0,1,5.85-10.38,15.43,15.43,0,0,1,10.38-5.38A41.8,41.8,0,0,1,640.45,270" style="fill:#407BFF"></path><path d="M636.08,274.8c-2.61-3.59-5.63-8.48-9.18-11.16s-8.16-4.31-12.48-3.28a29.06,29.06,0,0,0,21.66,14.44" style="fill:#407BFF"></path><path d="M636.92,270.25c-1.72-4.36-3.44-8.76-4.14-13.38s-.27-9.57,2.1-13.61c4.6,8.69,6.08,18,2.27,27.09" style="fill:#407BFF"></path><path d="M640.29,243.26c2.61-8.61,10.49-15,19-17.87a7.08,7.08,0,0,1,3.33-.5,2.89,2.89,0,0,1,2.46,2.05c.31,1.47-.9,2.78-2,3.76a64.69,64.69,0,0,1-22.76,12.56" style="fill:#407BFF"></path><path d="M640.39,236.22c.33-5.56.67-11.19,2.48-16.46s5.29-10.2,10.35-12.5c.87,5.61-1.61,11.19-4.59,16s-6.59,9.38-8.38,14.77" style="fill:#407BFF"></path><path d="M640.25,240c-2.15-6.28-2.38-14.25-6.14-19.72-2.62-3.83-6.83-6.43-9.1-10.48a16,16,0,0,0,.53,11.89,34.54,34.54,0,0,0,7,10c2.78,3,5.16,5.21,7.75,8.35" style="fill:#407BFF"></path><path d="M640.29,424.94c-.17,0-.31-41.88-.32-93.54s.11-93.55.28-93.55.31,41.88.32,93.55S640.46,424.94,640.29,424.94Z" style="fill:#263238"></path><path d="M676.89,299.48a9.51,9.51,0,0,1-1.57.59L671,301.53c-3.65,1.24-8.67,3.05-14.12,5.28s-10.48,4.19-13.38,6.7a9.92,9.92,0,0,0-2.69,3.56c-.41,1-.49,1.59-.54,1.57a1.34,1.34,0,0,1,0-.44,6.54,6.54,0,0,1,.3-1.22,9.63,9.63,0,0,1,2.63-3.79,23.46,23.46,0,0,1,5.8-3.6c2.33-1.09,4.9-2.22,7.63-3.34,5.47-2.24,10.53-4,14.22-5.13,1.85-.57,3.36-1,4.4-1.28A9,9,0,0,1,676.89,299.48Z" style="fill:#263238"></path><path d="M688.89,270a3.73,3.73,0,0,1-.44.47l-1.34,1.26-5,4.56-16.7,14.87c-6.52,5.8-12.15,11.34-16.06,15.52-2,2.08-3.49,3.81-4.54,5-.49.56-.89,1-1.22,1.38s-.43.48-.45.46a2.73,2.73,0,0,1,.36-.53c.25-.34.62-.84,1.13-1.46,1-1.26,2.49-3,4.41-5.16a210.13,210.13,0,0,1,16-15.68c6.55-5.79,12.5-11,16.82-14.74l5.15-4.42,1.42-1.17A2.3,2.3,0,0,1,688.89,270Z" style="fill:#263238"></path><path d="M658.35,297.07c-.17-.08,1.19-3.22,2.55-7.2s2-7.33,2.19-7.3a24.81,24.81,0,0,1-1.62,7.49,46.48,46.48,0,0,1-2,5A8.16,8.16,0,0,1,658.35,297.07Z" style="fill:#263238"></path><path d="M640.33,322.42a8.06,8.06,0,0,1-1-1.17l-2.57-3.3c-2.16-2.79-5.15-6.65-8.5-10.87s-6.43-8-8.66-10.75L617,293.08a9.13,9.13,0,0,1-.91-1.24,6.67,6.67,0,0,1,1.09,1.09c.67.72,1.62,1.79,2.78,3.13,2.32,2.67,5.45,6.42,8.81,10.64s6.29,8.13,8.36,11c1,1.43,1.87,2.6,2.42,3.41A7.62,7.62,0,0,1,640.33,322.42Z" style="fill:#263238"></path><path d="M632.3,312.12a14.94,14.94,0,0,1-3.36-6.3,17.93,17.93,0,0,1-.76-6.34l.27,0c-.12.48-.21.74-.26.73s-.05-.28,0-.78l.27,0a29.35,29.35,0,0,0,1.07,6.17C630.61,309.39,632.47,312,632.3,312.12Z" style="fill:#263238"></path><path d="M621.94,299.08a10.84,10.84,0,0,0-2.34-1.36,15.68,15.68,0,0,0-6.52-.52,39.76,39.76,0,0,0-6.56,1.06,20.85,20.85,0,0,1-2.71.65,9.59,9.59,0,0,1,2.59-1.06A29.68,29.68,0,0,1,613,296.6a14.2,14.2,0,0,1,6.73.72A4.14,4.14,0,0,1,621.94,299.08Z" style="fill:#263238"></path><path d="M619.49,295.92c0,.1-1.37-.54-3.6-1.31a37.35,37.35,0,0,0-9-1.84,36.93,36.93,0,0,0-9.15.46c-2.32.42-3.72.85-3.76.75a3.51,3.51,0,0,1,1-.4,21.87,21.87,0,0,1,2.71-.77,32,32,0,0,1,18.36,1.4,22.63,22.63,0,0,1,2.57,1.17A4.12,4.12,0,0,1,619.49,295.92Z" style="fill:#263238"></path><path d="M640.25,282.57c-.16,0-1.34-4-2.62-9.11s-2.2-9.22-2-9.26,1.34,4,2.62,9.11S640.41,282.53,640.25,282.57Z" style="fill:#263238"></path><path d="M640.42,282.57c-.18.06-.94-2.67-2.91-5.46a24.09,24.09,0,0,0-4.28-4.41,3.81,3.81,0,0,1,1.65.85,13,13,0,0,1,3.12,3.22A12.19,12.19,0,0,1,640.42,282.57Z" style="fill:#263238"></path><path d="M640.29,402.61c-.06,0-.19-1-.66-2.78a39.42,39.42,0,0,0-2.8-7.25c-2.89-5.92-8.16-13.42-14.85-20.93-3.31-3.78-6.53-7.36-9.26-10.78a75.22,75.22,0,0,1-6.62-9.55,46.25,46.25,0,0,1-3.35-7.09c-.3-.87-.53-1.56-.65-2a3.21,3.21,0,0,1-.18-.72c.06,0,.36,1,1.05,2.67a52.71,52.71,0,0,0,3.5,7,79.86,79.86,0,0,0,6.68,9.42c2.74,3.39,6,6.94,9.29,10.74,6.71,7.53,12,15.12,14.78,21.13a36.6,36.6,0,0,1,2.64,7.38c.19.91.32,1.61.37,2.1A3.45,3.45,0,0,1,640.29,402.61Z" style="fill:#263238"></path><path d="M673.37,365.25a14.39,14.39,0,0,1-1.74,1,36.27,36.27,0,0,0-4.49,3,51,51,0,0,0-5.91,5.39c-2.07,2.18-4.21,4.73-6.38,7.45-4.36,5.47-8.44,10.3-10.88,14.16-1.23,1.92-2.13,3.53-2.72,4.67a13.71,13.71,0,0,1-1,1.74,1.83,1.83,0,0,1,.16-.49c.13-.31.31-.78.58-1.36a45,45,0,0,1,2.58-4.78c2.37-4,6.41-8.86,10.76-14.32,2.19-2.73,4.35-5.27,6.46-7.46a47.38,47.38,0,0,1,6-5.34,31.08,31.08,0,0,1,4.64-2.84c.58-.29,1.05-.47,1.36-.6A2.05,2.05,0,0,1,673.37,365.25Z" style="fill:#263238"></path><path d="M674,377.37a25.11,25.11,0,0,1-3.66.54,47.46,47.46,0,0,0-8.69,1.71,26.17,26.17,0,0,0-7.78,4.08c-1.79,1.39-2.64,2.53-2.72,2.47s.14-.34.54-.85a13.4,13.4,0,0,1,1.91-1.95,23.6,23.6,0,0,1,7.86-4.33,38.91,38.91,0,0,1,8.84-1.56A20.89,20.89,0,0,1,674,377.37Z" style="fill:#263238"></path><path d="M652.23,384.83c-.19-.1,1.46-2.63,2.74-6s1.48-6.42,1.7-6.39a6.3,6.3,0,0,1-.06,2,21.87,21.87,0,0,1-1.07,4.63,22.55,22.55,0,0,1-2.13,4.25A5.77,5.77,0,0,1,652.23,384.83Z" style="fill:#263238"></path><path d="M684.08,332.72a3.19,3.19,0,0,1-.59.31l-1.72.78c-.75.33-1.67.74-2.7,1.28s-2.24,1.08-3.5,1.84l-2,1.14c-.69.39-1.38.87-2.11,1.32-1.47.9-3,2-4.52,3.12a77.48,77.48,0,0,0-17.43,18c-1.07,1.61-2.12,3.12-3,4.63-.44.74-.89,1.44-1.26,2.15l-1.07,2c-.71,1.29-1.22,2.51-1.72,3.57s-.88,2-1.18,2.74l-.72,1.75a4.56,4.56,0,0,1-.29.59,2.81,2.81,0,0,1,.17-.63c.16-.48.37-1.07.62-1.8a29.88,29.88,0,0,1,1.09-2.79c.47-1.07,1-2.31,1.65-3.62l1-2.06c.37-.72.81-1.43,1.23-2.19.83-1.52,1.87-3.06,2.94-4.69a81.3,81.3,0,0,1,8-9.83,83.34,83.34,0,0,1,9.55-8.34c1.6-1.12,3.1-2.21,4.59-3.09.74-.45,1.44-.92,2.14-1.31l2-1.11c1.28-.73,2.51-1.26,3.56-1.77s2-.89,2.76-1.18l1.77-.68A2.56,2.56,0,0,1,684.08,332.72Z" style="fill:#263238"></path><path d="M657.9,350.26a4.26,4.26,0,0,1,1.44-2.15,9.09,9.09,0,0,1,5.8-2.22,15.84,15.84,0,0,1,6.1,1.19,8.7,8.7,0,0,1,2.31,1.12,15.17,15.17,0,0,1-2.45-.72,18.71,18.71,0,0,0-5.94-1,9.43,9.43,0,0,0-5.54,1.95A15.86,15.86,0,0,0,657.9,350.26Z" style="fill:#263238"></path><path d="M654,354.29c-.17-.09,1.31-2.25,1.65-5.35s-.56-5.55-.37-5.6a3.69,3.69,0,0,1,.68,1.56,11.27,11.27,0,0,1,.29,4.11,11,11,0,0,1-1.23,3.92C654.5,353.86,654.05,354.33,654,354.29Z" style="fill:#263238"></path><path d="M611.36,408.61c.91,16,5.73,32.29,13.15,48.75h32.26c7.08-16.3,11.57-32.55,12.37-48.75Z" style="fill:#455a64"></path><path d="M663.91,434.52c0,.16-10.63.3-23.73.3s-23.72-.14-23.72-.3,10.62-.31,23.72-.31S663.91,434.35,663.91,434.52Z" style="fill:#fafafa"></path><path d="M663.19,440.31c0,.17-10,.31-22.24.31s-22.25-.14-22.25-.31,10-.3,22.25-.3S663.19,440.15,663.19,440.31Z" style="fill:#fafafa"></path></g><g id="freepik--chart-2--inject-244"><rect x="419.13" y="357.68" width="162.43" height="75.09" rx="4.03" style="fill:#263238"></rect><path d="M430.55,409.55v2.37h-.24v-2.15h-.56v-.22Z" style="fill:#455a64"></path><path d="M431.12,410.73c0-.75.4-1.2.95-1.2s.95.45.95,1.2-.4,1.21-.95,1.21S431.12,411.49,431.12,410.73Zm1.65,0c0-.63-.29-1-.7-1s-.7.35-.7,1,.28,1,.7,1S432.77,411.37,432.77,410.73Z" style="fill:#455a64"></path><path d="M431.52,397v.22h-1.67V397l1-1c.27-.26.32-.42.32-.58s-.2-.45-.56-.45a.82.82,0,0,0-.65.27l-.17-.15a1.05,1.05,0,0,1,.84-.34c.48,0,.79.24.79.64a1,1,0,0,1-.39.74l-.81.79Z" style="fill:#455a64"></path><path d="M431.81,396c0-.75.4-1.2.95-1.2s.94.45.94,1.2-.4,1.21-.94,1.21S431.81,396.75,431.81,396Zm1.64,0c0-.63-.28-1-.69-1s-.7.35-.7,1,.28,1,.7,1S433.45,396.63,433.45,396Z" style="fill:#455a64"></path><path d="M431.47,381.76c0,.39-.29.7-.86.7a1.22,1.22,0,0,1-.86-.31l.12-.19a1,1,0,0,0,.74.28c.39,0,.6-.19.6-.48s-.2-.47-.64-.47h-.17v-.18l.66-.83h-1.21v-.21h1.52v.17l-.67.84C431.21,381.11,431.47,381.38,431.47,381.76Z" style="fill:#455a64"></path><path d="M431.81,381.25c0-.75.4-1.2.95-1.2s.94.45.94,1.2-.4,1.21-.94,1.21S431.81,382,431.81,381.25Zm1.64,0c0-.63-.28-1-.69-1s-.7.35-.7,1,.28,1,.7,1S433.45,381.89,433.45,381.25Z" style="fill:#455a64"></path><path d="M441,418.51c0-.75.4-1.2.94-1.2s1,.45,1,1.2-.4,1.21-1,1.21S441,419.27,441,418.51Zm1.64,0c0-.63-.28-1-.7-1s-.69.35-.69,1,.28,1,.69,1S442.66,419.15,442.66,418.51Z" style="fill:#455a64"></path><path d="M458.57,417.33v2.37h-.25v-2.16h-.56v-.21Z" style="fill:#455a64"></path><path d="M477.06,419.48v.22H475.4v-.17l1-1a.79.79,0,0,0,.31-.59c0-.27-.19-.44-.55-.44a.81.81,0,0,0-.65.26l-.17-.14a1.05,1.05,0,0,1,.84-.34c.48,0,.78.24.78.64a1,1,0,0,1-.38.74l-.81.79Z" style="fill:#455a64"></path><path d="M494.55,419c0,.39-.29.7-.86.7a1.23,1.23,0,0,1-.86-.31l.12-.19a1,1,0,0,0,.74.27c.39,0,.61-.18.61-.47s-.2-.47-.64-.47h-.17v-.18l.65-.83h-1.21v-.21h1.52v.17l-.67.84C494.29,418.37,494.55,418.64,494.55,419Z" style="fill:#455a64"></path><path d="M512.53,419.07h-.48v.63h-.24v-.63h-1.34v-.17l1.26-1.57H512l-1.21,1.53h1v-.55h.23v.55h.48Z" style="fill:#455a64"></path><path d="M529.65,419c0,.4-.28.72-.86.72a1.23,1.23,0,0,1-.85-.31l.12-.19a1,1,0,0,0,.73.27c.4,0,.62-.19.62-.48s-.19-.49-.79-.49h-.51l.12-1.19h1.3v.21h-1.08l-.09.76h.31C529.38,418.3,529.65,418.58,529.65,419Z" style="fill:#455a64"></path><path d="M547.36,419a.74.74,0,0,1-.81.73c-.63,0-1-.44-1-1.19s.44-1.22,1.08-1.22a1,1,0,0,1,.57.13l-.1.19a.85.85,0,0,0-.46-.11c-.51,0-.84.33-.84,1a1.48,1.48,0,0,0,0,.2.74.74,0,0,1,.72-.41A.72.72,0,0,1,547.36,419Zm-.24,0c0-.31-.23-.51-.6-.51a.55.55,0,0,0-.61.51c0,.26.22.51.63.51A.52.52,0,0,0,547.12,419Z" style="fill:#455a64"></path><path d="M564.79,417.33v.17l-1,2.2h-.26l1-2.16h-1.22V418h-.24v-.66Z" style="fill:#455a64"></path><path d="M564.91,410.85c0,.13-27.44.23-61.28.23s-61.29-.1-61.29-.23,27.44-.23,61.29-.23S564.91,410.72,564.91,410.85Z" style="fill:#455a64"></path><path d="M564.91,396c0,.13-27.44.23-61.28.23s-61.29-.1-61.29-.23,27.44-.23,61.29-.23S564.91,395.91,564.91,396Z" style="fill:#455a64"></path><path d="M564.91,381.22c0,.12-27.44.23-61.28.23s-61.29-.11-61.29-.23,27.44-.23,61.29-.23S564.91,381.09,564.91,381.22Z" style="fill:#455a64"></path><path d="M442.34,410.63a.79.79,0,1,1-.78-.78A.78.78,0,0,1,442.34,410.63Z" style="fill:#455a64"></path><path d="M460,410.63a.79.79,0,0,1-1.58,0,.79.79,0,0,1,1.58,0Z" style="fill:#455a64"></path><path d="M477.59,410.63a.79.79,0,1,1-.79-.78A.79.79,0,0,1,477.59,410.63Z" style="fill:#455a64"></path><path d="M495.21,410.63a.79.79,0,1,1-.79-.78A.79.79,0,0,1,495.21,410.63Z" style="fill:#455a64"></path><path d="M512.83,410.63a.79.79,0,1,1-.78-.78A.78.78,0,0,1,512.83,410.63Z" style="fill:#455a64"></path><path d="M548.08,410.63a.79.79,0,1,1-.79-.78A.79.79,0,0,1,548.08,410.63Z" style="fill:#455a64"></path><path d="M530.46,410.63a.79.79,0,1,1-1.58,0,.79.79,0,0,1,1.58,0Z" style="fill:#455a64"></path><path d="M565.7,410.63a.79.79,0,1,1-.79-.78A.79.79,0,0,1,565.7,410.63Z" style="fill:#455a64"></path><path d="M450.37,410.85a.52.52,0,1,1-.51-.52A.51.51,0,0,1,450.37,410.85Z" style="fill:#455a64"></path><path d="M468.06,410.85a.52.52,0,1,1-.51-.52A.51.51,0,0,1,468.06,410.85Z" style="fill:#455a64"></path><path d="M485.75,410.85a.52.52,0,1,1-1,0,.52.52,0,1,1,1,0Z" style="fill:#455a64"></path><path d="M503.44,410.85a.52.52,0,1,1-1,0,.52.52,0,1,1,1,0Z" style="fill:#455a64"></path><path d="M521.13,410.85a.52.52,0,1,1-1,0,.52.52,0,1,1,1,0Z" style="fill:#455a64"></path><path d="M538.82,410.85a.52.52,0,0,1-.52.52.53.53,0,0,1-.52-.52.52.52,0,0,1,.52-.52A.52.52,0,0,1,538.82,410.85Z" style="fill:#455a64"></path><path d="M556.51,410.85a.52.52,0,0,1-1,0,.52.52,0,0,1,1,0Z" style="fill:#455a64"></path><path d="M461.11,404.3a1.93,1.93,0,1,1-1.93-1.93A1.93,1.93,0,0,1,461.11,404.3Z" style="fill:#407BFF"></path><path d="M476.48,395.23a1.93,1.93,0,1,1-1.93-1.93A1.93,1.93,0,0,1,476.48,395.23Z" style="fill:#407BFF"></path><path d="M495.57,396a1.93,1.93,0,1,1-1.93-1.93A1.93,1.93,0,0,1,495.57,396Z" style="fill:#407BFF"></path><path d="M514.2,379.54a1.93,1.93,0,1,1-1.93-1.93A1.93,1.93,0,0,1,514.2,379.54Z" style="fill:#407BFF"></path><path d="M531.6,390a1.93,1.93,0,1,1-1.93-1.93A1.93,1.93,0,0,1,531.6,390Z" style="fill:#407BFF"></path><path d="M549.22,392.82a1.93,1.93,0,1,1-1.93-1.93A1.92,1.92,0,0,1,549.22,392.82Z" style="fill:#407BFF"></path><path d="M565.7,404.3a2.54,2.54,0,0,1-.45,0,9.23,9.23,0,0,1-1.32-.18,9.89,9.89,0,0,1-4.58-2.18A9.3,9.3,0,0,1,557.1,399a22.34,22.34,0,0,0-2.36-3.66,7.85,7.85,0,0,0-4-2.78,5.12,5.12,0,0,0-2.63.1,7.12,7.12,0,0,0-2.45,1.38c-1.5,1.26-2.6,3-4.06,4.66a8.09,8.09,0,0,1-2.65,2.06,5.31,5.31,0,0,1-3.48.28,4.34,4.34,0,0,1-2.64-2.43,17.06,17.06,0,0,1-1.15-3.52,20,20,0,0,0-1.05-3.57,2.79,2.79,0,0,0-1.13-1.35,3.64,3.64,0,0,0-1.78-.35,30.61,30.61,0,0,0-3.87.69,11.48,11.48,0,0,1-2,.23,4.68,4.68,0,0,1-2.08-.4,4.18,4.18,0,0,1-1.65-1.38,10,10,0,0,1-1-1.88c-.56-1.3-.93-2.67-1.44-4a9.8,9.8,0,0,0-.93-1.86,3.4,3.4,0,0,0-1.53-1.28l-.48-.14-.51-.05a1.87,1.87,0,0,0-.94.19,3.87,3.87,0,0,0-1.41,1.48,17.81,17.81,0,0,0-1.64,4.05c-.42,1.42-.78,2.88-1.12,4.34-.56,2.43-1.06,4.86-1.69,7.23a35.39,35.39,0,0,1-1.08,3.5,9.23,9.23,0,0,1-1.83,3.18,2.5,2.5,0,0,1-1.74.77A3.51,3.51,0,0,1,499,404a8.52,8.52,0,0,1-2.51-2.53,30.93,30.93,0,0,1-3-6.14,14.31,14.31,0,0,0-3.37-5.43,6.33,6.33,0,0,0-5.67-1.38,9.58,9.58,0,0,0-2.7,1.19,18,18,0,0,0-2.35,1.7,31.17,31.17,0,0,0-3.93,3.95h0a42.53,42.53,0,0,1-5.82,4.84,28.6,28.6,0,0,1-6,3.23,13.07,13.07,0,0,1-5.84,1,21,21,0,0,1-4.86-1.17,46.06,46.06,0,0,1-6.31-2.89c-.7-.38-1.23-.69-1.58-.9l-.52-.34s.19.09.55.29l1.6.85A47.9,47.9,0,0,0,453,403a20.47,20.47,0,0,0,4.81,1.12,12.89,12.89,0,0,0,5.71-1,28.28,28.28,0,0,0,5.88-3.22,43.36,43.36,0,0,0,5.75-4.82h0a31.24,31.24,0,0,1,4-4,20.15,20.15,0,0,1,2.4-1.74,9.54,9.54,0,0,1,2.8-1.24,6.73,6.73,0,0,1,6,1.45,14.53,14.53,0,0,1,3.5,5.59,30.94,30.94,0,0,0,3,6.05,8,8,0,0,0,2.36,2.39,3.07,3.07,0,0,0,1.56.48,2.06,2.06,0,0,0,1.42-.65,8.61,8.61,0,0,0,1.72-3A35.62,35.62,0,0,0,505,397c.62-2.35,1.12-4.77,1.69-7.21.34-1.47.69-2.93,1.12-4.37a18.32,18.32,0,0,1,1.68-4.16,4.41,4.41,0,0,1,1.6-1.64,2.19,2.19,0,0,1,1.17-.24l.57.05.56.17a3.85,3.85,0,0,1,1.74,1.44,9.7,9.7,0,0,1,1,2c.52,1.34.89,2.71,1.43,4a5.28,5.28,0,0,0,2.43,3,6.34,6.34,0,0,0,3.86.14,30.3,30.3,0,0,1,3.94-.68,4.1,4.1,0,0,1,2,.4,3.25,3.25,0,0,1,1.3,1.55,21,21,0,0,1,1.07,3.65,16.08,16.08,0,0,0,1.1,3.44,4,4,0,0,0,2.4,2.24,5,5,0,0,0,3.22-.26,7.74,7.74,0,0,0,2.54-2c1.43-1.58,2.55-3.37,4.11-4.67a7.51,7.51,0,0,1,2.57-1.43,5.4,5.4,0,0,1,2.79-.08,8.07,8.07,0,0,1,4.12,2.9,22.1,22.1,0,0,1,2.35,3.71,9.36,9.36,0,0,0,2.18,2.9A10.06,10.06,0,0,0,564,404a10.87,10.87,0,0,0,1.3.22Z" style="fill:#407BFF"></path><path d="M461.29,371.06c0,.13-6.84.23-15.27.23s-15.28-.1-15.28-.23,6.84-.23,15.28-.23S461.29,370.94,461.29,371.06Z" style="fill:#263238"></path></g><g id="freepik--chart-1--inject-244"><rect x="212.24" y="42.76" width="348.7" height="303.18" rx="9.37" style="fill:#263238"></rect><path d="M560.94,62.54c0,.11-78.06.21-174.34.21s-174.36-.1-174.36-.21,78.05-.21,174.36-.21S560.94,62.42,560.94,62.54Z" style="fill:#455a64"></path><ellipse cx="231.43" cy="52.35" rx="2.11" ry="2.16" style="fill:#455a64"></ellipse><ellipse cx="238.77" cy="52.35" rx="2.11" ry="2.16" style="fill:#455a64"></ellipse><path d="M248.21,52.35a2.11,2.11,0,1,1-2.11-2.16A2.13,2.13,0,0,1,248.21,52.35Z" style="fill:#455a64"></path><path d="M474.51,193.89c-4.8-.65-9.72,1.06-14.45-.07-10.53-2.53-16.24-17.88-26.87-19.78-7.52-1.34-14.42,4.62-20.29,10.27S400.24,196,392.69,194.9c-12.13-1.8-18.37-20.84-30.55-22.11-3.2-.33-6.4.67-9.6.53-10.27-.43-17.46-11.86-21.76-22.74-2.1-5.34-3.94-10.89-7-15.57s-7.58-8.47-12.62-8.54c-4.36-.07-8.49,2.68-11.47,6.39s-5,8.34-6.82,12.95A652.69,652.69,0,0,0,271,211.92l215.11-.16C484.73,204.71,479.31,194.53,474.51,193.89Z" style="fill:#455a64"></path><path d="M256.07,317.09a1.38,1.38,0,1,1-1.38-1.38A1.38,1.38,0,0,1,256.07,317.09Z" style="fill:#407BFF"></path><path d="M269.35,317.27a26.41,26.41,0,0,1-5.33.27,26.35,26.35,0,0,1-5.32-.27,54.66,54.66,0,0,1,10.65,0Z" style="fill:#407BFF"></path><path d="M288.37,317.09a1.38,1.38,0,1,1-1.38-1.38A1.38,1.38,0,0,1,288.37,317.09Z" style="fill:#455a64"></path><path d="M301.66,317.27a52.74,52.74,0,0,1-10.66,0,54.76,54.76,0,0,1,10.66,0Z" style="fill:#455a64"></path><circle cx="253.77" cy="114.86" r="1.78" style="fill:#407BFF"></circle><path d="M272.75,115.1a44.93,44.93,0,0,1-6.89.26,45,45,0,0,1-6.9-.26,46.6,46.6,0,0,1,6.9-.26A46.51,46.51,0,0,1,272.75,115.1Z" style="fill:#407BFF"></path><circle cx="290.14" cy="114.86" r="1.78" style="fill:#455a64"></circle><path d="M309.12,115.1a44.83,44.83,0,0,1-6.89.26,45,45,0,0,1-6.9-.26,46.6,46.6,0,0,1,6.9-.26A46.4,46.4,0,0,1,309.12,115.1Z" style="fill:#455a64"></path><path d="M256.32,99.7h-2.89l-.55,1.34H251.4l2.78-6.24h1.42l2.79,6.24h-1.51Zm-.45-1.1-1-2.38-1,2.38Z" style="fill:#e0e0e0"></path><path d="M263.84,98.29V101h-1.39V98.51c0-.78-.35-1.14-1-1.14s-1.15.41-1.15,1.3V101h-1.39v-4.8h1.33v.56a2.1,2.1,0,0,1,1.59-.63A1.88,1.88,0,0,1,263.84,98.29Z" style="fill:#e0e0e0"></path><path d="M269.34,98.3V101H268v-.6a1.57,1.57,0,0,1-1.46.67c-1.13,0-1.8-.63-1.8-1.45s.6-1.44,2.06-1.44H268c0-.6-.36-.94-1.11-.94a2.36,2.36,0,0,0-1.38.44l-.5-1a3.73,3.73,0,0,1,2.07-.58C268.49,96.17,269.34,96.85,269.34,98.3ZM268,99.52V99h-1c-.65,0-.85.24-.85.56s.29.58.78.58A1,1,0,0,0,268,99.52Z" style="fill:#e0e0e0"></path><path d="M270.59,94.42H272V101h-1.39Z" style="fill:#e0e0e0"></path><path d="M278,96.24l-2.16,5.09a2,2,0,0,1-2,1.51,2.11,2.11,0,0,1-1.34-.44l.51-1a1.21,1.21,0,0,0,.79.3c.38,0,.59-.17.78-.59l0-.05-2.08-4.83H274l1.34,3.25,1.36-3.25Z" style="fill:#e0e0e0"></path><path d="M281.83,100.8a2,2,0,0,1-1.14.31,1.58,1.58,0,0,1-1.79-1.72v-2h-.74V96.35h.74V95.18h1.39v1.17h1.2v1.07h-1.2v2a.56.56,0,0,0,.6.63.91.91,0,0,0,.56-.18Z" style="fill:#e0e0e0"></path><path d="M282.44,94.8a.8.8,0,0,1,.86-.78.78.78,0,0,1,.87.75.8.8,0,0,1-.87.8A.79.79,0,0,1,282.44,94.8Zm.17,1.44H284V101h-1.39Z" style="fill:#e0e0e0"></path><path d="M284.93,98.64a2.49,2.49,0,0,1,2.68-2.47,2.2,2.2,0,0,1,2.14,1.22l-1.07.58a1.28,1.28,0,1,0-1.08,2,1.2,1.2,0,0,0,1.08-.66l1.07.59a2.22,2.22,0,0,1-2.14,1.21A2.49,2.49,0,0,1,284.93,98.64Z" style="fill:#e0e0e0"></path><path d="M290.09,100.59l.46-1a3.26,3.26,0,0,0,1.67.47c.64,0,.88-.17.88-.44,0-.78-2.89,0-2.89-1.9,0-.91.82-1.55,2.21-1.55a3.92,3.92,0,0,1,1.85.42l-.46,1a2.77,2.77,0,0,0-1.39-.36c-.62,0-.89.2-.89.45,0,.82,2.9,0,2.9,1.91,0,.89-.83,1.53-2.26,1.53A4.08,4.08,0,0,1,290.09,100.59Z" style="fill:#e0e0e0"></path><path d="M254.6,136.42v.74h-2.94v-.58l1.5-1.42c.35-.33.41-.53.41-.72s-.21-.48-.63-.48a1,1,0,0,0-.8.39l-.66-.42a1.82,1.82,0,0,1,1.55-.73c.86,0,1.44.45,1.44,1.15a1.53,1.53,0,0,1-.65,1.23l-.89.84Z" style="fill:#455a64"></path><path d="M255,135.21c0-1.28.71-2,1.67-2s1.66.73,1.66,2-.7,2-1.66,2S255,136.5,255,135.21Zm2.43,0c0-.88-.31-1.25-.76-1.25s-.76.37-.76,1.25.31,1.25.76,1.25S257.39,136.1,257.39,135.21Z" style="fill:#455a64"></path><path d="M260.2,136l-.42.41v.76h-.87V133h.87v2.33l1.27-1.2h1l-1.24,1.27,1.35,1.72h-1.05Z" style="fill:#455a64"></path><path d="M253.19,151.89v3.89h-.9v-3.17h-.77v-.72Z" style="fill:#455a64"></path><path d="M256.81,154.56c0,.68-.51,1.28-1.62,1.28a2.73,2.73,0,0,1-1.48-.41l.36-.69a1.87,1.87,0,0,0,1.1.35c.45,0,.73-.19.73-.51s-.2-.5-.91-.5h-1l.2-2.19h2.37v.72H255l-.06.74h.31C256.35,153.35,256.81,153.87,256.81,154.56Z" style="fill:#455a64"></path><path d="M258.64,154.61l-.42.41v.76h-.86v-4.12h.86V154l1.27-1.2h1l-1.24,1.27,1.36,1.72h-1.05Z" style="fill:#455a64"></path><path d="M253.19,170.51v3.89h-.9v-3.17h-.77v-.72Z" style="fill:#455a64"></path><path d="M253.87,172.45c0-1.28.71-2,1.67-2s1.66.73,1.66,2-.7,2-1.66,2S253.87,173.74,253.87,172.45Zm2.43,0c0-.88-.31-1.25-.76-1.25s-.76.37-.76,1.25.31,1.25.76,1.25S256.3,173.34,256.3,172.45Z" style="fill:#455a64"></path><path d="M259.11,173.22l-.42.42v.76h-.87v-4.12h.87v2.33l1.27-1.2h1l-1.24,1.27,1.35,1.72h-1.05Z" style="fill:#455a64"></path><path d="M254.63,191.79c0,.69-.5,1.29-1.61,1.29a2.77,2.77,0,0,1-1.49-.41l.36-.69a1.87,1.87,0,0,0,1.1.35c.45,0,.73-.19.73-.51s-.2-.5-.9-.5h-1l.2-2.19h2.37v.72h-1.62l-.06.74H253C254.18,190.59,254.63,191.11,254.63,191.79Z" style="fill:#455a64"></path><path d="M256.46,191.84l-.41.42V193h-.87V188.9h.87v2.33l1.26-1.2h1l-1.25,1.26,1.36,1.73h-1Z" style="fill:#455a64"></path><path d="M251.69,209.69c0-1.28.72-2,1.67-2s1.67.73,1.67,2-.71,2-1.67,2S251.69,211,251.69,209.69Zm2.43,0c0-.88-.31-1.25-.76-1.25s-.75.37-.75,1.25.31,1.25.75,1.25S254.12,210.58,254.12,209.69Z" style="fill:#455a64"></path><path d="M256.93,210.46l-.42.42v.76h-.86v-4.12h.86v2.33l1.27-1.2h1l-1.24,1.26,1.35,1.73h-1Z" style="fill:#455a64"></path><path d="M528.26,136c0,.14-59.53.26-132.94.26s-132.95-.12-132.95-.26,59.51-.26,133-.26S528.26,135.81,528.26,136Z" style="fill:#455a64"></path><path d="M528.26,155c0,.14-59.53.26-132.94.26s-132.95-.12-132.95-.26,59.51-.26,133-.26S528.26,154.81,528.26,155Z" style="fill:#455a64"></path><path d="M528.26,173.94c0,.14-59.53.26-132.94.26s-132.95-.12-132.95-.26,59.51-.26,133-.26S528.26,173.8,528.26,173.94Z" style="fill:#455a64"></path><path d="M528.26,192.93c0,.15-59.53.26-132.94.26s-132.95-.11-132.95-.26,59.51-.26,133-.26S528.26,192.79,528.26,192.93Z" style="fill:#455a64"></path><path d="M528.26,211.92c0,.15-59.53.26-132.94.26s-132.95-.11-132.95-.26,59.51-.26,133-.26S528.26,211.78,528.26,211.92Z" style="fill:#455a64"></path><path d="M263.7,211.92c13.61-1.82,25.4-7.28,35.63-13.06s19-12.46,28.64-18.62c3.76-2.41,8.29-4.9,13.73-4.81a17.74,17.74,0,0,1,12.66,5.79c2.7,2.95,4.34,6.27,7.7,8.95A12.62,12.62,0,0,0,369.9,193c4.62,0,8.19-3,12.8-2.93,6,.06,8.84,4.75,14.37,6.13,4.5,1.11,9.65-.25,13.45-2.11s7-4.21,11.3-5.58c6.81-2.16,15.26-1.38,22.1.73s10.9,7.12,16.25,10.48c7.08,4.44,15.64,11,23.05,12.17Z" style="fill:#407BFF"></path><path d="M274.84,300.23a24.61,24.61,0,1,1,24.61-24.61A24.64,24.64,0,0,1,274.84,300.23Zm0-44.22a19.61,19.61,0,1,0,19.61,19.61A19.64,19.64,0,0,0,274.84,256Z" style="fill:#455a64"></path><path d="M274.82,301.23a26,26,0,0,1-7.74-1.18,4,4,0,0,1,2.38-7.64,18.11,18.11,0,0,0,10.76-34.58,4,4,0,1,1,2.37-7.64,26.11,26.11,0,0,1-7.77,51Z" style="fill:#407BFF"></path><path d="M270,278.2H268.7v1.73h-1.85V278.2h-4.42v-1.27l3.87-5.21h2l-3.58,4.94h2.2v-1.54h1.79v1.54H270Z" style="fill:#e0e0e0"></path><path d="M276.77,277.35c0,1.45-1.06,2.72-3.41,2.72a5.66,5.66,0,0,1-3.12-.88l.75-1.45a4,4,0,0,0,2.33.73c.95,0,1.53-.39,1.53-1.06s-.42-1.07-1.91-1.07h-2.09l.42-4.62h5v1.53h-3.42l-.13,1.56h.67C275.81,274.81,276.77,275.9,276.77,277.35Z" style="fill:#e0e0e0"></path><path d="M277.29,273.89a2,2,0,1,1,2,2.26A2,2,0,0,1,277.29,273.89Zm2.89,0c0-.88-.34-1.3-.85-1.3s-.86.43-.86,1.3.35,1.3.86,1.3S280.18,274.77,280.18,273.89Zm4-2.17h1.4l-5.6,8.21h-1.4Zm-1.34,6a2,2,0,1,1,2,2.26A2,2,0,0,1,282.87,277.76Zm2.88,0c0-.87-.34-1.3-.86-1.3s-.85.42-.85,1.3.35,1.3.85,1.3S285.75,278.63,285.75,277.76Z" style="fill:#e0e0e0"></path><path d="M349.88,254.05v.56h-2.27v-.45l1.16-1.09c.26-.26.31-.41.31-.56s-.16-.37-.48-.37a.74.74,0,0,0-.62.3l-.51-.32a1.41,1.41,0,0,1,1.2-.56c.66,0,1.11.34,1.11.89a1.19,1.19,0,0,1-.5.94l-.69.66Z" style="fill:#455a64"></path><path d="M350.16,253.11c0-1,.55-1.55,1.29-1.55s1.28.56,1.28,1.55-.54,1.55-1.28,1.55S350.16,254.1,350.16,253.11Zm1.87,0c0-.68-.24-1-.58-1s-.59.28-.59,1,.24,1,.59,1S352,253.79,352,253.11Z" style="fill:#455a64"></path><path d="M354.2,253.71l-.32.31v.59h-.67v-3.18h.67v1.8l1-.92h.8l-1,1,1,1.33h-.81Z" style="fill:#455a64"></path><path d="M348.79,266v3h-.69v-2.45h-.6V266Z" style="fill:#455a64"></path><path d="M351.59,268.06c0,.53-.39,1-1.25,1a2.15,2.15,0,0,1-1.15-.32l.28-.53a1.46,1.46,0,0,0,.85.27c.35,0,.56-.15.56-.39s-.15-.39-.7-.39h-.76l.15-1.69h1.83v.55h-1.25l0,.57h.25C351.23,267.12,351.59,267.52,351.59,268.06Z" style="fill:#455a64"></path><path d="M353,268.09l-.32.32V269H352v-3.18h.67v1.8l1-.93h.8l-1,1,1,1.33h-.81Z" style="fill:#455a64"></path><path d="M348.79,280.38v3h-.69v-2.44h-.6v-.56Z" style="fill:#455a64"></path><path d="M349.32,281.88c0-1,.55-1.55,1.28-1.55s1.29.56,1.29,1.55-.54,1.56-1.29,1.56S349.32,282.87,349.32,281.88Zm1.87,0c0-.68-.24-1-.59-1s-.58.28-.58,1,.24,1,.58,1S351.19,282.56,351.19,281.88Z" style="fill:#455a64"></path><path d="M353.36,282.48l-.32.32v.58h-.67V280.2H353V282l1-.92h.8l-1,1,1,1.32h-.81Z" style="fill:#455a64"></path><path d="M349.9,296.83c0,.53-.39,1-1.24,1a2.13,2.13,0,0,1-1.15-.32l.28-.53a1.44,1.44,0,0,0,.85.27c.35,0,.56-.15.56-.39s-.15-.39-.7-.39h-.77l.16-1.69h1.83v.55h-1.25l-.05.57h.25C349.55,295.89,349.9,296.29,349.9,296.83Z" style="fill:#455a64"></path><path d="M351.32,296.86l-.32.32v.59h-.67v-3.18H351v1.8l1-.93h.79l-1,1,1.05,1.33h-.81Z" style="fill:#455a64"></path><path d="M347.64,310.65c0-1,.54-1.55,1.28-1.55s1.29.56,1.29,1.55-.55,1.56-1.29,1.56S347.64,311.65,347.64,310.65Zm1.87,0c0-.68-.24-1-.59-1s-.58.28-.58,1,.24,1,.58,1S349.51,311.34,349.51,310.65Z" style="fill:#455a64"></path><path d="M351.68,311.25l-.32.32v.59h-.67V309h.67v1.8l1-.92h.79l-1,1,1.05,1.33h-.81Z" style="fill:#455a64"></path><path d="M529.7,253.69c0,.14-38.92.26-86.91.26s-86.91-.12-86.91-.26,38.91-.26,86.91-.26S529.7,253.54,529.7,253.69Z" style="fill:#455a64"></path><path d="M529.7,268.36c0,.14-38.92.26-86.91.26s-86.91-.12-86.91-.26,38.91-.26,86.91-.26S529.7,268.21,529.7,268.36Z" style="fill:#455a64"></path><path d="M529.7,283c0,.15-38.92.26-86.91.26s-86.91-.11-86.91-.26,38.91-.26,86.91-.26S529.7,282.89,529.7,283Z" style="fill:#455a64"></path><path d="M529.7,297.7c0,.15-38.92.27-86.91.27s-86.91-.12-86.91-.27,38.91-.26,86.91-.26S529.7,297.56,529.7,297.7Z" style="fill:#455a64"></path><path d="M529.7,312.38c0,.14-38.92.26-86.91.26s-86.91-.12-86.91-.26,38.91-.26,86.91-.26S529.7,312.23,529.7,312.38Z" style="fill:#455a64"></path><path d="M363.4,305.08h0a1.32,1.32,0,0,1-1.32-1.32V263.29A1.32,1.32,0,0,1,363.4,262h0a1.32,1.32,0,0,1,1.32,1.32v40.47A1.32,1.32,0,0,1,363.4,305.08Z" style="fill:#407BFF"></path><path d="M371.47,299.34h0a1.32,1.32,0,0,1-1.32-1.32V276.93a1.32,1.32,0,0,1,1.32-1.32h0a1.32,1.32,0,0,1,1.31,1.32V298A1.32,1.32,0,0,1,371.47,299.34Z" style="fill:#e0e0e0"></path><path d="M388.55,299.34h0a1.32,1.32,0,0,1-1.32-1.32V267.15a1.32,1.32,0,0,1,1.32-1.31h0a1.32,1.32,0,0,1,1.32,1.31V298A1.32,1.32,0,0,1,388.55,299.34Z" style="fill:#e0e0e0"></path><path d="M405.86,303.46h0a1.32,1.32,0,0,1-1.32-1.32V271.28a1.32,1.32,0,0,1,1.32-1.32h0a1.32,1.32,0,0,1,1.32,1.32v30.86A1.32,1.32,0,0,1,405.86,303.46Z" style="fill:#e0e0e0"></path><path d="M423.39,303.46h0a1.32,1.32,0,0,1-1.31-1.32V271.28a1.32,1.32,0,0,1,1.31-1.32h0a1.32,1.32,0,0,1,1.32,1.32v30.86A1.32,1.32,0,0,1,423.39,303.46Z" style="fill:#e0e0e0"></path><path d="M439.78,308.63h0a1.32,1.32,0,0,1-1.32-1.32V267.66a1.32,1.32,0,0,1,1.32-1.32h0a1.32,1.32,0,0,1,1.31,1.32v39.65A1.32,1.32,0,0,1,439.78,308.63Z" style="fill:#e0e0e0"></path><path d="M482,302.15h0a1.32,1.32,0,0,1-1.32-1.32V261.18a1.32,1.32,0,0,1,1.32-1.32h0a1.32,1.32,0,0,1,1.32,1.32v39.65A1.32,1.32,0,0,1,482,302.15Z" style="fill:#407BFF"></path><path d="M491.6,305.57h0a1.32,1.32,0,0,1-1.32-1.32V264.6a1.32,1.32,0,0,1,1.32-1.32h0a1.32,1.32,0,0,1,1.31,1.32v39.65A1.32,1.32,0,0,1,491.6,305.57Z" style="fill:#e0e0e0"></path><path d="M464.86,302.15h0a1.32,1.32,0,0,1-1.32-1.32V261.18a1.32,1.32,0,0,1,1.32-1.32h0a1.32,1.32,0,0,1,1.32,1.32v39.65A1.32,1.32,0,0,1,464.86,302.15Z" style="fill:#407BFF"></path><path d="M397.13,296h0a1.32,1.32,0,0,1-1.32-1.31V255.3a1.32,1.32,0,0,1,1.32-1.32h0a1.32,1.32,0,0,1,1.32,1.32v39.41A1.32,1.32,0,0,1,397.13,296Z" style="fill:#407BFF"></path><path d="M380.33,303.74h0a1.32,1.32,0,0,1-1.32-1.32V281.33a1.32,1.32,0,0,1,1.32-1.32h0a1.32,1.32,0,0,1,1.32,1.32v21.09A1.32,1.32,0,0,1,380.33,303.74Z" style="fill:#407BFF"></path><path d="M414.43,298.79h0a1.32,1.32,0,0,1-1.32-1.31V281.06a1.32,1.32,0,0,1,1.32-1.32h0a1.32,1.32,0,0,1,1.32,1.32v16.42A1.32,1.32,0,0,1,414.43,298.79Z" style="fill:#407BFF"></path><path d="M472.61,293.91h0a1.32,1.32,0,0,1-1.31-1.32V276.18a1.32,1.32,0,0,1,1.31-1.32h0a1.32,1.32,0,0,1,1.32,1.32v16.41A1.32,1.32,0,0,1,472.61,293.91Z" style="fill:#e0e0e0"></path><path d="M500.34,298.58h0a1.32,1.32,0,0,1-1.32-1.32V280.85a1.32,1.32,0,0,1,1.32-1.32h0a1.32,1.32,0,0,1,1.32,1.32v16.41A1.32,1.32,0,0,1,500.34,298.58Z" style="fill:#407BFF"></path><path d="M508.26,303.43h0a1.31,1.31,0,0,1-1.31-1.31V285.7a1.32,1.32,0,0,1,1.31-1.32h0a1.32,1.32,0,0,1,1.32,1.32v16.42A1.32,1.32,0,0,1,508.26,303.43Z" style="fill:#e0e0e0"></path><path d="M517.34,286.44h0a1.32,1.32,0,0,1-1.31-1.32V268.7a1.32,1.32,0,0,1,1.31-1.32h0a1.33,1.33,0,0,1,1.32,1.32v16.42A1.32,1.32,0,0,1,517.34,286.44Z" style="fill:#407BFF"></path><path d="M457.1,298.79h0a1.32,1.32,0,0,1-1.32-1.32V281.05a1.32,1.32,0,0,1,1.32-1.31h0a1.31,1.31,0,0,1,1.31,1.31v16.42A1.32,1.32,0,0,1,457.1,298.79Z" style="fill:#e0e0e0"></path><path d="M430.69,295h0a1.32,1.32,0,0,1-1.32-1.31V277.26a1.32,1.32,0,0,1,1.32-1.32h0a1.32,1.32,0,0,1,1.32,1.32v16.42A1.32,1.32,0,0,1,430.69,295Z" style="fill:#407BFF"></path><path d="M448.21,299h0a1.32,1.32,0,0,1-1.32-1.31V271.06a1.32,1.32,0,0,1,1.32-1.31h0a1.32,1.32,0,0,1,1.32,1.31v26.65A1.32,1.32,0,0,1,448.21,299Z" style="fill:#407BFF"></path><path d="M539.86,330.68l.4,0a7.46,7.46,0,0,0,1.16-.14,8.89,8.89,0,0,0,4.09-1.92,9,9,0,0,0,2.11-2.59,8.77,8.77,0,0,0,1-3.87c0-3,0-6.36,0-10.19,0-15.34,0-37.52-.08-64.93v-2.59a12.92,12.92,0,0,0-.15-2.57,8.67,8.67,0,0,0-2.36-4.56,8.79,8.79,0,0,0-4.62-2.45,14.38,14.38,0,0,0-2.72-.14H512.6l-51.46,0-117.93,0a8.7,8.7,0,0,0-6.65,3.12,8.48,8.48,0,0,0-1.7,3.34,14,14,0,0,0-.29,3.79v45.47q0,14.81,0,29a29,29,0,0,0,.1,3.51,8.52,8.52,0,0,0,1.14,3.21,8.67,8.67,0,0,0,5.33,3.94,13.63,13.63,0,0,0,3.39.26h10.29l96.32.06,64.93.08,17.65.05,4.59,0,1.56,0-1.56,0-4.59,0-17.65,0-64.93.09-96.32.05H344.52a13.45,13.45,0,0,1-3.5-.27,9.1,9.1,0,0,1-6.85-7.55,28.67,28.67,0,0,1-.11-3.58v-29q0-14.79,0-30.08V245a14.86,14.86,0,0,1,.3-3.92,9.14,9.14,0,0,1,8.86-6.85l117.93,0,51.46,0,23.33,0h2.79a13.8,13.8,0,0,1,2.79.16,9,9,0,0,1,7.28,7.32,13.86,13.86,0,0,1,.15,2.64V247c0,27.41-.07,49.59-.08,64.93,0,3.83,0,7.24-.05,10.19a8.8,8.8,0,0,1-3.24,6.54,8.68,8.68,0,0,1-4.15,1.89,5.81,5.81,0,0,1-1.16.11Z" style="fill:#455a64"></path><path d="M318.41,330.68s.33,0,1-.1a6.73,6.73,0,0,0,2.61-1,6.82,6.82,0,0,0,2.84-3.44,7.46,7.46,0,0,0,.44-2.85c0-1.05,0-2.16,0-3.34,0-9.45-.05-23.09-.08-39.95,0-8.43,0-17.67,0-27.59,0-2.47,0-5,0-7.56,0-1.27,0-2.58,0-3.86a6.62,6.62,0,0,0-1.27-3.53,6.61,6.61,0,0,0-4.91-2.74c-.64,0-1.33,0-2,0h-8.25l-72.55,0a6.65,6.65,0,0,0-6.57,5.42,11.83,11.83,0,0,0-.12,2.32v7.09q0,9.41,0,18.51c0,12.14,0,23.84,0,35,0,5.57,0,11,0,16.29,0,1.32,0,2.63,0,3.93a7.16,7.16,0,0,0,.82,3.63,6.77,6.77,0,0,0,6,3.52l27.59,0,39.94.08,10.86.05,2.83,0,1,0-1,0-2.83,0-10.86,0-39.94.09-27.59,0a7.23,7.23,0,0,1-6.42-3.74,7.53,7.53,0,0,1-.87-3.84v-3.93c0-5.28,0-10.72,0-16.29,0-11.16,0-22.86,0-35V242.5a12.45,12.45,0,0,1,.13-2.42,7.17,7.17,0,0,1,7.08-5.84l72.55,0h8.25c.69,0,1.34,0,2.05,0a7.32,7.32,0,0,1,2,.46,7.16,7.16,0,0,1,4.57,6.26c0,1.32,0,2.6,0,3.88v7.56c0,9.92,0,19.16,0,27.59,0,16.86-.07,30.5-.09,39.95,0,1.18,0,2.29,0,3.34a7.49,7.49,0,0,1-.47,2.9,7,7,0,0,1-2.93,3.48,6.52,6.52,0,0,1-2.67.92A5,5,0,0,1,318.41,330.68Z" style="fill:#455a64"></path><path d="M534.26,76.75l.59,0a11,11,0,0,1,1.77.17,13.82,13.82,0,0,1,6.31,2.75,14.21,14.21,0,0,1,5.41,9.63c.09,1.13.09,2.29.09,3.49v3.73c0,2.57,0,5.31,0,8.21,0,23.2,0,56.77.08,98.25v7.87c0,1.33,0,2.66-.06,4a14.07,14.07,0,0,1-.93,4,14.32,14.32,0,0,1-5.08,6.47,15,15,0,0,1-3.77,1.9,15.34,15.34,0,0,1-4.21.7l-35.3,0-77.87,0-178.44,0a14.4,14.4,0,0,1-13.67-9.92c-.16-.48-.26-1-.39-1.45s-.15-1-.23-1.48l-.08-1.49V143.39q0-22.39,0-43.94V94.08a40.28,40.28,0,0,1,.18-5.37,14.38,14.38,0,0,1,10-11.58,16.34,16.34,0,0,1,5.23-.62h10.35L400,76.57l98.25.08,26.71,0,6.95,0c1.56,0,2.37,0,2.37,0l-2.37,0-6.95,0-26.71,0L400,76.94,254.24,77H243.89a15.6,15.6,0,0,0-5.09.61,13.86,13.86,0,0,0-9.63,11.18,40.43,40.43,0,0,0-.16,5.3v49.31q0,22.38,0,45.53v24.75l.07,1.44c.08.47.14.95.23,1.42s.23.94.38,1.4a13.88,13.88,0,0,0,13.17,9.56l178.44,0,77.87,0h35.29a14.41,14.41,0,0,0,4.09-.67,13.93,13.93,0,0,0,8.62-8.13,13.31,13.31,0,0,0,.91-3.87c.1-1.31,0-2.66.07-4V203c0-41.48.06-75,.08-98.25q0-4.35,0-8.21c0-1.29,0-2.53,0-3.73s0-2.36-.08-3.47A14.05,14.05,0,0,0,536.61,77a10.24,10.24,0,0,0-1.76-.19Z" style="fill:#455a64"></path></g><g id="freepik--Floor--inject-244"><path d="M691.69,457.36c0,.14-142.38.26-318,.26s-318-.12-318-.26,142.36-.26,318-.26S691.69,457.21,691.69,457.36Z" style="fill:#263238"></path></g><g id="freepik--Character--inject-244"><path d="M90.2,421.16,83.68,447,72.63,466a2.74,2.74,0,0,0,1.15,3.83h0a2.72,2.72,0,0,0,2.5,0l25-15.52,7.24-25.84Z" style="fill:#455a64"></path><path d="M76.28,469.77l25-15.52,1.07-3.84L73.58,469.7A2.8,2.8,0,0,0,76.28,469.77Z" style="fill:#263238"></path><path d="M171.05,426.84l-1.34,20.21s20.11,6.68,20.23,10.44l-39.3.28.79-31.57Z" style="fill:#455a64"></path><path d="M150.64,457.77l.08-3.18,38,1.05a2.7,2.7,0,0,1,1.46,2.13Z" style="fill:#263238"></path><polygon points="169.33 253 107.66 249.82 82.19 443.49 106.58 446.58 138.71 286.44 148.07 440.41 148.37 445.99 173.86 446.58 169.33 253" style="fill:#263238"></polygon><path d="M164.16,442c-.14,0-2.43-35.12-5.12-78.45s-4.74-78.48-4.6-78.49,2.44,35.11,5.12,78.46S164.31,442,164.16,442Z" style="fill:#455a64"></path><path d="M121.88,283.66c.14,0-5.87,35.38-13.42,79S94.67,441.53,94.53,441.5s5.86-35.37,13.42-79S121.73,283.63,121.88,283.66Z" style="fill:#455a64"></path><path d="M56.52,181.45l-11.2-16.36c-2.23-3.7-2.89-5.38-2.17-5.76,1-.49.56-.35,5.58,5.8,0,0-7.08-8.84-4-8.13a12.45,12.45,0,0,1,3.13,2.8c-1.71-2.38-2-3.76-1.44-4.25,1-.85,5.38,4.18,7.4,6.57-1.64-2-4.75-5.85-5.2-6.93-.62-1.48,1.23-.91,2.63,0,1.56,1,9.83,8.18,12.32,10.12a1.86,1.86,0,0,0,2.82-.24c2.11-4.08,5.93-6.13,7.22-6.2a1.4,1.4,0,0,1,.7,2.58,17,17,0,0,0-2.86,3.66A10.68,10.68,0,0,0,70,168.51c-.19.81-.34,1.55-.46,2.23l4.54,8.1-14.91,9.5Z" style="fill:#ffbe9d"></path><path d="M51.1,168.72c-.16.13-1.78-1.69-3.62-4.06s-3.22-4.4-3-4.51,1.78,1.7,3.62,4.06S51.25,168.59,51.1,168.72Z" style="fill:#eb996e"></path><path d="M54.59,167.27c-.15.13-2-1.71-4.1-4.12s-3.71-4.46-3.56-4.59,2,1.71,4.1,4.12S54.74,167.14,54.59,167.27Z" style="fill:#eb996e"></path><path d="M57.45,165.92c-.15.13-1.92-1.58-4-3.83s-3.55-4.18-3.41-4.31S52,159.36,54,161.61,57.59,165.79,57.45,165.92Z" style="fill:#eb996e"></path><path d="M57.46,174.65s.38-.41,1.28-.59a4,4,0,0,1,3.42,1l-.42.24a9.25,9.25,0,0,1-.24-1.73A8.87,8.87,0,0,1,62.56,169a4,4,0,0,1,1.2-1.54c.07.05-.39.63-.87,1.7a9.84,9.84,0,0,0-.87,4.41,9.29,9.29,0,0,0,.21,1.64l.18.81-.6-.58a3.9,3.9,0,0,0-3-1C58,174.45,57.49,174.72,57.46,174.65Z" style="fill:#eb996e"></path><path d="M120,105.76l4,45.92L134.73,158l12-5.81c.15-2.69.16-15.46.16-15.46s9.57-1.49,9.69-11.05c0-4.65-.61-14.25-1.31-22.9A17.7,17.7,0,0,0,136.6,86.57h0A17.71,17.71,0,0,0,120,105.76Z" style="fill:#ffbe9d"></path><path d="M146.92,136.63a22.31,22.31,0,0,1-12.48-3.54s2.95,6.88,12.5,6Z" style="fill:#eb996e"></path><path d="M151.91,109.72a1.38,1.38,0,0,1-1.32,1.38,1.31,1.31,0,0,1-1.41-1.23,1.37,1.37,0,0,1,1.32-1.38A1.31,1.31,0,0,1,151.91,109.72Z" style="fill:#263238"></path><path d="M153.24,107.64c-.17.18-1.21-.59-2.68-.58s-2.55.74-2.71.56.1-.41.57-.75a3.77,3.77,0,0,1,2.16-.67,3.66,3.66,0,0,1,2.13.69C153.17,107.24,153.32,107.56,153.24,107.64Z" style="fill:#263238"></path><path d="M137.53,109.72a1.36,1.36,0,0,1-1.32,1.38,1.3,1.3,0,0,1-1.4-1.23,1.35,1.35,0,0,1,1.31-1.38A1.31,1.31,0,0,1,137.53,109.72Z" style="fill:#263238"></path><path d="M138.78,107.92c-.16.17-1.2-.59-2.67-.59s-2.55.74-2.71.56.1-.4.57-.74a3.77,3.77,0,0,1,2.16-.67,3.52,3.52,0,0,1,2.13.69C138.71,107.51,138.87,107.84,138.78,107.92Z" style="fill:#263238"></path><path d="M144.12,118.82a9.43,9.43,0,0,1,2.39-.43c.37,0,.73-.12.79-.37a1.94,1.94,0,0,0-.25-1.12c-.35-.9-.72-1.86-1.11-2.85-1.54-4.07-2.66-7.42-2.49-7.48s1.55,3.19,3.09,7.26c.37,1,.72,2,1.06,2.87a2.21,2.21,0,0,1,.2,1.48,1,1,0,0,1-.62.55,2.6,2.6,0,0,1-.64.08A10.06,10.06,0,0,1,144.12,118.82Z" style="fill:#263238"></path><path d="M139.79,119.83c.24,0,.25,1.59,1.61,2.72s3.07,1,3.08,1.18-.38.31-1.1.33a4,4,0,0,1-2.57-.9,3.43,3.43,0,0,1-1.24-2.27C139.51,120.22,139.68,119.83,139.79,119.83Z" style="fill:#263238"></path><path d="M139.16,102.15c-.14.4-1.61.21-3.33.42s-3.12.68-3.35.32c-.1-.17.14-.55.7-.93a5.82,5.82,0,0,1,5.09-.56C138.91,101.65,139.23,102,139.16,102.15Z" style="fill:#263238"></path><path d="M152.69,103.39c-.25.33-1.27,0-2.48,0s-2.25.22-2.49-.13c-.1-.17.06-.5.51-.82a3.42,3.42,0,0,1,2-.54,3.36,3.36,0,0,1,2,.67C152.67,102.88,152.81,103.22,152.69,103.39Z" style="fill:#263238"></path><path d="M113.24,93.52c-.06-1.79,1.21-3.7,3-3.81a4.42,4.42,0,0,1,6.33-5.55,5.73,5.73,0,0,1,10.1-2.06,6.08,6.08,0,0,1,10.26,1.63,6.68,6.68,0,0,1,9.86,1.4,8.93,8.93,0,0,1,3.27-.52,4,4,0,0,1,3.44,2.18,2.6,2.6,0,0,1-1,3.09A3.17,3.17,0,1,1,160,96a1.79,1.79,0,0,1,1,1.67,3.39,3.39,0,0,1-2.24,2.47c-2.73,1.2-5.91.82-8.73-.13s-5.44-2.43-8.24-3.45-7.49-2.85-10.29-1.86a5.07,5.07,0,0,0-1.13.59,7.56,7.56,0,0,0-2.78,4.85l0,.19c-.37,2.73-.3,5.51-.7,8.23a12.4,12.4,0,0,1-3.36,7.38c-.83.77-2.3,1.3-3,.4a2.35,2.35,0,0,1-.34-1.25c-.37-4.76-1.4-9.12-1.94-13.77a13.85,13.85,0,0,0-2.6-3.16A7.4,7.4,0,0,1,113.24,93.52Z" style="fill:#263238"></path><path d="M141.76,88.71a2.45,2.45,0,0,0,.13-1.28,4.93,4.93,0,0,0-1.53-3.14,5,5,0,0,0-5-1A3.87,3.87,0,0,0,133,85.42a2.72,2.72,0,0,0-.07,1.76,2.09,2.09,0,0,0,1.24,1.37,1.94,1.94,0,0,0,1.86-.21,1.85,1.85,0,0,0,.68-1.68,2.35,2.35,0,0,0-.78-1.53,3.7,3.7,0,0,0-1.39-.77,5.86,5.86,0,0,0-5.1.83,3.57,3.57,0,0,0-1.24,1.63,2.76,2.76,0,0,0-.08,1.54c.22.85.7,1.11.7,1.08a3.24,3.24,0,0,1-.47-1.12,2.67,2.67,0,0,1,.17-1.38,3.27,3.27,0,0,1,1.18-1.4,5.48,5.48,0,0,1,4.67-.65,2.3,2.3,0,0,1,1.75,1.82,1.28,1.28,0,0,1-.45,1.15,1.4,1.4,0,0,1-1.28.13,1.81,1.81,0,0,1-.83-2.36,3.31,3.31,0,0,1,2-1.8,4.61,4.61,0,0,1,4.55.78,4.86,4.86,0,0,1,1.58,2.85C141.78,88.25,141.7,88.7,141.76,88.71Z" style="fill:#455a64"></path><path d="M130.13,82.6a2.16,2.16,0,0,0-.86-.16,9.59,9.59,0,0,0-2.41.06,5.66,5.66,0,0,0-3.22,1.64,3.59,3.59,0,0,0-.5,4.33,2.74,2.74,0,0,0,.52.6l.31-.52a2.52,2.52,0,0,0-2.28.3,2.84,2.84,0,0,0-1.22,1.73,4.1,4.1,0,0,0,.74,3.31,6.73,6.73,0,0,0,1.64,1.54c.44.29.7.4.72.37s-.2-.22-.58-.55a7.38,7.38,0,0,1-1.43-1.6,3.73,3.73,0,0,1-.56-2.93,2.33,2.33,0,0,1,1-1.37,1.93,1.93,0,0,1,1.74-.23l1.57.63-1.26-1.15a2.63,2.63,0,0,1-.41-.46,2.91,2.91,0,0,1-.39-1.93,3.23,3.23,0,0,1,.81-1.69,5.38,5.38,0,0,1,2.88-1.6C128.86,82.55,130.13,82.73,130.13,82.6Z" style="fill:#455a64"></path><path d="M116.28,92.73c-.07,0-.24.32-.24.91a3.24,3.24,0,0,0,2.86,3.18c.59.06.94-.07.93-.14s-1.45-.14-2.51-1.32S116.45,92.73,116.28,92.73Z" style="fill:#455a64"></path><path d="M157.15,87.74a2.45,2.45,0,0,0-.9-.73,6.24,6.24,0,0,0-7.38,1,3.63,3.63,0,0,0-1.13,2.64A2.21,2.21,0,0,0,150,92.7a1.7,1.7,0,0,0,1.37-1,2.52,2.52,0,0,0,.1-1.6,3.1,3.1,0,0,0-2.07-2,3.92,3.92,0,0,0-2.58,0,5.74,5.74,0,0,0-1.9,1.15A9.4,9.4,0,0,0,143,91.77a3.6,3.6,0,0,0-.46,1,4.84,4.84,0,0,0,.66-.92,10.72,10.72,0,0,1,2-2.32,4.19,4.19,0,0,1,4-1,2.54,2.54,0,0,1,1.67,1.63c.23.78-.13,1.82-.95,1.88a1.63,1.63,0,0,1-1.6-1.51,3.09,3.09,0,0,1,.95-2.21,5.82,5.82,0,0,1,3.93-1.72,6.37,6.37,0,0,1,2.93.57C156.79,87.52,157.11,87.78,157.15,87.74Z" style="fill:#455a64"></path><path d="M123.22,110.09c-.16-.07-6.57-1.94-6.37,4.6s6.74,5,6.74,4.79S123.22,110.09,123.22,110.09Z" style="fill:#ffbe9d"></path><path d="M121.51,117.07s-.11.08-.3.18a1.13,1.13,0,0,1-.85,0A2.82,2.82,0,0,1,119,114.8a3.8,3.8,0,0,1,.26-1.64,1.34,1.34,0,0,1,.83-.9.59.59,0,0,1,.69.29c.09.18,0,.31.09.32s.13-.11.07-.38a.7.7,0,0,0-.27-.4.88.88,0,0,0-.63-.15,1.58,1.58,0,0,0-1.16,1,3.93,3.93,0,0,0-.34,1.84,3,3,0,0,0,1.75,2.77,1.17,1.17,0,0,0,1-.21C121.51,117.23,121.54,117.08,121.51,117.07Z" style="fill:#eb996e"></path><path d="M103.78,193.9c0,1.58,4.74,33.24,4.74,33.24L99.1,278.6l36.49,1.93L139.93,249l4.75,31.58,31.6-3.06-7.18-40,.06-45.82-.4-36.82-13.48-4.61-7-8.15-11.27,7-13.9-8.32-4.4,6L99.1,157C97.31,160.24,103.78,193.9,103.78,193.9Z" style="fill:#407BFF"></path><path d="M123.14,140.74l-.45,10,19.19,51.06,7.76-50.16L147.12,142h0L137,149.06Z" style="fill:#fff"></path><path d="M141.44,203.7a4.48,4.48,0,0,1-.46-.55l-1.24-1.65-4.45-6.11L120.75,175.1c-.82-1.14-1.62-2.27-2.41-3.38l-.11-.16.11-.16,3.81-5.5.06.36-8.46-6.32-.14-.1.06-.15,3.64-9.46,1-2.6a5.34,5.34,0,0,1,.4-.89,4.16,4.16,0,0,1-.28.94c-.23.66-.53,1.54-.92,2.63-.84,2.34-2,5.59-3.45,9.53l-.08-.25,8.52,6.25.2.15-.14.21c-1.22,1.77-2.49,3.61-3.79,5.52v-.32l2.41,3.38c5.61,7.93,10.68,15.12,14.41,20.38l4.31,6.22,1.15,1.7A3.24,3.24,0,0,1,141.44,203.7Z" style="fill:#263238"></path><path d="M139.78,256.93a2,2,0,0,1,0-.55c0-.43,0-1,0-1.59,0-1.46.09-3.44.16-5.84.17-5,.4-11.78.65-19.26s.44-14.25.59-19.25c.06-2.41.12-4.38.15-5.84,0-.64.05-1.16.07-1.59a2.39,2.39,0,0,1,.05-.55,2,2,0,0,1,.06.55c0,.43,0,1,0,1.59,0,1.38,0,3.38,0,5.84,0,4.94-.17,11.75-.43,19.27s-.55,14.33-.81,19.26c-.13,2.4-.25,4.37-.33,5.83-.05.63-.1,1.16-.13,1.58A1.9,1.9,0,0,1,139.78,256.93Z" style="fill:#263238"></path><path d="M142.24,202.21a2.4,2.4,0,0,1,.19-.58c.16-.43.37-1,.63-1.63.6-1.48,1.42-3.49,2.43-5.95,2.12-5.07,5-11.94,8.2-19.54l2-4.62,0,.28c-1.57-1.86-3.06-3.65-4.47-5.33l-.15-.18.16-.16c2.42-2.52,4.61-4.78,6.47-6.7l0,.2c-.86-2.49-1.56-4.52-2.08-6-.21-.67-.39-1.21-.53-1.65a2.13,2.13,0,0,1-.15-.58,2.4,2.4,0,0,1,.25.54l.64,1.61c.55,1.48,1.31,3.5,2.23,6l.05.11-.09.09-6.38,6.78v-.34l4.5,5.31.1.13-.06.15-2,4.62c-3.25,7.58-6.18,14.43-8.35,19.48l-2.59,5.88-.73,1.59A2.24,2.24,0,0,1,142.24,202.21Z" style="fill:#263238"></path><g style="opacity:0.30000000000000004"><polygon points="113.88 159.77 119.54 166.08 115.63 173.1 139.78 201.76 118.57 171.56 122.37 166.05 113.88 159.77"></polygon></g><g style="opacity:0.30000000000000004"><polygon points="142.81 200.86 156.25 174.47 155.91 170 142.81 200.86"></polygon></g><path d="M100.48,160.35s.28.14.74.48a15,15,0,0,1,1.78,1.56,21.88,21.88,0,0,1,4.4,6.49,21.51,21.51,0,0,1,1.8,7.63,15.39,15.39,0,0,1,0,2.37,2.51,2.51,0,0,1-.15.86c-.1,0,0-1.24-.19-3.21a24.31,24.31,0,0,0-1.92-7.43,24.63,24.63,0,0,0-4.17-6.44C101.39,161.2,100.42,160.43,100.48,160.35Z" style="fill:#263238"></path><path d="M171,186.11c-.15,0-.67-5.81-1.16-13s-.76-13-.6-13,.67,5.8,1.16,13S171.13,186.1,171,186.11Z" style="fill:#263238"></path><path d="M149.57,151.79a3.73,3.73,0,0,1-.57.63c-.39.4-1,1-1.72,1.7a48.35,48.35,0,0,1-6.7,5.46l-.36.23v-.42a17.83,17.83,0,0,0-.87-5.69,14.77,14.77,0,0,0-1.38-2.83c-.28-.46-.59-.92-.92-1.36l-.13-.16-.06-.08,0,0h0l.34.07h0a1.21,1.21,0,0,0-.24.26,3.88,3.88,0,0,0-.42.68,19.91,19.91,0,0,0-1.34,4.87c-.3,1.62-.55,3.19-.77,4.67l-.06.44L134,160l-8.14-6.5-2.29-1.88a4.74,4.74,0,0,1-.78-.71,5.58,5.58,0,0,1,.88.59c.62.45,1.41,1.05,2.38,1.77l8.27,6.33-.41.16c.2-1.49.44-3.07.74-4.7a19.91,19.91,0,0,1,1.37-5,4.72,4.72,0,0,1,.48-.77,1.62,1.62,0,0,1,.34-.36l.06,0,0,0c-.07,0,.66.14.35.08h0l0,0,.06.09.13.17a16.4,16.4,0,0,1,1,1.4,15.57,15.57,0,0,1,1.42,2.94,17.74,17.74,0,0,1,.83,5.85l-.36-.19a55.16,55.16,0,0,0,6.77-5.27l1.81-1.59A3.23,3.23,0,0,1,149.57,151.79Z" style="fill:#263238"></path><path d="M141.41,201.3c-.15,0-1.26-11.6-2.46-25.93s-2.07-26-1.91-26,1.25,11.59,2.46,25.92S141.56,201.28,141.41,201.3Z" style="fill:#263238"></path><g style="opacity:0.30000000000000004"><path d="M107.66,189.87s-.94,25.13-.93,25.2l-2.22-14.86Z"></path></g><path d="M211.47,192.18,200,183.6l3-5.59,6.7-9.71a3.41,3.41,0,0,1,2.27-1.43l5.92-1,.3,1.83s2.21-1.47,3,.4-1.87,3.71-1.87,3.71a2.16,2.16,0,0,1,2.71,1.75,2.11,2.11,0,0,1-1.73,2.65c1.74,2.3,0,3.66,0,3.66,2,2.29-.75,4.47-.75,4.47l-7.59,7.72Z" style="fill:#ffbe9d"></path><polygon points="238.61 107.33 239.36 108.04 212.13 188.13 209.36 186.86 238.61 107.33" style="fill:#407BFF"></polygon><path d="M220.77,182.72a11.85,11.85,0,0,1-3.81,3.81,3.55,3.55,0,0,1-1.38.67,1.46,1.46,0,0,1-1.41-.44,1.56,1.56,0,0,1-.27-1.07,3.48,3.48,0,0,1,1-2.07,10.24,10.24,0,0,1,1.81-1.46" style="fill:#ffbe9d"></path><path d="M216.68,182.16c.06.07-.64.52-1.52,1.42a3.71,3.71,0,0,0-1,1.86,1.55,1.55,0,0,0,.17,1.11,1.15,1.15,0,0,0,1,.42,5.82,5.82,0,0,0,2.29-1.26,16.46,16.46,0,0,0,1.72-1.43c.9-.9,1.3-1.6,1.38-1.56a4.41,4.41,0,0,1-1.11,1.81,12.63,12.63,0,0,1-1.7,1.56c-.35.27-.7.54-1.09.81a3,3,0,0,1-1.45.58,1.61,1.61,0,0,1-1.5-.64,2,2,0,0,1-.23-1.48,3.9,3.9,0,0,1,1.21-2A5,5,0,0,1,216.68,182.16Z" style="fill:#eb996e"></path><path d="M168.76,154.8c3,1,7.67,9.77,7.67,9.77l12.33,36.29s11-17.84,11-18.14,14.16,10.41,14.16,10.41l-9.34,18.24-.49,4.71-9,14.64c-2.27,2.47-6.32,3-9.67,2.81h0a11.17,11.17,0,0,1-9.65-6.84l-6.63-18.38Z" style="fill:#407BFF"></path><path d="M94,164.24,83.78,196.87,73,175.42,56.73,185.77l15.19,33.57c2.24,5.08,8.58,10.28,13.18,10.28h0A16.16,16.16,0,0,0,100.27,219l10.84-26.35L99.1,157h0A14.38,14.38,0,0,0,94,164.24Z" style="fill:#407BFF"></path><path d="M83.75,215.85a92.68,92.68,0,0,1-.17-9.75,89.63,89.63,0,0,1,.35-9.74,92.55,92.55,0,0,1,.17,9.75A89.63,89.63,0,0,1,83.75,215.85Z" style="fill:#263238"></path><path d="M88.65,210.13A10.44,10.44,0,0,1,88,208c-.36-1.34-.85-3.19-1.43-5.23s-1.14-3.89-1.56-5.17a1.14,1.14,0,0,0-1.07-.87c-.36,0-.49.22-.52.19s0-.3.5-.39a1.1,1.1,0,0,1,.76.14,1.73,1.73,0,0,1,.66.77c.55,1.33,1.13,3.14,1.73,5.19s1,3.92,1.29,5.29A9,9,0,0,1,88.65,210.13Z" style="fill:#263238"></path><path d="M71.49,218.06a4.89,4.89,0,0,1,.3.56c.2.36.48.91.89,1.58a24.41,24.41,0,0,0,4.08,5.25,16.81,16.81,0,0,0,3.69,2.66,12.52,12.52,0,0,0,5,1.27,13.09,13.09,0,0,0,5.64-1,15.9,15.9,0,0,0,5.09-3.47,16.37,16.37,0,0,0,2.37-3v0c2.88-7.18,5.64-13.45,7.65-17.94,1-2.24,1.84-4,2.42-5.26.28-.57.5-1,.68-1.4a2,2,0,0,1,.27-.48,3.17,3.17,0,0,1-.18.52c-.16.37-.35.85-.6,1.44l-2.27,5.32c-1.93,4.52-4.63,10.81-7.49,18v0h0a16.67,16.67,0,0,1-2.45,3.11,16.22,16.22,0,0,1-5.27,3.58,13.73,13.73,0,0,1-5.84,1,12.73,12.73,0,0,1-5.19-1.37,16.39,16.39,0,0,1-3.76-2.78,23,23,0,0,1-4-5.41c-.38-.69-.63-1.26-.8-1.64A2.18,2.18,0,0,1,71.49,218.06Z" style="fill:#263238"></path><path d="M211.91,166.87l5.92-1s1.09,1.72-3.3,4.09l-2.76,1.66s2,3.82-1.07,9.41" style="fill:#ffbe9d"></path><path d="M210.7,181.08c-.08,0,.45-1,1-2.62a11.64,11.64,0,0,0,.52-3,8.52,8.52,0,0,0-.63-3.68l-.1-.22.19-.11,2.19-1.33a16.82,16.82,0,0,0,2.75-1.82,4.05,4.05,0,0,0,.93-1.12,1.34,1.34,0,0,0,.13-1.15l.23.1c-1.79.26-3.27.47-4.31.6a8.07,8.07,0,0,1-1.65.13,7,7,0,0,1,1.6-.39c1-.2,2.51-.47,4.29-.78l.15,0,.07.13a1.76,1.76,0,0,1-.08,1.61,4.64,4.64,0,0,1-1,1.27,16.08,16.08,0,0,1-2.83,1.9l-2.19,1.31.1-.33a8.51,8.51,0,0,1,.62,3.93,11,11,0,0,1-.65,3.08,9,9,0,0,1-.45,1.09,5.65,5.65,0,0,1-.41.79A2.91,2.91,0,0,1,210.7,181.08Z" style="fill:#eb996e"></path><path d="M213,192.61a8.49,8.49,0,0,1-1-.66l-2.75-2-9.61-7.06.34-.07-6.42,10.66-3,5a46.64,46.64,0,0,0-2.68,4.71,26.28,26.28,0,0,0-2.38,8.76,27.28,27.28,0,0,0,.14,6.16c.19,1.45.39,2.24.33,2.25a4.08,4.08,0,0,1-.17-.56c-.11-.38-.23-.93-.36-1.66a25,25,0,0,1-.31-6.22,26,26,0,0,1,2.32-8.94,45.78,45.78,0,0,1,2.67-4.76l3-5,6.47-10.63.13-.22.21.15,9.5,7.22,2.67,2.08A5.88,5.88,0,0,1,213,192.61Z" style="fill:#263238"></path><path d="M188.81,201a18.55,18.55,0,0,0-7.63,11.54,5.7,5.7,0,0,1,.23-2.11,15,15,0,0,1,2-4.69,14.85,14.85,0,0,1,3.52-3.7A5.81,5.81,0,0,1,188.81,201Z" style="fill:#263238"></path><path d="M169.16,170.08a3.28,3.28,0,0,1,.07.68c0,.5.06,1.15.09,2,.06,1.71.12,4.17.17,7.22.08,6.1.11,14.52.07,23.82s-.11,17.72-.2,23.81c-.06,3-.11,5.46-.14,7.22,0,.81-.05,1.46-.07,2a5.4,5.4,0,0,1-.05.69,2.88,2.88,0,0,1,0-.69c0-.5,0-1.15,0-2,0-1.77,0-4.22,0-7.22,0-6.15,0-14.54,0-23.82s.06-17.66.08-23.81v-9.18A3.22,3.22,0,0,1,169.16,170.08Z" style="fill:#263238"></path><path d="M219.43,167.26c-1.13.51-6.27,3.86-6.8,5a2.7,2.7,0,0,0-.28,1.14,1.23,1.23,0,0,0,.51,1,1.79,1.79,0,0,0,1.68,0,20.73,20.73,0,0,0,6-3.71,2.73,2.73,0,0,0,.83-1.78,1.55,1.55,0,0,0-1-1.59" style="fill:#ffbe9d"></path><path d="M220.41,167.26s.41,0,.79.52a2.35,2.35,0,0,1-.17,2.55,6.72,6.72,0,0,1-1.29,1.26,14.6,14.6,0,0,1-1.65,1.19,21.31,21.31,0,0,1-2,1.09l-1.06.51a4.32,4.32,0,0,1-1.21.43,1.53,1.53,0,0,1-1.35-.37,1.63,1.63,0,0,1-.41-1.29,2.82,2.82,0,0,1,.41-1.18,4.89,4.89,0,0,1,.8-.83,30.31,30.31,0,0,1,3.06-2.23,12.66,12.66,0,0,1,3.06-1.65,4.85,4.85,0,0,1-.76.53c-.5.33-1.22.81-2.09,1.43a34.62,34.62,0,0,0-3,2.28,4.41,4.41,0,0,0-.7.74,2.38,2.38,0,0,0-.32.95,1.12,1.12,0,0,0,.27.88,1.07,1.07,0,0,0,.91.23,18.71,18.71,0,0,0,6.94-4.18,2.13,2.13,0,0,0,.29-2.23C220.75,167.39,220.38,167.3,220.41,167.26Z" style="fill:#eb996e"></path><path d="M216.39,177.92a13.15,13.15,0,0,0-2.16,1.22,4.53,4.53,0,0,0-1.55,1.89,1.6,1.6,0,0,0,.1,1.59,1.37,1.37,0,0,0,1,.44,3.36,3.36,0,0,0,1.12-.21,15.87,15.87,0,0,0,4-1.87,5.64,5.64,0,0,0,1.42-1.24,2.57,2.57,0,0,0,.59-1.75c-.05-.63-.12-1.32-.71-1.54" style="fill:#ffbe9d"></path><path d="M220.22,176.45s.35,0,.61.46a2.63,2.63,0,0,1,.23.88A2.5,2.5,0,0,1,221,179a4.68,4.68,0,0,1-2.07,2.28,15.91,15.91,0,0,1-3.36,1.64,4.48,4.48,0,0,1-2,.36,1.52,1.52,0,0,1-.94-.49,1.45,1.45,0,0,1-.33-1,3.79,3.79,0,0,1,1.6-2.66,8.49,8.49,0,0,1,1.8-1,2.06,2.06,0,0,1,.71-.24s-.21.18-.62.42a11.22,11.22,0,0,0-1.65,1.12,4.57,4.57,0,0,0-.89,1,2.51,2.51,0,0,0-.47,1.37.93.93,0,0,0,.87,1,4,4,0,0,0,1.73-.36,16,16,0,0,0,3.27-1.55,4.49,4.49,0,0,0,2-2,2.24,2.24,0,0,0,.15-1.06,2.51,2.51,0,0,0-.13-.82C220.49,176.57,220.19,176.49,220.22,176.45Z" style="fill:#eb996e"></path><path d="M221.92,173.5c-.6-2.22-2.95-1.41-2.95-1.41a30.94,30.94,0,0,0-4.54,2.62,2.93,2.93,0,0,0-1,1.39,1.74,1.74,0,0,0,.19,1.63,1.81,1.81,0,0,0,1.56.58,5.08,5.08,0,0,0,1.65-.5l3.61-1.55a2.46,2.46,0,0,0,1.51-2.6v0" style="fill:#ffbe9d"></path><path d="M222,173.61s.18.31.08.92a2.61,2.61,0,0,1-1.59,1.94L217.1,178a5,5,0,0,1-2.17.61,2.06,2.06,0,0,1-1.22-.41,1.72,1.72,0,0,1-.63-1.2,2.37,2.37,0,0,1,.24-1.22,3.25,3.25,0,0,1,.66-1,12,12,0,0,1,1.75-1.21c1.16-.67,2.25-1.17,3.15-1.63h0a3,3,0,0,1,1.63,0,1.81,1.81,0,0,1,1,.68,1.75,1.75,0,0,1,.33.69c0,.16.05.25,0,.26a7.44,7.44,0,0,0-.52-.82,1.78,1.78,0,0,0-.93-.52,3,3,0,0,0-1.43.11h0c-.89.5-2,1-3.08,1.71a12.46,12.46,0,0,0-1.64,1.16,2.51,2.51,0,0,0-.74,1.78,1.28,1.28,0,0,0,1.35,1.15,4.8,4.8,0,0,0,2-.54l3.39-1.39a2.5,2.5,0,0,0,1.55-1.64A6.22,6.22,0,0,0,222,173.61Z" style="fill:#eb996e"></path></g><g id="freepik--speech-bubble--inject-244"><path d="M88.33,112.41a26.84,26.84,0,1,0-6.69,6.37l9.56,3.7Z" style="fill:#fff"></path><path d="M73.93,96.55a2.3,2.3,0,1,0,2.3-2.3A2.3,2.3,0,0,0,73.93,96.55Z" style="fill:#263238"></path><path d="M64.72,96.55a2.3,2.3,0,1,0,2.3-2.3A2.3,2.3,0,0,0,64.72,96.55Z" style="fill:#263238"></path><path d="M55.53,95.4a2.3,2.3,0,1,0,3.15-.85A2.31,2.31,0,0,0,55.53,95.4Z" style="fill:#263238"></path><path d="M66.88,69.67a3.36,3.36,0,0,0-.47,0L65,69.7c-.3,0-.63,0-1,0l-1.21.17-1.41.2-1.57.39a25.52,25.52,0,0,0-7.62,3.32A27,27,0,0,0,39.87,94.05a28.16,28.16,0,0,0-.07,3.68c0,.63,0,1.26.12,1.89s.19,1.26.29,1.9a26.87,26.87,0,0,0,2.56,7.5,28.79,28.79,0,0,0,4.9,6.74,28.22,28.22,0,0,0,7.06,5.07,25.49,25.49,0,0,0,8.6,2.64,15.84,15.84,0,0,0,2.29.19,22.46,22.46,0,0,0,2.32,0,28.3,28.3,0,0,0,4.65-.59,27.21,27.21,0,0,0,9.25-3.89l-.28,0L91,123l.56.22-.16-.58q-1.42-5.19-2.77-10.07l0,.25a27.16,27.16,0,0,0,5-11.51,24.11,24.11,0,0,0,.36-5.9,18.84,18.84,0,0,0-.26-2.83c-.08-.46-.15-.92-.22-1.38s-.22-.89-.33-1.33A26.88,26.88,0,0,0,82.63,74.59a25.5,25.5,0,0,0-6.25-3.3L75,70.78l-1.34-.34-1.22-.3c-.4-.08-.78-.12-1.13-.17-.71-.09-1.34-.22-1.89-.24l-1.38,0-.85,0a1.16,1.16,0,0,0-.28,0,1.18,1.18,0,0,0,.28,0l.84.07,1.38.09c.54,0,1.16.18,1.87.28A26.81,26.81,0,0,1,92.67,90c.1.43.24.86.32,1.31s.13.9.2,1.35a19.67,19.67,0,0,1,.25,2.78,24.13,24.13,0,0,1-.38,5.78,26.52,26.52,0,0,1-5,11.26l-.08.11,0,.14q1.33,4.89,2.75,10.08l.4-.36-9.42-3.79-.14-.06-.14.09a26.46,26.46,0,0,1-9,3.8,27.92,27.92,0,0,1-4.54.58,21.44,21.44,0,0,1-2.27,0,16.64,16.64,0,0,1-2.24-.18A25.17,25.17,0,0,1,55,120.29a27.71,27.71,0,0,1-6.91-5,28.33,28.33,0,0,1-4.81-6.58,26.33,26.33,0,0,1-2.53-7.34c-.1-.62-.2-1.24-.29-1.86s-.08-1.24-.13-1.85A26.6,26.6,0,0,1,52.41,74.12a25.74,25.74,0,0,1,7.5-3.38l1.55-.41,1.4-.23,1.19-.2c.37,0,.7-.05,1-.07l1.36-.1A2.93,2.93,0,0,0,66.88,69.67Z" style="fill:#263238"></path></g></svg>