<svg id="Group_1_copy_2" data-name="Group 1 copy 2" xmlns="http://www.w3.org/2000/svg" width="24" height="23" viewBox="0 0 24 23">
  <defs>
    <style>
      .cls-1 {
        fill: #fff;
        stroke: #fff;
        stroke-width: 2px;
      }

      .cls-1, .cls-2 {
        fill-rule: evenodd;
      }

      .cls-2 {
        fill: #3eb142;
      }
    </style>
  </defs>
  <path id="Forma_1_copy" data-name="Forma 1 copy" class="cls-1" d="M387.465,541.892a1.4,1.4,0,0,1,.611.908,3.98,3.98,0,0,0-.026.453,4.042,4.042,0,0,0,3.982,4.1,3.907,3.907,0,0,0,.793-0.081,1.379,1.379,0,0,1,1.248.423,3.9,3.9,0,0,0,5.951-.137,1.163,1.163,0,0,1,1.218-.367,3.888,3.888,0,0,0,1.112.162,4.042,4.042,0,0,0,3.982-4.1,4.118,4.118,0,0,0-.067-0.741,1.465,1.465,0,0,1,.452-1.225,4.17,4.17,0,0,0-.213-6.178,1.394,1.394,0,0,1-.611-0.908,3.984,3.984,0,0,0,.026-0.454,4.042,4.042,0,0,0-3.982-4.1,3.907,3.907,0,0,0-.793.081,1.377,1.377,0,0,1-1.247-.423,3.892,3.892,0,0,0-5.828,0,1.379,1.379,0,0,1-1.248.423,3.907,3.907,0,0,0-.793-0.081,4.042,4.042,0,0,0-3.982,4.1,4.11,4.11,0,0,0,.05.642,1.272,1.272,0,0,1-.551,1.066A4.167,4.167,0,0,0,387.465,541.892Z" transform="translate(-385 -527)"/>
  <path id="Forma_1" data-name="Forma 1" class="cls-2" d="M389.249,541.247a1.127,1.127,0,0,1,.5.734,3.191,3.191,0,0,0-.021.368,3.282,3.282,0,0,0,3.242,3.319,3.125,3.125,0,0,0,.646-0.066,1.125,1.125,0,0,1,1.015.343,3.187,3.187,0,0,0,4.845-.111,0.952,0.952,0,0,1,.992-0.3,3.184,3.184,0,0,0,.905.131,3.318,3.318,0,0,0,3.188-3.919,1.185,1.185,0,0,1,.368-0.993,3.363,3.363,0,0,0-.173-5,1.123,1.123,0,0,1-.5-0.734,3.432,3.432,0,0,0,.021-0.368,3.282,3.282,0,0,0-3.243-3.319,3.116,3.116,0,0,0-.645.066,1.127,1.127,0,0,1-1.016-.343,3.181,3.181,0,0,0-4.745,0,1.127,1.127,0,0,1-1.015.343,3.125,3.125,0,0,0-.646-0.066,3.282,3.282,0,0,0-3.242,3.319,3.408,3.408,0,0,0,.04.519,1.027,1.027,0,0,1-.448.864A3.361,3.361,0,0,0,389.249,541.247Zm3.417-2.459c0.072-.127.255-0.129,0.423,0.017l1.692,1.187a0.516,0.516,0,0,0,.264.084,0.718,0.718,0,0,0,.446-0.246l5.412-5.394a0.759,0.759,0,0,1,.883-0.355,0.4,0.4,0,0,1,.18.275,0.516,0.516,0,0,1-.132.406l-6.508,7.871a0.446,0.446,0,0,1-.339.177,0.426,0.426,0,0,1-.366-0.241l-1.91-3.429A0.357,0.357,0,0,1,392.666,538.788Z" transform="translate(-385 -527)"/>
</svg>
