<svg xmlns="http://www.w3.org/2000/svg" viewBox="0 0 500 500"><g id="freepik--background-complete--inject-17"><path d="M54.61,342.19,59.54,334l-6.26-4.14-6.46,3.9s-8.76-2.12-9.38-1.85-7.37,8.19-7.37,8.19L26.6,348.5l3.78,4.33-3.49,2.26S40,362.56,42,362.8s4.84-1.54,4.84-1.54l9.53,2,6.63-5.6-3-14.34Z" style="fill:#fafafa"></path><path d="M54.61,342.19l.38.07,1.06.2,4,.77.07,0v.07l3,14.32,0,.11-.08.08-6.62,5.62-.08.07-.11,0-9.53-2,.18,0a13.31,13.31,0,0,1-2.37,1.15,5.68,5.68,0,0,1-2.7.42,13.45,13.45,0,0,1-2.57-1c-.83-.39-1.65-.8-2.48-1.23-3.29-1.69-6.64-3.55-10.06-5.48l-.37-.21.36-.24,1.44-.93,2-1.33-.06.39q-1.91-2.21-3.77-4.33l-.11-.12.06-.15L29.84,340v0l0,0,3.66-4.21c1.23-1.36,2.32-2.69,3.66-3.92a.58.58,0,0,1,.42-.14l.35,0,.65.08,1.25.22,2.42.51c1.58.35,3.11.71,4.58,1.07l-.16,0,6.48-3.87.1-.06.09.06,6.24,4.18.11.07-.07.12c-1.58,2.55-2.83,4.55-3.69,5.95l-1,1.58-.27.41a.68.68,0,0,1-.1.14s.09-.17.3-.52l.91-1.59c.85-1.43,2.06-3.49,3.6-6.12l0,.19L53.18,330h.19L46.93,334l-.08,0-.08,0c-1.47-.35-3-.7-4.57-1l-2.42-.49-1.23-.22c-.21,0-.42-.06-.62-.07l-.29,0a.22.22,0,0,0-.18.06c-1.18,1.12-2.36,2.52-3.56,3.86s-2.4,2.78-3.64,4.22l0-.07c-1.12,2.71-2.27,5.51-3.46,8.38l0-.27q1.86,2.13,3.77,4.33l.2.22-.25.16-2,1.33-1.45.94v-.44c3.41,1.93,6.76,3.79,10,5.48.82.42,1.63.84,2.45,1.22a14.64,14.64,0,0,0,2.43,1,5.46,5.46,0,0,0,2.47-.39,14,14,0,0,0,2.27-1.09l.09-.05.09,0,9.52,2-.19.05,6.66-5.59-.06.19c-1.21-6-2.2-10.93-2.89-14.36l.08.08-4-.92-1-.24A1.54,1.54,0,0,1,54.61,342.19Z" style="fill:#e0e0e0"></path><polygon points="59.41 334.04 56.31 332.07 54.61 342.19 59.41 334.04" style="fill:#f5f5f5"></polygon><polygon points="56.37 362.8 49.4 345.32 46.84 360.77 56.37 362.8" style="fill:#f5f5f5"></polygon><polygon points="30.98 352.81 36.9 349.44 38.65 343.04 33.33 348 27.2 348.48 30.98 352.81" style="fill:#f5f5f5"></polygon><path d="M56.34,363.28a6.94,6.94,0,0,1-.63-1.36l-1.55-3.79c-1.29-3.21-3.06-7.69-5-12.71l.19.16L48,345.3l-9.08-1.84-.17,0,0-.16c-.4-3.3-.74-6.1-1-8.18q-.15-1.4-.24-2.31a4,4,0,0,1,0-.83,3.15,3.15,0,0,1,.18.81c.1.61.23,1.37.38,2.3.3,2.07.7,4.86,1.17,8.15L39,343l9.09,1.79,1.37.28.14,0,.06.13c1.93,5,3.63,9.52,4.84,12.78l1.4,3.84A9,9,0,0,1,56.34,363.28Z" style="fill:#e0e0e0"></path><path d="M458.52,341.28l4.92-8.16L457.18,329l-6.46,3.91s-8.75-2.13-9.38-1.85-7.37,8.18-7.37,8.18l-3.47,8.37,3.78,4.33-3.49,2.27s13.07,7.47,15.08,7.71,4.84-1.54,4.84-1.54l9.53,2,6.63-5.6-3-14.35Z" style="fill:#fafafa"></path><path d="M458.52,341.28l.37.06,1.06.2,4,.78H464v.07l3.05,14.33,0,.11-.08.07-6.62,5.63-.08.07-.11,0-9.53-2,.18,0a14,14,0,0,1-2.37,1.15,5.78,5.78,0,0,1-2.7.42,14.16,14.16,0,0,1-2.57-1c-.83-.38-1.65-.8-2.48-1.22-3.29-1.7-6.64-3.55-10.06-5.49l-.37-.21.36-.23,1.44-.94,2.05-1.33-.06.39-3.77-4.33-.11-.12.06-.15,3.48-8.36v0l0,0,3.66-4.21c1.23-1.36,2.32-2.69,3.66-3.92a.63.63,0,0,1,.42-.15l.35,0c.22,0,.43.06.65.09.42.06.84.14,1.25.22l2.42.51c1.59.35,3.11.71,4.58,1.07l-.16,0,6.48-3.88.1-.06.09.07,6.24,4.18.11.07-.07.11c-1.58,2.55-2.83,4.56-3.69,6l-1,1.58-.26.41-.1.14a3,3,0,0,1,.29-.53c.22-.38.53-.91.91-1.58l3.6-6.12.05.19-6.28-4.12h.19l-6.45,3.92-.08.05-.08,0c-1.46-.35-3-.7-4.57-1l-2.42-.5-1.23-.21-.62-.08h-.29a.19.19,0,0,0-.18.06c-1.18,1.11-2.36,2.52-3.56,3.86l-3.64,4.22,0-.07-3.46,8.37,0-.27,3.78,4.33.19.23-.25.16-2,1.33-1.45.94V354c3.41,1.93,6.76,3.79,10,5.49.82.42,1.63.83,2.45,1.22a14.64,14.64,0,0,0,2.43,1,5.46,5.46,0,0,0,2.47-.39,13.21,13.21,0,0,0,2.27-1.1l.09-.05.09,0,9.52,2.05-.18,0,6.65-5.58-.06.19c-1.21-6-2.2-10.93-2.89-14.36l.09.08-4-.92-1-.24Z" style="fill:#e0e0e0"></path><polygon points="463.31 333.13 460.21 331.16 458.52 341.28 463.31 333.13" style="fill:#f5f5f5"></polygon><polygon points="460.27 361.88 453.31 344.41 450.75 359.86 460.27 361.88" style="fill:#f5f5f5"></polygon><polygon points="434.88 351.9 440.8 348.53 442.55 342.13 437.23 347.09 431.1 347.57 434.88 351.9" style="fill:#f5f5f5"></polygon><path d="M460.24,362.37a7.35,7.35,0,0,1-.63-1.36l-1.55-3.79c-1.29-3.22-3.06-7.7-5-12.72l.19.16-1.37-.27-9.08-1.85-.17,0,0-.16c-.4-3.3-.74-6.1-1-8.18-.09-.93-.18-1.7-.24-2.31a4,4,0,0,1,0-.83,3.2,3.2,0,0,1,.19.81c.09.61.22,1.37.37,2.29.3,2.08.7,4.87,1.18,8.16l-.19-.2,9.09,1.79,1.38.27.14,0,.05.13c1.93,5,3.64,9.53,4.84,12.78l1.4,3.85A9,9,0,0,1,460.24,362.37Z" style="fill:#e0e0e0"></path><path d="M95.79,313.69A67.35,67.35,0,0,0,87,309.06c-.54,0-5,4.45-5,4.45l-2.34,5.32-13.4-.55-5.54,14L63,335.91v10.83l8,13.87,10,1.75,15.44.24,12.25-15.89-1-8.37,5-8.38-7.9-15.66-8.76,4.92Z" style="fill:#fafafa"></path><path d="M95.79,313.69l0,.35c0,.26,0,.6,0,1,0,1,.08,2.34.14,4.13l-.14-.08,8.74-5,.13-.08.07.14,8,15.63,0,.1-.06.1-5,8.38,0-.14c.33,2.64.68,5.46,1,8.37v.1l-.06.07L96.56,362.76l-.08.1h-.12l-15.45-.24h0l-2.6-.45-7.4-1.3-.12,0-.06-.1c-2.72-4.77-5.38-9.41-7.94-13.88l0-.06v-.06c0-3.72,0-7.34,0-10.83l0,.12c-.74-1.22-1.48-2.43-2.2-3.63l-.06-.1.05-.1q3-7.49,5.56-14l0-.13h.15l13.4.59-.17.1,2.36-5.31,0,0,0,0c.93-.93,1.83-1.79,2.69-2.59.44-.4.86-.78,1.28-1.14.22-.18.43-.35.65-.51A1.42,1.42,0,0,1,87,309a.72.72,0,0,1,.43.08c1.9.85,3.41,1.71,4.67,2.38s2.19,1.24,2.81,1.63c.32.19.55.35.7.46l.22.18s-1.29-.81-3.81-2.13c-1.26-.65-2.8-1.49-4.67-2.3-.12,0-.23-.1-.31-.07a3,3,0,0,0-.29.18,7.14,7.14,0,0,0-.62.5q-.63.54-1.26,1.14-1.29,1.22-2.67,2.61l0-.05c-.72,1.65-1.49,3.41-2.32,5.33l-.05.1H79.7l-13.4-.51.2-.13c-1.7,4.34-3.55,9-5.51,14l0-.21,2.21,3.62,0,.06v10.9l0-.13,8,13.87-.18-.13,7.4,1.29,2.6.46h0l15.44.25-.2.09,12.26-15.87,0,.17c-.35-2.91-.69-5.73-1-8.37v-.08l0-.06c1.75-2.94,3.43-5.74,5-8.37v.19l-7.85-15.68.21.06L96,319.3l-.13.07v-.15c0-1.78,0-3.15,0-4.1v-1.06A2.71,2.71,0,0,1,95.79,313.69Z" style="fill:#e0e0e0"></path><polygon points="95.91 319.22 79.4 340.85 104.67 314.3 95.91 319.22" style="fill:#f5f5f5"></polygon><path d="M87.67,334.93l13.1-7.28,6.81,10.69.26-.43s-4.69-16.18-4.9-16.4S87.67,334.93,87.67,334.93Z" style="fill:#f5f5f5"></path><path d="M63,346.74c1.21.93,8,13.87,8,13.87L70.37,351l8-2.4c-.26-.14-6.52-4.69-6.93-4.57Z" style="fill:#f5f5f5"></path><polygon points="62.98 335.91 80.88 331.33 85.47 317.01 79.92 327.04 60.77 332.28 62.98 335.91" style="fill:#f5f5f5"></polygon><polygon points="96.61 362.28 82 350.01 94.52 349.94 94.67 355.63 96.61 362.28" style="fill:#f5f5f5"></polygon><path d="M63,335.91a7.4,7.4,0,0,1,1.34-.44l3.75-1c3.2-.86,7.67-2,12.75-3.34l-.18.17c.35-1.11.72-2.27,1.1-3.45,1.29-4,2.5-7.7,3.52-10.87l.06-.19.2,0,7.55,1.69,2.1.51a3.09,3.09,0,0,1,.74.23,3.52,3.52,0,0,1-.76-.09L93,318.74l-7.59-1.51.25-.15c-1,3.17-2.18,6.9-3.45,10.89l-1.1,3.44,0,.14-.13,0c-5.09,1.29-9.57,2.41-12.79,3.18l-3.79.89A8.17,8.17,0,0,1,63,335.91Z" style="fill:#e0e0e0"></path><path d="M107.58,338.34a4.77,4.77,0,0,1-.56-.74l-1.45-2.16-5-7.67.32.08-8,4.5-5,2.8.11-.13L83.76,345.8l-1.25,3.11A5.67,5.67,0,0,1,82,350a6.58,6.58,0,0,1,.35-1.16c.28-.82.66-1.88,1.11-3.17,1-2.77,2.39-6.52,4-10.83l0-.09.08,0,5-2.82,8.06-4.46.2-.11.11.19,4.84,7.77,1.34,2.23A4.7,4.7,0,0,1,107.58,338.34Z" style="fill:#e0e0e0"></path><polygon points="136.98 389.2 120.04 435.76 235.37 435.76 236.79 389.72 136.98 389.2" style="fill:#ebebeb"></polygon><path d="M418.94,436a48.46,48.46,0,0,0,0-7.24c-.17-.35-4.59-1.7-4.59-1.7l.19-11.06-8.67,2.52-10.95,1.21-1.58,2.67-7,3.71L380.09,436l-2.76,12.56,10.19,4.57L402,455.56l5.06-3.53,7.12.35,7.42-10.47-6.18-4Z" style="fill:#fafafa"></path><path d="M418.94,436l-.21.14-.66.39L415.45,438v-.15l6.21,3.94.12.07-.08.13-7.38,10.5-.06.08h-.11l-7.12-.33.13,0-5.05,3.54-.08.05H402l-14.47-2.45h-.06l-10.2-4.57-.19-.08,0-.21,1.66-7.54q.56-2.54,1.11-5v0l0,0,6.25-9.89,0-.05.06,0,7-3.71-.09.1q.8-1.35,1.59-2.67l.06-.1h.12l11-1.2h0l8.67-2.49.26-.08V416c-.09,4.17-.17,7.88-.23,11.06l-.11-.14c.92.29,1.79.57,2.6.86.4.14.79.28,1.17.44.19.08.37.15.55.24a1.07,1.07,0,0,1,.28.19c.11.1.09.23.11.32.1,1.52.06,2.79,0,3.83s0,1.84-.1,2.38a5.62,5.62,0,0,1-.06.62c0,.14,0,.2-.05.2s.07-1.12.06-3.2c0-1,0-2.33-.13-3.8,0-.21-.07-.23-.26-.33l-.54-.23L416.9,428c-.81-.27-1.67-.55-2.59-.82l-.11,0V427c0-3.18.08-6.89.14-11.06l.24.19-8.65,2.53h0L395,419.93l.18-.11-1.59,2.67,0,.05-.06,0-7,3.71.1-.09-6.24,9.9,0-.09q-.54,2.49-1.1,5l-1.66,7.54-.15-.29,10.19,4.58-.06,0,14.47,2.5-.17,0,5.07-3.52.06,0h.07l7.12.38-.16.08,7.46-10.44,0,.2-6.16-4-.12-.08.13-.06,2.64-1.43.69-.36A.92.92,0,0,1,418.94,436Z" style="fill:#e0e0e0"></path><polygon points="415.41 437.93 395.77 434.68 421.59 441.91 415.41 437.93" style="fill:#ebebeb"></polygon><path d="M402.43,438l9.2,6L407.05,452l.37,0s8.85-8.58,8.92-8.79S402.43,438,402.43,438Z" style="fill:#ebebeb"></path><path d="M386.33,426.07c-.19,1.1-6.24,9.89-6.24,9.89l4.19,8.63,6.15-7.91c0-.22.8-5.82.58-6Z" style="fill:#ebebeb"></path><polygon points="393.33 422.36 402.43 432.37 413.26 430.43 404.87 430.27 394.93 419.69 393.33 422.36" style="fill:#ebebeb"></polygon><polygon points="387.81 453.14 390.74 439.49 395.07 447.56 391.44 449.61 387.81 453.14" style="fill:#ebebeb"></polygon><path d="M393.34,422.36a4.94,4.94,0,0,1,.76.7l2,2.06c1.66,1.76,4,4.24,6.55,7.08l-.24-.08,2.6-.47,8.24-1.44.21,0,.05.2c.58,2.18,1.08,4,1.47,5.47a13.2,13.2,0,0,1,.46,2.09,13.88,13.88,0,0,1-.71-2l-1.65-5.42.25.16-8.22,1.51-2.61.46-.14,0-.09-.11c-2.58-2.85-4.83-5.37-6.42-7.19L394,423.19A4,4,0,0,1,393.34,422.36Z" style="fill:#e0e0e0"></path><path d="M407.05,452a16.33,16.33,0,0,1,1.15-2.31c.77-1.44,1.89-3.48,3.23-5.87l.07.31-5.67-3.65-3.54-2.31.17,0c-3.38.42-6.31.76-8.39,1l-2.45.24a3.47,3.47,0,0,1-.88,0,3.63,3.63,0,0,1,.86-.19l2.43-.39c2.07-.31,5-.72,8.37-1.17h.09l.07,0,3.56,2.3,5.64,3.69.19.12-.11.19c-1.38,2.38-2.55,4.38-3.39,5.78A18.19,18.19,0,0,1,407.05,452Z" style="fill:#e0e0e0"></path><path d="M42.29,440.47a50.06,50.06,0,0,0-5.17,5.06c-.13.37,2,4.47,2,4.47l-8,7.6L38.94,462l8.53,7,3-.73L58,470.69l11.44-2.46,10.9-6.81-3.86-10.48-8.35-12.07-6.06-1.14-4.74-5.34-12.67,2,1.48,7.2Z" style="fill:#fafafa"></path><path d="M42.29,440.47a1,1,0,0,1,.25,0l.74.19,2.92.82-.11.1c-.39-1.81-.91-4.24-1.53-7.19l0-.15.14,0,12.66-2.08h.11l.07.08,4.75,5.32-.12-.07,6.06,1.14h.09l.06.08,8.37,12.06,0,0v0l3.87,10.48.07.19-.18.11L74,465.74l-4.36,2.71,0,0h0l-11.44,2.45H58l-.07,0-7.54-2.42h.13l-3,.72-.11,0-.1-.08-8.51-7,0,0L31,457.77l-.22-.13.19-.18L39,449.9l0,.17q-.65-1.29-1.2-2.46c-.18-.39-.35-.77-.5-1.14q-.12-.29-.21-.57a1,1,0,0,1-.07-.32c0-.15.11-.23.16-.31,1-1.13,2-2,2.7-2.72s1.36-1.25,1.77-1.59l.48-.39c.12-.08.18-.11.18-.1s-.84.73-2.32,2.19c-.73.74-1.67,1.63-2.63,2.75-.15.15-.11.21-.05.42s.13.36.21.54c.16.37.33.75.52,1.13.37.77.78,1.58,1.22,2.43l0,.1-.08.08-8,7.63,0-.31L39,461.84h0v0l8.55,6.95-.21-.05,3-.73h.06l.07,0,7.55,2.4H58L69.41,468l-.08,0,4.35-2.71,6.56-4.09-.11.3c-1.32-3.6-2.62-7.12-3.85-10.48l0,.06L68,439l.15.1-6.06-1.16-.08,0,0-.05-4.71-5.35.18.06-12.68,2,.11-.17c.59,3,1.07,5.4,1.43,7.21l0,.15-.13-.05-2.87-.89-.74-.24Z" style="fill:#e0e0e0"></path><polygon points="46.17 441.61 57.58 457.93 44.69 434.41 46.17 441.61" style="fill:#ebebeb"></polygon><path d="M55.3,450.85l-2.17-10.76,9-2.36-.25-.28s-12.32-.33-12.52-.23S55.3,450.85,55.3,450.85Z" style="fill:#ebebeb"></path><path d="M58,470.69c.92-.64,11.44-2.46,11.44-2.46l3.23-9-10,1.13c-.16.16-4.72,3.51-4.72,3.82S58,470.69,58,470.69Z" style="fill:#ebebeb"></path><polygon points="50.48 468.28 51.28 454.78 42.31 448.39 48.07 454.5 47.47 469.01 50.48 468.28" style="fill:#ebebeb"></polygon><polygon points="76.34 450.7 64.55 458.15 67.28 449.41 71.28 450.57 76.34 450.7" style="fill:#ebebeb"></polygon><path d="M50.48,468.28a4.69,4.69,0,0,1,0-1q0-1.15.09-2.85c.1-2.42.26-5.79.48-9.63l.11.23L49,453.46l-6.79-4.88-.16-.12.1-.18L45,443.41a13.72,13.72,0,0,1,1.17-1.8,12.74,12.74,0,0,1-1,1.93l-2.72,5-.06-.29L49.27,453l2.16,1.54.11.08v.14c-.23,3.84-.46,7.21-.65,9.62-.1,1.13-.18,2.08-.25,2.84A4.17,4.17,0,0,1,50.48,468.28Z" style="fill:#e0e0e0"></path><path d="M62.1,437.73a16.94,16.94,0,0,1-2.46.79c-1.57.46-3.8,1.08-6.45,1.8l.17-.27c.41,2,.87,4.24,1.35,6.6l.83,4.15-.09-.15c2.66,2.12,5,4,6.57,5.31.75.62,1.37,1.15,1.88,1.58a3.89,3.89,0,0,1,.65.61,2.75,2.75,0,0,1-.75-.48l-2-1.46c-1.68-1.27-4-3.07-6.69-5.17l-.07-.05,0-.09c-.27-1.31-.55-2.71-.85-4.15-.46-2.36-.91-4.6-1.3-6.61l0-.22.22-.06c2.66-.68,4.91-1.24,6.5-1.61A16.23,16.23,0,0,1,62.1,437.73Z" style="fill:#e0e0e0"></path><path d="M444,403.19l-.28-9.52-7.51-.09-3.31,6.78s-8.51,3-8.88,3.54-1.76,10.87-1.76,10.87l1.63,8.92,5.52,1.58-1.7,3.8s15-.81,16.85-1.7,3.23-3.92,3.23-3.92l9.1-3.47,2.54-8.31-10.28-10.44Z" style="fill:#fafafa"></path><path d="M444,403.19l.36-.15,1-.4,3.77-1.51.06,0,.05.05,10.33,10.38.08.08,0,.11c-.76,2.52-1.61,5.32-2.51,8.31l0,.11-.1,0-9.1,3.49.14-.12a14.09,14.09,0,0,1-1.37,2.25,5.68,5.68,0,0,1-2,1.81,13.9,13.9,0,0,1-2.71.56c-.9.12-1.82.22-2.74.31-3.69.36-7.51.62-11.43.85l-.42,0,.17-.39c.23-.49.47-1,.71-1.57l1-2.22.17.35-5.52-1.59-.16,0,0-.16L422,414.82v-.08c.27-1.88.54-3.73.79-5.52s.5-3.52.95-5.29a.63.63,0,0,1,.27-.34l.31-.17c.2-.11.39-.2.59-.29l1.17-.49c.79-.3,1.56-.59,2.31-.89,1.53-.56,3-1.09,4.43-1.58l-.12.1L436,393.5l.05-.1h.11l7.51.13h.13v.13c.06,3,.1,5.36.13,7q0,1.18,0,1.86V403c0,.11,0,.17,0,.17s0-.19,0-.6-.05-1-.08-1.82c-.07-1.67-.17-4.06-.3-7.1l.13.14-7.5-.05.16-.1c-1,2.07-2.1,4.33-3.29,6.8l0,.07-.09,0c-1.42.5-2.89,1-4.4,1.61l-2.3.89-1.15.49-.56.27-.26.15a.2.2,0,0,0-.11.15c-.39,1.57-.62,3.39-.9,5.17s-.51,3.64-.77,5.52v-.08c.53,2.88,1.07,5.86,1.63,8.91l-.18-.2,5.52,1.58.29.09-.12.27c-.33.74-.66,1.48-1,2.22l-.7,1.58-.25-.37c3.91-.23,7.73-.48,11.4-.84.92-.09,1.83-.18,2.73-.3a14,14,0,0,0,2.56-.51,5.18,5.18,0,0,0,1.86-1.66,12.68,12.68,0,0,0,1.32-2.15l0-.09.09,0,9.11-3.45-.13.15c.92-3,1.79-5.79,2.56-8.3l.05.19L449,401.31l.11,0-3.87,1.41-1,.35A1.31,1.31,0,0,1,444,403.19Z" style="fill:#e0e0e0"></path><polygon points="443.57 393.75 439.9 393.77 443.96 403.19 443.57 393.75" style="fill:#e0e0e0"></polygon><polygon points="456.62 419.55 441.28 408.65 447.51 423.02 456.62 419.55" style="fill:#e0e0e0"></polygon><polygon points="429.86 424.94 433.01 418.89 431.01 412.56 429.24 419.62 424.34 423.35 429.86 424.94" style="fill:#e0e0e0"></polygon><path d="M456.85,420a8.69,8.69,0,0,1-1.27-.8l-3.35-2.35c-2.84-2-6.74-4.81-11.1-8l.25,0-1.3.52-8.63,3.37-.16.06-.11-.12-5.26-6.33-1.46-1.82a3.78,3.78,0,0,1-.48-.67s.22.18.59.58l1.56,1.73,5.41,6.21-.26-.07,8.6-3.43,1.31-.51.13-.05.12.08c4.35,3.17,8.22,6,11,8.11L455.7,419A8.26,8.26,0,0,1,456.85,420Z" style="fill:#e0e0e0"></path><path d="M255.39,165.26l-5.55,3.68s-3.09-4.66-8-1.53a5.37,5.37,0,0,0-2.45,5.75,6,6,0,0,0,3.37,4.23c2,.93,5,1,8.28-2.16l8.3,12.51-5.49,3.64L249,184.05s-9,3.11-14.65-5.37c-5.38-8.12.65-14.83,3.77-16.9C240.5,160.2,249,155.4,255.39,165.26Z" style="fill:#e0e0e0"></path><rect x="256.67" y="191.64" width="6.68" height="6.24" transform="translate(584.34 213.43) rotate(146.46)" style="fill:#e0e0e0"></rect><path d="M442.85,178.79l6.47,1.59s-1.34,5.43,4.28,6.92a5.39,5.39,0,0,0,5.89-2.1,6,6,0,0,0,.83-5.35c-.65-2.08-2.65-4.31-7.2-4.62l3.58-14.58,6.4,1.57-2.1,8.54s8.4,4.53,6,14.41c-2.32,9.46-11.35,9.58-15,8.68C449.22,193.17,439.92,190.18,442.85,178.79Z" style="fill:#e0e0e0"></path><rect x="458.07" y="152.29" width="6.68" height="6.24" transform="translate(50.41 -105.6) rotate(13.8)" style="fill:#e0e0e0"></rect><path d="M359.85,52a20.22,20.22,0,1,0-20.39,27.39l1.83,4.77,16.55-6.34s-.93-2.71-1.8-5.11A20.24,20.24,0,0,0,359.85,52Z" style="fill:#f5f5f5"></path><path d="M347.73,81.51c-2.48-6.17-4.53-12.52-7.14-18.64-.54-1.25-1.09-2.5-1.74-3.69-.83-1.51-2-3-3.88-3.13s-2.77,1.39-2.85,3a8.66,8.66,0,0,0,1.25,4.7,9.12,9.12,0,0,0,8.46,4.56,9.14,9.14,0,0,0,6.67-14.71A4.07,4.07,0,0,0,344.88,52c-1.7.32-2.22,2.07-2.16,3.58a21.74,21.74,0,0,0,1.17,5.09c.56,1.87,1.17,3.72,1.8,5.56,1.3,3.78,2.7,7.53,4,11.31.3.86.6,1.73.88,2.6.14.41.76.15.63-.25-2.14-6.52-4.73-12.89-6.69-19.47a24.35,24.35,0,0,1-1.1-4.59,3.54,3.54,0,0,1,.51-2.51,2,2,0,0,1,2.19-.57c3,1,3.89,5.07,3.5,7.79A8.44,8.44,0,0,1,335,64.88a8.73,8.73,0,0,1-2.09-4.18c-.31-1.7,0-4.33,2.34-4,1.77.29,2.7,2.1,3.43,3.55.52,1.05,1,2.13,1.45,3.21,2.53,6,4.55,12.21,7,18.26a.34.34,0,0,0,.62-.26Z" style="fill:#ebebeb"></path><g id="freepik--2ggvdetif--inject-17"><path d="M349.58,92a5.56,5.56,0,0,1,1.44.54,1.19,1.19,0,0,0,1,.08l3.33-1.27a1.21,1.21,0,0,0,.75-.85,2.21,2.21,0,0,1,.79-1.33Z" style="fill:#e0e0e0"></path></g><path d="M342.42,84.09c0,.07,2.79,5,3.85,6.85a2.59,2.59,0,0,0,2.1,1.35,2.48,2.48,0,0,0,1-.15l7.29-2.8s1.9-.73,1.75-2.4-1.69-8.35-1.69-8.35Z" style="fill:#e0e0e0"></path><rect x="344.97" y="87.73" width="14.36" height="0.82" rx="0.39" transform="matrix(0.93, -0.36, 0.36, 0.93, -8.04, 133.29)" style="fill:#e0e0e0"></rect><path d="M358.63,86.06a.48.48,0,0,0,.2-.21.41.41,0,0,0,0-.34.4.4,0,0,0-.39-.21c-.69.26-1.7.68-2.95,1.16l-9.78,3.82a.3.3,0,0,0-.2.23.26.26,0,0,0,0,.15.35.35,0,0,0,.07.15.29.29,0,0,0,.27.12,1.9,1.9,0,0,0,.34-.11l1.37-.53,2.6-1,4.41-1.69,3-1.13.81-.3.21-.08.08,0-.07,0-.21.08-.8.33-3,1.17L350.2,89.4l-2.6,1-1.37.53-.18.07a.53.53,0,0,1-.2,0,.43.43,0,0,1-.39-.17.66.66,0,0,1-.09-.19.55.55,0,0,1,0-.22.47.47,0,0,1,.28-.33l9.79-3.77c1.26-.48,2.26-.88,3-1.13a.41.41,0,0,1,.42.25.38.38,0,0,1,0,.36A.34.34,0,0,1,358.63,86.06Z" style="fill:#ebebeb"></path><rect x="344.05" y="86.09" width="14.94" height="0.82" rx="0.39" transform="translate(-7.49 132.95) rotate(-21.2)" style="fill:#e0e0e0"></rect><path d="M358.27,84.32a.43.43,0,0,0,.2-.22.4.4,0,0,0,0-.35.37.37,0,0,0-.42-.18L355,84.78l-10.16,4a.34.34,0,0,0-.2.25.3.3,0,0,0,0,.16.36.36,0,0,0,.08.15.32.32,0,0,0,.29.1,3.31,3.31,0,0,0,.36-.14l1.42-.55,2.7-1L354,85.91l3.09-1.18.84-.31.22-.08.08,0-.07,0-.22.1-.83.33L354.07,86l-4.56,1.78-2.7,1-1.43.56c-.12,0-.22.09-.37.13a.46.46,0,0,1-.42-.13.66.66,0,0,1-.11-.2.58.58,0,0,1,0-.23.46.46,0,0,1,.28-.34l10.18-3.93c1.3-.49,2.35-.9,3.09-1.17a.41.41,0,0,1,.46.21.47.47,0,0,1,0,.38A.34.34,0,0,1,358.27,84.32Z" style="fill:#ebebeb"></path><rect x="343.24" y="84.46" width="15.3" height="0.82" rx="0.39" transform="translate(-6.94 132.62) rotate(-21.2)" style="fill:#e0e0e0"></rect><path d="M357.81,82.62a.48.48,0,0,0,.21-.23.41.41,0,0,0,0-.36.36.36,0,0,0-.43-.15l-3.15,1.24-10.4,4a.34.34,0,0,0-.2.25.33.33,0,0,0,0,.17.38.38,0,0,0,.09.15.32.32,0,0,0,.31.08l.36-.14,1.46-.57,2.77-1.06,4.68-1.81,3.16-1.2.87-.32.22-.08s.08,0,.08,0l-.07,0-.22.09-.86.35-3.14,1.24-4.68,1.83-2.76,1.07-1.46.57-.38.15a.48.48,0,0,1-.44-.12.52.52,0,0,1-.11-.19.5.5,0,0,1,0-.24.46.46,0,0,1,.28-.35l10.42-4,3.16-1.2A.42.42,0,0,1,358,82a.46.46,0,0,1,0,.39A.36.36,0,0,1,357.81,82.62Z" style="fill:#ebebeb"></path><path d="M338.86,80.31c.05.13,1.57,3.2,2.35,4.78a2.13,2.13,0,0,0,1.46,1.12l.93.2L357.67,81l.55-.75a2.11,2.11,0,0,0,.33-1.83l-1.48-5.1Z" style="fill:#ebebeb"></path><path d="M358.46,79.23s-3.74,1.5-8.38,3.29-8.43,3.2-8.44,3.16,3.74-1.5,8.39-3.29S358.45,79.19,358.46,79.23Z" style="fill:#e0e0e0"></path><path d="M356.93,73.26s-4.05,1.65-9.09,3.61-9.13,3.51-9.15,3.47,4.06-1.65,9.09-3.6S356.92,73.22,356.93,73.26Z" style="fill:#e0e0e0"></path><rect x="52.8" y="188.64" width="48.65" height="12.87" style="fill:#fafafa"></rect><path d="M80.88,215.07a1.17,1.17,0,0,1,0-.23v-.66c0-.61,0-1.46,0-2.54,0-2.22,0-5.41-.08-9.44l.15.15-48.65.1c.11-.11-.25.24.24-.25h0v12.85l-.24-.24,34.67.11,10.23.07,2.77,0h.72l.26,0h-.23l-.69,0-2.72,0-10.17.07-34.84.11H32V202.22h0l.25-.25,48.65.1H81v.15c0,4.06-.06,7.29-.08,9.53,0,1.07,0,1.9,0,2.5,0,.26,0,.47,0,.63A1.48,1.48,0,0,1,80.88,215.07Z" style="fill:#e0e0e0"></path><rect x="107.66" y="27.17" width="48.65" height="12.87" style="fill:#fafafa"></rect><path d="M135.74,53.6a1.35,1.35,0,0,1,0-.24V52.7c0-.6,0-1.45,0-2.53,0-2.22,0-5.42-.08-9.44l.15.15L87.09,41l.25-.24h0V53.6l-.24-.25,34.67.12,10.23.06,2.77,0h.72l.26,0h-.23l-.69,0-2.71,0-10.18.07-34.84.11h-.24V40.75h0l.25-.25,48.65.1h.15v.15c0,4.06-.06,7.29-.08,9.53,0,1.07,0,1.9,0,2.5,0,.26,0,.47,0,.63A.85.85,0,0,1,135.74,53.6Z" style="fill:#e0e0e0"></path><rect x="402.39" y="51.82" width="48.65" height="12.87" style="fill:#fafafa"></rect><path d="M430.47,78.25a1.35,1.35,0,0,1,0-.24c0-.17,0-.39,0-.66,0-.6,0-1.45,0-2.53,0-2.22,0-5.42-.08-9.45l.15.15-48.65.1c.11-.11-.25.25.24-.25h0V78.24l-.25-.24,34.67.11,10.24.07,2.77,0,.72,0a.87.87,0,0,1,.26,0h-.23l-.69,0-2.72,0-10.18.07-34.84.11h-.24V65.38h0c.49-.49.13-.13.25-.24l48.65.09h.15v.15c0,4.07-.07,7.29-.09,9.54,0,1.07,0,1.9,0,2.5,0,.26,0,.47,0,.63A1.66,1.66,0,0,1,430.47,78.25Z" style="fill:#e0e0e0"></path><path d="M245.87,124.58s0-.09,0-.24l0-.66c0-.6,0-1.45,0-2.53,0-2.22-.05-5.42-.09-9.44l.15.15-48.65.09.25-.24h0v6.52c0,2.14,0,4.26,0,6.33l-.24-.25,34.67.11,10.24.07,2.76,0,.73,0a1.27,1.27,0,0,1,.25,0h-.22l-.69,0-2.72,0-10.18.07-34.84.11H197v-6.57c0-1.08,0-2.16,0-3.25v-3.27h0l.25-.25,48.65.09H246v.16c0,4.06-.07,7.29-.09,9.53,0,1.07,0,1.9,0,2.5l0,.63A.85.85,0,0,1,245.87,124.58Z" style="fill:#e0e0e0"></path><path d="M252.47,111.71a1.41,1.41,0,0,1,0-.25c0-.18,0-.41,0-.68,0-.64,0-1.5,0-2.58,0-2.26-.06-5.45-.1-9.37l.18.18-29.23.07c-.22.22.3-.3.25-.24h0v3.33c0,1.1,0,2.2,0,3.27q0,3.24,0,6.24l-.23-.23,20.91.11,6.09.07,1.64,0,.59,0-.53,0-1.59,0-6,.07-21.07.11H223v-.24q0-3,0-6.24v-6.6h0c-.05,0,.47-.48.25-.25l29.23.07h.18v.17c0,4-.07,7.19-.1,9.48,0,1.07,0,1.91,0,2.54A6.84,6.84,0,0,1,252.47,111.71Z" style="fill:#e0e0e0"></path><path d="M454.7,287.83a1.35,1.35,0,0,1,0-.24l0-.66c0-.6,0-1.45,0-2.53,0-2.22-.05-5.42-.09-9.44l.16.15-48.65.09.24-.24h0v12.85l-.25-.24,34.67.11,10.24.06,2.77,0h.72l.26,0h-.23l-.69,0-2.72,0-10.18.07-34.84.11h-.24V275h0c.5-.5.14-.14.26-.25l48.65.1h.15V275c0,4.06-.07,7.29-.09,9.53,0,1.07,0,1.9,0,2.5l0,.63A1.66,1.66,0,0,1,454.7,287.83Z" style="fill:#e0e0e0"></path><path d="M461.29,275s0-.09,0-.25,0-.41,0-.68l0-2.58c0-2.26-.06-5.44-.1-9.36l.18.17-29.23.07c-.22.23.3-.3.25-.24h0v3.33c0,1.11,0,2.2,0,3.28V275l-.24-.24,20.91.11,6.09.07,1.65,0,.58,0a3.28,3.28,0,0,1-.53,0l-1.59,0-6,.06-21.07.11h-.24v-6.47c0-1.08,0-2.17,0-3.28v-3.33h0l.25-.25,29.23.07h.18v.18c0,4-.07,7.18-.1,9.47,0,1.07,0,1.91,0,2.54A6.84,6.84,0,0,1,461.29,275Z" style="fill:#e0e0e0"></path><path d="M159.42,288.31a1.35,1.35,0,0,1,0-.24l0-.66c0-.6,0-1.45,0-2.53,0-2.22,0-5.42-.09-9.44l.16.15-48.65.1c.11-.12-.25.24.24-.25h0v12.85l-.25-.24,34.67.11,10.24.07,2.77,0h.72l.26,0h-.23l-.69,0-2.72,0-10.18.07-34.84.11h-.24v-9.82c0-.55,0-1.09,0-1.64v-1.63h0c.5-.5.14-.14.26-.25l48.65.1h.15v.15c0,4.06-.07,7.29-.09,9.53,0,1.07,0,1.9,0,2.5l0,.63A1.66,1.66,0,0,1,159.42,288.31Z" style="fill:#e0e0e0"></path><path d="M166,275.44s0-.09,0-.25,0-.41,0-.68c0-.63,0-1.49,0-2.58,0-2.26-.06-5.44-.1-9.36l.18.17-29.23.07c-.22.23.3-.3.25-.24h0v3.33c0,1.11,0,2.2,0,3.28v6.24l-.24-.24,20.91.11,6.09.07,1.64,0,.59,0a3.28,3.28,0,0,1-.53,0l-1.59,0-6,.06-21.07.11h-.24v-.23c0-2,0-4.09,0-6.24v-6.61h0l.25-.25,29.23.07h.18v.18c0,4-.07,7.19-.1,9.47,0,1.07,0,1.92,0,2.54A6.84,6.84,0,0,1,166,275.44Z" style="fill:#e0e0e0"></path></g><g id="freepik--Desk--inject-17"><path d="M473.54,362.86c0,.15-100.09.26-223.53.26S26.46,363,26.46,362.86s100.07-.26,223.55-.26S473.54,362.72,473.54,362.86Z" style="fill:#263238"></path></g><g id="freepik--paper-balls--inject-17"><path d="M301.46,394.44a67.81,67.81,0,0,0,0-9.89c-.24-.49-6.27-2.33-6.27-2.33l-5.8.42-5.79-12.09-15,1.66-2.18,3.65-9.57,5.06-8.53,13.52,3.14,9.66,7,13.75,19.78,3.38,6.92-4.82,9.73.48,10.14-14.31-8.45-5.44Z" style="fill:#fafafa"></path><path d="M301.46,394.44s-.09.07-.29.19l-.91.53-3.58,2v-.15l8.48,5.4.13.08-.09.12L295.11,417l-.06.09h-.12l-9.74-.46.14,0-6.91,4.84-.07.05-.1,0-19.78-3.36-.12,0-.06-.11c-2.26-4.42-4.62-9-7-13.76h0v0l-.82-2.52q-1.17-3.62-2.32-7.14l0-.11.06-.11c2.94-4.64,5.79-9.16,8.54-13.51l0-.06.06,0,9.57-5.06-.09.09,2.17-3.64.06-.1h.12l15-1.64.14,0,.07.14,5.76,12.11-.17-.1,5.79-.4h.06c1.26.39,2.44.78,3.55,1.17.56.2,1.09.39,1.61.6q.38.15.75.33a1.64,1.64,0,0,1,.37.24.74.74,0,0,1,.12.43c.15,2.06.1,3.81.09,5.23s-.07,2.51-.12,3.25c0,.37-.06.65-.08.83a1,1,0,0,1-.06.28s.11-1.52.1-4.36c0-1.42,0-3.18-.16-5.2,0-.13,0-.26-.08-.31a1.23,1.23,0,0,0-.29-.17c-.24-.12-.48-.22-.74-.32-.51-.2-1-.39-1.6-.58-1.11-.37-2.29-.75-3.55-1.13h.06l-5.8.44h-.11l-.05-.11-5.83-12.07.21.11-15,1.7.18-.12c-.71,1.2-1.44,2.41-2.17,3.65l0,.06-.06,0L257,381.15l.1-.09-8.53,13.52,0-.22c.76,2.35,1.54,4.73,2.32,7.14l.82,2.51,0,0c2.4,4.72,4.76,9.33,7,13.76l-.18-.14,19.77,3.4-.17,0,6.92-4.82.06,0h.08l9.73.51-.17.08L305,402.49l0,.21-8.42-5.49-.12-.08.13-.07,3.6-2,.94-.5Z" style="fill:#263238"></path><polygon points="296.63 397.14 269.79 392.69 305.08 402.58 296.63 397.14" style="fill:#e0e0e0"></polygon><path d="M278.89,397.22l12.58,8.16-6.26,11,.5,0s12.09-11.72,12.19-12S278.89,397.22,278.89,397.22Z" style="fill:#e0e0e0"></path><path d="M256.89,380.92c-.26,1.51-8.53,13.52-8.53,13.52l8.25-5,5.89,6c0-.3,1.09-8,.79-8.26Z" style="fill:#e0e0e0"></path><polygon points="266.46 375.86 278.89 389.54 293.7 386.88 282.23 386.67 268.63 372.21 266.46 375.86" style="fill:#e0e0e0"></polygon><polygon points="258.92 417.92 262.91 399.27 268.84 410.29 263.88 413.1 258.92 417.92" style="fill:#e0e0e0"></polygon><path d="M266.46,375.86a6.27,6.27,0,0,1,1,1l2.68,2.83c2.25,2.42,5.38,5.82,8.92,9.69l-.23-.08,3.55-.64,11.26-2,.2,0,.05.19c.83,3,1.53,5.58,2,7.46l.54,2.1a3,3,0,0,1,.14.76,4.49,4.49,0,0,1-.27-.72c-.18-.55-.39-1.23-.66-2.06-.56-1.88-1.31-4.41-2.22-7.42l.26.16-11.25,2-3.55.64-.14,0-.1-.1c-3.52-3.89-6.6-7.33-8.79-9.81L267.34,377A8.81,8.81,0,0,1,266.46,375.86Z" style="fill:#263238"></path><path d="M285.21,416.41a3.46,3.46,0,0,1,.39-.85c.32-.6.73-1.36,1.22-2.29l4.44-8,.08.31-7.74-5-4.85-3.16.17,0-11.46,1.38-3.34.35a5.79,5.79,0,0,1-1.21.07,7,7,0,0,1,1.19-.24l3.32-.5L278.86,397H279l.08.05,4.85,3.14,7.72,5,.18.13-.11.19-4.6,7.91-1.34,2.23A5.21,5.21,0,0,1,285.21,416.41Z" style="fill:#263238"></path><path d="M304.75,434.91a68.36,68.36,0,0,0-4.83,8.64c0,.54,4.35,5.09,4.35,5.09l5.26,2.46-.84,13.38,13.87,5.85,3.67-2.12,10.83.24,14-7.64,2-9.95.59-15.44-15.61-12.59-8.39.84-8.27-5.18L305.56,426l4.72,8.87Z" style="fill:#fafafa"></path><path d="M304.75,434.91a2.21,2.21,0,0,1,.35,0l1,0,4.13-.05-.08.13-4.77-8.84-.07-.14.14-.06,15.8-7.6.1-.05.1.06,8.27,5.16-.14,0,8.39-.86h.1l.08.06c4.83,3.9,10.11,8.14,15.62,12.58l.1.08v.13c-.19,5-.39,10.14-.59,15.44v0c-.16.82-.34,1.7-.51,2.59-.5,2.48-1,4.94-1.46,7.36l0,.12-.1.06-14.05,7.63-.06,0h-.07l-10.82-.25.12,0-3.67,2.12-.1.06-.11,0-13.87-5.87-.13-.05v-.15c.32-4.89.61-9.37.88-13.38l.1.16-5.26-2.48h0l0,0c-.91-.95-1.75-1.87-2.53-2.75-.39-.44-.76-.88-1.11-1.31-.17-.21-.34-.43-.49-.65a1.66,1.66,0,0,1-.21-.4.72.72,0,0,1,.1-.43c.88-1.87,1.78-3.37,2.48-4.61s1.28-2.16,1.69-2.78c.2-.31.36-.54.47-.69a1.72,1.72,0,0,1,.19-.21s-.84,1.27-2.21,3.76c-.68,1.24-1.56,2.77-2.4,4.62-.05.12-.11.23-.08.3a1.37,1.37,0,0,0,.17.3c.15.21.31.42.49.63.34.43.72.85,1.11,1.29.78.87,1.64,1.78,2.55,2.72l-.05,0,5.27,2.44.11.05v.12c-.24,4-.51,8.5-.81,13.38l-.12-.2,13.88,5.82h-.21l3.67-2.12.06,0h.07l10.83.23-.13,0,14-7.64-.13.17c.48-2.42,1-4.88,1.45-7.36l.52-2.59v0c.21-5.3.41-10.47.6-15.44l.09.21L337.9,423l.17.05-8.39.83h-.08l-.06,0-8.26-5.18h.2l-15.86,7.49.07-.2,4.67,8.9.07.13h-.15l-4.1-.05-1.06,0Z" style="fill:#263238"></path><polygon points="310.28 434.91 331.54 451.89 305.56 426.04 310.28 434.91" style="fill:#e0e0e0"></polygon><path d="M325.81,443.49l-7-13.26,10.85-6.56-.43-.27s-16.28,4.33-16.5,4.53S325.81,443.49,325.81,443.49Z" style="fill:#e0e0e0"></path><path d="M337.06,468.45c1-1.19,14-7.64,14-7.64l-9.64.34-2.21-8.1c-.15.27-4.84,6.42-4.72,6.83S337.06,468.45,337.06,468.45Z" style="fill:#e0e0e0"></path><polygon points="326.24 468.21 322.06 450.2 307.84 445.3 317.74 451.07 322.56 470.33 326.24 468.21" style="fill:#e0e0e0"></polygon><polygon points="353.34 435.17 340.76 449.5 340.96 436.99 346.66 436.96 353.34 435.17" style="fill:#e0e0e0"></polygon><path d="M326.23,468.21a9.19,9.19,0,0,1-.4-1.36c-.25-1-.57-2.23-1-3.77-.79-3.22-1.87-7.71-3.06-12.82l.17.19-3.42-1.18-10.79-3.76-.2-.07.05-.2c.76-3.05,1.39-5.61,1.86-7.51.23-.84.41-1.53.56-2.09a3.35,3.35,0,0,1,.24-.73,3.79,3.79,0,0,1-.11.76c-.11.56-.26,1.27-.43,2.12-.43,1.91-1,4.49-1.68,7.56l-.15-.26,10.82,3.69,3.41,1.18.14.05,0,.13c1.18,5.12,2.19,9.63,2.89,12.86l.81,3.81A7.43,7.43,0,0,1,326.23,468.21Z" style="fill:#263238"></path><path d="M329.66,423.67a4.58,4.58,0,0,1-.76.54l-2.19,1.4-7.78,4.83.09-.32,4.32,8.14c.94,1.78,1.85,3.51,2.69,5.12l-.13-.12,10.68,4.39,3.09,1.32a6.43,6.43,0,0,1,1.09.53,7,7,0,0,1-1.16-.37l-3.14-1.19-10.74-4.21-.09,0,0-.08-2.71-5.11-4.28-8.16-.1-.19.19-.12,7.88-4.66,2.25-1.29A3.53,3.53,0,0,1,329.66,423.67Z" style="fill:#263238"></path><path d="M100.13,397.92a67.93,67.93,0,0,0-1.55-9.77c-.32-.44-6.57-1.31-6.57-1.31l-5.65,1.33-7.63-11-14.51,4-1.57,3.94L54,391.59l-6.3,14.69,4.62,9,9.1,12.48,20.06.22,6.07-5.85,9.69-1.06L105,405.39l-9.2-4.05Z" style="fill:#fafafa"></path><path d="M100.13,397.92l-.26.23-.81.67-3.21,2.59,0-.15,9.22,4,.14.06-.07.14L97.41,421.2l0,.1h-.11l-9.69,1.08.13-.06c-1.91,1.85-4,3.83-6.06,5.86l-.07.07h-.09l-20.07-.2h-.12l-.08-.1-9.1-12.48v0h0l-1.2-2.36-3.42-6.68-.05-.11.05-.11c2.16-5.05,4.27-10,6.3-14.69l0-.06.05,0,8.66-6.51-.08.11L64,381.05l0-.11.12,0,14.52-4,.14,0,.09.13,7.59,11.05-.18-.07L92,386.69h0c1.31.19,2.54.39,3.7.6.57.11,1.13.21,1.67.34.27.06.54.13.8.21a1.38,1.38,0,0,1,.4.18c.14.11.15.29.19.4.47,2,.69,3.75.91,5.15s.33,2.5.4,3.23c0,.37,0,.65.05.84a1.45,1.45,0,0,1,0,.28s-.13-1.52-.59-4.32c-.24-1.4-.49-3.14-1-5.12,0-.11-.06-.24-.13-.28a1.24,1.24,0,0,0-.32-.13c-.24-.08-.51-.14-.77-.2-.54-.11-1.09-.22-1.67-.32-1.16-.19-2.39-.38-3.69-.56h.06l-5.65,1.34-.12,0-.06-.1-7.66-11,.23.09-14.51,4,.16-.14-1.57,3.94,0,.07-.05,0-8.64,6.52.08-.1-6.3,14.69v-.22l3.41,6.68,1.2,2.36,0,0c3.12,4.28,6.17,8.46,9.09,12.48l-.2-.1,20.06.24-.17.07L87.38,422l.06-.05h.07l9.7-1-.16.11,7.81-15.7.07.2-9.18-4.1-.13-.06.11-.09,3.25-2.5.85-.64Z" style="fill:#263238"></path><polygon points="95.79 401.34 68.58 401.17 104.99 405.39 95.79 401.34" style="fill:#e0e0e0"></polygon><path d="M78.28,404.22,92,410.3l-4.45,11.87.5-.06s10.1-13.47,10.15-13.77S78.28,404.22,78.28,404.22Z" style="fill:#e0e0e0"></path><path d="M54,391.59c0,1.53-6.3,14.69-6.3,14.69l7.37-6.23,6.75,5c-.05-.3-.17-8-.52-8.28Z" style="fill:#e0e0e0"></path><polygon points="62.65 385.07 77.07 396.63 91.28 391.68 79.92 393.27 64.22 381.13 62.65 385.07" style="fill:#e0e0e0"></polygon><polygon points="61.82 427.81 62.83 408.76 70.41 418.71 65.96 422.26 61.82 427.81" style="fill:#e0e0e0"></polygon><path d="M62.65,385.08a7.41,7.41,0,0,1,1.16.81l3.08,2.37c2.61,2,6.24,4.9,10.34,8.17l-.24,0,3.41-1.2,10.8-3.72.2-.07.08.18c1.29,2.86,2.38,5.27,3.19,7.05l.86,2a3.36,3.36,0,0,1,.26.72,3.79,3.79,0,0,1-.39-.66c-.25-.52-.57-1.16-1-1.94-.84-1.76-2-4.14-3.35-7l.27.12-10.78,3.79-3.41,1.19-.14.05-.11-.09c-4.09-3.29-7.67-6.2-10.23-8.31l-3-2.49A8.75,8.75,0,0,1,62.65,385.08Z" style="fill:#263238"></path><path d="M87.54,422.17a3.62,3.62,0,0,1,.25-.89c.22-.65.51-1.47.85-2.46.79-2.19,1.87-5.14,3.12-8.61l.13.3-8.43-3.71-5.28-2.35h.17l-11.1,3.16L64,408.5a7.22,7.22,0,0,1-1.18.26,5.78,5.78,0,0,1,1.13-.42l3.2-1,11-3.34.09,0,.08,0,5.29,2.33,8.41,3.76.21.09-.08.21c-1.33,3.44-2.47,6.37-3.3,8.54-.4,1-.72,1.78-1,2.41A4.85,4.85,0,0,1,87.54,422.17Z" style="fill:#263238"></path><path d="M376.2,394.1l4.11-11.83-9.18-3.62-7.24,6.78s-11.82-.34-12.55.18-7.24,12.53-7.24,12.53l-2.17,11.7,6,4.53-3.86,3.86s18.83,6,21.48,5.8,5.8-3.3,5.8-3.3h12.79l7-9-7.73-17.62Z" style="fill:#fafafa"></path><path d="M376.2,394.1l.5,0,1.41,0,5.33-.06h.07l0,.06,7.8,17.59.05.1-.07.09c-2.11,2.74-4.47,5.78-7,9l-.06.08h-.11l-12.79,0,.16-.07a17.55,17.55,0,0,1-2.71,2.11,7.57,7.57,0,0,1-3.32,1.26,18.13,18.13,0,0,1-3.56-.59c-1.17-.27-2.33-.58-3.51-.89-4.69-1.28-9.5-2.75-14.42-4.31l-.4-.13.3-.3,1.6-1.6,2.26-2.26,0,.39-6-4.54-.13-.09,0-.16c.74-4,1.47-7.92,2.18-11.7v0l0,0c1.21-2.19,2.4-4.32,3.55-6.41l1.76-3.07a31.15,31.15,0,0,1,1.87-3c.06-.06.1-.14.19-.18a2,2,0,0,1,.26-.09,4.14,4.14,0,0,1,.45-.07c.29,0,.57-.05.85-.07l1.67-.06c1.1,0,2.18,0,3.25,0q3.19,0,6.17.12l-.15.06,7.26-6.76.09-.08.1,0,9.16,3.66.12.05,0,.12c-1.34,3.74-2.38,6.66-3.1,8.68-.36,1-.64,1.76-.83,2.3l-.22.6a1.38,1.38,0,0,1-.09.21l.06-.19c.05-.15.11-.34.18-.58.18-.54.44-1.3.76-2.28.7-2.06,1.7-5,3-8.83l.08.18-9.19-3.58.19,0q-3.31,3.11-7.22,6.8l-.07.06h-.08c-2,0-4-.08-6.16-.09-1.07,0-2.15,0-3.24,0-.55,0-1.1,0-1.65.06l-.82.07c-.13,0-.28,0-.39.07l-.13,0c-.05,0-.07.08-.11.12-1.24,1.77-2.36,3.88-3.53,5.94s-2.33,4.22-3.54,6.41l0-.08q-1.05,5.69-2.17,11.71l-.09-.26,6,4.53.24.18-.21.22-2.26,2.26-1.6,1.6-.11-.43c4.91,1.55,9.72,3,14.4,4.3,1.17.32,2.33.63,3.49.9a17.64,17.64,0,0,0,3.41.58,7,7,0,0,0,3.09-1.18,17,17,0,0,0,2.64-2l.07-.07h.1l12.79,0-.17.08,7-9,0,.19-7.64-17.65.09.06-5.4-.06-1.38,0Z" style="fill:#263238"></path><polygon points="380.14 382.31 375.62 380.63 376.2 394.1 380.14 382.31" style="fill:#e0e0e0"></polygon><polygon points="384.08 420.09 370.36 399.54 371.29 420.09 384.08 420.09" style="fill:#e0e0e0"></polygon><polygon points="348.73 414.19 355.42 408.24 355.92 399.54 350.44 407.37 342.69 409.66 348.73 414.19" style="fill:#e0e0e0"></polygon><path d="M384.17,420.73a2.42,2.42,0,0,1-.32-.4l-.83-1.2c-.75-1.11-1.77-2.61-3-4.46l-9.87-15,.22.12-1.83,0-12.18.12h-.16l-.06-.16c-1.43-4.16-2.65-7.67-3.53-10.22l-1-2.9a6.5,6.5,0,0,1-.3-1.05,5.15,5.15,0,0,1,.44,1c.27.72.63,1.68,1.08,2.86.93,2.53,2.2,6,3.71,10.16l-.22-.16,12.17-.17,1.84,0h.14l.08.12,9.73,15.08,2.87,4.55.75,1.24A2.31,2.31,0,0,1,384.17,420.73Z" style="fill:#263238"></path><path d="M272.15,448.81l3.13-9-7-2.76-5.51,5.16s-9-.26-9.55.14-5.52,9.54-5.52,9.54l-1.65,8.9,4.59,3.46-2.94,2.94s14.34,4.59,16.36,4.41,4.41-2.52,4.41-2.52h9.74l5.33-6.86-5.88-13.41Z" style="fill:#fafafa"></path><path d="M272.15,448.81l.39,0,1.07,0,4.06-.07h.07l0,.07c1.43,3.2,3.46,7.76,6,13.38l0,.1-.07.09-5.31,6.88-.06.08h-.11l-9.74,0,.17-.06a14.4,14.4,0,0,1-2.08,1.61,5.69,5.69,0,0,1-2.55,1,13.42,13.42,0,0,1-2.73-.45c-.89-.2-1.78-.44-2.67-.68-3.58-1-7.24-2.09-11-3.28l-.41-.13.3-.3,1.22-1.22,1.72-1.72,0,.39c-1.55-1.16-3.09-2.31-4.59-3.45l-.13-.1,0-.15c.57-3.05,1.12-6,1.66-8.91v-.07l2.71-4.88c.92-1.59,1.71-3.11,2.77-4.6a.67.67,0,0,1,.37-.23c.13,0,.23,0,.35-.05s.44,0,.65-.05c.43,0,.85,0,1.27,0h2.48c1.62,0,3.19,0,4.7.09l-.15.06,5.53-5.14.09-.08.1,0,7,2.8.12.05,0,.12L273,446.44c-.27.75-.48,1.33-.64,1.75l-.17.46a.65.65,0,0,1-.07.16,5.9,5.9,0,0,1,.18-.58l.57-1.73c.53-1.59,1.28-3.85,2.25-6.74l.08.17-7-2.71.19,0-5.5,5.18-.06.06h-.08c-1.51,0-3.08-.06-4.69-.07l-2.47,0-1.25,0c-.21,0-.42,0-.62.06l-.29,0c-.05,0-.11,0-.16.1-.92,1.34-1.79,3-2.68,4.51L247.93,452l0-.08c-.53,2.88-1.08,5.86-1.65,8.91l-.09-.25,4.59,3.45.24.18-.21.21-1.72,1.72-1.22,1.22-.11-.43c3.74,1.18,7.4,2.3,11,3.28.89.24,1.77.48,2.65.68a14.73,14.73,0,0,0,2.58.45,5.35,5.35,0,0,0,2.33-.9,12.65,12.65,0,0,0,2-1.54l.07-.07h.1l9.74,0L278,469c1.93-2.46,3.73-4.77,5.36-6.84l0,.19-5.8-13.45.1.07-4.13-.07-1.05,0Z" style="fill:#263238"></path><polygon points="275.15 439.84 271.71 438.56 272.15 448.81 275.15 439.84" style="fill:#e0e0e0"></polygon><polygon points="278.15 468.6 267.71 452.95 268.41 468.6 278.15 468.6" style="fill:#e0e0e0"></polygon><polygon points="251.24 464.11 256.33 459.58 256.71 452.95 252.54 458.91 246.64 460.66 251.24 464.11" style="fill:#e0e0e0"></polygon><path d="M278.22,469.08a7.58,7.58,0,0,1-.9-1.2L275,464.5c-1.94-2.88-4.59-6.9-7.53-11.41l.22.12-1.4,0-9.27.08h-.17l-.05-.15-2.67-7.79c-.29-.9-.52-1.63-.72-2.22a3.28,3.28,0,0,1-.2-.8,3.69,3.69,0,0,1,.34.75c.23.58.5,1.3.84,2.17l2.85,7.73-.22-.15,9.26-.14,1.4,0h.15l.07.12c2.94,4.51,5.54,8.56,7.4,11.49.88,1.42,1.61,2.58,2.16,3.48A8.87,8.87,0,0,1,278.22,469.08Z" style="fill:#263238"></path><path d="M136.57,442.85l-4.16,1.65-6.48-1.65-5.46-1.45s-9-.26-9.56.14-5.51,9.54-5.51,9.54L103.75,460l4.59,3.45,4.23,4.35s7.16,3.18,9.18,3,4.41-2.52,4.41-2.52h9.74l5.33-6.85V448.17Z" style="fill:#fafafa"></path><path d="M136.57,442.85a3,3,0,0,1,.31.32l.92,1,3.53,3.92,0,0v.05c0,3.36,0,7.88.07,13.25v.06l0,.06c-1.61,2.09-3.4,4.41-5.31,6.87l-.06.09h-.12l-9.74,0,.18-.07a12.32,12.32,0,0,1-3,2.1,4.38,4.38,0,0,1-1.85.49,7.79,7.79,0,0,1-1.88-.33,58,58,0,0,1-7.19-2.68l0,0,0,0-1.63-1.67-2.6-2.68,0,0-4.59-3.45-.13-.09,0-.16c.58-3.07,1.13-6.05,1.67-8.91V451c1-1.71,1.88-3.38,2.78-5,.46-.81.92-1.6,1.37-2.37l.68-1.15.36-.56.19-.27c.09-.09.16-.23.31-.28a5.42,5.42,0,0,1,1.36-.18l1.26,0h2.44c1.59,0,3.11.05,4.54.1h0l11.91,3.18h-.06l3.13-1.19.8-.29a1.22,1.22,0,0,1,.27-.08l-.28.13-.8.35-3.05,1.27h-.06c-2.8-.68-6.87-1.68-12-3h0l-4.53-.06H113.5l-1.25,0a7.45,7.45,0,0,0-1.17.13c-.1.05-.21.25-.34.42l-.34.55c-.23.37-.45.75-.68,1.14l-1.35,2.37-2.75,5,0-.08C105.11,454,104.56,457,104,460l-.1-.25,4.6,3.45h0l0,0,2.6,2.67,1.63,1.68-.08-.06a57.7,57.7,0,0,0,7.11,2.67c2.4,1,4.56-.67,6.2-2.12l.08-.07h.09l9.74,0-.18.08,5.35-6.84,0,.13c0-5.37.06-9.89.08-13.25l0,.08-3.39-4-.88-1.06A2.7,2.7,0,0,1,136.57,442.85Z" style="fill:#263238"></path><polygon points="135.84 467.79 125.39 452.14 126.1 467.79 135.84 467.79" style="fill:#e0e0e0"></polygon><polygon points="108.92 463.3 118.23 457.21 111.5 441.7 110.23 458.11 104.33 459.85 108.92 463.3" style="fill:#e0e0e0"></polygon><path d="M135.9,468.27a8.27,8.27,0,0,1-.9-1.2l-2.32-3.41c-1.94-2.89-4.59-6.9-7.51-11.37v-.05l-.14-.37c-1-2.53-1.9-4.94-2.74-7.15l.16.15-8.32-2.32-2.37-.71a3.9,3.9,0,0,1-.83-.3,3.68,3.68,0,0,1,.87.15l2.41.57,8.36,2.14.12,0,0,.12c.86,2.2,1.8,4.61,2.78,7.14l.14.36,0-.05c2.91,4.47,5.52,8.52,7.38,11.46l2.17,3.5A8.61,8.61,0,0,1,135.9,468.27Z" style="fill:#263238"></path></g><g id="freepik--Notebook--inject-17"><rect x="76.28" y="76.36" width="121.29" height="166.98" transform="translate(-25.72 26.26) rotate(-10.02)" style="fill:#e0e0e0"></rect><path d="M197.85,229.67,81,251.36C89.57,236.14,72.77,154,62.19,88.27L178.85,67.66C189.11,131.09,202.13,199.41,197.85,229.67Z" style="fill:#fff"></path><path d="M197.85,229.67s0-.27.06-.78.11-1.28.2-2.28.25-2.23.31-3.71.09-3.2.15-5.14a295,295,0,0,0-2-33.43c-1.53-14.3-4-31.54-7.13-51.15s-6.9-41.61-10.79-65.48l.28.19L62.23,88.53l.21-.3c.05.29.1.6.15.91,4.91,30.28,10.21,59.34,14.47,86.63,2.12,13.64,4,26.84,5.31,39.53.63,6.34,1.1,12.56,1.2,18.64a89.37,89.37,0,0,1-.27,9L83,245.15c-.1.73-.26,1.45-.39,2.17s-.39,1.42-.58,2.12a17.08,17.08,0,0,1-.85,2l-.22-.31L166,235.48l23.57-4.32,6.19-1.12,2.14-.37s-.71.15-2.09.41l-6.15,1.17-23.51,4.43-85,15.89-.43.08.2-.39a23.54,23.54,0,0,0,2-8.36,85.52,85.52,0,0,0,.25-9c-.1-6.06-.58-12.27-1.22-18.61-1.29-12.67-3.2-25.86-5.33-39.5C72.3,148.57,67,119.51,62.08,89.22c0-.31-.1-.62-.15-.9l0-.26.25,0L178.81,67.43l.24,0,0,.23c3.86,23.88,7.62,45.87,10.7,65.5s5.55,36.86,7,51.18a285,285,0,0,1,1.9,33.46c-.07,1.94-.14,3.66-.19,5.14s-.26,2.74-.35,3.74-.19,1.75-.24,2.27Z" style="fill:#263238"></path><path d="M67,90.66a4.1,4.1,0,0,1-4-3.39,4.11,4.11,0,0,1,3.32-4.75,4.11,4.11,0,0,1,4.75,3.32.5.5,0,0,1-1,.18,3.1,3.1,0,1,0-2.51,3.59.5.5,0,0,1,.18,1A4.39,4.39,0,0,1,67,90.66Z" style="fill:#263238"></path><path d="M73.68,89.48a4.1,4.1,0,1,1,4-4.81.5.5,0,0,1-1,.17,3.1,3.1,0,1,0-2.51,3.59.5.5,0,0,1,.58.4.49.49,0,0,1-.41.58A3.49,3.49,0,0,1,73.68,89.48Z" style="fill:#263238"></path><path d="M80.34,88.3a4.1,4.1,0,1,1,4-4.81.5.5,0,0,1-.4.58.51.51,0,0,1-.58-.41,3.1,3.1,0,1,0-2.51,3.59.5.5,0,0,1,.58.41.51.51,0,0,1-.41.58A4.37,4.37,0,0,1,80.34,88.3Z" style="fill:#263238"></path><path d="M87,87.12a4.11,4.11,0,0,1-4-3.38,4.1,4.1,0,0,1,6.39-4.07,4.05,4.05,0,0,1,1.68,2.64.5.5,0,0,1-.4.58.49.49,0,0,1-.58-.41,3.08,3.08,0,0,0-1.28-2,3.09,3.09,0,1,0-1.23,5.58.51.51,0,0,1,.58.41.51.51,0,0,1-.41.58A4.37,4.37,0,0,1,87,87.12Z" style="fill:#263238"></path><path d="M93.68,85.94a4.09,4.09,0,0,1-3.35-6.44,4.09,4.09,0,0,1,7.39,1.63.5.5,0,0,1-.4.58.49.49,0,0,1-.58-.4,3.09,3.09,0,0,0-5.59-1.24,3,3,0,0,0-.51,2.31,3.08,3.08,0,0,0,3.59,2.51.49.49,0,0,1,.57.41.5.5,0,0,1-.4.58A4.37,4.37,0,0,1,93.68,85.94Z" style="fill:#263238"></path><path d="M100.35,84.76a4.1,4.1,0,1,1,2.35-7.45A4.08,4.08,0,0,1,104.39,80a.5.5,0,0,1-1,.18,3.1,3.1,0,0,0-3.59-2.51,3.09,3.09,0,0,0-1.24,5.58,3.07,3.07,0,0,0,2.31.52.49.49,0,0,1,.58.4.5.5,0,0,1-.4.58A4.37,4.37,0,0,1,100.35,84.76Z" style="fill:#263238"></path><path d="M107,83.59a4.1,4.1,0,0,1-4-3.39,4.1,4.1,0,1,1,8.07-1.42.5.5,0,0,1-1,.17,3.09,3.09,0,0,0-3.59-2.51,3,3,0,0,0-2,1.27,3.09,3.09,0,0,0,3.07,4.83.5.5,0,0,1,.58.4.49.49,0,0,1-.4.58A3.51,3.51,0,0,1,107,83.59Z" style="fill:#263238"></path><path d="M113.69,82.41a4.1,4.1,0,1,1,4-4.81.5.5,0,0,1-1,.17,3.1,3.1,0,1,0-2.51,3.59.5.5,0,0,1,.17,1A4.25,4.25,0,0,1,113.69,82.41Z" style="fill:#263238"></path><path d="M120.35,81.23a4.1,4.1,0,1,1,4-4.81.5.5,0,0,1-.4.58.49.49,0,0,1-.58-.41,3.1,3.1,0,1,0-6.1,1.08,3.09,3.09,0,0,0,3.59,2.51.51.51,0,0,1,.58.41.5.5,0,0,1-.41.58A4.37,4.37,0,0,1,120.35,81.23Z" style="fill:#263238"></path><path d="M127.71,79.93a4,4,0,0,1-2.34-.74,4.1,4.1,0,1,1,6.38-4.07.5.5,0,0,1-.4.58.49.49,0,0,1-.58-.41,3.1,3.1,0,0,0-3.59-2.51,3.08,3.08,0,0,0-2,1.28,3.09,3.09,0,0,0,3.08,4.82.49.49,0,0,1,.57.41.5.5,0,0,1-.4.58A4.37,4.37,0,0,1,127.71,79.93Z" style="fill:#263238"></path><path d="M134.38,78.75A4,4,0,0,1,132,78a4.09,4.09,0,1,1,4.69-6.71,4,4,0,0,1,1.69,2.64.5.5,0,0,1-.41.58.48.48,0,0,1-.57-.4,3.09,3.09,0,0,0-5.59-1.24,3.09,3.09,0,0,0,3.07,4.82.5.5,0,0,1,.18,1A4.37,4.37,0,0,1,134.38,78.75Z" style="fill:#263238"></path><path d="M141,77.57a4.09,4.09,0,1,1,4.05-4.81.5.5,0,0,1-1,.18,3.09,3.09,0,0,0-5.58-1.24,3.1,3.1,0,0,0,3.07,4.83.5.5,0,1,1,.18,1A4.49,4.49,0,0,1,141,77.57Z" style="fill:#263238"></path><path d="M147.71,76.4a4.08,4.08,0,0,1-4-3.39,4.1,4.1,0,1,1,8.07-1.42.49.49,0,0,1-.41.57.5.5,0,0,1-.58-.4,3,3,0,0,0-1.27-2,3.11,3.11,0,0,0-4.32.76,3.1,3.1,0,0,0,3.08,4.83.5.5,0,1,1,.17,1A3.51,3.51,0,0,1,147.71,76.4Z" style="fill:#263238"></path><path d="M154.39,75.22a4.1,4.1,0,0,1-.71-8.13,4.05,4.05,0,0,1,3.06.67,4.11,4.11,0,0,1,1.69,2.65.5.5,0,1,1-1,.17,3.1,3.1,0,1,0-2.51,3.59.5.5,0,0,1,.58.41.48.48,0,0,1-.41.57A3.49,3.49,0,0,1,154.39,75.22Z" style="fill:#263238"></path><path d="M161.06,74a4.12,4.12,0,0,1-4-3.39,4.1,4.1,0,1,1,8.07-1.42.5.5,0,0,1-.4.58.51.51,0,0,1-.58-.41,3.1,3.1,0,0,0-3.59-2.51A3.1,3.1,0,1,0,161.6,73a.5.5,0,0,1,.58.41.51.51,0,0,1-.41.58A4.34,4.34,0,0,1,161.06,74Z" style="fill:#263238"></path><path d="M167.73,72.86a4.1,4.1,0,1,1,4-4.81.5.5,0,0,1-.4.58.49.49,0,0,1-.58-.41,3.08,3.08,0,0,0-1.28-2,3.09,3.09,0,0,0-4.82,3.07,3.1,3.1,0,0,0,3.59,2.51.51.51,0,0,1,.58.41.51.51,0,0,1-.41.58A4.34,4.34,0,0,1,167.73,72.86Z" style="fill:#263238"></path><path d="M174.39,71.68a4.11,4.11,0,0,1-4-3.38,4.1,4.1,0,1,1,8.07-1.43.5.5,0,0,1-.4.58.49.49,0,0,1-.58-.4,3.08,3.08,0,0,0-1.28-2,3.09,3.09,0,0,0-3.55,5.07,3.07,3.07,0,0,0,2.31.52.49.49,0,0,1,.58.4.5.5,0,0,1-.4.58A4.37,4.37,0,0,1,174.39,71.68Z" style="fill:#263238"></path><path d="M182.62,91.17c0,.15-25.92,4.85-57.95,10.51s-58,10.13-58.06,10,25.92-4.84,58-10.5S182.6,91,182.62,91.17Z" style="fill:#e0e0e0"></path><path d="M184.33,100.82c0,.14-25.93,4.85-58,10.51s-58,10.13-58.05,10,25.92-4.85,58-10.51S184.3,100.68,184.33,100.82Z" style="fill:#e0e0e0"></path><path d="M186,110.47c0,.14-25.92,4.85-57.95,10.5s-58,10.14-58.06,10,25.92-4.85,58-10.51S186,110.33,186,110.47Z" style="fill:#e0e0e0"></path><path d="M187.74,120.12c0,.14-25.93,4.84-58,10.5s-58,10.14-58.06,10,25.93-4.85,58-10.51S187.71,120,187.74,120.12Z" style="fill:#e0e0e0"></path><path d="M189.44,129.77c0,.14-25.92,4.84-58,10.5s-58,10.14-58,10,25.92-4.84,58-10.5S189.42,129.63,189.44,129.77Z" style="fill:#e0e0e0"></path><path d="M191.15,139.41c0,.15-25.93,4.85-58,10.51s-58,10.13-58.06,10,25.93-4.84,58-10.5S191.12,139.27,191.15,139.41Z" style="fill:#e0e0e0"></path><path d="M192.85,149.06c0,.14-25.93,4.85-58,10.51s-58,10.13-58,10,25.92-4.84,58-10.51S192.83,148.92,192.85,149.06Z" style="fill:#e0e0e0"></path><path d="M194.56,158.71c0,.14-25.93,4.85-58,10.51s-58,10.13-58.06,10,25.92-4.85,58-10.51S194.53,158.57,194.56,158.71Z" style="fill:#e0e0e0"></path><path d="M196.26,168.36c0,.14-25.93,4.84-58,10.5s-58,10.14-58.05,10,25.92-4.85,58-10.51S196.24,168.22,196.26,168.36Z" style="fill:#e0e0e0"></path><path d="M198,178c0,.14-26.3,4.91-58.79,10.65S80.33,198.94,80.3,198.8s26.3-4.91,58.79-10.66S197.94,177.87,198,178Z" style="fill:#e0e0e0"></path><path d="M199.67,187.66c0,.14-26.3,4.91-58.78,10.65S82,208.59,82,208.44s26.29-4.91,58.79-10.65S199.65,187.51,199.67,187.66Z" style="fill:#e0e0e0"></path><path d="M201.38,197.3c0,.15-26.46,4.94-59.14,10.72S83,218.36,83,218.22s26.45-4.94,59.14-10.72S201.35,197.16,201.38,197.3Z" style="fill:#e0e0e0"></path><path d="M203.08,207c0,.14-26.8,5-59.92,10.85s-60,10.48-60,10.34,26.8-5,59.92-10.85S203.05,206.81,203.08,207Z" style="fill:#e0e0e0"></path><path d="M204.78,216.6c0,.14-27,5-60.43,10.94S83.85,238.11,83.83,238s27-5,60.43-10.94S204.76,216.46,204.78,216.6Z" style="fill:#e0e0e0"></path><path d="M111.47,133.35s.17-.57.52-1.67a23.92,23.92,0,0,1,2.22-4.61,25.92,25.92,0,0,1,5.55-6.18,28.56,28.56,0,0,1,10-5.2,29.37,29.37,0,0,1,6.7-1,28,28,0,0,1,7.41.94,31.8,31.8,0,0,1,14.45,8.55,34.2,34.2,0,0,1,5.64,7.55,34.7,34.7,0,0,1,3.48,9.41,42,42,0,0,1-1.24,21.61,43.22,43.22,0,0,1-13,19.88,38.92,38.92,0,0,1-5.18,3.66,32.35,32.35,0,0,1-5.9,2.66A27.47,27.47,0,0,1,129,190a34.35,34.35,0,0,1-12.76-5,49,49,0,0,1-10.69-9.28,56.4,56.4,0,0,1-8.11-12.12,39.72,39.72,0,0,1-4.17-14.36,28.15,28.15,0,0,1,2.9-15,31.77,31.77,0,0,1,4.37-6.5,34.17,34.17,0,0,1,5.88-5.32,34.73,34.73,0,0,1,7.05-3.81,33.45,33.45,0,0,1,7.87-1.94,34.94,34.94,0,0,1,8.17.23,36.71,36.71,0,0,1,15.25,6.18,36.76,36.76,0,0,1,6.33,5.5,36.19,36.19,0,0,1,5,6.84,40.14,40.14,0,0,1,3.3,7.85,44.63,44.63,0,0,1-3.81,33.64,34.72,34.72,0,0,1-11.8,12.68,23.56,23.56,0,0,1-8,3.21,19.6,19.6,0,0,1-8.59-.3,21.68,21.68,0,0,1-7.65-3.75,30,30,0,0,1-6-6,41.26,41.26,0,0,1-7.07-15.05,42.16,42.16,0,0,1-.95-16.3,38.28,38.28,0,0,1,1.94-7.86,33.81,33.81,0,0,1,3.68-7.12c6-8.8,16.26-14.41,26.51-14.07a27.25,27.25,0,0,1,14.12,4.72,30,30,0,0,1,9.74,10.79,29.08,29.08,0,0,1,3.39,13.69A33.22,33.22,0,0,1,162,165a32.26,32.26,0,0,1-3.28,5.86,23.65,23.65,0,0,1-2.06,2.59l-1.1,1.23c-.37.4-.8.75-1.19,1.13a34.46,34.46,0,0,1-10.85,6.71,35.63,35.63,0,0,1-23.65.82,30.4,30.4,0,0,1-9.85-5.3,34.16,34.16,0,0,1-7.11-7.89,37.2,37.2,0,0,1-4.34-9A37.8,37.8,0,0,1,97,151.81a32.25,32.25,0,0,1,.82-8.76c.18-.68.36-1.36.53-2s.47-1.3.7-1.94l.35-1,.44-.9c.29-.6.57-1.2.86-1.78a35.86,35.86,0,0,1,19.11-16.28c.76-.33,1.54-.49,2.26-.73l1.07-.32,1-.22c.68-.14,1.33-.29,2-.4l1.78-.21a25.41,25.41,0,0,1,3-.17,15.59,15.59,0,0,1,2.15.06l1.74.14-1.74-.08a16,16,0,0,0-2.14,0,23.81,23.81,0,0,0-3,.2l-1.77.22c-.62.11-1.26.26-1.94.4l-1,.23-1.06.33c-.72.24-1.5.4-2.25.73a35.78,35.78,0,0,0-18.94,16.25l-.85,1.77-.43.9-.35.95c-.22.64-.48,1.27-.69,1.92s-.34,1.34-.52,2a31.71,31.71,0,0,0-.79,8.68,35.57,35.57,0,0,0,6,18.17,33.94,33.94,0,0,0,7.06,7.79A29.85,29.85,0,0,0,120,183a35.23,35.23,0,0,0,23.38-.85,33.71,33.71,0,0,0,10.71-6.64c.39-.37.81-.71,1.18-1.11l1.08-1.21a26.62,26.62,0,0,0,2-2.56,33.2,33.2,0,0,0,5.94-19A28.61,28.61,0,0,0,161,138.1a29.53,29.53,0,0,0-9.59-10.61,26.78,26.78,0,0,0-13.88-4.63c-10.06-.33-20.19,5.2-26.08,13.87a33.3,33.3,0,0,0-3.62,7,37.71,37.71,0,0,0-1.92,7.75,41.8,41.8,0,0,0,1,16.11,40.79,40.79,0,0,0,7,14.86,29.78,29.78,0,0,0,5.88,5.88,21.39,21.39,0,0,0,7.48,3.66,19,19,0,0,0,8.36.29,23.08,23.08,0,0,0,7.86-3.14,34.38,34.38,0,0,0,11.63-12.49,44.08,44.08,0,0,0,3.76-33.24,39.7,39.7,0,0,0-3.25-7.75,37.55,37.55,0,0,0-18.36-16.09,35.19,35.19,0,0,0-7.83-2.18,33.84,33.84,0,0,0-8-.22,32.93,32.93,0,0,0-7.74,1.89,34.91,34.91,0,0,0-6.94,3.75,34.38,34.38,0,0,0-5.79,5.24,31.1,31.1,0,0,0-4.31,6.4,27.67,27.67,0,0,0-2.86,14.74,39.45,39.45,0,0,0,4.11,14.2,56.66,56.66,0,0,0,8,12,48.91,48.91,0,0,0,10.59,9.21A33.86,33.86,0,0,0,129,189.55a27,27,0,0,0,13-1,31.46,31.46,0,0,0,5.82-2.62,37.46,37.46,0,0,0,5.13-3.61,42.88,42.88,0,0,0,13-19.69,41.69,41.69,0,0,0,1.27-21.42,34.54,34.54,0,0,0-3.43-9.33,33.9,33.9,0,0,0-5.58-7.5,31.51,31.51,0,0,0-14.31-8.51,27.51,27.51,0,0,0-7.34-1,27.66,27.66,0,0,0-16.65,6.1,25.89,25.89,0,0,0-5.56,6.12A23.35,23.35,0,0,0,112,131.7C111.67,132.79,111.47,133.35,111.47,133.35Z" style="fill:#263238"></path><path d="M119.25,164.32h7s0,5.85,6.08,6a5.65,5.65,0,0,0,5.46-3.6,6.23,6.23,0,0,0-.5-5.64c-1.18-1.95-3.77-3.72-8.46-2.89v-15.7h6.89v9.19s9.65,2.5,9.65,13.14c0,10.19-9.13,12.55-13,12.55C129.3,177.33,119.12,176.61,119.25,164.32Z" style="fill:#263238"></path><rect x="128.77" y="132.69" width="6.99" height="6.53" style="fill:#263238"></rect></g><g id="freepik--speech-bubble--inject-17"><circle cx="266.47" cy="106.63" r="41.52" transform="translate(31.76 271.83) rotate(-56.95)" style="fill:#fff"></circle><path d="M300.29,147.78s0-.45.27-1.22a5.54,5.54,0,0,1,1.93-2.69,5.28,5.28,0,0,1,2.07-1,4.51,4.51,0,0,1,2.57.23,5,5,0,0,1,.27,9.33,4.55,4.55,0,0,1-2.56.37,5.16,5.16,0,0,1-2.12-.84,5.58,5.58,0,0,1-2.08-2.57,12,12,0,0,1-.33-1.21s0,.12,0,.33a1.68,1.68,0,0,0,.06.4,2.7,2.7,0,0,0,.13.53,5.56,5.56,0,0,0,4.29,3.68,4.76,4.76,0,0,0,2.75-.37,5.68,5.68,0,0,0,2.37-1.95,5,5,0,0,0-.18-6.22,5.66,5.66,0,0,0-2.47-1.81,4.75,4.75,0,0,0-2.77-.21,5.59,5.59,0,0,0-4.07,3.92,3.24,3.24,0,0,0-.11.54,1.89,1.89,0,0,0,0,.39A1.64,1.64,0,0,0,300.29,147.78Z" style="fill:#263238"></path><path d="M273.38,148s-.23,0-.68.06l-2,.21-1.45.16c-.54,0-1.13,0-1.77,0l-2.06,0a7.36,7.36,0,0,1-1.14-.05l-1.2-.11a39.88,39.88,0,0,1-11.72-2.73A41.66,41.66,0,0,1,238,137l-1.63-1.56c-.51-.56-1-1.15-1.5-1.73l-.77-.89a10.92,10.92,0,0,1-.73-.92L232,130c-.23-.33-.47-.66-.7-1l-.6-1.07c-.41-.71-.82-1.44-1.23-2.17s-.7-1.54-1.06-2.31c-.17-.39-.34-.79-.52-1.18-.08-.2-.18-.39-.25-.6l-.21-.61a40,40,0,0,1-1.47-5.1c-.18-.88-.41-1.76-.55-2.66s-.21-1.82-.31-2.74c-.05-.46-.13-.92-.14-1.39s0-.94,0-1.41c0-.94,0-1.88,0-2.83a43.58,43.58,0,0,1,.7-5.75l.27-1.45c0-.24.08-.48.14-.72l.21-.71c.27-1,.55-1.91.83-2.87s.74-1.87,1.1-2.81c.2-.47.36-1,.59-1.41l.71-1.36a45.29,45.29,0,0,1,3.18-5.32l2-2.47.49-.62c.17-.2.36-.39.54-.58l1.1-1.15,1.11-1.16,1.21-1,1.23-1,.61-.53c.21-.16.44-.31.66-.47l2.66-1.88L247,69.92a41.21,41.21,0,0,1,25.91-4.34l3.23.61,3.13.91.78.23.75.3,1.5.6,1.49.6,1.42.74,1.42.73.7.36.66.43,2.65,1.71a45.85,45.85,0,0,1,4.74,4l1.11,1.06c.37.35.67.76,1,1.14.66.77,1.34,1.51,2,2.3l1.72,2.44.43.61c.13.21.25.42.37.64l.73,1.28a45.33,45.33,0,0,1,2.52,5.21c.34.88.61,1.8.91,2.69.15.44.29.89.44,1.33s.21.91.32,1.36c.2.9.39,1.8.59,2.7s.23,1.8.35,2.69a39.52,39.52,0,0,1,.26,5.3v.65c0,.22,0,.43-.05.65,0,.43-.07.85-.11,1.28-.08.85-.11,1.7-.24,2.53s-.31,1.64-.46,2.45c-.08.41-.15.81-.23,1.21l-.33,1.17c-.22.78-.45,1.55-.67,2.31a7.31,7.31,0,0,1-.39,1.11c-.15.37-.29.73-.43,1.09-.3.71-.56,1.44-.87,2.13s-.69,1.34-1,2a41.86,41.86,0,0,1-9.93,12.4c-.45.38-.88.77-1.32,1.13l-1.36,1-1.32.93c-.21.15-.42.31-.64.44l-.66.38-2.51,1.44c-.82.43-1.64.75-2.39,1.1l-1.1.49a6.31,6.31,0,0,1-1.06.42l-2,.65c-.61.2-1.17.41-1.69.55l-1.42.32-1.94.45-.66.16.66-.12,1.95-.41,1.44-.31c.52-.14,1.08-.34,1.69-.53l2-.63a6.67,6.67,0,0,0,1.06-.42l1.11-.48c.76-.35,1.59-.66,2.4-1.09l2.53-1.43.67-.38c.23-.13.43-.29.65-.44l1.32-.93,1.38-1c.44-.36.88-.74,1.33-1.13a41.6,41.6,0,0,0,10-12.44l1-2c.31-.7.58-1.43.87-2.15.15-.36.3-.72.44-1.09a8.26,8.26,0,0,0,.4-1.12l.68-2.32c.11-.39.23-.78.34-1.18s.15-.81.23-1.22c.15-.81.31-1.63.46-2.47s.17-1.69.26-2.54c0-.43.07-.87.11-1.3,0-.21,0-.43.05-.65v-.66a38.36,38.36,0,0,0-.26-5.33c-.11-.9-.17-1.82-.34-2.72s-.39-1.81-.59-2.72c-.11-.46-.18-.92-.32-1.37s-.29-.9-.44-1.35c-.31-.89-.57-1.81-.91-2.71A44.55,44.55,0,0,0,303,86.08l-.73-1.29c-.13-.21-.24-.44-.38-.65l-.43-.61-1.73-2.46c-.62-.8-1.31-1.55-2-2.33-.34-.38-.65-.79-1-1.14l-1.12-1.07a47.87,47.87,0,0,0-4.78-4l-2.67-1.72-.67-.43-.71-.38-1.43-.73L284,68.49l-1.51-.61L281,67.27l-.76-.3-.78-.23-3.16-.92L273,65.2a45.2,45.2,0,0,0-13.44,0,44.73,44.73,0,0,0-12.71,4.33L244,71.22l-2.68,1.89c-.22.16-.45.31-.67.48l-.62.53-1.23,1.07-1.22,1.06-1.12,1.17-1.11,1.16c-.18.19-.37.38-.55.58l-.49.63-2,2.49a47.5,47.5,0,0,0-3.2,5.37L228.38,89c-.24.45-.4.94-.6,1.41-.36,1-.77,1.89-1.1,2.84l-.84,2.9-.21.71c-.06.25-.1.49-.14.74-.09.48-.19,1-.28,1.45a44.47,44.47,0,0,0-.68,5.8c0,1,0,1.92,0,2.86,0,.48,0,1,0,1.42s.1.93.15,1.4c.11.93.21,1.85.32,2.76s.38,1.8.56,2.68a39.06,39.06,0,0,0,1.49,5.14l.21.62c.07.2.17.4.26.6.17.4.35.79.52,1.19.37.78.67,1.58,1.07,2.32l1.24,2.19.62,1.08c.23.34.47.67.7,1l1.4,2a7.55,7.55,0,0,0,.74.93c.26.3.51.6.77.89.51.59,1,1.19,1.52,1.74l1.64,1.57a41.65,41.65,0,0,0,13.53,8.5,39.85,39.85,0,0,0,11.78,2.68l1.21.1a7.33,7.33,0,0,0,1.14,0l2.07,0c.64,0,1.23,0,1.77-.05l1.46-.17,2-.25Z" style="fill:#263238"></path><path d="M260.61,118.9c0-2.74,2.18-4.78,5.29-4.78s5.25,2,5.25,4.78a5.29,5.29,0,0,1-10.54,0Zm.05-28h10.49l-1.76,20.66h-7Z" style="fill:#407BFF"></path></g><g id="freepik--Character--inject-17"><path d="M412.92,171.5a10.52,10.52,0,0,0,13.28-16.17,10.94,10.94,0,0,0-.08-20.77A13.1,13.1,0,0,0,413.43,116a14.73,14.73,0,0,0-16-8.59A10.47,10.47,0,0,0,381.14,119" style="fill:#263238"></path><path d="M390.72,115.63l2,1.06a44.63,44.63,0,0,1,20.84,56.82c-8.31,20-17.73,41.94-23.14,52.17-11.2,21.17-34.21,13.54-34.21,13.54l-11.34,26.53-27.08,7L294,237.6l43.08-95.19C346.56,119.3,367.88,105.55,390.72,115.63Z" style="fill:#ffbf9d"></path><path d="M356.45,239.28s-14-6.16-23.73-22.5c0,0-1.3,18.7,20.94,27.7Z" style="fill:#ff9a6c"></path><path d="M416.57,162.69S417.8,146.46,413,140c-5.86-7.76-13.6-.94-20-6.82s-11.94-13.32-22.47-11.48c-11.52,2-9.9,8.42-15.26,17.61-21.76,37.27-34.32,44.51-27,25.44.8-2.09-3.88-6.49-.4-15.26,4.5-11.38,10.84-24.75,17.21-31.2,5.36-5.43,11.36-8,20.52-9.55,14.46-2.42,28.92,4.79,38.17,10.78S426,146.44,416.57,162.69Z" style="fill:#263238"></path><path d="M329.89,164.9a6.51,6.51,0,0,0-3.38-8.78c-4.17-1.66-9.75-1.67-13.71,6.67-7,14.81,9.3,18.8,9.53,18.38S327,171.13,329.89,164.9Z" style="fill:#ffbf9d"></path><path d="M321.75,174.08c-.05-.08-.35.06-.88,0a2.87,2.87,0,0,1-1.94-.87c-1.3-1.32-1.44-4.43-.25-7.13a9.65,9.65,0,0,1,2.48-3.35,3.29,3.29,0,0,1,2.87-1.06,1.45,1.45,0,0,1,1.19,1.43c0,.51-.23.76-.16.82s.43-.1.6-.77a1.82,1.82,0,0,0-.14-1.2,2.14,2.14,0,0,0-1.25-1.05,4,4,0,0,0-3.78,1,9.66,9.66,0,0,0-2.85,3.7c-1.32,3-1.11,6.54.73,8.18a3.07,3.07,0,0,0,2.55.72C321.55,174.42,321.79,174.13,321.75,174.08Z" style="fill:#ff9a6c"></path><path d="M344.66,136.83c1.23,2.26,2.55,4.62,4.71,6s5.44,1.43,7-.63c.69-.93,1.05-2.23,2.11-2.67,1.28-.53,2.6.52,3.75,1.27,4,2.62,11.36.49,14.55-3.08a4.27,4.27,0,0,0,4.54,3.66,15.13,15.13,0,0,0,5.11-1.32c2-.8,4.5-1.19,6.29.07,1,.7,1.67,1.86,2.81,2.32,2,.82,4.08-.94,5.35-2.7s2.62-3.85,4.77-4c2-.18,3.66,1.37,5.28,2.53s4.12,1.92,5.45.43a3.92,3.92,0,0,0,.71-3,10.6,10.6,0,0,0-9.31-9.28,14.37,14.37,0,0,0-22.22-14.54A14.58,14.58,0,0,0,362.38,106a10.57,10.57,0,0,0-17.63,8.24c-3.39.15-7,1.6-8.57,4.59s-.21,7.5,3.11,8.2a5.85,5.85,0,0,0,6.34,9.82" style="fill:#263238"></path><path d="M406.66,131.25a1.32,1.32,0,0,1-.14.26,7.55,7.55,0,0,1-.5.73,10.41,10.41,0,0,1-2.49,2.27,11.8,11.8,0,0,1-5,1.78,10.89,10.89,0,0,1-6.84-1.36l.41-.19a6,6,0,0,1-2.36,3.87,16.75,16.75,0,0,1-4.33,2.3,12.33,12.33,0,0,1-2.49.83,5.62,5.62,0,0,1-2.75-.32,6,6,0,0,1-3.82-4.09l.62.12a12.26,12.26,0,0,1-8.51,5.18,9,9,0,0,1-5.59-.88,16.55,16.55,0,0,1-4.19-3.46l.48,0a12.9,12.9,0,0,1-5.75,2.73,6.9,6.9,0,0,1-5.79-1.23,9,9,0,0,1-2.95-9.45l.25.32a8.41,8.41,0,0,1-5.39-1.83,9.3,9.3,0,0,1-2.69-3.35,8,8,0,0,1-.71-2.61,3.61,3.61,0,0,1,0-1,9.63,9.63,0,0,0,.94,3.44,9.15,9.15,0,0,0,2.68,3.15,8.08,8.08,0,0,0,5.13,1.65h.35l-.1.34a8.51,8.51,0,0,0,2.86,8.82,6.23,6.23,0,0,0,5.27,1,12.22,12.22,0,0,0,5.43-2.6l.26-.21.22.24a15.58,15.58,0,0,0,4,3.3,8.27,8.27,0,0,0,5.16.81,11.63,11.63,0,0,0,8-4.88l.45-.64.18.77a5.26,5.26,0,0,0,3.38,3.6,4.92,4.92,0,0,0,2.42.31,11.86,11.86,0,0,0,2.34-.77,16.82,16.82,0,0,0,4.2-2.18,5.4,5.4,0,0,0,2.19-3.48l.06-.41.35.21a10.54,10.54,0,0,0,6.51,1.4,11.64,11.64,0,0,0,4.88-1.61A12.83,12.83,0,0,0,406.66,131.25Z" style="fill:#455a64"></path><path d="M394.68,190.82a3.42,3.42,0,0,1-4.52,1.51,3.27,3.27,0,0,1-1.68-4.36,3.41,3.41,0,0,1,4.52-1.52A3.27,3.27,0,0,1,394.68,190.82Z" style="fill:#263238"></path><path d="M405.72,182.32c-.58.2-2-2.7-5.23-4.4s-6.49-1.34-6.64-1.92c-.08-.27.68-.78,2.12-1a9.47,9.47,0,0,1,5.57,1.05,9,9,0,0,1,3.9,4C406,181.35,406,182.24,405.72,182.32Z" style="fill:#263238"></path><path d="M364.18,176.41a3.41,3.41,0,0,1-4.52,1.51,3.26,3.26,0,0,1-1.68-4.36A3.43,3.43,0,0,1,362.5,172,3.28,3.28,0,0,1,364.18,176.41Z" style="fill:#263238"></path><path d="M373.46,166.29c-.58.2-2-2.7-5.23-4.4s-6.49-1.33-6.64-1.92c-.08-.27.68-.78,2.12-1a9.37,9.37,0,0,1,5.57,1,9,9,0,0,1,3.9,4C373.77,165.32,373.74,166.21,373.46,166.29Z" style="fill:#263238"></path><path d="M372,197.41c.08-.19,2.29.52,5.78,1.83.87.35,1.75.6,2.19.11a4.84,4.84,0,0,0,.74-2.75c.27-2.42.57-5,.87-7.62,1.33-10.79,2.76-19.49,3.2-19.43s-.3,8.85-1.63,19.64c-.35,2.66-.67,5.18-1,7.6-.19,1.11-.21,2.46-1.29,3.48a2.32,2.32,0,0,1-2,.5,6.67,6.67,0,0,1-1.52-.55C373.94,198.66,371.88,197.6,372,197.41Z" style="fill:#263238"></path><path d="M363.47,149.11c.68-.81,4,.91,8.18,1.92s7.9,1.12,8.12,2.16c.09.49-.8,1.16-2.46,1.58a14.59,14.59,0,0,1-12.42-3.11C363.63,150.51,363.16,149.5,363.47,149.11Z" style="fill:#263238"></path><path d="M410.91,172.84c-1.06.4-3.34-1.72-6.53-3.39s-6.17-2.51-6.4-3.6c-.08-.52.72-1,2.26-1.15a11.51,11.51,0,0,1,5.95,1.49,11.36,11.36,0,0,1,4.47,4.15C411.41,171.68,411.39,172.63,410.91,172.84Z" style="fill:#263238"></path><path d="M363.23,207.23c-.19.1-.74-.5-1.53-1.52L360.33,204a9.27,9.27,0,0,0-1.73-1.8,8.66,8.66,0,0,0-4.38-1.1c-1.25,0-2.05,0-2.11-.21s.68-.64,2-.89a8.8,8.8,0,0,1,2.41-.1,6.54,6.54,0,0,1,2.92,1,8.35,8.35,0,0,1,2,2.25,16.35,16.35,0,0,1,1.14,2C363.2,206.32,363.42,207.12,363.23,207.23Z" style="fill:#263238"></path><path d="M233.09,210.36s21.9,0,35,1.27c14,1.35,25.07,2.92,25.07,2.92l13.17-4.2-1.75,28.21,15,24.11,15.21-5.92,12.29-4.32,6-9,39.64,20.77-47.78,98.38H176.49l26.7-62.15Z" style="fill:#407BFF"></path><path d="M117.21,340c.31-1.22-1-21.61,9.3-27.09s69.59-84.86,77.8-91.82c20.93-17.75,44.94-8.09,44.94-8.09s-17.51,42.46-21.77,53.3-30.61,47-30.14,46.16c3.31-6-24.66,36.09-24.66,36.09Z" style="fill:#407BFF"></path><path d="M222.28,250.07a3.89,3.89,0,0,1-.22.71l-.73,2c-.68,1.78-1.62,4.27-2.78,7.32-2.42,6.22-5.72,14.72-9.36,24.1s-7.06,17.85-9.51,24.05c-1.22,3-2.22,5.49-2.94,7.26l-.82,2a3.11,3.11,0,0,1-.32.67,3.64,3.64,0,0,1,.22-.71c.19-.5.43-1.17.74-2,.67-1.78,1.62-4.27,2.78-7.33L208.7,284l9.5-24c1.23-3,2.23-5.5,2.94-7.27.34-.81.62-1.46.82-2A5.14,5.14,0,0,1,222.28,250.07Z" style="fill:#263238"></path><path d="M312.78,259.87a4.77,4.77,0,0,1-.49-.55L311,257.66l-4.83-6.17-3.34-4.28a2.17,2.17,0,0,0-2.39-1,9.08,9.08,0,0,0-2.36,2l-10.19,10.3-.45.46v-.64c0-1.05,0-2.17,0-3.29a281.08,281.08,0,0,1,2-28.36c.44-3.61.87-6.53,1.19-8.53q.24-1.45.39-2.31a4.93,4.93,0,0,1,.17-.8,3.8,3.8,0,0,1-.07.81c-.07.58-.17,1.35-.29,2.32-.26,2-.63,4.94-1,8.55C289,234,288.19,244,288,255.08c0,1.12,0,2.24,0,3.28l-.45-.18,10.23-10.26c.39-.4.78-.78,1.17-1.16a4.08,4.08,0,0,1,1.37-1,2,2,0,0,1,1.67.12,4.23,4.23,0,0,1,1.19,1c1.22,1.56,2.29,3,3.3,4.34l4.7,6.27,1.25,1.71A3.7,3.7,0,0,1,312.78,259.87Z" style="fill:#263238"></path><path d="M358.56,246.86a4,4,0,0,1-.18.6c-.13.38-.32.95-.6,1.66a64.59,64.59,0,0,1-2.68,6,70.23,70.23,0,0,1-12.69,17.51l-.34.33-.1-.45c-.08-.33-.16-.69-.24-1a62.06,62.06,0,0,1-1.5-13.53l.31.23-12.37,4.1-3.52,1.12-.94.28c-.22.06-.33.09-.33.07a1.09,1.09,0,0,1,.3-.14l.92-.35,3.48-1.25,12.31-4.28.31-.11v.33a63.61,63.61,0,0,0,1.54,13.41l.23,1-.43-.12a73.41,73.41,0,0,0,12.74-17.31c1.29-2.43,2.21-4.46,2.81-5.87l.7-1.63A2.89,2.89,0,0,1,358.56,246.86Z" style="fill:#263238"></path><path d="M269.77,362.63c-.13-.07,10.59-22.3,23.94-49.66s24.27-49.49,24.4-49.42-10.59,22.29-23.94,49.65S269.9,362.69,269.77,362.63Z" style="fill:#263238"></path><path d="M254.45,329.56a4.28,4.28,0,0,1,1.13.16c.72.14,1.75.37,3,.68,2.54.63,6,1.62,9.77,3s7.08,2.76,9.44,3.88c1.18.56,2.13,1,2.77,1.38a4.53,4.53,0,0,1,1,.59,5.41,5.41,0,0,1-1.07-.4l-2.83-1.23c-2.39-1-5.72-2.4-9.46-3.73s-7.19-2.38-9.7-3.09l-3-.84A5.6,5.6,0,0,1,254.45,329.56Z" style="fill:#263238"></path><path d="M250.82,343.9a5.21,5.21,0,0,1,1.07-.29c.69-.16,1.7-.35,3-.56a95.14,95.14,0,0,1,9.88-1.12,97.15,97.15,0,0,1,9.95-.1c1.28.05,2.3.12,3,.19a5.09,5.09,0,0,1,1.1.16,4.22,4.22,0,0,1-1.11,0l-3,0c-2.54,0-6.05,0-9.91.26s-7.35.63-9.87,1l-3,.4A3.81,3.81,0,0,1,250.82,343.9Z" style="fill:#263238"></path><g style="opacity:0.30000000000000004"><path d="M289.2,256.82l1.82,5.7s8.09-10.65,10.61-9.52,9.82,5.13,9.82,5.13-8.79-11.82-9.65-12-1.76-.19-3.55,1.61Z"></path></g><g style="opacity:0.30000000000000004"><path d="M342.42,271.64a53.2,53.2,0,0,1-1.74-13.81c-4.34,1.5-13.22,4.13-17.3,5.88,3.51-.46,8.34-.65,11.86-1.11a1.41,1.41,0,0,1,1.86,1.59,98,98,0,0,1,.61,12.93,17.93,17.93,0,0,0,10-10.57Z"></path></g><g style="opacity:0.30000000000000004"><path d="M160.91,313.56c-5.86-2.56-12.62-2.19-18.86-.78h0c10.95.88,21.2,6.88,28.65,15.8C171.42,322.23,166.77,316.13,160.91,313.56Z"></path></g><path d="M399.66,267.77s11.3,3.93,24.85,35.79c7.51,17.68,17.67,35.57,10.65,51.2-3.29,7.3-53.18,10-53.18,10s-7.63-7.14-7.89-12.9,0-11.25,0-11.25l-14.77-8.1L384,277.22Z" style="fill:#407BFF"></path><path d="M425.26,320.31l-23.82-68.72-27.78,10.93L387.26,335s18.4,6.11,28.17.46S425.26,320.31,425.26,320.31Z" style="fill:#ffbf9d"></path><path d="M427.57,203.78c-.88-1.86-3.28-2.6-5.31-2.23a14.25,14.25,0,0,0-5.47,2.8l8,6.85a14,14,0,0,0,2.54-3.35A4.81,4.81,0,0,0,427.57,203.78Z" style="fill:#ff9a6c"></path><path d="M373.66,262.52c.2-.47-4.17-19.56.5-25.6s21.56-23.71,21.56-23.71-2.46-9.33,5.56-9.43c0,0,1.89-7.61,7.94-5.47,0,0,2.72-2,6.42,1.24s17.15,14.43,17.82,18.9a12.86,12.86,0,0,1-2,8.36s-11.64,8.43-16.47,11.73c-3.79,2.6-13,7.33-12.64,16.26Z" style="fill:#ffbf9d"></path><path d="M410.88,217.28s.21-.17.49-.53A2.88,2.88,0,0,0,412,215a4.29,4.29,0,0,0-1-2.6,24.82,24.82,0,0,0-2.49-2.61,60.76,60.76,0,0,0-5-4.3,23.15,23.15,0,0,1-2.17-1.68,10.14,10.14,0,0,1,2.39,1.38,41.64,41.64,0,0,1,5.15,4.22,23.22,23.22,0,0,1,2.52,2.7,4.51,4.51,0,0,1,1,2.9,2.93,2.93,0,0,1-.79,1.91C411.16,217.24,410.89,217.3,410.88,217.28Z" style="fill:#ff9a6c"></path><path d="M423.38,213.15a19,19,0,0,1-2-2.27c-1.19-1.43-2.84-3.38-4.79-5.44s-3.81-3.81-5.18-5.06a22.59,22.59,0,0,1-2.2-2.07,14.75,14.75,0,0,1,2.44,1.79,59.56,59.56,0,0,1,5.32,5,65.45,65.45,0,0,1,4.7,5.57A15.82,15.82,0,0,1,423.38,213.15Z" style="fill:#ff9a6c"></path><path d="M421.53,223a18,18,0,0,0,1.11-2.18,18.89,18.89,0,0,0,.35-2.42,2.85,2.85,0,0,1,.14,2.58C422.68,222.37,421.6,223.08,421.53,223Z" style="fill:#ff9a6c"></path><path d="M402.3,254.8a3.33,3.33,0,0,1,0-.42c0-.29,0-.71,0-1.27a13,13,0,0,1,1.37-4.64,19.14,19.14,0,0,1,5-5.82,40.42,40.42,0,0,1,3.9-2.79c1.44-.91,3-1.83,4.49-2.92,3.08-2.14,6.41-4.56,10-7.16l2.71-2,1.39-1,.18-.13s-.09.09,0,0l0,0,0-.05.05-.09.22-.36c.15-.25.28-.51.41-.77a12,12,0,0,0,1.27-6.89,9,9,0,0,0-1.68-3.21,35.61,35.61,0,0,0-2.47-2.94c-1.75-1.9-3.65-3.75-5.63-5.58s-4.05-3.64-6.17-5.46a24,24,0,0,0-3.26-2.58,4.84,4.84,0,0,0-3.9-.54,3,3,0,0,0-.64.28l-.07,0,0,0a.33.33,0,0,1-.2,0l-.05,0h0l-.18-.05-.35-.09a5.83,5.83,0,0,0-1.42-.22,4.61,4.61,0,0,0-2.64.9,9.05,9.05,0,0,0-3,4.75l0,.18-.19,0a6.83,6.83,0,0,0-3.09.73,4.59,4.59,0,0,0-2,2.28,7.89,7.89,0,0,0-.56,3,13.33,13.33,0,0,0,.34,3l0,.14-.09.1c-5.82,6.11-11.2,11.85-15.91,17.07q-1.77,2-3.39,3.83c-.53.63-1.07,1.24-1.57,1.86a11,11,0,0,0-1.34,1.88,13.42,13.42,0,0,0-1.23,4.18,29.9,29.9,0,0,0-.3,4,78.33,78.33,0,0,0,.95,12,33.35,33.35,0,0,1,.55,4.29s0-.37-.17-1.09-.31-1.81-.55-3.18a75.1,75.1,0,0,1-1.09-12,30.55,30.55,0,0,1,.27-4.07,13.63,13.63,0,0,1,1.24-4.3,10.59,10.59,0,0,1,1.38-1.95c.49-.63,1-1.24,1.56-1.88,1.07-1.26,2.2-2.54,3.37-3.86,4.7-5.24,10.05-11,15.87-17.12l-.06.23a13.55,13.55,0,0,1-.36-3.18,8.48,8.48,0,0,1,.59-3.24,5.15,5.15,0,0,1,2.24-2.53,7.39,7.39,0,0,1,3.33-.8l-.25.2a9.63,9.63,0,0,1,3.17-5.05,5.15,5.15,0,0,1,2.94-1,6.76,6.76,0,0,1,1.56.23l.38.1.19.05h0a.27.27,0,0,0-.18,0l.05,0,.09-.06a4.41,4.41,0,0,1,.74-.33,5.4,5.4,0,0,1,4.32.59,10.17,10.17,0,0,1,1.75,1.27l1.59,1.37c2.12,1.82,4.19,3.64,6.17,5.48s3.9,3.69,5.66,5.62a36.73,36.73,0,0,1,2.49,3A17.09,17.09,0,0,1,433,216.6l.43.87.28.95a12.4,12.4,0,0,1-1.33,7.17c-.13.26-.27.53-.42.78l-.23.39-.07.09,0,.05v0s-.08.08-.07.08l-.18.13-1.39,1-2.73,2c-3.58,2.59-6.92,5-10,7.11-1.54,1.08-3.09,2-4.52,2.9a38.91,38.91,0,0,0-3.89,2.74,18.76,18.76,0,0,0-5,5.69,13.08,13.08,0,0,0-1.44,4.55q0,.8-.06,1.26A2.7,2.7,0,0,1,402.3,254.8Z" style="fill:#ff9a6c"></path><path d="M366.64,286.49l4,19.45c-.85,3.29,7.89,53.5,11.28,59.54s11.55,9.6,25.64,9.88,23.88-11.41,27.26-19.64-5-26.19-8.7-40.73-9.88-36.56-9.88-36.56Z" style="fill:#407BFF"></path><path d="M366.64,286.49l.85-.16,2.57-.44,9.88-1.65,36.28-6,.17,0,.05.18c3.07,11.29,6.6,24.31,10.45,38.54,1.95,7.09,4.64,14.29,6.81,21.92.28,1,.54,1.92.77,2.89s.46,1.95.66,2.94.34,2,.51,3c.07.51.09,1,.14,1.53a11.27,11.27,0,0,1,.07,1.54,12.67,12.67,0,0,1-1.22,6.07,34.39,34.39,0,0,1-3.13,5.41,32.52,32.52,0,0,1-14.27,11.64,24.24,24.24,0,0,1-8.85,1.73,63.83,63.83,0,0,1-8.79-.57,39.94,39.94,0,0,1-8.34-2,20.3,20.3,0,0,1-7.14-4.31,14.86,14.86,0,0,1-2.47-3.28,25.14,25.14,0,0,1-1.35-3.78c-.73-2.53-1.32-5.05-1.89-7.51-2.21-9.87-3.85-19-5.23-27.1q-1-6.09-1.77-11.38c-.24-1.76-.46-3.46-.65-5.08-.08-.81-.16-1.6-.22-2.38a11.14,11.14,0,0,1,0-2.31V306l-2.91-14.46c-.32-1.64-.57-2.89-.74-3.75-.08-.41-.14-.72-.18-.95s-.05-.31-.05-.31l.08.33.21,1c.19.86.46,2.12.81,3.76.7,3.3,1.72,8.14,3,14.36V306a11.05,11.05,0,0,0,0,2.22c.06.77.15,1.56.24,2.37.19,1.62.42,3.3.67,5.06.51,3.52,1.12,7.32,1.82,11.36,1.4,8.1,3.07,17.22,5.3,27.07.57,2.46,1.17,5,1.9,7.48a24.51,24.51,0,0,0,1.32,3.69,14.53,14.53,0,0,0,2.39,3.16,19.46,19.46,0,0,0,7,4.18,38.84,38.84,0,0,0,8.24,2c5.67.65,11.78,1.21,17.39-1.14a32.11,32.11,0,0,0,14-11.46,33.42,33.42,0,0,0,3.09-5.33,12.2,12.2,0,0,0,1.18-5.85,10.77,10.77,0,0,0-.08-1.5c0-.5-.06-1-.14-1.5-.16-1-.27-2-.49-3s-.41-1.95-.66-2.91-.49-1.93-.76-2.88c-2.16-7.6-4.85-14.81-6.79-21.94-3.82-14.22-7.33-27.25-10.36-38.56l.22.15L380.1,284.4l-10,1.56-2.61.4Z" style="fill:#263238"></path><path d="M370.65,305.94a2.58,2.58,0,0,1-.23.59c-.19.43-.44,1-.74,1.67-.68,1.5-1.63,3.56-2.78,6.09-2.35,5.15-5.5,12.3-8.95,20.21s-6.66,15.05-9.09,20.16c-1.22,2.56-2.22,4.62-2.93,6-.35.66-.62,1.2-.84,1.62a2.34,2.34,0,0,1-.32.55,3.08,3.08,0,0,1,.23-.59l.74-1.67c.69-1.5,1.63-3.56,2.78-6.09,2.35-5.15,5.5-12.3,9-20.22s6.66-15,9.09-20.15c1.22-2.56,2.22-4.62,2.94-6l.83-1.62A2.34,2.34,0,0,1,370.65,305.94Z" style="fill:#263238"></path><g style="opacity:0.30000000000000004"><path d="M374.2,330.7c-2-13.38-4.05-27.2-6.69-40-1.52,23.89,3.23,47.94,12.58,70Z"></path></g><polyline points="227.28 379.01 227.48 379.72 228.89 384.81 227.28 428.49 225.19 424.46" style="fill:#ebebeb"></polyline><polyline points="110.53 425.05 111.85 429.23 227.28 428.49 225.86 425.05" style="fill:#ebebeb"></polyline><polygon points="127.47 378.5 110.53 425.05 225.86 425.05 227.28 379.01 127.47 378.5" style="fill:#fff"></polygon><path d="M127.47,378.5l.46,0h6.86l20.57,0,71.92.26h.25V379c-.43,14.22-.91,29.79-1.4,46v.25h-9.74l-105.84-.07h-.27l.09-.25,12.5-34.07c1.48-4,2.62-7.11,3.41-9.23.39-1.05.69-1.84.89-2.39s.32-.8.32-.8-.09.29-.28.84-.49,1.37-.86,2.43l-3.34,9.3c-2.9,8.06-7.1,19.69-12.28,34.05l-.18-.26,105.84-.07h9.49l-.26.26c.51-16.25,1-31.83,1.44-46.05l.24.25-71.8-.47-20.61-.18-5.49-.06-1.42,0Z" style="fill:#263238"></path><path d="M220.32,429a3.94,3.94,0,0,1-3.94-3.94.5.5,0,0,1,.5-.5.51.51,0,0,1,.5.5,2.94,2.94,0,1,0,2.94-2.94.5.5,0,0,1-.5-.5.5.5,0,0,1,.5-.5,3.94,3.94,0,0,1,0,7.88Z" style="fill:#263238"></path><path d="M213.84,429a3.94,3.94,0,0,1-3.94-3.94.5.5,0,0,1,1,0,2.94,2.94,0,1,0,2.94-2.94.5.5,0,0,1-.5-.5.5.5,0,0,1,.5-.5,3.94,3.94,0,1,1,0,7.88Z" style="fill:#263238"></path><path d="M207.36,429a3.94,3.94,0,0,1-3.94-3.94.51.51,0,0,1,.5-.5.5.5,0,0,1,.5.5,2.94,2.94,0,1,0,2.94-2.94.5.5,0,0,1-.5-.5.51.51,0,0,1,.5-.5,3.94,3.94,0,1,1,0,7.88Z" style="fill:#263238"></path><path d="M200.89,429a3.94,3.94,0,0,1-3.95-3.94.51.51,0,0,1,.5-.5.5.5,0,0,1,.5.5,2.95,2.95,0,1,0,2.95-2.94.5.5,0,0,1-.5-.5.5.5,0,0,1,.5-.5,3.94,3.94,0,1,1,0,7.88Z" style="fill:#263238"></path><path d="M194.41,429a3.94,3.94,0,0,1-3.94-3.94.5.5,0,0,1,.5-.5.51.51,0,0,1,.5.5,2.94,2.94,0,1,0,2.94-2.94.5.5,0,0,1-.5-.5.5.5,0,0,1,.5-.5,3.94,3.94,0,1,1,0,7.88Z" style="fill:#263238"></path><path d="M187.93,429a3.94,3.94,0,0,1-3.94-3.94.5.5,0,1,1,1,0,2.94,2.94,0,1,0,2.94-2.94.5.5,0,0,1-.5-.5.5.5,0,0,1,.5-.5,3.94,3.94,0,0,1,0,7.88Z" style="fill:#263238"></path><path d="M181.45,429a3.94,3.94,0,0,1-3.94-3.94.51.51,0,0,1,.5-.5.5.5,0,0,1,.5.5,2.94,2.94,0,1,0,2.94-2.94.5.5,0,0,1-.5-.5.51.51,0,0,1,.5-.5,3.94,3.94,0,0,1,0,7.88Z" style="fill:#263238"></path><path d="M175,429a3.93,3.93,0,0,1-3.94-3.94.5.5,0,0,1,.5-.5.51.51,0,0,1,.5.5,2.94,2.94,0,1,0,2.94-2.94.5.5,0,0,1-.5-.5.5.5,0,0,1,.5-.5,3.94,3.94,0,0,1,0,7.88Z" style="fill:#263238"></path><path d="M168.5,429a3.94,3.94,0,0,1-3.94-3.94.5.5,0,0,1,.5-.5.51.51,0,0,1,.5.5,2.94,2.94,0,1,0,2.94-2.94.5.5,0,0,1-.5-.5.5.5,0,0,1,.5-.5,3.94,3.94,0,1,1,0,7.88Z" style="fill:#263238"></path><path d="M161.35,429a3.94,3.94,0,0,1-3.94-3.94.51.51,0,0,1,.5-.5.5.5,0,0,1,.5.5,2.94,2.94,0,1,0,2.94-2.94.5.5,0,0,1-.5-.5.51.51,0,0,1,.5-.5,3.94,3.94,0,1,1,0,7.88Z" style="fill:#263238"></path><path d="M154.88,429a3.93,3.93,0,0,1-3.94-3.94.5.5,0,0,1,.5-.5.51.51,0,0,1,.5.5,2.94,2.94,0,1,0,2.94-2.94.5.5,0,0,1-.5-.5.5.5,0,0,1,.5-.5,3.94,3.94,0,1,1,0,7.88Z" style="fill:#263238"></path><path d="M148.4,429a3.94,3.94,0,0,1-3.94-3.94.5.5,0,0,1,.5-.5.51.51,0,0,1,.5.5,2.94,2.94,0,1,0,2.94-2.94.5.5,0,0,1-.5-.5.5.5,0,0,1,.5-.5,3.94,3.94,0,1,1,0,7.88Z" style="fill:#263238"></path><path d="M141.92,429a3.94,3.94,0,0,1-3.94-3.94.5.5,0,0,1,1,0,2.94,2.94,0,1,0,2.94-2.94.5.5,0,0,1-.5-.5.5.5,0,0,1,.5-.5,3.94,3.94,0,1,1,0,7.88Z" style="fill:#263238"></path><path d="M135.44,429a3.94,3.94,0,0,1-3.94-3.94.51.51,0,0,1,.5-.5.5.5,0,0,1,.5.5,2.94,2.94,0,1,0,2.94-2.94.5.5,0,0,1-.5-.5.51.51,0,0,1,.5-.5,3.94,3.94,0,0,1,0,7.88Z" style="fill:#263238"></path><path d="M129,429a3.93,3.93,0,0,1-3.94-3.94.5.5,0,0,1,.5-.5.51.51,0,0,1,.5.5,2.94,2.94,0,1,0,2.94-2.94.5.5,0,0,1-.5-.5.5.5,0,0,1,.5-.5,3.94,3.94,0,0,1,0,7.88Z" style="fill:#263238"></path><path d="M122.49,429a3.94,3.94,0,0,1-3.94-3.94.5.5,0,0,1,.5-.5.51.51,0,0,1,.5.5,2.94,2.94,0,1,0,2.94-2.94.5.5,0,0,1-.5-.5.5.5,0,0,1,.5-.5,3.94,3.94,0,1,1,0,7.88Z" style="fill:#263238"></path><path d="M116,429a3.94,3.94,0,0,1-3.94-3.94.5.5,0,0,1,1,0,2.94,2.94,0,1,0,2.94-2.94.5.5,0,0,1-.5-.5.5.5,0,0,1,.5-.5,3.94,3.94,0,1,1,0,7.88Z" style="fill:#263238"></path><path d="M123.86,320.13S113.7,321.61,113,335.78s1.81,16.85,2.36,19.57,9.62,16.17,11.26,17.26,46.5,0,46.5,0,2.54-14,3.09-17.62-.55-14.17-11.45-23.25S123.86,320.13,123.86,320.13Z" style="fill:#407BFF"></path><path d="M188.79,368.26s6.44,1.11,10.31,4.79,7.37,5.71,7.18,9.39-5,11.42-6.63,11.24L198,393.5Z" style="fill:#ffbf9d"></path><path d="M203.9,394.2l.41,5.19a.49.49,0,0,1-.75.45l-4.59-3-32.75-60.22a2.8,2.8,0,0,1,1.12-3.8h0a2.8,2.8,0,0,1,3.8,1.12Z" style="fill:#263238"></path><rect x="176.84" y="333.07" width="1.82" height="19.4" rx="0.86" transform="translate(-141.18 125.12) rotate(-28.28)" style="fill:#263238"></rect><path d="M154.07,387.14s-28.14-14.48-28.14-15.29S115,345.64,143.32,345.36c0,0,16.18-1.69,23.51,11.28l10.73,11.29Z" style="fill:#ffbf9d"></path><path d="M177.37,359.42s-4.89-4.23-8.25-3.13-4.83,6.63-4.83,6.63-7.74.37-9.21,2.76a23.54,23.54,0,0,0-2.21,6.63s-7.73,3.87-3.68,11.24c0,0-2.95,4.05.73,8.84s15.11,10.5,18.24,11.05,9.94,0,9.94,0,13.08,4.24,16.58,2.21l.92-1.77a5.6,5.6,0,0,0,1.94-2.65c.94-2.86-3.19-5.34-3.19-5.34s3.12-.74,3.29-5-6.28-13.08-10.14-17.32S177.37,359.42,177.37,359.42Z" style="fill:#ffbf9d"></path><path d="M195.6,394.6s0,.16-.13.41a1.83,1.83,0,0,1-.9.82,2.24,2.24,0,0,1-.89.18,2.09,2.09,0,0,1-1.05-.23,13,13,0,0,1-2.07-1.46c-2.89-2.37-6.58-5.95-10.56-10-2-2-3.88-3.95-5.48-5.85s-2.9-3.67-4-5.17c-2.21-3-3.45-5-3.29-5s.06.12.23.35l.69,1c.62.83,1.52,2,2.66,3.5s2.5,3.21,4.08,5.08,3.51,3.76,5.48,5.8c4,4,7.62,7.65,10.42,10.07a14.79,14.79,0,0,0,2,1.49,1.84,1.84,0,0,0,.93.24,2.21,2.21,0,0,0,.8-.11,1.81,1.81,0,0,0,.89-.7C195.53,394.73,195.58,394.59,195.6,394.6Z" style="fill:#ff9a6c"></path><path d="M194.68,405.38a1.56,1.56,0,0,1-.46-.14l-1.28-.52c-1.11-.46-2.72-1.14-4.68-2a80,80,0,0,1-14.63-8.28,45.48,45.48,0,0,1-6.85-6.25,68.93,68.93,0,0,1-4.68-5.95c-1.24-1.76-2.2-3.22-2.85-4.22l-.74-1.18c-.16-.27-.24-.42-.22-.43a2,2,0,0,1,.31.37l.82,1.12c.7,1,1.7,2.4,3,4.12a75.2,75.2,0,0,0,4.74,5.85,47.3,47.3,0,0,0,6.8,6.16,87.56,87.56,0,0,0,14.48,8.35l4.6,2.18,1.24.6A1.63,1.63,0,0,1,194.68,405.38Z" style="fill:#ff9a6c"></path><path d="M178.1,403.44a5,5,0,0,1-1.17-.23,32,32,0,0,1-3.11-1,30.8,30.8,0,0,1-9.37-5.26,19.65,19.65,0,0,1-2.2-2.17c-.64-.74-1.29-1.43-1.93-2.07-1.27-1.29-2.46-2.4-3.47-3.32l-2.41-2.17a7.31,7.31,0,0,1-.86-.83,5.27,5.27,0,0,1,1,.67c.61.47,1.47,1.16,2.52,2s2.27,2,3.57,3.26c.65.64,1.32,1.33,2,2.08a22.53,22.53,0,0,0,2.15,2.1A33.72,33.72,0,0,0,174,401.9C176.48,402.92,178.13,403.35,178.1,403.44Z" style="fill:#ff9a6c"></path><path d="M169.71,356.16a13.2,13.2,0,0,0-2.52,1.34,7.14,7.14,0,0,0-2.08,2.44,11.59,11.59,0,0,0-1.16,4l0,.22-.23,0a10.69,10.69,0,0,0-4.27.45,8,8,0,0,0-2.11,1,5.84,5.84,0,0,0-1.58,1.79,7.25,7.25,0,0,0-1.26,5.18l.08.34-.33,0a3.47,3.47,0,0,0-2.55.9,9.12,9.12,0,0,0-1.65,2.05,10.5,10.5,0,0,0-1.09,2.09,7,7,0,0,0-.35,2,7.1,7.1,0,0,0,.49,2.82c.26.63.46.95.43,1s-.08-.07-.18-.21a4.55,4.55,0,0,1-.4-.69,6.64,6.64,0,0,1-.65-2.9,7,7,0,0,1,.31-2.09,9.88,9.88,0,0,1,1.08-2.19,9,9,0,0,1,1.7-2.19,4,4,0,0,1,2.88-1l-.25.31a7.59,7.59,0,0,1,1.3-5.58,6.18,6.18,0,0,1,1.73-1.94,8.27,8.27,0,0,1,2.25-1,11.3,11.3,0,0,1,4.49-.42l-.26.2a11.59,11.59,0,0,1,1.28-4.13,7.14,7.14,0,0,1,2.25-2.48,7.76,7.76,0,0,1,1.93-.95A2.46,2.46,0,0,1,169.71,356.16Z" style="fill:#ff9a6c"></path><path d="M167.21,333.93a18.52,18.52,0,0,1-1.27-1.57,41,41,0,0,0-3.71-4,37.14,37.14,0,0,0-33.31-9.48,39.35,39.35,0,0,0-5.27,1.46,17.38,17.38,0,0,1-1.9.66,2.07,2.07,0,0,1,.46-.24c.31-.14.76-.38,1.37-.61a33.36,33.36,0,0,1,5.26-1.63,36.36,36.36,0,0,1,33.64,9.58,33.39,33.39,0,0,1,3.62,4.16c.39.51.65.95.85,1.23A2.6,2.6,0,0,1,167.21,333.93Z" style="fill:#263238"></path><path d="M171.48,329.88c-.07.06-1-1.23-2.8-3.12a49.68,49.68,0,0,0-7.58-6.65,50.18,50.18,0,0,0-8.79-4.93c-2.38-1-3.91-1.51-3.89-1.6a4.4,4.4,0,0,1,1.11.26,29.4,29.4,0,0,1,2.92,1A42.85,42.85,0,0,1,169,326.51a30.5,30.5,0,0,1,1.92,2.42A4.65,4.65,0,0,1,171.48,329.88Z" style="fill:#263238"></path></g></svg>