<svg xmlns="http://www.w3.org/2000/svg" viewBox="0 0 500 500"><g id="freepik--Table--inject-15"><rect x="16.87" y="387.24" width="460.58" height="1" style="fill:#263238"></rect></g><g id="freepik--Picture--inject-15"><path d="M161.15,246.4H44.24v-157H161.15Zm-115.91-1H160.15v-155H45.24Z" style="fill:#263238"></path><path d="M156.29,239.86H49.1v-144H156.29Zm-106.19-1H155.29v-142H50.1Z" style="fill:#263238"></path><path d="M130.9,205.68H74.49V130.07H130.9Zm-55.41-1H129.9V131.07H75.49Z" style="fill:#263238"></path></g><g id="freepik--Plant--inject-15"><path d="M111,366.41a49.28,49.28,0,0,0-2.44-6.87,51.42,51.42,0,0,0-3.64-5.37,13.57,13.57,0,0,0-3.55-3.25s7,2.74,9.69,7.3a35,35,0,0,0-2-9.38c-1.65-4.08-5.65-7.86-5.65-7.86s6.19,2.39,7.91,5.17,2.9,9.15,2.9,9.15-1.18-9.55-.49-13.92,4.81-13.11,4.81-13.11-.54,11.49-.54,17.05a77.06,77.06,0,0,1-.34,8.34s.44-5.29,3.63-7.11c2.51-1.43,6.54-.4,6.54-.4s-3.78,1.61-5.32,4.57c-1.91,3.68-3.25,8.95-2.59,8.38a15.78,15.78,0,0,1,6-2.2,8.42,8.42,0,0,1,4,1.17s-8.6,2-9.63,8.34Z" style="fill:#407BFF"></path><path d="M120.28,366.91H111a.5.5,0,0,1-.49-.38,47.51,47.51,0,0,0-2.41-6.79,51.19,51.19,0,0,0-3.58-5.27,13.23,13.23,0,0,0-3.4-3.12.5.5,0,0,1-.2-.65.51.51,0,0,1,.63-.25c.26.1,5.69,2.25,8.83,5.95a31.56,31.56,0,0,0-1.76-7.37c-1.59-3.93-5.49-7.64-5.53-7.68a.5.5,0,0,1-.08-.63.5.5,0,0,1,.6-.2c.26.1,6.37,2.48,8.16,5.37a16.19,16.19,0,0,1,1.4,3.22,41.62,41.62,0,0,1,.08-7.81c.69-4.39,4.69-12.88,4.86-13.24a.49.49,0,0,1,.57-.27.49.49,0,0,1,.38.5c0,.12-.54,11.54-.54,17,0,1.43,0,2.67-.06,3.73a6.73,6.73,0,0,1,2.61-2.94c2.64-1.51,6.73-.49,6.9-.44a.48.48,0,0,1,.37.44.48.48,0,0,1-.3.5s-3.63,1.58-5.07,4.34a31.89,31.89,0,0,0-2.63,7.34,15.16,15.16,0,0,1,5.53-1.89,8.81,8.81,0,0,1,4.29,1.24.49.49,0,0,1,.24.51.5.5,0,0,1-.38.41c-.08,0-8.28,2-9.25,7.93A.5.5,0,0,1,120.28,366.91Zm-8.9-1h8.49c1-4.87,6.22-7.14,8.66-8a6,6,0,0,0-2.58-.56,15.81,15.81,0,0,0-5.75,2.13.54.54,0,0,1-.69,0c-.87-.69,1.36-6.7,2.57-9a11.13,11.13,0,0,1,4.22-4.1,8.16,8.16,0,0,0-4.74.59c-2.58,1.47-3.24,5.54-3.36,6.51,0,.14,0,.22,0,.23a.5.5,0,0,1-.55.44.49.49,0,0,1-.44-.54s0-.12,0-.28c.08-.81.31-3.5.31-8,0-3.89.27-10.74.43-14.47-1.27,2.89-3.26,7.75-3.71,10.61-.67,4.25.48,13.69.49,13.78a.5.5,0,0,1-1,.15c0-.06-1.18-6.31-2.83-9-1-1.56-3.52-3-5.41-4a23.69,23.69,0,0,1,4,6.19,34.93,34.93,0,0,1,2,9.54.5.5,0,0,1-.36.51.49.49,0,0,1-.57-.23,16.57,16.57,0,0,0-5.9-5.32c.19.22.39.46.58.71a51.6,51.6,0,0,1,3.71,5.48A51.47,51.47,0,0,1,111.38,365.91Zm8.29-7.22-.06,0Z" style="fill:#263238"></path><path d="M119.06,363.87s.32-6.55-1.76-8.47-4.3-1.21-5.27.8.16,6.71.16,6.71,1.44-2.39,2.08-2.39.8,3.35.8,3.35" style="fill:#407BFF"></path><path d="M115.07,364.37a.5.5,0,0,1-.5-.48,12.23,12.23,0,0,0-.41-2.8,11,11,0,0,0-1.54,2.08.5.5,0,0,1-.5.24.49.49,0,0,1-.41-.38c0-.2-1.17-4.89-.13-7a3.76,3.76,0,0,1,2.6-2.16,4,4,0,0,1,3.46,1.21c2.23,2,1.93,8.58,1.92,8.86a.49.49,0,0,1-.52.47.5.5,0,0,1-.48-.52c.09-1.76,0-6.64-1.6-8.08a3,3,0,0,0-2.59-1,2.77,2.77,0,0,0-1.89,1.61c-.56,1.17-.32,3.57,0,5.19.61-.86,1.28-1.59,1.83-1.59.33,0,1.11,0,1.3,3.83a.5.5,0,0,1-.48.52Z" style="fill:#263238"></path><path d="M117.94,362.29l-.19,0a.52.52,0,0,1-.27-.66,1.25,1.25,0,0,0-.58-1.6c-1.05-.59-2.23.82-2.25.83a.49.49,0,0,1-.7.07.5.5,0,0,1-.07-.7c.07-.09,1.73-2.07,3.51-1.08a2.26,2.26,0,0,1,1,2.86A.5.5,0,0,1,117.94,362.29Z" style="fill:#263238"></path><polygon points="123.53 396.84 107.78 396.84 101.02 392.21 107.78 364.37 123.53 364.37 129.97 390.94 123.53 396.84" style="fill:#c9c9c9"></polygon><path d="M123.53,397.34H107.78a.47.47,0,0,1-.28-.09l-6.76-4.62a.5.5,0,0,1-.2-.53l6.75-27.85a.51.51,0,0,1,.49-.38h15.75a.49.49,0,0,1,.48.38l6.45,26.57a.5.5,0,0,1-.15.49l-6.44,5.9A.55.55,0,0,1,123.53,397.34Zm-15.6-1h15.4l6.09-5.57-6.28-25.9h-15L101.59,392Z" style="fill:#263238"></path><polygon points="119.83 378.69 107.4 364.7 108.15 364.04 119.38 376.68 123.05 364.23 124.01 364.51 119.83 378.69" style="fill:#263238"></polygon><polygon points="101.03 392.71 101.01 391.71 120.87 391.31 119.11 377.75 120.1 377.62 122 392.28 101.03 392.71" style="fill:#263238"></polygon><polygon points="107.95 397.31 107.61 396.37 121.38 391.3 129.92 390.44 130.02 391.44 121.55 392.29 107.95 397.31" style="fill:#263238"></polygon><rect x="121.98" y="391.59" width="1" height="5.47" transform="translate(-141.83 77.1) rotate(-22.55)" style="fill:#263238"></rect></g><g id="freepik--Sheet--inject-15"><polygon points="280.77 387.09 204.9 392.25 259.09 404.12 329.28 395.35 280.77 387.09" style="fill:#fff"></polygon><path d="M259.09,404.62H259l-54.19-11.87a.5.5,0,0,1,.07-1l75.87-5.16h.12l48.52,8.25a.51.51,0,0,1,.41.51.49.49,0,0,1-.43.48l-70.2,8.78Zm-50.67-12.11,50.69,11.11,66.75-8.35-45.12-7.68Z" style="fill:#263238"></path></g><g id="freepik--Character--inject-15"><path d="M240.63,281.09S212,293.33,202.16,297.17s-14.34,7.35-16.08,18.19-7.35,47.55-7.35,47.55,1.4,8.74,9.09,11.54S199,376.2,199,376.2l1.4,11.54H305.32l7-34.62,19.58,31.82,27.63-.7a68.66,68.66,0,0,0-10.84-30.77c-10.15-15.74-18.54-27.62-18.54-27.62s-6.45-26.06-17.48-29.38c-6.44-1.93-22.73-8-26.93-9.79s-12.32-5.5-12.32-5.5Z" style="fill:#fff"></path><path d="M305.32,388.24H200.41a.5.5,0,0,1-.49-.44l-1.34-11c-1.3.19-4.82.35-10.93-1.87-7.87-2.87-9.35-11.56-9.41-11.93a.38.38,0,0,1,0-.15c0-.37,5.61-36.85,7.34-47.56,1.79-11.08,6.51-14.69,16.4-18.57,9.67-3.8,38.16-16,38.45-16.08a.3.3,0,0,1,.2,0l32.78.09a.54.54,0,0,1,.21.05c.08,0,8.17,3.77,12.31,5.49s20.41,7.83,26.87,9.77c11,3.3,17.31,27.67,17.81,29.64.73,1.05,8.87,12.66,18.48,27.57a69.7,69.7,0,0,1,10.92,31,.49.49,0,0,1-.13.36.48.48,0,0,1-.35.16l-27.63.7a.54.54,0,0,1-.44-.24l-18.91-30.74-6.74,33.38A.51.51,0,0,1,305.32,388.24Zm-104.46-1H304.91L311.82,353a.5.5,0,0,1,.91-.16l19.44,31.57,26.81-.68a69.76,69.76,0,0,0-10.72-30c-10-15.54-18.44-27.49-18.53-27.61a.46.46,0,0,1-.07-.16c-.07-.26-6.51-25.82-17.15-29-6.48-1.95-22.88-8.1-27-9.81-3.91-1.62-11.3-5-12.24-5.46l-32.57-.09c-1.83.78-29,12.35-38.39,16.05-9.71,3.81-14.05,7.13-15.77,17.8-1.69,10.46-7,45.51-7.33,47.46.16.84,1.8,8.55,8.76,11.08,7.39,2.69,10.84,1.75,10.87,1.74a.52.52,0,0,1,.42.06.51.51,0,0,1,.22.36Z" style="fill:#263238"></path><path d="M330.14,325.85s-6.45-26.06-17.48-29.38c-6.44-1.93-22.73-8-26.93-9.79s-12.32-5.5-12.32-5.5l-32.78-.09S212,293.33,202.16,297.17s-14.34,7.35-16.08,18.19c-.58,3.59-1.58,10-2.67,17a25.56,25.56,0,0,1,9.4-1.59c8.36.17,12.3,1.81,12.3,1.81L199,376.2l1.4,11.54H305.32l7-34.62,1.29,2.1c1.14-3.64,6.7-18.31,22.64-20.54C332.51,329.21,330.14,325.85,330.14,325.85Z" style="fill:#407BFF"></path><path d="M305.32,388.24H200.41a.5.5,0,0,1-.49-.44l-1.4-11.54a.29.29,0,0,1,0-.13l6-43.2a40.16,40.16,0,0,0-11.76-1.64,24.83,24.83,0,0,0-9.21,1.56.49.49,0,0,1-.49-.09.48.48,0,0,1-.18-.46c1.08-7,2.08-13.43,2.66-17,1.79-11.08,6.51-14.69,16.4-18.57,9.67-3.8,38.16-16,38.45-16.08a.3.3,0,0,1,.2,0l32.78.09a.54.54,0,0,1,.21.05c.08,0,8.17,3.77,12.31,5.49s20.41,7.83,26.87,9.77c11,3.3,17.31,27.67,17.81,29.64.37.54,2.66,3.8,6,8.77a.51.51,0,0,1,0,.49.5.5,0,0,1-.38.29c-15.44,2.15-20.92,16-22.23,20.19a.51.51,0,0,1-.41.35.49.49,0,0,1-.49-.24l-.63-1-6.74,33.38A.51.51,0,0,1,305.32,388.24Zm-104.46-1H304.91L311.82,353a.5.5,0,0,1,.91-.16l.74,1.19c1.61-4.48,7.43-17.3,21.91-19.74-3.43-5-5.62-8.14-5.65-8.18a.46.46,0,0,1-.07-.16c-.07-.26-6.51-25.82-17.15-29-6.48-1.95-22.88-8.1-27-9.81-3.91-1.62-11.3-5-12.24-5.46l-32.57-.09c-1.83.78-29,12.35-38.39,16.05-9.71,3.81-14.05,7.13-15.77,17.8-.56,3.44-1.5,9.52-2.53,16.19a26,26,0,0,1,8.78-1.34c8.36.17,12.32,1.78,12.48,1.84a.5.5,0,0,1,.3.54l-6.08,43.53Z" style="fill:#263238"></path><path d="M277.91,306l-1-.16a77.68,77.68,0,0,0,.27-21.68l1-.15A78.52,78.52,0,0,1,277.91,306Z" style="fill:#263238"></path><path d="M269.25,315.31l-.92-.4c3.45-8,5.35-13.91,5.37-14l.95.3C274.64,301.3,272.72,307.29,269.25,315.31Z" style="fill:#263238"></path><rect x="300.7" y="337.52" width="24.87" height="1" transform="translate(-47.74 624.52) rotate(-85.64)" style="fill:#263238"></rect><rect x="310.07" y="322.38" width="1" height="15.1" style="fill:#263238"></rect><path d="M236.61,266.68l.22,20.13s2.81,23.16,19.48,25.11,17.1-30.74,17.1-30.74l-3.47-13.85s-3,9.09-16.66,6.71S236.61,266.68,236.61,266.68Z" style="fill:#fff"></path><path d="M257.71,312.5a14.44,14.44,0,0,1-1.46-.08c-16.86-2-19.89-25.31-19.92-25.55l-.24-22,.95,1.55c.05.09,3.21,4.84,16.32,7.13s16-6,16.11-6.38l.54-1.61,3.9,15.56v.07c0,.85-.38,21-9,28.54A10.71,10.71,0,0,1,257.71,312.5ZM237.12,268l.21,18.77c0,.17,2.95,22.73,19,24.61a9.82,9.82,0,0,0,7.93-2.44c8-7,8.59-26.47,8.61-27.74l-3.11-12.47c-1.48,2.5-5.9,7.63-16.6,5.76C243.23,272.79,238.83,269.69,237.12,268Z" style="fill:#263238"></path><path d="M264.25,274.18l.07-1.11c-2.52,1.18-6.07,1.84-11,1-13.64-2.38-16.67-7.36-16.67-7.36l.22,20.13a42.71,42.71,0,0,0,1.76,7.43C243.67,289.12,264.25,274.18,264.25,274.18Z" style="fill:#263238"></path><path d="M238.59,294.74h-.11a.5.5,0,0,1-.36-.33,43.87,43.87,0,0,1-1.79-7.53l-.22-20.18a.51.51,0,0,1,.36-.49.51.51,0,0,1,.57.22c0,.05,3.15,4.83,16.32,7.13,4.24.74,7.85.42,10.75-.94a.5.5,0,0,1,.71.49l-.08,1.11a.51.51,0,0,1-.2.38c-.21.15-20.6,15-25.59,20A.49.49,0,0,1,238.59,294.74Zm-1.26-7.93a42,42,0,0,0,1.49,6.51c5.59-5.29,22.81-17.86,24.94-19.4v-.07a19.4,19.4,0,0,1-10.58.68c-10-1.74-14.36-4.84-16.07-6.49l.21,18.77Z" style="fill:#263238"></path><path d="M228,251.53s4.33,15.8,7.14,18.18,16,11.91,26.19,8.23,13.42-19.05,13.42-22.73S272.11,236,272.11,236s-1.09-11.69-2.17-15.16-3.24-8.22-11.69-10.39-15.36,0-18,1.74S225.35,234,225.35,234Z" style="fill:#fff"></path><path d="M256.22,279.28c-10.45,0-21.32-9.08-21.45-9.19-2.9-2.45-7.12-17.78-7.3-18.43a.13.13,0,0,1,0-.06l-2.6-17.53a.48.48,0,0,1,.07-.33c.5-.83,12.42-20.25,15.08-22,2.44-1.63,9.42-4.1,18.37-1.8,8.37,2.15,10.83,6.86,12,10.73,1.09,3.47,2.14,14.77,2.19,15.25s2.59,15.63,2.59,19.31c0,4-3.29,19.41-13.75,23.2A15.31,15.31,0,0,1,256.22,279.28Zm-27.78-27.85c1.2,4.37,4.77,16,7,17.9,4,3.4,16.45,11.48,25.69,8.14,9.82-3.55,13.09-18.55,13.09-22.26s-2.56-19-2.59-19.18-1.09-11.71-2.14-15.09c-1.21-3.84-3.49-8-11.34-10.05s-14.88-.13-17.56,1.66c-2,1.36-11.21,15.87-14.69,21.55Z" style="fill:#263238"></path><polygon points="253.12 242.64 252.57 241.81 257.43 238.57 253.46 228.33 254.39 227.97 258.65 238.95 253.12 242.64" style="fill:#263238"></polygon><path d="M241.85,252.1l-1-.27c.08-.27,1.89-6.43,6.76-6.43s5.47,5.38,5.47,5.44l-1,.09c0-.19-.46-4.53-4.48-4.53S241.87,252,241.85,252.1Z" style="fill:#263238"></path><rect x="233.83" y="230.79" width="14.65" height="1" transform="translate(-45.25 59.18) rotate(-12.8)" style="fill:#263238"></rect><path d="M255.49,225.69l-1-.27c0-.07,2.15-7.35,9-6.2l-.16,1C257.4,219.22,255.56,225.43,255.49,225.69Z" style="fill:#263238"></path><ellipse cx="243.1" cy="234.32" rx="1.73" ry="2.06" style="fill:#263238"></ellipse><ellipse cx="260.64" cy="229.13" rx="1.73" ry="2.06" style="fill:#263238"></ellipse><path d="M253.93,213l-6.5-.43s-1.73,6.93-3,8.66-2.16-2.17-2.16-2.17,3.89-1.51-5.85,8-11,6.93-11,6.93,1.09,11.47,1.74,13.2a20.27,20.27,0,0,1,.86,4.33s-4.54-1.95-6.49-3.68-2-5.84-2-5.84-7.36,2.59-6.49-.44,5.19-6.71,5.19-6.71-6.71-1.94-6.49-3.89,5.63-1.52,6.27-1.95,8.66-26.19,16.67-26.62,12.56,1.73,12.56,1.73-5.63-5.85-1.95-5.2,8.44,8,8.66,8.66,5.41-7.79,10.82-4.76.65,4.76.65,4.76a15.69,15.69,0,0,1,6.27,10.82,69.48,69.48,0,0,1,.22,15.37s-3.25-12.34-6.93-16.23S253.93,213,253.93,213Z" style="fill:#263238"></path><path d="M228,252a.48.48,0,0,1-.2,0c-.18-.08-4.64-2-6.62-3.77-1.61-1.43-2-4.23-2.09-5.53-1.57.5-5,1.43-6.18.34a1.48,1.48,0,0,1-.32-1.59c.69-2.43,3.4-5.17,4.68-6.36-2.17-.7-6.21-2.27-6-4.17s3-2,5.07-2.14a13.14,13.14,0,0,0,1.38-.15c.17-.34.6-1.46,1.06-2.64,2.74-7.1,9.16-23.72,15.9-24.08A32.48,32.48,0,0,1,245.52,203c-1.17-1.4-2.36-3.16-1.88-4.06.26-.48.83-.65,1.71-.49,3.46.61,7.61,6.49,8.75,8.43l.41-.43c1.8-2,6-6.54,10.48-4.05,2,1.12,2.93,2.22,2.84,3.35a2.69,2.69,0,0,1-1.47,1.94,16.5,16.5,0,0,1,5.81,10.66,71,71,0,0,1,.22,15.5.5.5,0,0,1-.46.44.49.49,0,0,1-.52-.37c0-.12-3.26-12.26-6.81-16s-10.49-4.37-10.71-4.39l-6.08-.4c-.39,1.53-1.84,6.87-3,8.43a1.24,1.24,0,0,1-1.27.62,1.72,1.72,0,0,1-1-.91,62.31,62.31,0,0,1-5.77,6.19c-5.14,5-8.86,7.57-10.81,7.38.36,3.63,1.15,11,1.62,12.22a19.91,19.91,0,0,1,.9,4.46.51.51,0,0,1-.21.45A.5.5,0,0,1,228,252Zm-8.44-10.52a.52.52,0,0,1,.29.09.49.49,0,0,1,.21.41s0,3.91,1.78,5.47a26.69,26.69,0,0,0,5.57,3.23,17,17,0,0,0-.74-3.33c-.67-1.78-1.72-12.86-1.76-13.34a.47.47,0,0,1,.36-.52.49.49,0,0,1,.58.25s.08,0,.31,0c.78,0,3.3-.62,9.93-7.11a52.63,52.63,0,0,0,6-6.52,8.82,8.82,0,0,1-.29-1,.5.5,0,0,1,.31-.57,1.07,1.07,0,0,1,1.32.22c.15.23.33.52-.23,1.47.22.51.45.86.59.88s.09,0,.26-.24c1-1.36,2.47-6.58,2.95-8.48a.5.5,0,0,1,.51-.38l6.5.43h0c.31,0,7.59.72,11.36,4.7,2.68,2.85,5.09,9.87,6.27,13.76a66.92,66.92,0,0,0-.42-12.48A15.38,15.38,0,0,0,265.13,208a.49.49,0,0,1-.23-.47.51.51,0,0,1,.33-.42c.42-.16,1.54-.73,1.6-1.47s-.77-1.51-2.33-2.38c-3.77-2.11-7.48,1.91-9.26,3.84-.77.84-1,1.09-1.39,1a.58.58,0,0,1-.4-.36c-.24-.64-4.88-7.73-8.27-8.33-.53-.09-.67,0-.67,0-.15.44,1.3,2.53,3.07,4.36a.51.51,0,0,1,0,.64.5.5,0,0,1-.62.16s-4.55-2.1-12.31-1.68c-6.1.33-12.59,17.12-15,23.44-1,2.68-1.15,2.94-1.39,3.1a4.89,4.89,0,0,1-1.9.33c-1.42.11-4.05.31-4.16,1.25s3.1,2.48,6.14,3.36a.5.5,0,0,1,.35.38.49.49,0,0,1-.17.48s-4.22,3.62-5,6.47c-.13.43,0,.55.05.59.67.63,3.85-.08,5.79-.77Z" style="fill:#263238"></path><path d="M228,251.53s-5-3.46-6.71-.87-1.73,5.2,3.25,8.88,6.49,2.6,6.49,2.6Z" style="fill:#fff"></path><path d="M230.26,262.79c-1,0-2.89-.5-6.07-2.85-4.57-3.38-5.58-6.23-3.36-9.55a2.54,2.54,0,0,1,1.72-1.13c2.34-.45,5.55,1.77,5.69,1.86a.52.52,0,0,1,.19.27l3,10.61a.49.49,0,0,1-.19.54A1.72,1.72,0,0,1,230.26,262.79Zm-7-12.59a2.74,2.74,0,0,0-.5,0,1.57,1.57,0,0,0-1.07.7c-1.58,2.37-1.65,4.67,3.13,8.2,3.26,2.41,4.91,2.68,5.57,2.64l-2.84-9.94A9.68,9.68,0,0,0,223.23,250.2Z" style="fill:#263238"></path><path d="M272.76,238.76s2.59-4.76,5-.87-3.24,14.29-3.24,14.29Z" style="fill:#fff"></path><path d="M274.19,253.78l-1.95-15.12.08-.14c.14-.27,1.48-2.61,3.3-2.66,1,0,1.81.57,2.54,1.77,2.5,4.1-3,14.35-3.23,14.79Zm-.92-14.92,1.51,11.65c1.67-3.49,4.1-9.78,2.53-12.36-.53-.85-1.08-1.29-1.64-1.29h0C274.66,236.88,273.67,238.21,273.27,238.86Z" style="fill:#263238"></path><path d="M229.9,247.42s-1.08,8.22,0,12.12,5.84,15.15,5.84,18.61-.21,14.72-.21,14.72-42.86,45.24-50.22,56.5-7.58,16.66-5.84,20.78,5.84,16.23,11.25,16.23,20.56-10,22.95-14.72,32.9-73.59,32.9-73.59,3.68-2.82,4.32-6.28-.43-14.94-.43-14.94l5,1.52s1.3,6.28,3,6.49,2.38-4.54,2.38-4.54,1.08-6.5.43-7.14-3.89-4.77-3.89-4.77-1.73-5.19-2.82-6.71-4.11-1.08-4.11-1.08-2-1.95-3.46-1.51-11,5.19-11,5.19-2.16-7.14-2-8.66-.65-4.76-1.3-6.27S231.41,245.47,229.9,247.42Z" style="fill:#fff"></path><path d="M190.72,386.88c-5.12,0-9-9.64-11-14.82-.26-.66-.49-1.25-.69-1.72-1.63-3.87-2-9.12,5.88-21.25,7.1-10.85,47.49-53.62,50.14-56.42,0-1.51.21-11.35.21-14.52,0-2.19-2.08-7.9-3.75-12.48-.91-2.5-1.7-4.65-2.07-6-1.1-4-.06-12,0-12.32a.51.51,0,0,1,.1-.24c.54-.69,1.06-1,1.6-.91.93.12,1.39,1.29,1.85,2.42.07.19.15.37.22.55.61,1.42,1.58,4.83,1.34,6.54-.14,1,.94,5.12,1.76,7.88,2-1,9.24-4.58,10.59-5,1.51-.44,3.21.95,3.78,1.47.8-.07,3.28-.17,4.34,1.31s2.62,6.06,2.85,6.76c1.14,1.44,3.32,4.16,3.81,4.65.68.69.22,4.5-.3,7.58-.11.86-.82,5.22-2.93,5-1.83-.23-3-4.78-3.4-6.6l-4-1.21c.23,2.62.92,11.32.36,14.33-.63,3.32-3.79,6-4.42,6.5-1.4,3.18-30.54,68.88-32.86,73.5C211.59,376.93,196.07,386.88,190.72,386.88Zm39.66-139.26c-.14,1.09-1,8.3,0,11.79.36,1.31,1.14,3.44,2.05,5.91,1.79,4.91,3.81,10.46,3.81,12.83,0,3.43-.21,14.62-.21,14.73a.54.54,0,0,1-.14.34c-.43.45-42.91,45.33-50.16,56.42-7.7,11.77-7.25,16.87-5.8,20.31.2.48.43,1.07.7,1.74,1.83,4.6,5.65,14.19,10.09,14.19,5,0,20.14-9.72,22.5-14.44s32.58-72.89,32.89-73.58a.55.55,0,0,1,.15-.19s3.54-2.74,4.14-6S250,277,250,276.9a.51.51,0,0,1,.19-.43.48.48,0,0,1,.46-.09l5,1.51a.52.52,0,0,1,.34.38c.59,2.86,1.78,6,2.6,6.1s1.58-2.33,1.83-4.12c.47-2.86.81-6.24.54-6.76-.63-.62-3.77-4.6-3.9-4.77a.38.38,0,0,1-.09-.15c0-.05-1.72-5.14-2.74-6.58-.75-1-2.88-1-3.64-.87a.48.48,0,0,1-.42-.15c-.49-.48-2-1.67-3-1.38-1.17.33-7.68,3.52-11,5.16a.51.51,0,0,1-.42,0,.51.51,0,0,1-.28-.31c-.22-.75-2.19-7.3-2-8.88a16,16,0,0,0-1.27-6L232,249c-.27-.66-.71-1.76-1.05-1.8C230.87,247.17,230.66,247.28,230.38,247.62Z" style="fill:#263238"></path><rect x="239.55" y="263.05" width="11.7" height="1" transform="translate(-99.03 158.44) rotate(-30.07)" style="fill:#263238"></rect><path d="M245.27,271.12l-.57-.83c.23-.15,5.58-3.85,7.53-4.5,2.11-.7,5.15,1.95,5.49,2.25l-.67.75c-.8-.72-3.18-2.5-4.51-2.05C250.73,267.35,245.33,271.08,245.27,271.12Z" style="fill:#263238"></path><path d="M260.2,279.16c-.32-2.29-3-4.18-4.8-5.43l-.5-.36c-1.29-.91-5.37-.2-6.84.15l-.23-1c.58-.14,5.77-1.33,7.65,0l.49.35c1.93,1.35,4.85,3.39,5.22,6.12Z" style="fill:#263238"></path><path d="M258.61,373.72s-11.05-.52-11.91,1.21-3.11,10.7-3.45,12.6,2.41,2.41,4,.69,6-7.43,6-7.43Z" style="fill:#fff"></path><path d="M245,389.76a2.69,2.69,0,0,1-1.17-.25,1.81,1.81,0,0,1-1-2.07c.34-1.91,2.58-10.91,3.49-12.74s9.71-1.61,12.38-1.48a.5.5,0,0,1,.38.8l-5.35,7.08c-.19.24-4.53,5.73-6.07,7.45A3.59,3.59,0,0,1,245,389.76Zm10.22-15.62c-4,0-7.69.34-8,1-.8,1.6-3,10.42-3.41,12.47a.83.83,0,0,0,.48,1,2.38,2.38,0,0,0,2.63-.73c1.52-1.69,6-7.34,6-7.39l4.77-6.31C256.81,374.15,256,374.14,255.17,374.14Z" style="fill:#263238"></path><path d="M265.76,354.3l-18.54,33.92,3.1.51,18-33a1.47,1.47,0,0,0-.77-2.07h0A1.46,1.46,0,0,0,265.76,354.3Z" style="fill:#fff"></path><path d="M250.32,389.23h-.08l-3.11-.52a.51.51,0,0,1-.36-.28.48.48,0,0,1,0-.45l18.55-33.93a2,2,0,0,1,2.4-.89,1.92,1.92,0,0,1,1.15,1.15,2,2,0,0,1-.11,1.62l-18,33A.51.51,0,0,1,250.32,389.23ZM248,387.84l2.06.34,17.84-32.72a1,1,0,0,0,.06-.8,1,1,0,0,0-1.75-.12h0Z" style="fill:#263238"></path><path d="M354.24,366.59a25.17,25.17,0,0,1,5.66,5.67c1.89,3,5.12,14.28,5.12,19.14s-35.31,5.66-44.74,5.66S286,393.28,286,393.28s-10.51,2.7-14.56,2.7-11.86,0-14.28-.81a66.3,66.3,0,0,0-7-1.62s-4.32,1.89-5.66.27,2.69-7.28,4.31-10.51,11-12.4,14-13.48,26.95,8.63,26.95,8.63,22.92-3,32.62-6.47,16.45-4.32,18.6-4.32" style="fill:#fff"></path><path d="M320.28,397.56c-9.07,0-32.48-3.51-34.21-3.77-1.15.29-10.69,2.69-14.59,2.69-4.17,0-11.94,0-14.44-.84a64.9,64.9,0,0,0-6.79-1.57c-.89.37-4.67,1.8-6.11.07-1.23-1.48.77-4.94,2.71-8.29.59-1,1.14-2,1.54-2.77,1.71-3.41,11.32-12.64,14.3-13.72s24.2,7.38,27.19,8.58c1.87-.24,23.22-3.11,32.38-6.43,9.5-3.42,16.27-4.34,18.77-4.34v1c-2.27,0-9,.9-18.43,4.29-9.64,3.48-32.49,6.46-32.72,6.49a.54.54,0,0,1-.25,0c-9.21-3.72-24.58-9.35-26.6-8.62-2.77,1-12.14,10-13.74,13.23-.42.83-1,1.79-1.57,2.82-1.43,2.47-3.6,6.21-2.81,7.15s4.05,0,5.08-.41a.45.45,0,0,1,.28,0,64.32,64.32,0,0,1,7.08,1.63c2.35.79,10.31.79,14.13.79s14.33-2.66,14.44-2.68a.41.41,0,0,1,.19,0c.25,0,24.88,3.77,34.17,3.77,17.84,0,44.24-1.64,44.24-5.17,0-4.72-3.17-15.93-5-18.87A24.82,24.82,0,0,0,354,367l.58-.81a25.08,25.08,0,0,1,5.79,5.8c2,3.1,5.2,14.45,5.2,19.4C365.52,397.49,322.12,397.56,320.28,397.56Z" style="fill:#263238"></path><path d="M250.66,393.71l-.95-.32c.2-.58,2-5.69,3.58-6.95s13.17-9.17,13.66-9.51l.57.83c-.12.08-12.09,8.28-13.61,9.47C252.73,388.14,251.17,392.22,250.66,393.71Z" style="fill:#263238"></path><path d="M256.07,394.74l-.79-.62c.14-.18,3.39-4.26,6.57-5.67s8.64-3.8,8.64-3.8l.4.92s-5.52,2.41-8.63,3.79C259.3,390.68,256.1,394.7,256.07,394.74Z" style="fill:#263238"></path><path d="M263.86,396.42l-.49-.88c.29-.16,7.17-4,10.31-4.71l.22,1C270.9,392.48,263.93,396.38,263.86,396.42Z" style="fill:#263238"></path></g><g id="freepik--Device--inject-15"><polygon points="364.11 417.64 293.66 403.14 389.84 399.46 449.85 408.23 364.11 417.64" style="fill:#fff"></polygon><path d="M364.1,418.14H364l-70.44-14.5a.5.5,0,0,1,.09-1L389.82,399l60.11,8.78a.49.49,0,0,1,.42.5.5.5,0,0,1-.44.49l-85.75,9.41Zm-66.3-14.66,66.33,13.66,81.78-9L389.77,400Z" style="fill:#263238"></path><polygon points="370.42 414.21 327.48 405.3 388.76 401.98 434.25 407.72 370.42 414.21" style="fill:#263238"></polygon><path d="M370.42,414.71h-.11l-42.93-8.91a.5.5,0,0,1,.07-1l61.28-3.32,45.58,5.74a.5.5,0,0,1,0,1l-63.83,6.49Zm-39.08-9.12,39.1,8.11,59.39-6-41.13-5.2Z" style="fill:#263238"></path><polygon points="383.79 343.75 364.11 417.64 449.85 408.23 471.48 339.75 383.79 343.75" style="fill:#c9c9c9"></polygon><path d="M364.1,418.14a.48.48,0,0,1-.37-.17.5.5,0,0,1-.11-.45l19.68-73.9a.51.51,0,0,1,.46-.37l87.7-4a.49.49,0,0,1,.42.19.53.53,0,0,1,.08.46l-21.63,68.47a.49.49,0,0,1-.42.35l-85.75,9.41Zm20.07-73.91-19.39,72.84,84.69-9.3,21.32-67.48Z" style="fill:#263238"></path><path d="M429,375c0,3.11-3.27,5.63-7.31,5.63s-7.32-2.52-7.32-5.63,3.28-5.62,7.32-5.62S429,371.93,429,375Z" style="fill:#263238"></path><path d="M421.73,381.17c-4.31,0-7.82-2.75-7.82-6.13s3.51-6.12,7.82-6.12,7.81,2.74,7.81,6.12S426,381.17,421.73,381.17Zm0-11.25c-3.76,0-6.82,2.29-6.82,5.12s3.06,5.13,6.82,5.13,6.81-2.3,6.81-5.13S425.48,369.92,421.73,369.92Z" style="fill:#263238"></path><path d="M461.94,370c-18.13,10-35,10.3-53.15,16.88-24.75,9-44.69,30.79-44.69,30.79l85.75-9.41Z" style="fill:#263238"></path><path d="M364.1,418.14a.49.49,0,0,1-.44-.27.47.47,0,0,1,.08-.56c.2-.22,20.29-22,44.88-30.93a179.43,179.43,0,0,1,20.79-5.78c10.94-2.56,21.27-5,32.29-11.07a.5.5,0,0,1,.71.59l-12.08,38.26a.49.49,0,0,1-.42.35l-85.75,9.41Zm97-47.14c-10.76,5.73-21.27,8.19-31.45,10.57A179.89,179.89,0,0,0,409,387.32c-21.36,7.77-39.32,25.34-43.55,29.68l84.06-9.23Z" style="fill:#263238"></path></g><g id="freepik--paper-balls--inject-15"><polygon points="114.09 404.22 108.1 398.73 94.36 402.47 86.87 420.71 103.6 428.7 116.09 426.2 119.59 413.46 114.09 404.22" style="fill:#fff"></polygon><path d="M103.6,429.2a.54.54,0,0,1-.21-.05l-16.74-8a.5.5,0,0,1-.25-.64l7.5-18.24a.5.5,0,0,1,.33-.29L108,398.24a.51.51,0,0,1,.47.12l6,5.49a.31.31,0,0,1,.09.11l5.5,9.25a.48.48,0,0,1,0,.39l-3.5,12.74a.46.46,0,0,1-.38.35l-12.49,2.5Zm-16.09-8.74,16.16,7.72,12-2.41,3.36-12.23-5.35-9L108,399.28l-13.23,3.61Z" style="fill:#263238"></path><path d="M110.1,426.2H110l-12.49-1.75a.51.51,0,0,1-.43-.42l-1.75-11.24a.51.51,0,0,1,.16-.44l9-8.25a.51.51,0,0,1,.33-.13l9.24-.25,0,1-9.06.25-8.66,7.93L98,423.51l11.8,1.65,6.06-10-9.23-5.08-3.14,2.75,9.76,4.18-.39.92-10.49-4.5a.49.49,0,0,1-.3-.38.5.5,0,0,1,.16-.45l4-3.5a.5.5,0,0,1,.57-.06l10,5.49a.55.55,0,0,1,.25.31.54.54,0,0,1-.06.39L110.53,426A.52.52,0,0,1,110.1,426.2Z" style="fill:#263238"></path><path d="M105,422l-7.24-1a.52.52,0,0,1-.39-.28.48.48,0,0,1,0-.48l4.74-7.49.85.53-4.33,6.84,6.47.89Z" style="fill:#263238"></path><path d="M108.1,398.72l4.5,1,5,4.25,4.25,4.75s2.25,6,1.5,7a29,29,0,0,0-2,5l-4.25,1.5,2.5-8.75-5.5-9.24Z" style="fill:#fff"></path><path d="M117.09,422.71a.51.51,0,0,1-.48-.64l2.44-8.54-5.35-9-5.94-5.45a.5.5,0,0,1,.45-.85l4.49,1a.44.44,0,0,1,.22.1l5,4.25,4.29,4.79a.86.86,0,0,1,.1.16c.7,1.88,2.25,6.37,1.43,7.47a27.08,27.08,0,0,0-1.92,4.85.52.52,0,0,1-.31.32l-4.25,1.5A.51.51,0,0,1,117.09,422.71Zm-7.28-23.09,4.62,4.23a.31.31,0,0,1,.09.11l5.5,9.25a.49.49,0,0,1,0,.39l-2.23,7.81,3.1-1.09a25.1,25.1,0,0,1,2-4.91c.29-.47-.41-3.41-1.54-6.43l-4.18-4.68-4.85-4.12Z" style="fill:#263238"></path><polygon points="240.89 431.04 246.02 437.35 260.16 435.66 270.24 418.72 254.86 408.36 242.14 409 236.81 421.09 240.89 431.04" style="fill:#fff"></polygon><path d="M246,437.85a.48.48,0,0,1-.39-.18l-5.13-6.32a.75.75,0,0,1-.07-.12l-4.08-10a.53.53,0,0,1,0-.39l5.33-12.09a.49.49,0,0,1,.43-.3l12.73-.64a.47.47,0,0,1,.3.08l15.38,10.37a.5.5,0,0,1,.15.67l-10.08,16.94a.52.52,0,0,1-.37.24l-14.14,1.69Zm-4.69-7.07,4.9,6,13.62-1.63,9.72-16.32-14.85-10-12.25.61-5.12,11.61Z" style="fill:#263238"></path><path d="M250.07,432.65H250l-9.18-1.11.12-1,9,1.09,9.72-6.58-.07-10.74L248.17,411l-7.46,9,8.39,6.38,3.5-2.26-9-5.57.52-.85,9.72,6a.49.49,0,0,1,.24.42.48.48,0,0,1-.23.42l-4.47,2.88a.51.51,0,0,1-.57,0l-9.08-6.91a.5.5,0,0,1-.08-.71l8-9.68a.53.53,0,0,1,.53-.16l12.1,3.56a.5.5,0,0,1,.35.48l.09,11.38a.52.52,0,0,1-.22.41l-10.11,6.84A.47.47,0,0,1,250.07,432.65Z" style="fill:#263238"></path><path d="M253.92,424.4l-.76-.65,5.29-6.13-6.28-1.83.29-1,7,2.05a.46.46,0,0,1,.34.33.5.5,0,0,1-.1.47Z" style="fill:#263238"></path><path d="M246,437.35l-4.31-1.65-4.31-4.93-3.51-5.32s-1.34-6.26-.46-7.14a28.43,28.43,0,0,0,2.71-4.64l4.42-.86-3.75,8.28,4.08,10Z" style="fill:#fff"></path><path d="M246,437.85l-.18,0-4.3-1.65a.48.48,0,0,1-.2-.14L237,431.1l-3.55-5.37a.87.87,0,0,1-.07-.17c-.42-2-1.29-6.63-.32-7.6a26.29,26.29,0,0,0,2.61-4.51.54.54,0,0,1,.36-.28l4.42-.86a.52.52,0,0,1,.49.19.49.49,0,0,1,.06.51l-3.66,8.09,4,9.68L246.4,437a.5.5,0,0,1,0,.61A.51.51,0,0,1,246,437.85Zm-4-2.57,2.44.94-3.95-4.87a.75.75,0,0,1-.07-.12l-4.08-10a.51.51,0,0,1,0-.4l3.35-7.4-3.23.63a25.21,25.21,0,0,1-2.69,4.56c-.36.42-.1,3.43.57,6.59l3.45,5.24Z" style="fill:#263238"></path><path d="M147.81,397.16l-12.14,6v9.95c0,.59.4,5,.4,5l10.34,6.76,10.34-.8,7.16-3.78,3.78-5.56,1.79-3.78s.4-6.37.6-7-.6-5.17-.6-5.77S166.7,393,166.7,393l-6.76.6-3.38-.4Z" style="fill:#fff"></path><path d="M146.41,425.3a.53.53,0,0,1-.27-.08l-10.34-6.76a.55.55,0,0,1-.23-.38c0-.45-.4-4.41-.4-5v-9.95a.51.51,0,0,1,.28-.45l12.13-6h0l8.75-4a.57.57,0,0,1,.26,0l3.33.39,6.71-.59a.51.51,0,0,1,.47.24c1.31,2.14,2.86,4.82,2.86,5.43,0,.18.11,1,.21,1.7.37,2.63.5,3.8.36,4.23s-.38,3.81-.57,6.83a.41.41,0,0,1,0,.18l-1.79,3.78-3.81,5.64a.69.69,0,0,1-.18.16L157,424.45a.46.46,0,0,1-.2.05l-10.34.8Zm-9.86-7.55,10,6.54,10.07-.78,7-3.67,3.71-5.46,1.71-3.63c.1-1.61.41-6.39.61-7a28.77,28.77,0,0,0-.4-3.77c-.14-1-.22-1.61-.22-1.84a38.76,38.76,0,0,0-2.55-4.64l-6.45.56h-.1l-3.25-.38L148,397.61l-11.85,5.82v9.64C136.17,413.51,136.43,416.4,136.55,417.75Z" style="fill:#263238"></path><path d="M146.49,419.08a2.49,2.49,0,0,1-1.1-.2c-1.21-.61-7.72-6.38-8.46-7a.52.52,0,0,1-.14-.54c1.12-3.16,2.57-7,3.18-7.41.43-.29,4.82-4.51,7.49-7.1a.49.49,0,0,1,.68,0l7.56,7a.5.5,0,0,1,.13.19l2.59,7a.5.5,0,0,1-.1.5c-2,2.35-5.59,6.32-6.42,6.53l-.58.16A20,20,0,0,1,146.49,419.08Zm-8.64-7.76c2.86,2.55,7.18,6.26,8,6.67s4.12-.54,5.2-.86l.62-.17a56.75,56.75,0,0,0,5.71-6l-2.43-6.57-7.13-6.56c-1.68,1.63-6.73,6.52-7.28,6.89A48.9,48.9,0,0,0,137.85,411.32Z" style="fill:#263238"></path><path d="M154.57,422.12a.47.47,0,0,1-.17,0l-9-3.18a.5.5,0,0,1-.33-.53.49.49,0,0,1,.45-.44l7.33-.77,4.48-6.17-2.44-6.6-7.47-6.88a.47.47,0,0,1-.16-.44.52.52,0,0,1,.29-.38l8.75-4a.51.51,0,0,1,.55.1l5.77,5.57a.39.39,0,0,1,.08.1l4.77,7.95a.48.48,0,0,1,.07.33l-.79,6.16a.54.54,0,0,1-.08.21l-4,6.16a.49.49,0,0,1-.26.21l-7.76,2.58A.4.4,0,0,1,154.57,422.12Zm-6.71-3.42,6.71,2.39,7.43-2.48,3.82-5.92.76-5.88-4.65-7.75-5.48-5.29-7.75,3.53,7,6.45a.5.5,0,0,1,.13.19l2.59,7a.53.53,0,0,1-.07.47l-4.77,6.56a.5.5,0,0,1-.35.21Z" style="fill:#263238"></path><path d="M146.06,418.66l-.89-.45,2.94-5.88.18-2-1.95-5.87a.49.49,0,0,1,.46-.65l8.55-.2,0,1-7.87.18,1.77,5.32a.51.51,0,0,1,0,.21l-.2,2.18a.48.48,0,0,1,0,.18Z" style="fill:#263238"></path><path d="M432.82,406.47l-11.1,5.45V421c0,.55.36,4.55.36,4.55l9.47,6.19L441,431l6.55-3.46,3.45-5.09,1.64-3.46s.36-5.82.55-6.37-.55-4.73-.55-5.27-2.55-4.74-2.55-4.74l-6.18.55-3.1-.36Z" style="fill:#fff"></path><path d="M431.55,432.25a.46.46,0,0,1-.28-.08L421.81,426a.49.49,0,0,1-.22-.38c0-.41-.37-4-.37-4.59v-9.1a.49.49,0,0,1,.28-.44L432.6,406h0l8-3.64a.46.46,0,0,1,.26,0l3,.36,6.14-.54a.49.49,0,0,1,.47.23c1.2,2,2.62,4.43,2.62,5,0,.15.1.89.19,1.54a14.48,14.48,0,0,1,.33,3.89c-.11.39-.37,3.88-.52,6.24a.37.37,0,0,1,0,.18l-1.64,3.46L448,427.85a.55.55,0,0,1-.18.16l-6.55,3.46a.66.66,0,0,1-.2.06l-9.46.72Zm-9-7,9.12,6,9.18-.7,6.35-3.35,3.39-5,1.56-3.31c.09-1.48.38-5.85.56-6.4a26,26,0,0,0-.37-3.43c-.13-1-.2-1.47-.2-1.68a36.32,36.32,0,0,0-2.31-4.21l-5.88.52h-.1l-3-.35L433,406.92l-10.81,5.32V421C422.22,421.42,422.45,424,422.56,425.28Z" style="fill:#263238"></path><path d="M431.62,426.57a2.34,2.34,0,0,1-1-.19c-1.11-.56-7.07-5.84-7.75-6.44a.52.52,0,0,1-.14-.54c1-2.9,2.36-6.42,2.93-6.8.39-.27,4.41-4.13,6.84-6.49a.5.5,0,0,1,.69,0l6.91,6.36a.53.53,0,0,1,.13.2l2.37,6.37a.51.51,0,0,1-.1.5c-1.87,2.15-5.13,5.79-5.89,6l-.54.15A18.31,18.31,0,0,1,431.62,426.57Zm-7.86-7.15c2.62,2.32,6.55,5.7,7.28,6.07s3.74-.5,4.72-.79l.58-.16a55.11,55.11,0,0,0,5.19-5.44l-2.22-6-6.48-6c-1.57,1.52-6.14,5.94-6.65,6.28A46.89,46.89,0,0,0,423.76,419.42Z" style="fill:#263238"></path><path d="M439,429.34a.47.47,0,0,1-.17,0l-8.19-2.91a.48.48,0,0,1-.33-.52.49.49,0,0,1,.44-.44l6.7-.71,4.08-5.61-2.23-6-6.83-6.29a.51.51,0,0,1,.13-.82l8-3.64a.49.49,0,0,1,.55.1l5.28,5.09.08.1,4.37,7.28a.51.51,0,0,1,.06.32l-.72,5.64a.49.49,0,0,1-.08.21l-3.64,5.64a.47.47,0,0,1-.26.2l-7.1,2.37Zm-5.95-3.14,5.95,2.12,6.77-2.26,3.48-5.4.69-5.35-4.24-7.08-5-4.81-7,3.19,6.36,5.85a.53.53,0,0,1,.13.2l2.37,6.37a.5.5,0,0,1-.07.47l-4.36,6a.53.53,0,0,1-.36.2Z" style="fill:#263238"></path><path d="M431.26,426.16l-.89-.45,2.69-5.38.16-1.8-1.79-5.36a.49.49,0,0,1,.07-.44.49.49,0,0,1,.4-.21l7.82-.19,0,1-7.14.17,1.6,4.82a.64.64,0,0,1,0,.2l-.18,2a.64.64,0,0,1-.06.18Z" style="fill:#263238"></path><polygon points="200.01 405.08 184.59 421.07 186.31 425.35 192.87 429.63 205.15 433.06 212.85 426.49 211.43 415.36 211.14 411.08 212.57 408.8 203.15 402.8 200.01 405.08" style="fill:#fff"></polygon><path d="M205.15,433.56l-.14,0-12.27-3.42-.14-.07L186,425.77a.6.6,0,0,1-.19-.23l-1.71-4.29a.51.51,0,0,1,.1-.53l15.42-16,.06-.06,3.14-2.28a.51.51,0,0,1,.57,0l9.42,6a.5.5,0,0,1,.15.69l-1.34,2.15.27,4.12,1.43,11.1a.49.49,0,0,1-.17.44l-7.71,6.57A.49.49,0,0,1,205.15,433.56Zm-12.07-4.39L205,432.51l7.3-6.22-1.39-10.87-.29-4.31a.47.47,0,0,1,.08-.3l1.16-1.86-8.71-5.55-2.83,2.06-15.16,15.72,1.53,3.84Z" style="fill:#263238"></path><path d="M197.81,428.9a.54.54,0,0,1-.22,0c-.39-.19-9.51-4.61-10.26-5.06l.52-.85c.56.33,6.94,3.44,9.8,4.83l2.12-2.92a.46.46,0,0,1,.22-.17l7.58-3.09-1.36-4.9a.48.48,0,0,1,.09-.45l4.45-5.48.78.63-4.29,5.28,1.41,5.08a.51.51,0,0,1-.29.6l-7.86,3.2-2.29,3.14A.52.52,0,0,1,197.81,428.9Z" style="fill:#263238"></path><path d="M205.06,431.27l-.15,0-7.26-2.37.31-.95,6.92,2.26,5.12-6.5-1.43-7,1-.2,1.48,7.26a.51.51,0,0,1-.1.41l-5.48,7A.49.49,0,0,1,205.06,431.27Z" style="fill:#263238"></path><path d="M211.28,413.59l4.59,1.48L220,425.44s-1.62,4.59-1.92,5.18-7.85,4.59-7.85,4.59l-10.81,1.63s-4.73-1.34-4.88-2.08-11.7-5.62-11.7-5.62l3.46-3.79,6.56,4.28,12.28,3.43,7.7-6.57Z" style="fill:#fff"></path><path d="M199.43,437.34l-.13,0c-4.45-1.25-5.09-2-5.21-2.35-.67-.62-6.28-3.19-11.43-5.37a.5.5,0,0,1-.18-.8l3.46-3.79a.5.5,0,0,1,.64-.08l6.5,4.24L205,432.51l7.3-6.22-1.54-12.64a.5.5,0,0,1,.18-.44.47.47,0,0,1,.47-.09L216,414.6a.47.47,0,0,1,.31.29l4.15,10.36a.53.53,0,0,1,0,.35c-.17.48-1.65,4.64-2,5.24s-3,2.11-8.06,4.81a.33.33,0,0,1-.16.05l-10.81,1.63ZM183.7,429c11.14,4.74,11.28,5.42,11.34,5.72a20.33,20.33,0,0,0,4.43,1.66l10.61-1.6a72.75,72.75,0,0,0,7.59-4.39c.17-.35,1.16-3.06,1.81-4.89l-4-10-3.62-1.17,1.48,12.12a.49.49,0,0,1-.17.44l-7.71,6.57a.48.48,0,0,1-.46.1l-12.27-3.42-.14-.07L186.39,426Z" style="fill:#263238"></path><path d="M194.6,435.26l-.1-1,17.62-1.9,1.66-3.87,2-5.8L211,415.64l.83-.56,4.89,7.26a.51.51,0,0,1,.06.45l-2.08,6.07L212.92,433a.5.5,0,0,1-.4.3Z" style="fill:#263238"></path></g><g id="freepik--Lamp--inject-15"><path d="M41.73,382.19H75.43a7.74,7.74,0,0,1,7.74,7.74v2.27a0,0,0,0,1,0,0H41.73a0,0,0,0,1,0,0v-10A0,0,0,0,1,41.73,382.19Z" style="fill:#263238"></path><path d="M83.17,392.7H41.73a.5.5,0,0,1-.5-.5v-10a.5.5,0,0,1,.5-.5h33.7a8.25,8.25,0,0,1,8.24,8.24v2.27A.51.51,0,0,1,83.17,392.7Zm-40.94-1H82.67v-1.77a7.24,7.24,0,0,0-7.24-7.24H42.23Z" style="fill:#263238"></path><rect x="26.93" y="321.81" width="88.99" height="3" transform="translate(-258.08 290.8) rotate(-71.91)" style="fill:#263238"></rect><polygon points="45.88 382.19 57.62 361.12 67.97 382.19 45.88 382.19" style="fill:#263238"></polygon><path d="M68,382.69H45.87a.52.52,0,0,1-.43-.25.5.5,0,0,1,0-.5l11.74-21.06a.52.52,0,0,1,.45-.26.5.5,0,0,1,.43.28L68.42,382a.5.5,0,0,1,0,.49A.5.5,0,0,1,68,382.69Zm-21.24-1H67.17L57.59,362.2Z" style="fill:#263238"></path><path d="M62.1,361.12a4.49,4.49,0,1,0-4.49,4.49A4.49,4.49,0,0,0,62.1,361.12Z" style="fill:#263238"></path><path d="M57.61,366.11a5,5,0,1,1,5-5A5,5,0,0,1,57.61,366.11Zm0-9a4,4,0,1,0,4,4A4,4,0,0,0,57.61,357.13Z" style="fill:#263238"></path><path d="M90.07,282.05a4.49,4.49,0,1,0-4.49,4.49A4.49,4.49,0,0,0,90.07,282.05Z" style="fill:#263238"></path><path d="M85.58,287a5,5,0,1,1,5-5A5,5,0,0,1,85.58,287Zm0-9a4,4,0,1,0,4,4A4,4,0,0,0,85.58,278.06Z" style="fill:#263238"></path><rect x="84.93" y="274.68" width="53.44" height="3" transform="translate(-57.97 31.29) rotate(-12.7)" style="fill:#263238"></rect><polygon points="175.43 285.55 148.04 303.95 137.99 274.19 151.68 264.99 175.43 285.55" style="fill:#407BFF"></polygon><path d="M148,304.45l-.16,0a.48.48,0,0,1-.31-.31l-10.06-29.76a.51.51,0,0,1,.2-.58l13.69-9.2a.5.5,0,0,1,.6,0l23.76,20.57a.5.5,0,0,1,0,.79l-27.39,18.39A.47.47,0,0,1,148,304.45Zm-9.46-30.06,9.73,28.78,26.3-17.67-23-19.88Z" style="fill:#263238"></path><rect x="133.39" y="259.29" width="16.61" height="11.25" transform="translate(-123.65 124.02) rotate(-33.89)" style="fill:#fff"></rect><path d="M137.94,274.72h-.1a.54.54,0,0,1-.32-.21l-6.27-9.34a.51.51,0,0,1,.14-.7l13.78-9.26a.51.51,0,0,1,.38-.07.49.49,0,0,1,.32.21l6.27,9.34a.54.54,0,0,1,.08.37.52.52,0,0,1-.22.32l-13.78,9.26A.49.49,0,0,1,137.94,274.72ZM132.36,265l5.71,8.51,13-8.7-5.72-8.51Z" style="fill:#263238"></path></g><g id="freepik--speech-bubble--inject-15"><path d="M183.3,114.51C180,99.32,190.78,84,207.46,80.37c1.14-.25,2.27-.43,3.4-.57A25.86,25.86,0,0,1,245.4,52a27.2,27.2,0,0,1,40-11.16,29,29,0,0,1,19.33-14.29A28.62,28.62,0,0,1,334,37.19,34.85,34.85,0,0,1,351.11,28c16.86-3.71,33.07,4.9,36.22,19.22A23.44,23.44,0,0,1,386,61.36c17.95-.1,33.49,10.1,36.89,25.56,2.49,11.32-2.12,22.81-11.19,31.07a20.79,20.79,0,0,1,3.08,7.18c2.67,12.14-5.9,24.34-19.13,27.25a26.15,26.15,0,0,1-12.11-.17c-.08,14.21-10.77,27.22-26.26,30.62a33.67,33.67,0,0,1-29.6-7.33,26.79,26.79,0,0,1-17.5,12.18c-11.61,2.55-22.8-2.14-27.21-10.73a32.89,32.89,0,0,1-3.38.93c-13.07,2.88-25.48-2.55-28.53-12.2A32.32,32.32,0,0,1,237.9,172c-17,3.74-33.79-6.6-37.42-23.09a29.8,29.8,0,0,1,.5-14.71C192.18,130.86,185.34,123.78,183.3,114.51Z" style="fill:#263238"></path><path d="M304,188.89c-9.09,0-17.42-4.26-21.25-11.3-1,.33-2,.6-3,.82-12.89,2.83-25.39-2.36-28.89-11.87a32.9,32.9,0,0,1-36.9,1.88,30.33,30.33,0,0,1-13.52-34c-9-3.54-15.6-10.92-17.56-19.84-3.4-15.44,7.61-31,24.53-34.74,1-.21,1.94-.38,3-.51a26.36,26.36,0,0,1,34.84-28,27.71,27.71,0,0,1,40-11.24,29.63,29.63,0,0,1,19.4-14.07,29.1,29.1,0,0,1,29.48,10.38A35.35,35.35,0,0,1,351,27.55c17.1-3.76,33.62,5,36.82,19.6a23.91,23.91,0,0,1-1.1,13.71c18.3.18,33.31,10.77,36.65,26,2.4,11-1.72,22.6-11,31.26a21.28,21.28,0,0,1,2.92,7,22,22,0,0,1-3.68,17.49,26,26,0,0,1-15.83,10.36,27,27,0,0,1-11.73,0c-.39,14.39-11.5,27.15-26.65,30.48a34.19,34.19,0,0,1-29.58-7.06,27.22,27.22,0,0,1-17.52,11.9A29,29,0,0,1,304,188.89Zm-21-12.4a.49.49,0,0,1,.44.27c4.37,8.5,15.58,12.9,26.66,10.47a26.11,26.11,0,0,0,17.18-11.95.49.49,0,0,1,.35-.24.5.5,0,0,1,.41.12,33.16,33.16,0,0,0,29.16,7.22c14.91-3.27,25.79-15.95,25.87-30.14a.47.47,0,0,1,.2-.39.54.54,0,0,1,.43-.09,25.76,25.76,0,0,0,11.88.17,25,25,0,0,0,15.22-10,21,21,0,0,0,3.52-16.69,20.29,20.29,0,0,0-3-7,.49.49,0,0,1,.08-.65c9.26-8.44,13.38-19.88,11-30.59C419.11,72.1,404.15,61.75,386,61.86a.46.46,0,0,1-.42-.22.52.52,0,0,1-.05-.47,23,23,0,0,0,1.32-13.81c-3.08-14-19.06-22.48-35.62-18.84a34.28,34.28,0,0,0-16.87,9,.59.59,0,0,1-.4.15.54.54,0,0,1-.36-.21A28.07,28.07,0,0,0,304.79,27a28.55,28.55,0,0,0-19,14,.56.56,0,0,1-.33.25.49.49,0,0,1-.39-.08,26.71,26.71,0,0,0-39.22,11,.49.49,0,0,1-.62.26,25.36,25.36,0,0,0-33.88,27.28.48.48,0,0,1-.43.56c-1.15.14-2.28.32-3.35.56-16.38,3.6-27,18.65-23.78,33.54,1.92,8.73,8.41,15.94,17.37,19.28a.5.5,0,0,1,.3.61,29.34,29.34,0,0,0,13,33.28,31.9,31.9,0,0,0,36.32-2.24.52.52,0,0,1,.45-.09.5.5,0,0,1,.33.33c3,9.44,15.27,14.65,28,11.87,1.1-.25,2.22-.56,3.33-.93Z" style="fill:#263238"></path><ellipse cx="302.38" cy="204.75" rx="13.1" ry="8.06" style="fill:#263238"></ellipse><path d="M302.38,213.31c-7.5,0-13.6-3.84-13.6-8.56s6.1-8.57,13.6-8.57S316,200,316,204.75,309.88,213.31,302.38,213.31Zm0-16.13c-6.95,0-12.6,3.4-12.6,7.57s5.65,7.56,12.6,7.56S315,208.92,315,204.75,309.33,197.18,302.38,197.18Z" style="fill:#263238"></path><ellipse cx="293.31" cy="224.24" rx="8.06" ry="4.7" style="fill:#263238"></ellipse><path d="M293.31,229.44c-4.8,0-8.56-2.29-8.56-5.2s3.76-5.21,8.56-5.21,8.56,2.29,8.56,5.21S298.11,229.44,293.31,229.44Zm0-9.41c-4.1,0-7.56,1.93-7.56,4.21s3.46,4.2,7.56,4.2,7.56-1.93,7.56-4.2S297.41,220,293.31,220Z" style="fill:#263238"></path><path d="M180.57,112.46c-3.34-15.19,7.48-30.48,24.16-34.14a33.78,33.78,0,0,1,3.39-.57,25.86,25.86,0,0,1,34.54-27.81,27.2,27.2,0,0,1,40-11.16A29.06,29.06,0,0,1,302,24.49a28.61,28.61,0,0,1,29.31,10.64A35,35,0,0,1,348.37,26c16.86-3.7,33.08,4.91,36.22,19.22a23.46,23.46,0,0,1-1.34,14.11c18-.1,33.5,10.1,36.89,25.56,2.49,11.32-2.12,22.81-11.18,31.07a20.58,20.58,0,0,1,3.07,7.18c2.67,12.14-5.89,24.34-19.12,27.25a26,26,0,0,1-12.11-.18c-.09,14.22-10.78,27.23-26.27,30.63a33.61,33.61,0,0,1-29.59-7.34,26.74,26.74,0,0,1-17.51,12.18c-11.6,2.55-22.8-2.14-27.21-10.72a32.7,32.7,0,0,1-3.37.93c-13.08,2.87-25.49-2.55-28.54-12.2a32.18,32.18,0,0,1-13.15,6.22c-17,3.75-33.79-6.59-37.41-23.08a29.56,29.56,0,0,1,.5-14.71C189.44,128.81,182.6,121.73,180.57,112.46Z" style="fill:#fff"></path><path d="M301.22,186.84c-9.09,0-17.42-4.26-21.24-11.3-1,.33-2,.6-3,.82-12.88,2.83-25.39-2.36-28.88-11.87a32.56,32.56,0,0,1-12.8,5.89c-17.28,3.8-34.33-6.73-38-23.46a30.36,30.36,0,0,1,.38-14.52c-9-3.53-15.6-10.91-17.56-19.83h0a27.3,27.3,0,0,1,4.65-21.79,32.84,32.84,0,0,1,19.89-13c.95-.21,1.94-.38,2.94-.51a26.36,26.36,0,0,1,34.84-28,27.71,27.71,0,0,1,40-11.25A29.65,29.65,0,0,1,301.84,24a29.08,29.08,0,0,1,29.48,10.38,35.3,35.3,0,0,1,16.95-8.88c17.1-3.76,33.61,5,36.81,19.6A24,24,0,0,1,384,58.81c18.29.17,33.3,10.77,36.64,26,2.41,10.95-1.71,22.6-11,31.26a21.26,21.26,0,0,1,2.91,7c2.72,12.39-6,24.89-19.51,27.85a26.94,26.94,0,0,1-11.72,0c-.4,14.39-11.51,27.15-26.65,30.48a34.21,34.21,0,0,1-29.58-7.06,27.27,27.27,0,0,1-17.52,11.9A29.19,29.19,0,0,1,301.22,186.84Zm-20.75-12.51.2.38c4.36,8.5,15.57,12.9,26.65,10.47a26.15,26.15,0,0,0,17.18-12l.31-.53.46.41a33.17,33.17,0,0,0,29.15,7.22c14.91-3.27,25.79-16,25.88-30.14v-.64l.62.16a25.76,25.76,0,0,0,11.88.17c12.94-2.84,21.35-14.8,18.75-26.66a20.54,20.54,0,0,0-3-7l-.24-.36.32-.29c9.26-8.44,13.39-19.88,11-30.59-3.26-14.85-18.09-25.17-36.12-25.17h-1l.29-.7a23,23,0,0,0,1.31-13.81C381,31.28,365,22.83,348.48,26.47a34.28,34.28,0,0,0-16.87,9l-.41.41-.35-.47A28.05,28.05,0,0,0,302.05,25a28.55,28.55,0,0,0-19,14l-.26.48-.46-.31a26.7,26.7,0,0,0-39.21,11l-.2.42-.43-.16a25.35,25.35,0,0,0-33.87,27.27l.07.51-.51.06a32.7,32.7,0,0,0-22.63,13.11,26.25,26.25,0,0,0-4.49,21h0c1.91,8.73,8.41,15.94,17.36,19.28l.44.16-.13.45a29.28,29.28,0,0,0-.49,14.46c3.56,16.2,20.07,26.38,36.81,22.71A31.77,31.77,0,0,0,248,163.28l.57-.45.22.69c3,9.44,15.27,14.65,28,11.86a33,33,0,0,0,3.32-.92Z" style="fill:#263238"></path><ellipse cx="299.65" cy="202.69" rx="13.1" ry="8.06" style="fill:#fff"></ellipse><path d="M299.65,211.26c-7.51,0-13.61-3.84-13.61-8.57s6.1-8.56,13.61-8.56,13.6,3.84,13.6,8.56S307.15,211.26,299.65,211.26Zm0-16.13c-6.95,0-12.61,3.39-12.61,7.56s5.66,7.57,12.61,7.57,12.6-3.39,12.6-7.57S306.6,195.13,299.65,195.13Z" style="fill:#263238"></path><ellipse cx="290.57" cy="222.18" rx="8.06" ry="4.7" style="fill:#fff"></ellipse><path d="M290.57,227.39c-4.8,0-8.56-2.29-8.56-5.21s3.76-5.2,8.56-5.2,8.57,2.29,8.57,5.2S295.38,227.39,290.57,227.39Zm0-9.41c-4.1,0-7.56,1.92-7.56,4.2s3.46,4.21,7.56,4.21,7.57-1.93,7.57-4.21S294.67,218,290.57,218Z" style="fill:#263238"></path></g><g id="freepik--light-bulb--inject-15"><path d="M326.54,81.59a23.47,23.47,0,1,0-41.5,15,23,23,0,0,1,5.35,14.76v3.22h25.37v-3.22a23,23,0,0,1,5.33-14.75A23.36,23.36,0,0,0,326.54,81.59Z" style="fill:#407BFF"></path><path d="M315.76,115.09H290.39a.5.5,0,0,1-.5-.5v-3.22a22.59,22.59,0,0,0-5.23-14.44,24,24,0,1,1,36.82,0,22.53,22.53,0,0,0-5.22,14.43v3.22A.5.5,0,0,1,315.76,115.09Zm-24.87-1h24.37v-2.72a23.57,23.57,0,0,1,5.45-15.07,23,23,0,1,0-35.28,0,23.59,23.59,0,0,1,5.46,15.08Z" style="fill:#263238"></path><rect x="290.39" y="114.6" width="25.37" height="6.28" style="fill:#fff"></rect><path d="M315.76,121.37H290.39a.5.5,0,0,1-.5-.5V114.6a.5.5,0,0,1,.5-.5h25.37a.5.5,0,0,1,.5.5v6.27A.5.5,0,0,1,315.76,121.37Zm-24.87-1h24.37V115.1H290.89Z" style="fill:#263238"></path><path d="M290.39,120.89h25.37a0,0,0,0,1,0,0v3.77a2.51,2.51,0,0,1-2.51,2.51H292.9a2.51,2.51,0,0,1-2.51-2.51v-3.77A0,0,0,0,1,290.39,120.89Z" style="fill:#fff"></path><path d="M313.25,127.66H292.9a3,3,0,0,1-3-3v-3.77a.5.5,0,0,1,.5-.5h25.37a.5.5,0,0,1,.5.5v3.77A3,3,0,0,1,313.25,127.66Zm-22.36-6.27v3.27a2,2,0,0,0,2,2h20.35a2,2,0,0,0,2-2v-3.27Z" style="fill:#263238"></path><path d="M293.59,127.16h19a0,0,0,0,1,0,0v3.77a2.51,2.51,0,0,1-2.51,2.51h-14a2.51,2.51,0,0,1-2.51-2.51v-3.77A0,0,0,0,1,293.59,127.16Z" style="fill:#263238"></path><path d="M310.05,133.93H296.1a3,3,0,0,1-3-3v-3.76a.5.5,0,0,1,.5-.5h19a.5.5,0,0,1,.5.5v3.76A3,3,0,0,1,310.05,133.93Zm-16-6.27v3.26a2,2,0,0,0,2,2h13.95a2,2,0,0,0,2-2v-3.26Z" style="fill:#263238"></path><path d="M340.62,82.22H329.87a.51.51,0,0,1-.5-.5.5.5,0,0,1,.5-.5h10.75a.5.5,0,0,1,.5.5A.5.5,0,0,1,340.62,82.22Z" style="fill:#263238"></path><path d="M275.4,82.22H264.52a.5.5,0,0,1-.5-.5.5.5,0,0,1,.5-.5H275.4a.5.5,0,0,1,.5.5A.5.5,0,0,1,275.4,82.22Z" style="fill:#263238"></path><path d="M302.57,54.94a.5.5,0,0,1-.5-.5V43.66a.5.5,0,0,1,1,0V54.44A.5.5,0,0,1,302.57,54.94Z" style="fill:#263238"></path><path d="M322.06,62.73a.51.51,0,0,1-.36-.15.5.5,0,0,1,0-.7l7.42-7.42a.5.5,0,0,1,.71,0,.48.48,0,0,1,0,.7l-7.42,7.42A.5.5,0,0,1,322.06,62.73Z" style="fill:#263238"></path><path d="M275.66,109.12a.47.47,0,0,1-.35-.14.5.5,0,0,1,0-.71l7.53-7.53a.5.5,0,0,1,.7,0,.5.5,0,0,1,0,.71L276,109A.5.5,0,0,1,275.66,109.12Z" style="fill:#263238"></path><path d="M282.87,62.52a.51.51,0,0,1-.36-.15l-7.2-7.21a.48.48,0,0,1,0-.7.5.5,0,0,1,.71,0l7.2,7.2a.5.5,0,0,1,0,.71A.49.49,0,0,1,282.87,62.52Z" style="fill:#263238"></path><path d="M329.48,109.12a.5.5,0,0,1-.36-.14L322,101.8a.48.48,0,0,1,0-.7.5.5,0,0,1,.71,0l7.17,7.17a.5.5,0,0,1,0,.71A.47.47,0,0,1,329.48,109.12Z" style="fill:#263238"></path></g><g id="freepik--Clouds--inject-15"><path d="M398,88.91a19.82,19.82,0,0,1-3.92-.38c-2.12,6.73-9.19,11.68-17.6,11.68a19.91,19.91,0,0,1-11-3.24,12.27,12.27,0,0,1-11.59,8.9A12.12,12.12,0,0,1,343.06,99a17.87,17.87,0,0,1-27.95-10.54c-5.35-.38-9.52-3.42-9.52-7.13,0-4,4.77-7.17,10.65-7.17a14.84,14.84,0,0,1,2,.13A17.91,17.91,0,0,1,342,69.87C344.31,63,351.75,58,360.59,58c8.28,0,15.33,4.39,18.09,10.56a19,19,0,0,1,12.16,6A19.13,19.13,0,0,1,398,73.26c7.09,0,12.83,3.5,12.83,7.82S405.07,88.91,398,88.91Z" style="fill:#c9c9c9"></path><path d="M353.85,106.37a12.55,12.55,0,0,1-11-6.66A18.38,18.38,0,0,1,314.7,88.9c-5.5-.52-9.61-3.74-9.61-7.6,0-4.64,6-8.35,13-7.57a18.4,18.4,0,0,1,23.68-4.6c2.65-6.86,10.3-11.59,18.86-11.59,8.08,0,15.44,4.25,18.43,10.6A19.42,19.42,0,0,1,391,74a19.7,19.7,0,0,1,7-1.23c7.35,0,13.33,3.73,13.33,8.32s-6,8.33-13.33,8.33a20.28,20.28,0,0,1-3.58-.31c-2.39,6.86-9.69,11.61-17.94,11.61a20.45,20.45,0,0,1-10.75-3A12.67,12.67,0,0,1,353.85,106.37Zm-10.79-7.9.12,0a.46.46,0,0,1,.33.26,11.6,11.6,0,0,0,10.34,6.62A11.72,11.72,0,0,0,365,96.83a.53.53,0,0,1,.31-.33.49.49,0,0,1,.44.06,19.48,19.48,0,0,0,10.75,3.15c8,0,15-4.66,17.12-11.33a.5.5,0,0,1,.57-.34,19.58,19.58,0,0,0,3.83.37c6.8,0,12.33-3.29,12.33-7.33s-5.53-7.32-12.33-7.32a18.38,18.38,0,0,0-7,1.29.51.51,0,0,1-.56-.13,18.41,18.41,0,0,0-11.84-5.82.49.49,0,0,1-.4-.29c-2.75-6.14-9.84-10.27-17.64-10.27-8.38,0-15.83,4.72-18.12,11.49a.51.51,0,0,1-.3.31.52.52,0,0,1-.44,0,17.44,17.44,0,0,0-9.18-2.62,17.26,17.26,0,0,0-13.88,6.89.49.49,0,0,1-.46.2c-6.42-.84-12.12,2.44-12.12,6.54,0,3.41,3.89,6.27,9.05,6.63a.51.51,0,0,1,.46.4,17.38,17.38,0,0,0,27.17,10.24A.53.53,0,0,1,343.06,98.47Z" style="fill:#263238"></path><path d="M301,118.91a19.82,19.82,0,0,1-3.92-.38c-2.12,6.73-9.18,11.69-17.6,11.69a20,20,0,0,1-11-3.24,12.28,12.28,0,0,1-11.59,8.89A12.12,12.12,0,0,1,246.1,129a17.87,17.87,0,0,1-27.95-10.54c-5.35-.38-9.52-3.42-9.52-7.13,0-4,4.77-7.17,10.65-7.17a16.62,16.62,0,0,1,2,.13A17.91,17.91,0,0,1,245,99.87C247.35,93,254.79,88,263.63,88c8.29,0,15.33,4.4,18.09,10.56a19,19,0,0,1,12.16,6,19.13,19.13,0,0,1,7.14-1.32c7.09,0,12.83,3.5,12.83,7.82S308.11,118.91,301,118.91Z" style="fill:#c9c9c9"></path><path d="M256.89,136.37a12.55,12.55,0,0,1-11-6.66,18.38,18.38,0,0,1-28.18-10.81c-5.5-.52-9.61-3.74-9.61-7.6,0-4.64,6-8.34,13-7.57a18.25,18.25,0,0,1,14.5-7.06,18.47,18.47,0,0,1,9.19,2.46c2.64-6.85,10.29-11.59,18.85-11.59,8.08,0,15.44,4.25,18.43,10.6A19.42,19.42,0,0,1,294,104a19.7,19.7,0,0,1,7-1.23c7.35,0,13.33,3.73,13.33,8.32s-6,8.33-13.33,8.33a20.28,20.28,0,0,1-3.58-.31c-2.39,6.86-9.69,11.62-17.94,11.62a20.46,20.46,0,0,1-10.75-3A12.66,12.66,0,0,1,256.89,136.37Zm-10.79-7.9.12,0a.46.46,0,0,1,.33.26,11.6,11.6,0,0,0,10.34,6.62A11.72,11.72,0,0,0,268,126.83a.51.51,0,0,1,.31-.33.49.49,0,0,1,.44.06,19.49,19.49,0,0,0,10.75,3.16c8,0,15-4.66,17.12-11.34a.52.52,0,0,1,.57-.34,19.58,19.58,0,0,0,3.83.37c6.8,0,12.33-3.29,12.33-7.33s-5.53-7.32-12.33-7.32a18.38,18.38,0,0,0-6.95,1.29.5.5,0,0,1-.56-.13,18.41,18.41,0,0,0-11.84-5.82.49.49,0,0,1-.4-.29c-2.75-6.14-9.84-10.27-17.64-10.27-8.38,0-15.83,4.72-18.12,11.49a.51.51,0,0,1-.3.31.5.5,0,0,1-.43,0,17.5,17.5,0,0,0-9.19-2.62,17.26,17.26,0,0,0-13.88,6.89.49.49,0,0,1-.46.2c-6.43-.84-12.12,2.44-12.12,6.54,0,3.42,3.89,6.27,9.06,6.64a.49.49,0,0,1,.45.39,17.38,17.38,0,0,0,27.17,10.24A.53.53,0,0,1,246.1,128.47Z" style="fill:#263238"></path><path d="M302.84,71.44a14.47,14.47,0,0,1-2.84-.28c-1.53,4.87-6.63,8.45-12.71,8.45a14.48,14.48,0,0,1-8-2.34A8.87,8.87,0,0,1,271,83.69a8.75,8.75,0,0,1-7.8-5A12.92,12.92,0,0,1,243,71.09c-3.87-.27-6.88-2.47-6.88-5.15,0-2.87,3.44-5.19,7.7-5.19a11.83,11.83,0,0,1,1.47.1,12.94,12.94,0,0,1,17.14-3.17c1.67-4.94,7.05-8.55,13.44-8.55,6,0,11.08,3.17,13.07,7.63a13.79,13.79,0,0,1,8.79,4.32,13.79,13.79,0,0,1,5.16-1c5.12,0,9.27,2.54,9.27,5.66S308,71.44,302.84,71.44Z" style="fill:#c9c9c9"></path><path d="M271,84.19a9.19,9.19,0,0,1-8-4.75,13.42,13.42,0,0,1-20.43-7.88c-4-.41-7-2.78-7-5.62,0-3.42,4.41-6.15,9.44-5.62a13.33,13.33,0,0,1,10.54-5.09,13.5,13.5,0,0,1,6.57,1.71c2-4.92,7.52-8.31,13.7-8.31,5.86,0,11.21,3.07,13.41,7.67a14.1,14.1,0,0,1,8.58,4.19,14.44,14.44,0,0,1,5-.87c5.39,0,9.77,2.77,9.77,6.16s-4.38,6.16-9.77,6.16a14.89,14.89,0,0,1-2.5-.21c-1.78,5-7.08,8.38-13,8.38a15,15,0,0,1-7.7-2.08A9.29,9.29,0,0,1,271,84.19Zm-7.8-6,.12,0a.51.51,0,0,1,.33.26,8.24,8.24,0,0,0,7.35,4.7,8.33,8.33,0,0,0,7.89-6.07.53.53,0,0,1,.31-.33.49.49,0,0,1,.44.06,13.9,13.9,0,0,0,7.7,2.26c5.71,0,10.74-3.33,12.24-8.09a.51.51,0,0,1,.57-.35,13.84,13.84,0,0,0,2.74.27c4.84,0,8.77-2.32,8.77-5.16s-3.93-5.16-8.77-5.16a13.09,13.09,0,0,0-5,.93.49.49,0,0,1-.56-.13,13.13,13.13,0,0,0-8.47-4.16.49.49,0,0,1-.4-.29c-2-4.39-7-7.34-12.62-7.34-6,0-11.33,3.37-13,8.21a.51.51,0,0,1-.3.31.5.5,0,0,1-.43,0,12.47,12.47,0,0,0-16.49,3,.51.51,0,0,1-.46.2c-4.53-.59-8.6,1.71-8.6,4.59,0,2.35,2.82,4.4,6.41,4.65a.51.51,0,0,1,.46.4,12.43,12.43,0,0,0,19.42,7.32A.45.45,0,0,1,263.15,78.21Z" style="fill:#263238"></path><path d="M343.71,152.31a15.1,15.1,0,0,1-2.83-.27c-1.53,4.86-6.64,8.44-12.72,8.44a14.48,14.48,0,0,1-8-2.34,8.85,8.85,0,0,1-8.37,6.42,8.75,8.75,0,0,1-7.8-5,12.92,12.92,0,0,1-20.2-7.61c-3.87-.28-6.88-2.48-6.88-5.16,0-2.86,3.45-5.18,7.7-5.18a11.84,11.84,0,0,1,1.47.09,12.94,12.94,0,0,1,17.14-3.17c1.67-4.93,7.05-8.55,13.44-8.55,6,0,11.08,3.18,13.07,7.63a13.75,13.75,0,0,1,8.79,4.33,13.6,13.6,0,0,1,5.16-1c5.12,0,9.27,2.53,9.27,5.65S348.83,152.31,343.71,152.31Z" style="fill:#c9c9c9"></path><path d="M311.82,165.06a9.16,9.16,0,0,1-8-4.75,13.43,13.43,0,0,1-20.44-7.88c-4-.41-7-2.78-7-5.62,0-3.42,4.35-6.16,9.44-5.62a13.33,13.33,0,0,1,10.54-5.09,13.5,13.5,0,0,1,6.57,1.71c2-4.92,7.52-8.31,13.7-8.31,5.86,0,11.21,3.07,13.41,7.67a14.16,14.16,0,0,1,8.58,4.2,14.44,14.44,0,0,1,5-.87c5.39,0,9.77,2.76,9.77,6.15s-4.38,6.16-9.77,6.16a16,16,0,0,1-2.5-.2c-1.78,4.95-7.08,8.37-13,8.37a15,15,0,0,1-7.7-2.08A9.29,9.29,0,0,1,311.82,165.06Zm-7.8-6,.12,0a.51.51,0,0,1,.33.26,8.24,8.24,0,0,0,7.35,4.7,8.33,8.33,0,0,0,7.89-6.07.49.49,0,0,1,.31-.32.51.51,0,0,1,.45.05,13.84,13.84,0,0,0,7.69,2.26c5.71,0,10.74-3.33,12.24-8.09a.49.49,0,0,1,.57-.34,14.63,14.63,0,0,0,2.74.26c4.84,0,8.77-2.31,8.77-5.16s-3.93-5.15-8.77-5.15a13.28,13.28,0,0,0-5,.92.49.49,0,0,1-.56-.13,13.18,13.18,0,0,0-8.47-4.16.49.49,0,0,1-.4-.29c-2-4.39-7-7.34-12.62-7.34-6,0-11.33,3.38-13,8.21a.53.53,0,0,1-.31.31A.5.5,0,0,1,303,139a12.52,12.52,0,0,0-6.57-1.87,12.31,12.31,0,0,0-9.91,4.92.51.51,0,0,1-.47.2c-4.6-.6-8.6,1.71-8.6,4.59,0,2.36,2.82,4.4,6.42,4.66a.49.49,0,0,1,.45.39,12.43,12.43,0,0,0,19.42,7.32A.53.53,0,0,1,304,159.08Z" style="fill:#263238"></path></g></svg>