<?xml version="1.0" encoding="UTF-8"?>
<svg id="Layer_3" data-name="Layer 3" xmlns="http://www.w3.org/2000/svg" xmlns:xlink="http://www.w3.org/1999/xlink" viewBox="0 0 33.51 33.12">
  <defs>
    <style>
      .cls-1 {
        fill: url(#linear-gradient-2);
      }

      .cls-2 {
        fill: #fff;
      }

      .cls-3 {
        fill: url(#linear-gradient-3);
      }

      .cls-4 {
        fill: url(#linear-gradient);
      }
    </style>
    <linearGradient id="linear-gradient" x1=".23" y1="16.47" x2="32.86" y2="16.47" gradientUnits="userSpaceOnUse">
      <stop offset="0" stop-color="#2196f3"/>
      <stop offset=".13" stop-color="#268cef"/>
      <stop offset=".33" stop-color="#3473e5"/>
      <stop offset=".6" stop-color="#4b49d4"/>
      <stop offset=".91" stop-color="#6a10be"/>
      <stop offset=".99" stop-color="#7400b8"/>
    </linearGradient>
    <linearGradient id="linear-gradient-2" x1="12.76" y1="13.84" x2="19.37" y2="13.84" gradientUnits="userSpaceOnUse">
      <stop offset="0" stop-color="#2196f3"/>
      <stop offset=".13" stop-color="#268cef"/>
      <stop offset=".33" stop-color="#3473e5"/>
      <stop offset=".6" stop-color="#4b49d4"/>
      <stop offset=".91" stop-color="#6a10be"/>
      <stop offset=".99" stop-color="#7400b8"/>
    </linearGradient>
    <linearGradient id="linear-gradient-3" x1="14.72" y1="18.24" x2="17.37" y2="18.24" xlink:href="#linear-gradient-2"/>
  </defs>
  <g id="Icon">
    <rect id="ronded" class="cls-2" x=".74" y=".54" width="32.03" height="32.03" rx="15.05" ry="15.05"/>
    <path class="cls-4" d="M32.86,16.47c0,.54-.03,1.07-.08,1.59t0,0c-.19,1.93-.71,3.76-1.51,5.44-2.63,5.49-8.23,9.28-14.72,9.28C7.54,32.79,.23,25.48,.23,16.47S7.54,.16,16.54,.16c2.1,0,4.1,.4,5.94,1.12-.84,.57-1.65,1.21-2.43,1.93-.7,.64-1.34,1.31-1.92,2.01-.92,1.09-1.69,2.24-2.32,3.41-4.01,.37-7.16,3.74-7.16,7.85,0,4.36,3.53,7.89,7.89,7.89,.62,0,1.23-.07,1.81-.21,1.36-.32,2.59-1,3.58-1.92,1.53-1.44,2.49-3.48,2.49-5.75,0-3.21-1.92-5.97-4.67-7.2,.16-1.23,.43-2.39,.77-3.46,.57-1.79,1.37-3.3,2.32-4.39,5.88,2.46,10.01,8.28,10.01,15.05Z"/>
    <rect class="cls-1" x="12.76" y="12.58" width="6.61" height="2.52"/>
    <rect class="cls-3" x="14.72" y="15.1" width="2.66" height="6.26"/>
  </g>
</svg>