<?xml version="1.0" encoding="UTF-8"?>
<svg id="Layer_1" data-name="Layer 1" xmlns="http://www.w3.org/2000/svg" xmlns:xlink="http://www.w3.org/1999/xlink" viewBox="0 0 33.51 33.12">
  <defs>
    <style>
      .cls-1 {
        fill: url(#linear-gradient-2);
      }

      .cls-2 {
        fill: #fff;
      }

      .cls-3 {
        fill: url(#linear-gradient-3);
      }

      .cls-4 {
        fill: url(#linear-gradient);
      }

      .cls-5 {
        fill: url(#linear-gradient-4);
      }
    </style>
    <linearGradient id="linear-gradient" x1="6.23" y1="13.43" x2="15.08" y2="23.69" gradientUnits="userSpaceOnUse">
      <stop offset="0" stop-color="#7400b8"/>
      <stop offset="1" stop-color="#2196f3"/>
    </linearGradient>
    <linearGradient id="linear-gradient-2" x1="27.5" y1="18.74" x2="20.66" y2="12.3" xlink:href="#linear-gradient"/>
    <linearGradient id="linear-gradient-3" x1="7.9" y1="11.72" x2="24.84" y2="11.72" gradientUnits="userSpaceOnUse">
      <stop offset="0" stop-color="#7400b8"/>
      <stop offset="1" stop-color="#2196f3"/>
    </linearGradient>
    <linearGradient id="linear-gradient-4" x1="8.67" y1="21.4" x2="25.61" y2="21.4" xlink:href="#linear-gradient-3"/>
  </defs>
  <circle class="cls-2" cx="16.97" cy="16.35" r="15.1"/>
  <g>
    <path class="cls-4" d="M20.38,20.19c-.76,1.69-2.04,3.1-3.63,4.03t0,0c-1.31,.76-2.83,1.2-4.45,1.2-1.29,0-2.52-.28-3.63-.78h0c-3.01-1.35-5.13-4.34-5.22-7.82,0-.09,0-.17,0-.26s0-.17,0-.26c.1-3.49,2.22-6.47,5.22-7.82-.5,1.11-.77,2.33-.77,3.63,0,1.62,.44,3.14,1.2,4.45h0c.93,1.59,2.34,2.87,4.03,3.63h0c1.11,.5,2.33,.78,3.63,.78s2.52-.28,3.63-.78Z"/>
    <path class="cls-1" d="M30.06,16.56c0,.09,0,.17,0,.26-.1,3.49-2.22,6.47-5.22,7.82,.5-1.11,.77-2.34,.77-3.63,0-1.62-.44-3.14-1.2-4.45h0c-.93-1.59-2.34-2.87-4.03-3.63-1.11-.5-2.33-.77-3.63-.77s-2.52,.28-3.63,.77c.76-1.69,2.04-3.1,3.63-4.03h0c1.31-.76,2.83-1.2,4.45-1.2,1.29,0,2.52,.28,3.63,.78,3.01,1.35,5.12,4.34,5.22,7.82,0,.09,0,.17,0,.26Z"/>
    <path class="cls-3" d="M24.84,8.48c-1.11-.5-2.34-.78-3.63-.78-1.62,0-3.14,.44-4.45,1.2h0c-1.59,.93-2.87,2.34-3.63,4.03-.5,1.11-.78,2.34-.78,3.63s.28,2.52,.77,3.63c-1.69-.76-3.1-2.04-4.03-3.63h0c-.76-1.31-1.2-2.83-1.2-4.45,0-1.29,.28-2.52,.77-3.63,1.35-3.01,4.34-5.13,7.83-5.23,.09,0,.17,0,.26,0s.17,0,.26,0c3.49,.1,6.47,2.22,7.83,5.23Z"/>
    <path class="cls-5" d="M25.61,21.01c0,1.29-.28,2.52-.77,3.63-1.35,3.01-4.34,5.13-7.83,5.23-.09,0-.17,0-.26,0s-.17,0-.26,0c-3.49-.1-6.47-2.22-7.82-5.23,1.11,.5,2.33,.78,3.63,.78,1.62,0,3.14-.44,4.45-1.2t0,0c1.59-.93,2.87-2.34,3.63-4.03,.5-1.11,.77-2.33,.77-3.63s-.28-2.52-.77-3.63c1.69,.76,3.1,2.04,4.03,3.63h0c.76,1.31,1.2,2.83,1.2,4.45Z"/>
  </g>
</svg>