<svg width="79" height="76" viewBox="0 0 79 76" fill="none" xmlns="http://www.w3.org/2000/svg">
<path d="M6.15384 72.9882V15.0317L13.4762 7.07693H78.1573V43.4418C71.2417 51.0178 56.9224 67.5335 54.9697 72.9882C53.0171 78.4429 21.6122 75.261 6.15384 72.9882Z" fill="#2196F3" fill-opacity="0.29"/>
<path d="M0 69.9112V11.9548L7.32238 4H72.0034V40.3648C65.0878 47.9408 50.7685 64.4565 48.8159 69.9112C46.8633 75.366 15.4584 72.184 0 69.9112Z" fill="#2196F3"/>
<path d="M0 69.9112V11.9548L7.32238 4H72.0034V40.3648C65.0878 47.9408 50.7685 64.4565 48.8159 69.9112C46.8633 75.366 15.4584 72.184 0 69.9112Z" fill="#7121F3"/>
<path d="M14.1538 24.5909V15.4545H53.4948V24.5909H39.3811V62H28.2902V24.5909H14.1538Z" fill="white"/>
</svg>
