<?xml version="1.0" encoding="UTF-8"?>
<svg id="Layer_3" data-name="Layer 3" xmlns="http://www.w3.org/2000/svg" xmlns:xlink="http://www.w3.org/1999/xlink" viewBox="0 0 33.51 33.12">
  <defs>
    <style>
      .cls-1 {
        fill: #fff;
      }

      .cls-2 {
        fill: url(#linear-gradient);
      }
    </style>
    <linearGradient id="linear-gradient" x1="1.72" y1="16.48" x2="31.41" y2="16.48" gradientUnits="userSpaceOnUse">
      <stop offset="0" stop-color="#2196f3"/>
      <stop offset=".13" stop-color="#268cef"/>
      <stop offset=".33" stop-color="#3473e5"/>
      <stop offset=".6" stop-color="#4b49d4"/>
      <stop offset=".91" stop-color="#6a10be"/>
      <stop offset=".99" stop-color="#7400b8"/>
    </linearGradient>
  </defs>
  <rect class="cls-1" x=".3" y=".22" width="32.53" height="32.53" rx="15.05" ry="15.05"/>
  <path class="cls-2" d="M31.41,16.48c0,.49-.02,.97-.07,1.45t0,0c-.17,1.76-.65,3.42-1.38,4.95-2.39,5-7.49,8.45-13.4,8.45-8.2,0-14.85-6.65-14.85-14.85S8.36,1.64,16.56,1.64c1.91,0,3.73,.36,5.41,1.02-.76,.52-1.5,1.1-2.21,1.75-.63,.58-1.22,1.19-1.75,1.83-.84,.99-1.54,2.04-2.11,3.11-3.65,.33-6.51,3.41-6.51,7.14,0,3.96,3.21,7.18,7.18,7.18,.57,0,1.12-.07,1.65-.19,1.24-.29,2.36-.91,3.26-1.75,1.4-1.31,2.27-3.17,2.27-5.24,0-2.92-1.75-5.44-4.25-6.55,.15-1.12,.39-2.18,.7-3.15,.52-1.63,1.25-3,2.11-4,5.35,2.24,9.11,7.53,9.11,13.7Z"/>
</svg>